<?xml version="1.0" encoding="UTF-8" standalone="no"?>
<svg xmlns:svg="http://www.w3.org/2000/svg"
     xmlns="http://www.w3.org/2000/svg" version="1.1"
     width="360.0" height="185.0">
    <!-- Created with parliamentarch (https://github.com/Gouvernathor/parliamentarch/) -->
    <text x="180.0" y="175.0"
          style="font-size:36px;font-weight:bold;text-align:center;text-anchor:middle;font-family:sans-serif">99</text>
    <g style="fill:#4bb166"
       id="0-P-V">
        <title>PÉV</title>
        <circle cx="15.01" cy="170.28" r="7.78"/>
        <circle cx="34.49" cy="170.28" r="7.78"/>
        <circle cx="53.99" cy="170.28" r="7.78"/>
        <circle cx="73.50" cy="170.28" r="7.78"/>
        <circle cx="93.04" cy="170.28" r="7.78"/>
        <circle cx="17.54" cy="149.62" r="7.78"/>
        <circle cx="37.17" cy="150.53" r="7.78"/>
    </g>
    <g style="fill:#b50909"
       id="1-PS">
        <title>PS</title>
        <circle cx="57.06" cy="150.66" r="7.78"/>
        <circle cx="77.10" cy="150.86" r="7.78"/>
        <circle cx="22.64" cy="129.45" r="7.78"/>
        <circle cx="97.39" cy="151.16" r="7.78"/>
        <circle cx="42.52" cy="131.34" r="7.78"/>
        <circle cx="63.17" cy="131.78" r="7.78"/>
        <circle cx="30.24" cy="110.07" r="7.78"/>
    </g>
    <g style="fill:#c91218"
       id="2-PSD-">
        <title>PSD+</title>
    </g>
    <g style="fill:#56277e"
       id="3-LTI">
        <title>LTI</title>
        <circle cx="84.22" cy="132.43" r="7.78"/>
        <circle cx="50.44" cy="113.06" r="7.78"/>
        <circle cx="72.17" cy="114.08" r="7.78"/>
    </g>
    <g style="fill:#255e4b"
       id="4-PPI">
        <title>PPI</title>
        <circle cx="105.88" cy="133.49" r="7.78"/>
        <circle cx="40.22" cy="91.81" r="7.78"/>
        <circle cx="60.77" cy="96.02" r="7.78"/>
        <circle cx="94.60" cy="115.62" r="7.78"/>
    </g>
    <g style="fill:#e7511e"
       id="5-ADLR">
        <title>ADLR</title>
        <circle cx="52.41" cy="74.94" r="7.78"/>
        <circle cx="83.82" cy="98.00" r="7.78"/>
        <circle cx="73.33" cy="80.55" r="7.78"/>
        <circle cx="118.10" cy="118.16" r="7.78"/>
    </g>
    <g style="fill:#f2a200"
       id="6-NTEA">
        <title>NTEA</title>
        <circle cx="66.62" cy="59.74" r="7.78"/>
        <circle cx="107.90" cy="101.02" r="7.78"/>
        <circle cx="97.85" cy="83.95" r="7.78"/>
        <circle cx="87.89" cy="66.94" r="7.78"/>
        <circle cx="82.63" cy="46.45" r="7.78"/>
        <circle cx="133.42" cy="105.93" r="7.78"/>
        <circle cx="123.65" cy="89.10" r="7.78"/>
        <circle cx="113.90" cy="72.27" r="7.78"/>
        <circle cx="104.16" cy="55.44" r="7.78"/>
        <circle cx="100.19" cy="35.27" r="7.78"/>
        <circle cx="121.84" cy="46.27" r="7.78"/>
        <circle cx="131.59" cy="63.25" r="7.78"/>
    </g>
    <g style="fill:#e87c00"
       id="7-FFT">
        <title>FFT</title>
        <circle cx="119.00" cy="26.39" r="7.78"/>
        <circle cx="141.33" cy="80.29" r="7.78"/>
    </g>
    <g style="fill:#365f91"
       id="8-RPNR">
        <title>RPNR</title>
        <circle cx="151.08" cy="97.42" r="7.78"/>
        <circle cx="140.61" cy="39.59" r="7.78"/>
        <circle cx="138.79" cy="19.94" r="7.78"/>
        <circle cx="150.47" cy="57.11" r="7.78"/>
        <circle cx="160.33" cy="74.88" r="7.78"/>
        <circle cx="160.12" cy="35.53" r="7.78"/>
        <circle cx="159.23" cy="16.03" r="7.78"/>
        <circle cx="170.20" cy="93.05" r="7.78"/>
        <circle cx="170.07" cy="54.00" r="7.78"/>
        <circle cx="180.00" cy="34.17" r="7.78"/>
        <circle cx="180.00" cy="73.06" r="7.78"/>
        <circle cx="180.00" cy="14.72" r="7.78"/>
        <circle cx="189.93" cy="54.00" r="7.78"/>
        <circle cx="189.80" cy="93.05" r="7.78"/>
        <circle cx="200.77" cy="16.03" r="7.78"/>
        <circle cx="199.88" cy="35.53" r="7.78"/>
        <circle cx="199.67" cy="74.88" r="7.78"/>
        <circle cx="209.53" cy="57.11" r="7.78"/>
        <circle cx="221.21" cy="19.94" r="7.78"/>
        <circle cx="219.39" cy="39.59" r="7.78"/>
        <circle cx="208.92" cy="97.42" r="7.78"/>
        <circle cx="218.67" cy="80.29" r="7.78"/>
        <circle cx="241.00" cy="26.39" r="7.78"/>
        <circle cx="228.41" cy="63.25" r="7.78"/>
        <circle cx="238.16" cy="46.27" r="7.78"/>
        <circle cx="259.81" cy="35.27" r="7.78"/>
        <circle cx="255.84" cy="55.44" r="7.78"/>
        <circle cx="246.10" cy="72.27" r="7.78"/>
        <circle cx="236.35" cy="89.10" r="7.78"/>
        <circle cx="226.58" cy="105.93" r="7.78"/>
        <circle cx="277.37" cy="46.45" r="7.78"/>
        <circle cx="272.11" cy="66.94" r="7.78"/>
        <circle cx="262.15" cy="83.95" r="7.78"/>
        <circle cx="252.10" cy="101.02" r="7.78"/>
        <circle cx="293.38" cy="59.74" r="7.78"/>
        <circle cx="241.90" cy="118.16" r="7.78"/>
    </g>
    <g style="fill:#212973"
       id="9-PRN">
        <title>PRN</title>
        <circle cx="286.67" cy="80.55" r="7.78"/>
        <circle cx="276.18" cy="98.00" r="7.78"/>
        <circle cx="307.59" cy="74.94" r="7.78"/>
        <circle cx="265.40" cy="115.62" r="7.78"/>
        <circle cx="299.23" cy="96.02" r="7.78"/>
        <circle cx="319.78" cy="91.81" r="7.78"/>
        <circle cx="254.12" cy="133.49" r="7.78"/>
        <circle cx="287.83" cy="114.08" r="7.78"/>
        <circle cx="309.56" cy="113.06" r="7.78"/>
        <circle cx="275.78" cy="132.43" r="7.78"/>
        <circle cx="329.76" cy="110.07" r="7.78"/>
        <circle cx="296.83" cy="131.78" r="7.78"/>
        <circle cx="317.48" cy="131.34" r="7.78"/>
        <circle cx="262.61" cy="151.16" r="7.78"/>
        <circle cx="337.36" cy="129.45" r="7.78"/>
        <circle cx="282.90" cy="150.86" r="7.78"/>
        <circle cx="302.94" cy="150.66" r="7.78"/>
        <circle cx="322.83" cy="150.53" r="7.78"/>
        <circle cx="342.46" cy="149.62" r="7.78"/>
        <circle cx="266.96" cy="170.28" r="7.78"/>
        <circle cx="286.50" cy="170.28" r="7.78"/>
    </g>
    <g style="fill:#2b3e57"
       id="10-NDC">
        <title>NDC</title>
        <circle cx="306.01" cy="170.28" r="7.78"/>
        <circle cx="325.51" cy="170.28" r="7.78"/>
        <circle cx="344.99" cy="170.28" r="7.78"/>
    </g>
    <g style="fill:#ffffff; stroke-width:1.94; stroke:#000000"
       id="11-Vacant">
        <title>Vacant</title>
    </g>
</svg>

