<?xml version="1.0" encoding="UTF-8" standalone="no"?>
<svg
   version="1.1"
   width="360.0"
   height="185.0"
   id="svg99"
   sodipodi:docname="newannex1.svg"
   inkscape:version="1.4.2 (f4327f4, 2025-05-13)"
   xmlns:inkscape="http://www.inkscape.org/namespaces/inkscape"
   xmlns:sodipodi="http://sodipodi.sourceforge.net/DTD/sodipodi-0.dtd"
   xmlns="http://www.w3.org/2000/svg"
   xmlns:svg="http://www.w3.org/2000/svg">
  <defs
     id="defs99" />
  <sodipodi:namedview
     id="namedview99"
     pagecolor="#505050"
     bordercolor="#ffffff"
     borderopacity="1"
     inkscape:showpageshadow="0"
     inkscape:pageopacity="0"
     inkscape:pagecheckerboard="1"
     inkscape:deskcolor="#505050"
     inkscape:zoom="2.2513514"
     inkscape:cx="179.89196"
     inkscape:cy="92.611044"
     inkscape:window-width="1920"
     inkscape:window-height="1051"
     inkscape:window-x="-9"
     inkscape:window-y="-9"
     inkscape:window-maximized="1"
     inkscape:current-layer="svg99" />
  <!-- Created with parliamentarch (https://github.com/Gouvernathor/parliamentarch/) -->
  <text
     x="180.0"
     y="175.0"
     style="font-size:36px;font-weight:bold;text-align:center;text-anchor:middle;font-family:sans-serif"
     id="text1">99</text>
  <path
     id="circle1"
     d="m 27.675954,162.2848 a 7.7800002,7.7800002 0 0 1 -7.78,7.78 7.7800002,7.7800002 0 0 1 -7.78,-7.78 7.7800002,7.7800002 0 0 1 7.78,-7.78 7.7800002,7.7800002 0 0 1 7.78,7.78 z"
     style="fill:#4bb166" />
  <path
     id="circle2"
     d="m 47.155956,162.2848 a 7.7800002,7.7800002 0 0 1 -7.78,7.78 7.7800002,7.7800002 0 0 1 -7.780001,-7.78 7.7800002,7.7800002 0 0 1 7.780001,-7.78 7.7800002,7.7800002 0 0 1 7.78,7.78 z"
     style="fill:#4bb166" />
  <path
     id="circle3"
     d="m 66.655956,162.2848 a 7.7800002,7.7800002 0 0 1 -7.78,7.78 7.7800002,7.7800002 0 0 1 -7.780001,-7.78 7.7800002,7.7800002 0 0 1 7.780001,-7.78 7.7800002,7.7800002 0 0 1 7.78,7.78 z"
     style="fill:#4bb166" />
  <path
     id="circle4"
     d="m 86.165954,162.2848 a 7.7800002,7.7800002 0 0 1 -7.78,7.78 7.7800002,7.7800002 0 0 1 -7.78,-7.78 7.7800002,7.7800002 0 0 1 7.78,-7.78 7.7800002,7.7800002 0 0 1 7.78,7.78 z"
     style="fill:#4bb166" />
  <path
     id="circle5"
     d="m 105.70595,162.2848 a 7.7800002,7.7800002 0 0 1 -7.779995,7.78 7.7800002,7.7800002 0 0 1 -7.78,-7.78 7.7800002,7.7800002 0 0 1 7.78,-7.78 7.7800002,7.7800002 0 0 1 7.779995,7.78 z"
     style="fill:#4bb166" />
  <path
     id="circle6"
     d="m 30.205955,141.6248 a 7.7800002,7.7800002 0 0 1 -7.78,7.78 7.7800002,7.7800002 0 0 1 -7.78,-7.78 7.7800002,7.7800002 0 0 1 7.78,-7.78001 7.7800002,7.7800002 0 0 1 7.78,7.78001 z"
     style="fill:#4bb166" />
  <path
     id="circle7"
     d="m 49.835952,142.5348 a 7.7800002,7.7800002 0 0 1 -7.78,7.78 7.7800002,7.7800002 0 0 1 -7.78,-7.78 7.7800002,7.7800002 0 0 1 7.78,-7.78 7.7800002,7.7800002 0 0 1 7.78,7.78 z"
     style="fill:#4bb166" />
  <path
     id="circle8"
     d="m 69.725956,142.6648 a 7.7800002,7.7800002 0 0 1 -7.780001,7.78 7.7800002,7.7800002 0 0 1 -7.78,-7.78 7.7800002,7.7800002 0 0 1 7.78,-7.78 7.7800002,7.7800002 0 0 1 7.780001,7.78 z"
     style="fill:#b50909" />
  <path
     id="circle9"
     d="m 89.765953,142.8648 a 7.7800002,7.7800002 0 0 1 -7.780001,7.78 7.7800002,7.7800002 0 0 1 -7.78,-7.78 7.7800002,7.7800002 0 0 1 7.78,-7.78 7.7800002,7.7800002 0 0 1 7.780001,7.78 z"
     style="fill:#b50909" />
  <path
     id="circle10"
     d="m 35.305954,121.4548 a 7.7800002,7.7800002 0 0 1 -7.780001,7.78 7.7800002,7.7800002 0 0 1 -7.78,-7.78 7.7800002,7.7800002 0 0 1 7.78,-7.78 7.7800002,7.7800002 0 0 1 7.780001,7.78 z"
     style="fill:#b50909" />
  <path
     id="circle11"
     d="m 110.05595,143.1648 a 7.7800002,7.7800002 0 0 1 -7.78,7.78 7.7800002,7.7800002 0 0 1 -7.779997,-7.78 7.7800002,7.7800002 0 0 1 7.779997,-7.78 7.7800002,7.7800002 0 0 1 7.78,7.78 z"
     style="fill:#b50909" />
  <path
     id="circle12"
     d="m 55.185955,123.3448 a 7.7800002,7.7800002 0 0 1 -7.780001,7.78 7.7800002,7.7800002 0 0 1 -7.78,-7.78 7.7800002,7.7800002 0 0 1 7.78,-7.78 7.7800002,7.7800002 0 0 1 7.780001,7.78 z"
     style="fill:#b50909" />
  <path
     id="circle13"
     d="m 75.835952,123.7848 a 7.7800002,7.7800002 0 0 1 -7.78,7.78 7.7800002,7.7800002 0 0 1 -7.78,-7.78 7.7800002,7.7800002 0 0 1 7.78,-7.78 7.7800002,7.7800002 0 0 1 7.78,7.78 z"
     style="fill:#b50909" />
  <path
     id="circle14"
     d="m 42.905954,102.0748 a 7.7800002,7.7800002 0 0 1 -7.78,7.78 7.7800002,7.7800002 0 0 1 -7.78,-7.78 7.7800002,7.7800002 0 0 1 7.78,-7.779998 7.7800002,7.7800002 0 0 1 7.78,7.779998 z"
     style="fill:#b50909" />
  <path
     id="circle15"
     d="m 96.885955,124.43479 a 7.7800002,7.7800002 0 0 1 -7.78,7.78 7.7800002,7.7800002 0 0 1 -7.78,-7.78 7.7800002,7.7800002 0 0 1 7.78,-7.78 7.7800002,7.7800002 0 0 1 7.78,7.78 z"
     style="fill:#56277e" />
  <path
     id="circle16"
     d="m 63.105953,105.0648 a 7.7800002,7.7800002 0 0 1 -7.78,7.78 7.7800002,7.7800002 0 0 1 -7.780001,-7.78 7.7800002,7.7800002 0 0 1 7.780001,-7.779998 7.7800002,7.7800002 0 0 1 7.78,7.779998 z"
     style="fill:#56277e" />
  <path
     id="circle17"
     d="m 84.835952,106.0848 a 7.7800002,7.7800002 0 0 1 -7.78,7.78 7.7800002,7.7800002 0 0 1 -7.78,-7.78 7.7800002,7.7800002 0 0 1 7.78,-7.779998 7.7800002,7.7800002 0 0 1 7.78,7.779998 z"
     style="fill:#56277e" />
  <path
     id="circle18"
     d="m 118.54595,125.49481 a 7.7800002,7.7800002 0 0 1 -7.78,7.78 7.7800002,7.7800002 0 0 1 -7.78,-7.78 7.7800002,7.7800002 0 0 1 7.78,-7.78 7.7800002,7.7800002 0 0 1 7.78,7.78 z"
     style="fill:#255e4b" />
  <path
     id="circle19"
     d="m 52.885955,83.8148 a 7.7800002,7.7800002 0 0 1 -7.78,7.78 7.7800002,7.7800002 0 0 1 -7.78,-7.78 7.7800002,7.7800002 0 0 1 7.78,-7.780001 7.7800002,7.7800002 0 0 1 7.78,7.780001 z"
     style="fill:#255e4b" />
  <path
     id="circle20"
     d="m 73.435955,88.024799 a 7.7800002,7.7800002 0 0 1 -7.780001,7.780003 7.7800002,7.7800002 0 0 1 -7.78,-7.780003 7.7800002,7.7800002 0 0 1 7.78,-7.780001 7.7800002,7.7800002 0 0 1 7.780001,7.780001 z"
     style="fill:#255e4b" />
  <path
     id="circle21"
     d="m 107.26595,107.6248 a 7.7800002,7.7800002 0 0 1 -7.779998,7.78 7.7800002,7.7800002 0 0 1 -7.78,-7.78 7.7800002,7.7800002 0 0 1 7.78,-7.779998 7.7800002,7.7800002 0 0 1 7.779998,7.779998 z"
     style="fill:#255e4b" />
  <path
     id="circle22"
     d="m 65.075954,66.944804 a 7.7800002,7.7800002 0 0 1 -7.78,7.780001 7.7800002,7.7800002 0 0 1 -7.78,-7.780001 7.7800002,7.7800002 0 0 1 7.78,-7.78 7.7800002,7.7800002 0 0 1 7.78,7.78 z"
     style="fill:#e7511e" />
  <path
     id="circle23"
     d="m 96.485954,90.004802 a 7.7800002,7.7800002 0 0 1 -7.78,7.78 7.7800002,7.7800002 0 0 1 -7.780001,-7.78 7.7800002,7.7800002 0 0 1 7.780001,-7.78 7.7800002,7.7800002 0 0 1 7.78,7.78 z"
     style="fill:#e7511e" />
  <path
     id="circle24"
     d="m 85.995956,72.554805 a 7.7800002,7.7800002 0 0 1 -7.78,7.78 7.7800002,7.7800002 0 0 1 -7.78,-7.78 7.7800002,7.7800002 0 0 1 7.78,-7.78 7.7800002,7.7800002 0 0 1 7.78,7.78 z"
     style="fill:#e7511e" />
  <path
     id="circle25"
     d="m 130.76595,110.1648 a 7.7800002,7.7800002 0 0 1 -7.78,7.78 7.7800002,7.7800002 0 0 1 -7.78,-7.78 7.7800002,7.7800002 0 0 1 7.78,-7.78 7.7800002,7.7800002 0 0 1 7.78,7.78 z"
     style="fill:#e7511e" />
  <path
     id="circle26"
     d="m 79.285957,51.744804 a 7.7800002,7.7800002 0 0 1 -7.78,7.78 7.7800002,7.7800002 0 0 1 -7.78,-7.78 7.7800002,7.7800002 0 0 1 7.78,-7.780001 7.7800002,7.7800002 0 0 1 7.78,7.780001 z"
     style="fill:#f2a200" />
  <path
     id="circle27"
     d="m 120.56595,93.024802 a 7.7800002,7.7800002 0 0 1 -7.78,7.779998 7.7800002,7.7800002 0 0 1 -7.78,-7.779998 7.7800002,7.7800002 0 0 1 7.78,-7.780004 7.7800002,7.7800002 0 0 1 7.78,7.780004 z"
     style="fill:#f2a200" />
  <path
     id="circle28"
     d="m 110.51595,75.954799 a 7.7800002,7.7800002 0 0 1 -7.78,7.78 7.7800002,7.7800002 0 0 1 -7.779998,-7.78 7.7800002,7.7800002 0 0 1 7.779998,-7.78 7.7800002,7.7800002 0 0 1 7.78,7.78 z"
     style="fill:#f2a200" />
  <path
     id="circle29"
     d="m 100.55595,58.944804 a 7.7800002,7.7800002 0 0 1 -7.779997,7.780001 7.7800002,7.7800002 0 0 1 -7.78,-7.780001 7.7800002,7.7800002 0 0 1 7.78,-7.78 7.7800002,7.7800002 0 0 1 7.779997,7.78 z"
     style="fill:#f2a200" />
  <path
     id="circle30"
     d="m 95.295951,38.454803 a 7.7800002,7.7800002 0 0 1 -7.78,7.78 7.7800002,7.7800002 0 0 1 -7.78,-7.78 7.7800002,7.7800002 0 0 1 7.78,-7.78 7.7800002,7.7800002 0 0 1 7.78,7.78 z"
     style="fill:#f2a200" />
  <path
     id="circle31"
     d="m 146.08595,97.934802 a 7.7800002,7.7800002 0 0 1 -7.78,7.779998 7.7800002,7.7800002 0 0 1 -7.78,-7.779998 7.7800002,7.7800002 0 0 1 7.78,-7.78 7.7800002,7.7800002 0 0 1 7.78,7.78 z"
     style="fill:#f2a200" />
  <path
     id="circle32"
     d="m 136.31595,81.1048 a 7.7800002,7.7800002 0 0 1 -7.78,7.780001 7.7800002,7.7800002 0 0 1 -7.78,-7.780001 7.7800002,7.7800002 0 0 1 7.78,-7.78 7.7800002,7.7800002 0 0 1 7.78,7.78 z"
     style="fill:#f2a200" />
  <path
     id="circle33"
     d="m 126.56595,64.274799 a 7.7800002,7.7800002 0 0 1 -7.78,7.78 7.7800002,7.7800002 0 0 1 -7.78,-7.78 7.7800002,7.7800002 0 0 1 7.78,-7.780001 7.7800002,7.7800002 0 0 1 7.78,7.780001 z"
     style="fill:#f2a200" />
  <path
     id="circle34"
     d="m 116.82595,47.444801 a 7.7800002,7.7800002 0 0 1 -7.78,7.78 7.7800002,7.7800002 0 0 1 -7.77999,-7.78 7.7800002,7.7800002 0 0 1 7.77999,-7.780001 7.7800002,7.7800002 0 0 1 7.78,7.780001 z"
     style="fill:#f2a200" />
  <path
     id="circle35"
     d="m 112.85595,27.274802 a 7.7800002,7.7800002 0 0 1 -7.78,7.780001 7.7800002,7.7800002 0 0 1 -7.779994,-7.780001 7.7800002,7.7800002 0 0 1 7.779994,-7.78 7.7800002,7.7800002 0 0 1 7.78,7.78 z"
     style="fill:#f2a200" />
  <path
     id="circle36"
     d="m 134.50595,38.274802 a 7.7800002,7.7800002 0 0 1 -7.78,7.780001 7.7800002,7.7800002 0 0 1 -7.78,-7.780001 7.7800002,7.7800002 0 0 1 7.78,-7.78 7.7800002,7.7800002 0 0 1 7.78,7.78 z"
     style="fill:#f2a200" />
  <path
     id="circle37"
     d="m 144.25595,55.254802 a 7.7800002,7.7800002 0 0 1 -7.78,7.78 7.7800002,7.7800002 0 0 1 -7.78,-7.78 7.7800002,7.7800002 0 0 1 7.78,-7.78 7.7800002,7.7800002 0 0 1 7.78,7.78 z"
     style="fill:#f2a200" />
  <path
     id="circle38"
     d="m 131.66595,18.394801 a 7.7800002,7.7800002 0 0 1 -7.78,7.780001 7.7800002,7.7800002 0 0 1 -7.78,-7.780001 7.7800002,7.7800002 0 0 1 7.78,-7.78 7.7800002,7.7800002 0 0 1 7.78,7.78 z"
     style="fill:#e87c00" />
  <path
     id="circle39"
     d="m 153.99595,72.294803 a 7.7800002,7.7800002 0 0 1 -7.78,7.78 7.7800002,7.7800002 0 0 1 -7.78,-7.78 7.7800002,7.7800002 0 0 1 7.78,-7.78 7.7800002,7.7800002 0 0 1 7.78,7.78 z"
     style="fill:#e87c00" />
  <path
     id="circle40"
     d="m 163.74595,89.4248 a 7.7800002,7.7800002 0 0 1 -7.78,7.780002 7.7800002,7.7800002 0 0 1 -7.78,-7.780002 7.7800002,7.7800002 0 0 1 7.78,-7.78 7.7800002,7.7800002 0 0 1 7.78,7.78 z"
     style="fill:#365f91" />
  <path
     id="circle41"
     d="m 153.27595,31.594802 a 7.7800002,7.7800002 0 0 1 -7.78,7.78 7.7800002,7.7800002 0 0 1 -7.78,-7.78 7.7800002,7.7800002 0 0 1 7.78,-7.78 7.7800002,7.7800002 0 0 1 7.78,7.78 z"
     style="fill:#365f91" />
  <path
     id="circle42"
     d="m 151.45594,11.944803 a 7.7800002,7.7800002 0 0 1 -7.78,7.78 7.7800002,7.7800002 0 0 1 -7.78,-7.78 7.7800002,7.7800002 0 0 1 7.78,-7.7800011 7.7800002,7.7800002 0 0 1 7.78,7.7800011 z"
     style="fill:#365f91" />
  <path
     id="circle43"
     d="m 163.13595,49.114803 a 7.7800002,7.7800002 0 0 1 -7.78,7.78 7.7800002,7.7800002 0 0 1 -7.78,-7.78 7.7800002,7.7800002 0 0 1 7.78,-7.780001 7.7800002,7.7800002 0 0 1 7.78,7.780001 z"
     style="fill:#365f91" />
  <path
     id="circle44"
     d="m 172.99595,66.884799 a 7.7800002,7.7800002 0 0 1 -7.78,7.78 7.7800002,7.7800002 0 0 1 -7.78,-7.78 7.7800002,7.7800002 0 0 1 7.78,-7.78 7.7800002,7.7800002 0 0 1 7.78,7.78 z"
     style="fill:#365f91" />
  <path
     id="circle45"
     d="m 172.78595,27.534801 a 7.7800002,7.7800002 0 0 1 -7.78,7.78 7.7800002,7.7800002 0 0 1 -7.78001,-7.78 7.7800002,7.7800002 0 0 1 7.78001,-7.78 7.7800002,7.7800002 0 0 1 7.78,7.78 z"
     style="fill:#365f91" />
  <path
     id="circle46"
     d="m 171.89595,8.0348029 a 7.7800002,7.7800002 0 0 1 -7.78,7.7800001 7.7800002,7.7800002 0 0 1 -7.78,-7.7800001 7.7800002,7.7800002 0 0 1 7.78,-7.78000048 7.7800002,7.7800002 0 0 1 7.78,7.78000048 z"
     style="fill:#365f91" />
  <path
     id="circle47"
     d="m 182.86595,85.054805 a 7.7800002,7.7800002 0 0 1 -7.78,7.779997 7.7800002,7.7800002 0 0 1 -7.78,-7.779997 7.7800002,7.7800002 0 0 1 7.78,-7.78 7.7800002,7.7800002 0 0 1 7.78,7.78 z"
     style="fill:#365f91" />
  <path
     id="circle48"
     d="m 182.73596,46.004802 a 7.7800002,7.7800002 0 0 1 -7.78,7.78 7.7800002,7.7800002 0 0 1 -7.78,-7.78 7.7800002,7.7800002 0 0 1 7.78,-7.78 7.7800002,7.7800002 0 0 1 7.78,7.78 z"
     style="fill:#365f91" />
  <path
     id="circle49"
     d="m 192.66595,26.1748 a 7.7800002,7.7800002 0 0 1 -7.78,7.78 7.7800002,7.7800002 0 0 1 -7.78,-7.78 7.7800002,7.7800002 0 0 1 7.78,-7.78 7.7800002,7.7800002 0 0 1 7.78,7.78 z"
     style="fill:#365f91" />
  <path
     id="circle50"
     d="m 192.66595,65.0648 a 7.7800002,7.7800002 0 0 1 -7.78,7.78 7.7800002,7.7800002 0 0 1 -7.78,-7.78 7.7800002,7.7800002 0 0 1 7.78,-7.780001 7.7800002,7.7800002 0 0 1 7.78,7.780001 z"
     style="fill:#365f91" />
  <path
     id="circle51"
     d="m 192.66595,6.7248019 a 7.7800002,7.7800002 0 0 1 -7.78,7.7800001 7.7800002,7.7800002 0 0 1 -7.78,-7.7800001 7.7800002,7.7800002 0 0 1 7.78,-7.7799999 7.7800002,7.7800002 0 0 1 7.78,7.7799999 z"
     style="fill:#365f91" />
  <path
     id="circle52"
     d="m 202.59594,46.004802 a 7.7800002,7.7800002 0 0 1 -7.78,7.78 7.7800002,7.7800002 0 0 1 -7.78,-7.78 7.7800002,7.7800002 0 0 1 7.78,-7.78 7.7800002,7.7800002 0 0 1 7.78,7.78 z"
     style="fill:#365f91" />
  <path
     id="circle53"
     d="m 202.46595,85.054805 a 7.7800002,7.7800002 0 0 1 -7.78,7.779997 7.7800002,7.7800002 0 0 1 -7.78,-7.779997 7.7800002,7.7800002 0 0 1 7.78,-7.78 7.7800002,7.7800002 0 0 1 7.78,7.78 z"
     style="fill:#365f91" />
  <path
     id="circle54"
     d="m 213.43595,8.0348029 a 7.7800002,7.7800002 0 0 1 -7.78,7.7800001 7.7800002,7.7800002 0 0 1 -7.78,-7.7800001 7.7800002,7.7800002 0 0 1 7.78,-7.78000048 7.7800002,7.7800002 0 0 1 7.78,7.78000048 z"
     style="fill:#365f91" />
  <path
     id="circle55"
     d="m 212.54596,27.534801 a 7.7800002,7.7800002 0 0 1 -7.78001,7.78 7.7800002,7.7800002 0 0 1 -7.78,-7.78 7.7800002,7.7800002 0 0 1 7.78,-7.78 7.7800002,7.7800002 0 0 1 7.78001,7.78 z"
     style="fill:#365f91" />
  <path
     id="circle56"
     d="m 212.33595,66.884799 a 7.7800002,7.7800002 0 0 1 -7.78,7.78 7.7800002,7.7800002 0 0 1 -7.78,-7.78 7.7800002,7.7800002 0 0 1 7.78,-7.78 7.7800002,7.7800002 0 0 1 7.78,7.78 z"
     style="fill:#365f91" />
  <path
     id="circle57"
     d="m 222.19595,49.114803 a 7.7800002,7.7800002 0 0 1 -7.78,7.78 7.7800002,7.7800002 0 0 1 -7.78,-7.78 7.7800002,7.7800002 0 0 1 7.78,-7.780001 7.7800002,7.7800002 0 0 1 7.78,7.780001 z"
     style="fill:#365f91" />
  <path
     id="circle58"
     d="m 233.87596,11.944803 a 7.7800002,7.7800002 0 0 1 -7.78,7.78 7.7800002,7.7800002 0 0 1 -7.78,-7.78 7.7800002,7.7800002 0 0 1 7.78,-7.7800011 7.7800002,7.7800002 0 0 1 7.78,7.7800011 z"
     style="fill:#365f91" />
  <path
     id="circle59"
     d="m 232.05595,31.594802 a 7.7800002,7.7800002 0 0 1 -7.78,7.78 7.7800002,7.7800002 0 0 1 -7.78,-7.78 7.7800002,7.7800002 0 0 1 7.78,-7.78 7.7800002,7.7800002 0 0 1 7.78,7.78 z"
     style="fill:#365f91" />
  <path
     id="circle60"
     d="m 221.58595,89.4248 a 7.7800002,7.7800002 0 0 1 -7.78,7.780002 7.7800002,7.7800002 0 0 1 -7.78,-7.780002 7.7800002,7.7800002 0 0 1 7.78,-7.78 7.7800002,7.7800002 0 0 1 7.78,7.78 z"
     style="fill:#365f91" />
  <path
     id="circle61"
     d="m 231.33595,72.294803 a 7.7800002,7.7800002 0 0 1 -7.78,7.78 7.7800002,7.7800002 0 0 1 -7.78,-7.78 7.7800002,7.7800002 0 0 1 7.78,-7.78 7.7800002,7.7800002 0 0 1 7.78,7.78 z"
     style="fill:#365f91" />
  <path
     id="circle62"
     d="m 253.66595,18.394801 a 7.7800002,7.7800002 0 0 1 -7.78,7.780001 7.7800002,7.7800002 0 0 1 -7.78,-7.780001 7.7800002,7.7800002 0 0 1 7.78,-7.78 7.7800002,7.7800002 0 0 1 7.78,7.78 z"
     style="fill:#365f91" />
  <path
     id="circle63"
     d="m 241.07595,55.254802 a 7.7800002,7.7800002 0 0 1 -7.78,7.78 7.7800002,7.7800002 0 0 1 -7.78,-7.78 7.7800002,7.7800002 0 0 1 7.78,-7.78 7.7800002,7.7800002 0 0 1 7.78,7.78 z"
     style="fill:#365f91" />
  <path
     id="circle64"
     d="m 250.82595,38.274802 a 7.7800002,7.7800002 0 0 1 -7.78,7.780001 7.7800002,7.7800002 0 0 1 -7.78,-7.780001 7.7800002,7.7800002 0 0 1 7.78,-7.78 7.7800002,7.7800002 0 0 1 7.78,7.78 z"
     style="fill:#365f91" />
  <path
     id="circle65"
     d="m 272.47595,27.274802 a 7.7800002,7.7800002 0 0 1 -7.78,7.780001 7.7800002,7.7800002 0 0 1 -7.78,-7.780001 7.7800002,7.7800002 0 0 1 7.78,-7.78 7.7800002,7.7800002 0 0 1 7.78,7.78 z"
     style="fill:#365f91" />
  <path
     id="circle66"
     d="m 268.50595,47.444801 a 7.7800002,7.7800002 0 0 1 -7.78,7.78 7.7800002,7.7800002 0 0 1 -7.78,-7.78 7.7800002,7.7800002 0 0 1 7.78,-7.780001 7.7800002,7.7800002 0 0 1 7.78,7.780001 z"
     style="fill:#365f91" />
  <path
     id="circle67"
     d="m 258.76596,64.274799 a 7.7800002,7.7800002 0 0 1 -7.78,7.78 7.7800002,7.7800002 0 0 1 -7.78,-7.78 7.7800002,7.7800002 0 0 1 7.78,-7.780001 7.7800002,7.7800002 0 0 1 7.78,7.780001 z"
     style="fill:#365f91" />
  <path
     id="circle68"
     d="m 249.01596,81.1048 a 7.7800002,7.7800002 0 0 1 -7.78,7.780001 7.7800002,7.7800002 0 0 1 -7.78,-7.780001 7.7800002,7.7800002 0 0 1 7.78,-7.78 7.7800002,7.7800002 0 0 1 7.78,7.78 z"
     style="fill:#365f91" />
  <path
     id="circle69"
     d="m 239.24595,97.934802 a 7.7800002,7.7800002 0 0 1 -7.78,7.779998 7.7800002,7.7800002 0 0 1 -7.78,-7.779998 7.7800002,7.7800002 0 0 1 7.78,-7.78 7.7800002,7.7800002 0 0 1 7.78,7.78 z"
     style="fill:#365f91" />
  <path
     id="circle70"
     d="m 290.03595,38.454803 a 7.7800002,7.7800002 0 0 1 -7.78,7.78 7.7800002,7.7800002 0 0 1 -7.78001,-7.78 7.7800002,7.7800002 0 0 1 7.78001,-7.78 7.7800002,7.7800002 0 0 1 7.78,7.78 z"
     style="fill:#365f91" />
  <path
     id="circle71"
     d="m 284.77594,58.944804 a 7.7800002,7.7800002 0 0 1 -7.78,7.780001 7.7800002,7.7800002 0 0 1 -7.78,-7.780001 7.7800002,7.7800002 0 0 1 7.78,-7.78 7.7800002,7.7800002 0 0 1 7.78,7.78 z"
     style="fill:#365f91" />
  <path
     id="circle72"
     d="m 274.81594,75.954799 a 7.7800002,7.7800002 0 0 1 -7.78,7.78 7.7800002,7.7800002 0 0 1 -7.78,-7.78 7.7800002,7.7800002 0 0 1 7.78,-7.78 7.7800002,7.7800002 0 0 1 7.78,7.78 z"
     style="fill:#365f91" />
  <path
     id="circle73"
     d="m 264.76596,93.024802 a 7.7800002,7.7800002 0 0 1 -7.78,7.779998 7.7800002,7.7800002 0 0 1 -7.78,-7.779998 7.7800002,7.7800002 0 0 1 7.78,-7.780004 7.7800002,7.7800002 0 0 1 7.78,7.780004 z"
     style="fill:#365f91" />
  <path
     id="circle74"
     d="m 306.04596,51.744804 a 7.7800002,7.7800002 0 0 1 -7.78001,7.78 7.7800002,7.7800002 0 0 1 -7.78,-7.78 7.7800002,7.7800002 0 0 1 7.78,-7.780001 7.7800002,7.7800002 0 0 1 7.78001,7.780001 z"
     style="fill:#365f91" />
  <path
     id="circle75"
     d="m 254.56594,110.1648 a 7.7800002,7.7800002 0 0 1 -7.78,7.78 7.7800002,7.7800002 0 0 1 -7.78,-7.78 7.7800002,7.7800002 0 0 1 7.78,-7.78 7.7800002,7.7800002 0 0 1 7.78,7.78 z"
     style="fill:#365f91" />
  <path
     id="circle76"
     d="m 299.33596,72.554805 a 7.7800002,7.7800002 0 0 1 -7.78,7.78 7.7800002,7.7800002 0 0 1 -7.78,-7.78 7.7800002,7.7800002 0 0 1 7.78,-7.78 7.7800002,7.7800002 0 0 1 7.78,7.78 z"
     style="fill:#212973" />
  <path
     id="circle77"
     d="m 288.84594,90.004802 a 7.7800002,7.7800002 0 0 1 -7.78,7.78 7.7800002,7.7800002 0 0 1 -7.78,-7.78 7.7800002,7.7800002 0 0 1 7.78,-7.78 7.7800002,7.7800002 0 0 1 7.78,7.78 z"
     style="fill:#212973" />
  <path
     id="circle78"
     d="m 320.25595,66.944804 a 7.7800002,7.7800002 0 0 1 -7.78,7.780001 7.7800002,7.7800002 0 0 1 -7.78,-7.780001 7.7800002,7.7800002 0 0 1 7.78,-7.78 7.7800002,7.7800002 0 0 1 7.78,7.78 z"
     style="fill:#212973" />
  <path
     id="circle79"
     d="m 278.06594,107.6248 a 7.7800002,7.7800002 0 0 1 -7.78,7.78 7.7800002,7.7800002 0 0 1 -7.78,-7.78 7.7800002,7.7800002 0 0 1 7.78,-7.779998 7.7800002,7.7800002 0 0 1 7.78,7.779998 z"
     style="fill:#212973" />
  <path
     id="circle80"
     d="m 311.89596,88.024799 a 7.7800002,7.7800002 0 0 1 -7.78,7.780003 7.7800002,7.7800002 0 0 1 -7.78,-7.780003 7.7800002,7.7800002 0 0 1 7.78,-7.780001 7.7800002,7.7800002 0 0 1 7.78,7.780001 z"
     style="fill:#212973" />
  <path
     id="circle81"
     d="m 332.44595,83.8148 a 7.7800002,7.7800002 0 0 1 -7.78,7.78 7.7800002,7.7800002 0 0 1 -7.78,-7.78 7.7800002,7.7800002 0 0 1 7.78,-7.780001 7.7800002,7.7800002 0 0 1 7.78,7.780001 z"
     style="fill:#212973" />
  <path
     id="circle82"
     d="m 266.78595,125.49481 a 7.7800002,7.7800002 0 0 1 -7.78,7.78 7.7800002,7.7800002 0 0 1 -7.78001,-7.78 7.7800002,7.7800002 0 0 1 7.78001,-7.78 7.7800002,7.7800002 0 0 1 7.78,7.78 z"
     style="fill:#212973" />
  <path
     id="circle83"
     d="m 300.49594,106.0848 a 7.7800002,7.7800002 0 0 1 -7.78,7.78 7.7800002,7.7800002 0 0 1 -7.78,-7.78 7.7800002,7.7800002 0 0 1 7.78,-7.779998 7.7800002,7.7800002 0 0 1 7.78,7.779998 z"
     style="fill:#212973" />
  <path
     id="circle84"
     d="m 322.22595,105.0648 a 7.7800002,7.7800002 0 0 1 -7.78,7.78 7.7800002,7.7800002 0 0 1 -7.78,-7.78 7.7800002,7.7800002 0 0 1 7.78,-7.779998 7.7800002,7.7800002 0 0 1 7.78,7.779998 z"
     style="fill:#212973" />
  <path
     id="circle85"
     d="m 288.44595,124.43479 a 7.7800002,7.7800002 0 0 1 -7.78,7.78 7.7800002,7.7800002 0 0 1 -7.78,-7.78 7.7800002,7.7800002 0 0 1 7.78,-7.78 7.7800002,7.7800002 0 0 1 7.78,7.78 z"
     style="fill:#212973" />
  <path
     id="circle86"
     d="m 342.42596,102.0748 a 7.7800002,7.7800002 0 0 1 -7.78,7.78 7.7800002,7.7800002 0 0 1 -7.78,-7.78 7.7800002,7.7800002 0 0 1 7.78,-7.779998 7.7800002,7.7800002 0 0 1 7.78,7.779998 z"
     style="fill:#212973" />
  <path
     id="circle87"
     d="m 309.49594,123.7848 a 7.7800002,7.7800002 0 0 1 -7.78,7.78 7.7800002,7.7800002 0 0 1 -7.78,-7.78 7.7800002,7.7800002 0 0 1 7.78,-7.78 7.7800002,7.7800002 0 0 1 7.78,7.78 z"
     style="fill:#212973" />
  <path
     id="circle88"
     d="m 330.14596,123.3448 a 7.7800002,7.7800002 0 0 1 -7.78,7.78 7.7800002,7.7800002 0 0 1 -7.78,-7.78 7.7800002,7.7800002 0 0 1 7.78,-7.78 7.7800002,7.7800002 0 0 1 7.78,7.78 z"
     style="fill:#212973" />
  <path
     id="circle89"
     d="m 275.27594,143.1648 a 7.7800002,7.7800002 0 0 1 -7.78,7.78 7.7800002,7.7800002 0 0 1 -7.78,-7.78 7.7800002,7.7800002 0 0 1 7.78,-7.78 7.7800002,7.7800002 0 0 1 7.78,7.78 z"
     style="fill:#212973" />
  <path
     id="circle90"
     d="m 350.02594,121.4548 a 7.7800002,7.7800002 0 0 1 -7.78,7.78 7.7800002,7.7800002 0 0 1 -7.78,-7.78 7.7800002,7.7800002 0 0 1 7.78,-7.78 7.7800002,7.7800002 0 0 1 7.78,7.78 z"
     style="fill:#212973" />
  <path
     id="circle91"
     d="m 295.56594,142.8648 a 7.7800002,7.7800002 0 0 1 -7.78,7.78 7.7800002,7.7800002 0 0 1 -7.78,-7.78 7.7800002,7.7800002 0 0 1 7.78,-7.78 7.7800002,7.7800002 0 0 1 7.78,7.78 z"
     style="fill:#212973" />
  <path
     id="circle92"
     d="m 315.60595,142.6648 a 7.7800002,7.7800002 0 0 1 -7.78,7.78 7.7800002,7.7800002 0 0 1 -7.78,-7.78 7.7800002,7.7800002 0 0 1 7.78,-7.78 7.7800002,7.7800002 0 0 1 7.78,7.78 z"
     style="fill:#212973" />
  <path
     id="circle93"
     d="m 335.49594,142.5348 a 7.7800002,7.7800002 0 0 1 -7.78,7.78 7.7800002,7.7800002 0 0 1 -7.78,-7.78 7.7800002,7.7800002 0 0 1 7.78,-7.78 7.7800002,7.7800002 0 0 1 7.78,7.78 z"
     style="fill:#212973" />
  <path
     id="circle94"
     d="m 355.12594,141.6248 a 7.7800002,7.7800002 0 0 1 -7.78,7.78 7.7800002,7.7800002 0 0 1 -7.78,-7.78 7.7800002,7.7800002 0 0 1 7.78,-7.78001 7.7800002,7.7800002 0 0 1 7.78,7.78001 z"
     style="fill:#212973" />
  <path
     id="circle95"
     d="m 279.62594,162.2848 a 7.7800002,7.7800002 0 0 1 -7.78,7.78 7.7800002,7.7800002 0 0 1 -7.78,-7.78 7.7800002,7.7800002 0 0 1 7.78,-7.78 7.7800002,7.7800002 0 0 1 7.78,7.78 z"
     style="fill:#212973" />
  <path
     id="circle96"
     d="m 299.16595,162.2848 a 7.7800002,7.7800002 0 0 1 -7.78,7.78 7.7800002,7.7800002 0 0 1 -7.78,-7.78 7.7800002,7.7800002 0 0 1 7.78,-7.78 7.7800002,7.7800002 0 0 1 7.78,7.78 z"
     style="fill:#212973" />
  <circle
     cx="310.89597"
     cy="162.28481"
     r="7.7800002"
     id="circle97"
     style="fill:#2b3e57" />
  <circle
     cx="330.39597"
     cy="162.28481"
     r="7.7800002"
     id="circle98"
     style="fill:#2b3e57" />
  <circle
     cx="349.87595"
     cy="162.28481"
     r="7.7800002"
     id="circle99"
     style="fill:#2b3e57" />
</svg>
