<?xml version="1.0" encoding="UTF-8" standalone="no"?>
<svg
   version="1.1"
   width="450"
   height="200"
   id="svg99"
   sodipodi:docname="Tschabelia_Chamber_Annex_2020.svg"
   inkscape:version="1.4.2 (f4327f4, 2025-05-13)"
   xml:space="preserve"
   xmlns:inkscape="http://www.inkscape.org/namespaces/inkscape"
   xmlns:sodipodi="http://sodipodi.sourceforge.net/DTD/sodipodi-0.dtd"
   xmlns:xlink="http://www.w3.org/1999/xlink"
   xmlns="http://www.w3.org/2000/svg"
   xmlns:svg="http://www.w3.org/2000/svg"><defs
     id="defs99"><radialGradient
       id="label-gradient"
       cx="0"
       cy="0"
       fx="0"
       fy="0"
       r="184.27243"
       gradientUnits="userSpaceOnUse"
       gradientTransform="matrix(2.4759281,0,0,2.5479683,342.23176,1072.4091)"><stop
         offset="0%"
         style="stop-color: rgb(255, 255, 255); stop-opacity: 1;"
         id="stop116" /><stop
         offset="80%"
         style="stop-color: rgb(255, 255, 255); stop-opacity: 1;"
         id="stop117" /><stop
         offset="90%"
         style="stop-color: rgb(255, 255, 255); stop-opacity: 0.1;"
         id="stop118" /><stop
         offset="100%"
         style="stop-color: rgb(255, 255, 255); stop-opacity: 0;"
         id="stop119" /></radialGradient><mask
       maskUnits="userSpaceOnUse"
       id="mask101"><g
         id="g102"
         transform="scale(1.0144438,0.98576185)"><ellipse
           fill="url(#label-gradient)"
           id="ellipse101"
           cx="342.23175"
           cy="1072.4091"
           style="fill:url(#radialGradient102);stroke-width:2.51169"
           rx="456.2453"
           ry="469.52032" /></g></mask><radialGradient
       inkscape:collect="always"
       xlink:href="#label-gradient"
       id="radialGradient102"
       gradientUnits="userSpaceOnUse"
       gradientTransform="matrix(2.4759281,0,0,2.5479683,342.23176,1072.4091)"
       cx="0"
       cy="0"
       fx="0"
       fy="0"
       r="184.27243" /><mask
       maskUnits="userSpaceOnUse"
       id="mask102"><g
         id="g103"
         transform="scale(1.0144438,0.98576185)"><ellipse
           fill="url(#label-gradient)"
           id="ellipse102"
           cx="342.23175"
           cy="1072.4091"
           style="fill:url(#radialGradient103);stroke-width:2.51169"
           rx="456.2453"
           ry="469.52032" /></g></mask><radialGradient
       inkscape:collect="always"
       xlink:href="#label-gradient"
       id="radialGradient103"
       gradientUnits="userSpaceOnUse"
       gradientTransform="matrix(2.4759281,0,0,2.5479683,342.23176,1072.4091)"
       cx="0"
       cy="0"
       fx="0"
       fy="0"
       r="184.27243" /></defs><sodipodi:namedview
     id="namedview99"
     pagecolor="#505050"
     bordercolor="#ffffff"
     borderopacity="1"
     inkscape:showpageshadow="0"
     inkscape:pageopacity="0"
     inkscape:pagecheckerboard="1"
     inkscape:deskcolor="#505050"
     inkscape:zoom="1.5919458"
     inkscape:cx="214.20327"
     inkscape:cy="21.04343"
     inkscape:window-width="1920"
     inkscape:window-height="1051"
     inkscape:window-x="-9"
     inkscape:window-y="-9"
     inkscape:window-maximized="1"
     inkscape:current-layer="svg99" /><!-- Created with parliamentarch (https://github.com/Gouvernathor/parliamentarch/) --><text
     x="228.51376"
     y="187.69446"
     style="font-weight:bold;font-size:36px;font-family:sans-serif;text-align:center;text-anchor:middle"
     id="text1">99</text><path
     id="circle1"
     d="m 46.831543,129.33978 a 7.7800002,7.7800002 0 0 1 -7.78,7.78 7.7800002,7.7800002 0 0 1 -7.78,-7.78 7.7800002,7.7800002 0 0 1 7.78,-7.78 7.7800002,7.7800002 0 0 1 7.78,7.78 z"
     style="fill:#4bb166" /><path
     id="circle2"
     d="m 37.955403,107.28735 a 7.7800002,7.7800002 0 0 1 -7.78,7.78 7.7800002,7.7800002 0 0 1 -7.78,-7.78 7.7800002,7.7800002 0 0 1 7.78,-7.78 7.7800002,7.7800002 0 0 1 7.78,7.78 z"
     style="fill:#4bb166" /><path
     id="circle3"
     d="m 29.079253,85.23498 a 7.7800002,7.7800002 0 0 1 -7.78,7.78 7.7800002,7.7800002 0 0 1 -7.78,-7.78 7.7800002,7.7800002 0 0 1 7.78,-7.78 7.7800002,7.7800002 0 0 1 7.78,7.78 z"
     style="fill:#4bb166" /><path
     id="circle4"
     d="m 20.203093,63.18255 a 7.7800002,7.7800002 0 0 1 -7.78,7.78 7.7800002,7.7800002 0 0 1 -7.7799997,-7.78 7.7800002,7.7800002 0 0 1 7.7799997,-7.78 7.7800002,7.7800002 0 0 1 7.78,7.78 z"
     style="fill:#4bb166" /><path
     id="circle5"
     d="m 55.707693,151.39221 a 7.7800002,7.7800002 0 0 1 -7.78,7.78 7.7800002,7.7800002 0 0 1 -7.78,-7.78 7.7800002,7.7800002 0 0 1 7.78,-7.78 7.7800002,7.7800002 0 0 1 7.78,7.78 z"
     style="fill:#4bb166" /><path
     id="circle6"
     d="m 48.586423,77.37786 a 7.7800002,7.7800002 0 0 1 -7.78,7.78 7.7800002,7.7800002 0 0 1 -7.78,-7.78 7.7800002,7.7800002 0 0 1 7.78,-7.78001 7.7800002,7.7800002 0 0 1 7.78,7.78001 z"
     style="fill:#4bb166" /><path
     id="circle7"
     d="m 40.558413,54.98382 a 7.7800002,7.7800002 0 0 1 -7.78,7.78 7.7800002,7.7800002 0 0 1 -7.78,-7.78 7.7800002,7.7800002 0 0 1 7.78,-7.78 7.7800002,7.7800002 0 0 1 7.78,7.78 z"
     style="fill:#4bb166" /><path
     id="circle8"
     d="m 61.210843,47.61376 a 7.7800002,7.7800002 0 0 1 -7.78,7.78 7.7800002,7.7800002 0 0 1 -7.78,-7.78 7.7800002,7.7800002 0 0 1 7.78,-7.78 7.7800002,7.7800002 0 0 1 7.78,7.78 z"
     style="fill:#b50909" /><path
     id="circle9"
     d="m 57.739713,99.31026 a 7.7800002,7.7800002 0 0 1 -7.78,7.78 7.7800002,7.7800002 0 0 1 -7.78,-7.78 7.7800002,7.7800002 0 0 1 7.78,-7.78 7.7800002,7.7800002 0 0 1 7.78,7.78 z"
     style="fill:#b50909" /><path
     id="circle10"
     d="m 66.638003,121.41338 a 7.7800002,7.7800002 0 0 1 -7.78,7.78 7.7800002,7.7800002 0 0 1 -7.78,-7.78 7.7800002,7.7800002 0 0 1 7.78,-7.78 7.7800002,7.7800002 0 0 1 7.78,7.78 z"
     style="fill:#b50909" /><path
     id="circle11"
     d="m 86.761563,114.20952 a 7.7800002,7.7800002 0 0 1 -7.78,7.78 7.7800002,7.7800002 0 0 1 -7.78,-7.78 7.7800002,7.7800002 0 0 1 7.78,-7.78 7.7800002,7.7800002 0 0 1 7.78,7.78 z"
     style="fill:#b50909" /><path
     id="circle12"
     d="m 77.553243,92.34954 a 7.7800002,7.7800002 0 0 1 -7.78,7.78 7.7800002,7.7800002 0 0 1 -7.78,-7.78 7.7800002,7.7800002 0 0 1 7.78,-7.78 7.7800002,7.7800002 0 0 1 7.78,7.78 z"
     style="fill:#b50909" /><path
     id="circle13"
     d="m 68.513753,70.22787 a 7.7800002,7.7800002 0 0 1 -7.78,7.78 7.7800002,7.7800002 0 0 1 -7.78,-7.78 7.7800002,7.7800002 0 0 1 7.78,-7.78 7.7800002,7.7800002 0 0 1 7.78,7.78 z"
     style="fill:#b50909" /><path
     id="circle14"
     d="m 75.825763,143.33865 a 7.7800002,7.7800002 0 0 1 -7.78,7.78 7.7800002,7.7800002 0 0 1 -7.78,-7.78 7.7800002,7.7800002 0 0 1 7.78,-7.77999 7.7800002,7.7800002 0 0 1 7.78,7.77999 z"
     style="fill:#b50909" /><path
     id="circle15"
     d="m 96.009183,136.41729 a 7.7800002,7.7800002 0 0 1 -7.78,7.78 7.7800002,7.7800002 0 0 1 -7.78,-7.78 7.7800002,7.7800002 0 0 1 7.78,-7.78 7.7800002,7.7800002 0 0 1 7.78,7.78 z"
     style="fill:#56277e" /><path
     id="circle16"
     d="m 82.128483,40.90983 a 7.7800002,7.7800002 0 0 1 -7.78,7.78 7.7800002,7.7800002 0 0 1 -7.78,-7.78 7.7800002,7.7800002 0 0 1 7.78,-7.77999 7.7800002,7.7800002 0 0 1 7.78,7.77999 z"
     style="fill:#56277e" /><path
     id="circle17"
     d="m 88.424413,63.88304 a 7.7800002,7.7800002 0 0 1 -7.78,7.78 7.7800002,7.7800002 0 0 1 -7.78,-7.78 7.7800002,7.7800002 0 0 1 7.78,-7.77999 7.7800002,7.7800002 0 0 1 7.78,7.77999 z"
     style="fill:#56277e" /><path
     id="circle18"
     d="m 108.69377,58.61395 a 7.7800002,7.7800002 0 0 1 -7.78,7.78 7.7800002,7.7800002 0 0 1 -7.779997,-7.78 7.7800002,7.7800002 0 0 1 7.779997,-7.78 7.7800002,7.7800002 0 0 1 7.78,7.78 z"
     style="fill:#255e4b" /><path
     id="circle19"
     d="m 118.21454,80.82781 a 7.7800002,7.7800002 0 0 1 -7.78,7.78 7.7800002,7.7800002 0 0 1 -7.78,-7.78 7.7800002,7.7800002 0 0 1 7.78,-7.78 7.7800002,7.7800002 0 0 1 7.78,7.78 z"
     style="fill:#255e4b" /><path
     id="circle20"
     d="m 116.48546,130.29513 a 7.7800002,7.7800002 0 0 1 -7.78,7.78001 7.7800002,7.7800002 0 0 1 -7.78,-7.78001 7.7800002,7.7800002 0 0 1 7.78,-7.78 7.7800002,7.7800002 0 0 1 7.78,7.78 z"
     style="fill:#255e4b" /><path
     id="circle21"
     d="m 103.14369,35.3171 a 7.7800002,7.7800002 0 0 1 -7.779997,7.78 7.7800002,7.7800002 0 0 1 -7.78,-7.78 7.7800002,7.7800002 0 0 1 7.78,-7.77999 7.7800002,7.7800002 0 0 1 7.779997,7.77999 z"
     style="fill:#255e4b" /><path
     id="circle22"
     d="m 127.8063,103.06567 a 7.7800002,7.7800002 0 0 1 -7.78,7.78 7.7800002,7.7800002 0 0 1 -7.78,-7.78 7.7800002,7.7800002 0 0 1 7.78,-7.78 7.7800002,7.7800002 0 0 1 7.78,7.78 z"
     style="fill:#e7511e" /><path
     id="circle23"
     d="m 129.15517,53.81994 a 7.7800002,7.7800002 0 0 1 -7.78,7.78 7.7800002,7.7800002 0 0 1 -7.78,-7.78 7.7800002,7.7800002 0 0 1 7.78,-7.78 7.7800002,7.7800002 0 0 1 7.78,7.78 z"
     style="fill:#e7511e" /><path
     id="circle24"
     d="m 137.48141,125.333 a 7.7800002,7.7800002 0 0 1 -7.78,7.78 7.7800002,7.7800002 0 0 1 -7.78,-7.78 7.7800002,7.7800002 0 0 1 7.78,-7.78 7.7800002,7.7800002 0 0 1 7.78,7.78 z"
     style="fill:#e7511e" /><path
     id="circle25"
     d="m 124.76558,30.58322 a 7.7800002,7.7800002 0 0 1 -7.78,7.78 7.7800002,7.7800002 0 0 1 -7.78,-7.78 7.7800002,7.7800002 0 0 1 7.78,-7.78 7.7800002,7.7800002 0 0 1 7.78,7.78 z"
     style="fill:#e7511e" /><path
     id="circle26"
     d="m 158.54629,121.28076 a 7.7800002,7.7800002 0 0 1 -7.78,7.78 7.7800002,7.7800002 0 0 1 -7.78,-7.78 7.7800002,7.7800002 0 0 1 7.78,-7.78 7.7800002,7.7800002 0 0 1 7.78,7.78 z"
     style="fill:#f2a200" /><path
     id="circle27"
     d="m 138.99283,76.28646 a 7.7800002,7.7800002 0 0 1 -7.78,7.77999 7.7800002,7.7800002 0 0 1 -7.78,-7.77999 7.7800002,7.7800002 0 0 1 7.78,-7.78001 7.7800002,7.7800002 0 0 1 7.78,7.78001 z"
     style="fill:#f2a200" /><path
     id="circle28"
     d="m 149.77704,50.20422 a 7.7800002,7.7800002 0 0 1 -7.78,7.78 7.7800002,7.7800002 0 0 1 -7.78,-7.78 7.7800002,7.7800002 0 0 1 7.78,-7.78 7.7800002,7.7800002 0 0 1 7.78,7.78 z"
     style="fill:#f2a200" /><path
     id="circle29"
     d="m 148.64935,98.79913 a 7.7800002,7.7800002 0 0 1 -7.78,7.78 7.7800002,7.7800002 0 0 1 -7.78,-7.78 7.7800002,7.7800002 0 0 1 7.78,-7.78 7.7800002,7.7800002 0 0 1 7.78,7.78 z"
     style="fill:#f2a200" /><path
     id="circle30"
     d="m 179.90596,118.14693 a 7.7800002,7.7800002 0 0 1 -7.78,7.78 7.7800002,7.7800002 0 0 1 -7.78,-7.78 7.7800002,7.7800002 0 0 1 7.78,-7.78 7.7800002,7.7800002 0 0 1 7.78,7.78 z"
     style="fill:#f2a200" /><path
     id="circle31"
     d="m 146.28404,26.54168 a 7.7800002,7.7800002 0 0 1 -7.78,7.77999 7.7800002,7.7800002 0 0 1 -7.78,-7.77999 7.7800002,7.7800002 0 0 1 7.78,-7.78 7.7800002,7.7800002 0 0 1 7.78,7.78 z"
     style="fill:#f2a200" /><path
     id="circle32"
     d="m 159.6615,72.8009 a 7.7800002,7.7800002 0 0 1 -7.78,7.78 7.7800002,7.7800002 0 0 1 -7.78,-7.78 7.7800002,7.7800002 0 0 1 7.78,-7.78 7.7800002,7.7800002 0 0 1 7.78,7.78 z"
     style="fill:#f2a200" /><path
     id="circle33"
     d="m 169.65338,95.47216 a 7.7800002,7.7800002 0 0 1 -7.78,7.78 7.7800002,7.7800002 0 0 1 -7.78,-7.78 7.7800002,7.7800002 0 0 1 7.78,-7.78 7.7800002,7.7800002 0 0 1 7.78,7.78 z"
     style="fill:#f2a200" /><path
     id="circle34"
     d="m 190.77847,93.0913 a 7.7800002,7.7800002 0 0 1 -7.78,7.78 7.7800002,7.7800002 0 0 1 -7.77999,-7.78 7.7800002,7.7800002 0 0 1 7.77999,-7.78 7.7800002,7.7800002 0 0 1 7.78,7.78 z"
     style="fill:#f2a200" /><path
     id="circle35"
     d="m 167.80136,23.37261 a 7.7800002,7.7800002 0 0 1 -7.78,7.78 7.7800002,7.7800002 0 0 1 -7.78,-7.78 7.7800002,7.7800002 0 0 1 7.78,-7.78 7.7800002,7.7800002 0 0 1 7.78,7.78 z"
     style="fill:#f2a200" /><path
     id="circle36"
     d="m 170.52759,47.25054 a 7.7800002,7.7800002 0 0 1 -7.78,7.78 7.7800002,7.7800002 0 0 1 -7.78,-7.78 7.7800002,7.7800002 0 0 1 7.78,-7.78 7.7800002,7.7800002 0 0 1 7.78,7.78 z"
     style="fill:#f2a200" /><path
     id="circle37"
     d="m 180.59131,70.11608 a 7.7800002,7.7800002 0 0 1 -7.78,7.78 7.7800002,7.7800002 0 0 1 -7.78,-7.78 7.7800002,7.7800002 0 0 1 7.78,-7.78 7.7800002,7.7800002 0 0 1 7.78,7.78 z"
     style="fill:#f2a200" /><path
     id="circle38"
     d="m 107.29936,108.08977 a 7.7800002,7.7800002 0 0 1 -7.779997,7.78001 7.7800002,7.7800002 0 0 1 -7.78,-7.78001 7.7800002,7.7800002 0 0 1 7.78,-7.78 7.7800002,7.7800002 0 0 1 7.779997,7.78 z"
     style="fill:#e87c00" /><path
     id="circle39"
     d="m 97.903613,86.06911 a 7.7800002,7.7800002 0 0 1 -7.78,7.78 7.7800002,7.7800002 0 0 1 -7.78,-7.78 7.7800002,7.7800002 0 0 1 7.78,-7.78 7.7800002,7.7800002 0 0 1 7.78,7.78 z"
     style="fill:#e87c00" /><path
     id="circle40"
     d="m 189.55499,21.34172 a 7.7800002,7.7800002 0 0 1 -7.78,7.78001 7.7800002,7.7800002 0 0 1 -7.78,-7.78001 7.7800002,7.7800002 0 0 1 7.78,-7.78 7.7800002,7.7800002 0 0 1 7.78,7.78 z"
     style="fill:#365f91" /><path
     id="circle41"
     d="m 212.11976,91.57394 a 7.7800002,7.7800002 0 0 1 -7.78,7.78 7.7800002,7.7800002 0 0 1 -7.78,-7.78 7.7800002,7.7800002 0 0 1 7.78,-7.78 7.7800002,7.7800002 0 0 1 7.78,7.78 z"
     style="fill:#365f91" /><path
     id="circle42"
     d="m 222.51578,115.1806 a 7.7800002,7.7800002 0 0 1 -7.78,7.78 7.7800002,7.7800002 0 0 1 -7.78,-7.78 7.7800002,7.7800002 0 0 1 7.78,-7.78 7.7800002,7.7800002 0 0 1 7.78,7.78 z"
     style="fill:#365f91" /><path
     id="circle43"
     d="m 201.61102,68.32366 a 7.7800002,7.7800002 0 0 1 -7.78,7.78 7.7800002,7.7800002 0 0 1 -7.78,-7.78 7.7800002,7.7800002 0 0 1 7.78,-7.78 7.7800002,7.7800002 0 0 1 7.78,7.78 z"
     style="fill:#365f91" /><path
     id="circle44"
     d="m 191.37482,45.13751 a 7.7800002,7.7800002 0 0 1 -7.78,7.78 7.7800002,7.7800002 0 0 1 -7.78,-7.78 7.7800002,7.7800002 0 0 1 7.78,-7.78 7.7800002,7.7800002 0 0 1 7.78,7.78 z"
     style="fill:#365f91" /><path
     id="circle45"
     d="m 201.10889,116.19909 a 7.7800002,7.7800002 0 0 1 -7.78,7.78 7.7800002,7.7800002 0 0 1 -7.78001,-7.78 7.7800002,7.7800002 0 0 1 7.78001,-7.78 7.7800002,7.7800002 0 0 1 7.78,7.78 z"
     style="fill:#365f91" /><path
     id="circle46"
     d="m 243.8101,115.09359 a 7.7800002,7.7800002 0 0 1 -7.78,7.78 7.7800002,7.7800002 0 0 1 -7.78,-7.78 7.7800002,7.7800002 0 0 1 7.78,-7.78 7.7800002,7.7800002 0 0 1 7.78,7.78 z"
     style="fill:#365f91" /><path
     id="circle47"
     d="m 211.37598,20.01745 a 7.7800002,7.7800002 0 0 1 -7.78,7.78 7.7800002,7.7800002 0 0 1 -7.78,-7.78 7.7800002,7.7800002 0 0 1 7.78,-7.78 7.7800002,7.7800002 0 0 1 7.78,7.78 z"
     style="fill:#365f91" /><path
     id="circle48"
     d="m 222.68478,67.42669 a 7.7800002,7.7800002 0 0 1 -7.78,7.78 7.7800002,7.7800002 0 0 1 -7.78,-7.78 7.7800002,7.7800002 0 0 1 7.78,-7.78 7.7800002,7.7800002 0 0 1 7.78,7.78 z"
     style="fill:#365f91" /><path
     id="circle49"
     d="m 233.23065,91.18389 a 7.7800002,7.7800002 0 0 1 -7.78,7.78 7.7800002,7.7800002 0 0 1 -7.78,-7.78 7.7800002,7.7800002 0 0 1 7.78,-7.78 7.7800002,7.7800002 0 0 1 7.78,7.78 z"
     style="fill:#365f91" /><path
     id="circle50"
     d="m 212.42201,43.78139 a 7.7800002,7.7800002 0 0 1 -7.78,7.78 7.7800002,7.7800002 0 0 1 -7.78,-7.78 7.7800002,7.7800002 0 0 1 7.78,-7.78 7.7800002,7.7800002 0 0 1 7.78,7.78 z"
     style="fill:#365f91" /><path
     id="circle51"
     d="m 265.35242,116.19909 a 7.7800002,7.7800002 0 0 1 -7.78,7.78 7.7800002,7.7800002 0 0 1 -7.78,-7.78 7.7800002,7.7800002 0 0 1 7.78,-7.78 7.7800002,7.7800002 0 0 1 7.78,7.78 z"
     style="fill:#365f91" /><path
     id="circle52"
     d="m 243.91197,67.33968 a 7.7800002,7.7800002 0 0 1 -7.78,7.78 7.7800002,7.7800002 0 0 1 -7.78,-7.78 7.7800002,7.7800002 0 0 1 7.78,-7.78 7.7800002,7.7800002 0 0 1 7.78,7.78 z"
     style="fill:#365f91" /><path
     id="circle53"
     d="m 233.23065,19.57577 a 7.7800002,7.7800002 0 0 1 -7.78,7.78 7.7800002,7.7800002 0 0 1 -7.78,-7.78 7.7800002,7.7800002 0 0 1 7.78,-7.78 7.7800002,7.7800002 0 0 1 7.78,7.78 z"
     style="fill:#365f91" /><path
     id="circle54"
     d="m 286.55534,118.14693 a 7.7800002,7.7800002 0 0 1 -7.78,7.78 7.7800002,7.7800002 0 0 1 -7.78,-7.78 7.7800002,7.7800002 0 0 1 7.78,-7.78 7.7800002,7.7800002 0 0 1 7.78,7.78 z"
     style="fill:#365f91" /><path
     id="circle55"
     d="m 254.477,91.66094 a 7.7800002,7.7800002 0 0 1 -7.78001,7.78 7.7800002,7.7800002 0 0 1 -7.78,-7.78 7.7800002,7.7800002 0 0 1 7.78,-7.78 7.7800002,7.7800002 0 0 1 7.78001,7.78 z"
     style="fill:#365f91" /><path
     id="circle56"
     d="m 233.23065,43.44512 a 7.7800002,7.7800002 0 0 1 -7.78,7.78 7.7800002,7.7800002 0 0 1 -7.78,-7.78 7.7800002,7.7800002 0 0 1 7.78,-7.78 7.7800002,7.7800002 0 0 1 7.78,7.78 z"
     style="fill:#365f91" /><path
     id="circle57"
     d="m 264.71486,68.23666 a 7.7800002,7.7800002 0 0 1 -7.78,7.78 7.7800002,7.7800002 0 0 1 -7.78,-7.78 7.7800002,7.7800002 0 0 1 7.78,-7.78 7.7800002,7.7800002 0 0 1 7.78,7.78 z"
     style="fill:#365f91" /><path
     id="circle58"
     d="m 307.91501,121.28076 a 7.7800002,7.7800002 0 0 1 -7.78,7.78 7.7800002,7.7800002 0 0 1 -7.78,-7.78 7.7800002,7.7800002 0 0 1 7.78,-7.78 7.7800002,7.7800002 0 0 1 7.78,7.78 z"
     style="fill:#365f91" /><path
     id="circle59"
     d="m 296.80792,95.47216 a 7.7800002,7.7800002 0 0 1 -7.78,7.78 7.7800002,7.7800002 0 0 1 -7.78,-7.78 7.7800002,7.7800002 0 0 1 7.78,-7.78 7.7800002,7.7800002 0 0 1 7.78,7.78 z"
     style="fill:#365f91" /><path
     id="circle60"
     d="m 277.04173,21.34172 a 7.7800002,7.7800002 0 0 1 -7.78,7.78001 7.7800002,7.7800002 0 0 1 -7.78,-7.78001 7.7800002,7.7800002 0 0 1 7.78,-7.78 7.7800002,7.7800002 0 0 1 7.78,7.78 z"
     style="fill:#365f91" /><path
     id="circle61"
     d="m 254.03932,43.78139 a 7.7800002,7.7800002 0 0 1 -7.78,7.78 7.7800002,7.7800002 0 0 1 -7.78,-7.78 7.7800002,7.7800002 0 0 1 7.78,-7.78 7.7800002,7.7800002 0 0 1 7.78,7.78 z"
     style="fill:#365f91" /><path
     id="circle62"
     d="m 328.97989,125.33299 a 7.7800002,7.7800002 0 0 1 -7.78,7.78001 7.7800002,7.7800002 0 0 1 -7.78,-7.78001 7.7800002,7.7800002 0 0 1 7.78,-7.78 7.7800002,7.7800002 0 0 1 7.78,7.78 z"
     style="fill:#365f91" /><path
     id="circle63"
     d="m 285.87002,70.11608 a 7.7800002,7.7800002 0 0 1 -7.78,7.78 7.7800002,7.7800002 0 0 1 -7.78,-7.78 7.7800002,7.7800002 0 0 1 7.78,-7.78 7.7800002,7.7800002 0 0 1 7.78,7.78 z"
     style="fill:#365f91" /><path
     id="circle64"
     d="m 317.81198,98.79913 a 7.7800002,7.7800002 0 0 1 -7.78,7.78 7.7800002,7.7800002 0 0 1 -7.78,-7.78 7.7800002,7.7800002 0 0 1 7.78,-7.78 7.7800002,7.7800002 0 0 1 7.78,7.78 z"
     style="fill:#365f91" /><path
     id="circle65"
     d="m 275.68286,93.0913 a 7.7800002,7.7800002 0 0 1 -7.78,7.78 7.7800002,7.7800002 0 0 1 -7.78,-7.78 7.7800002,7.7800002 0 0 1 7.78,-7.78 7.7800002,7.7800002 0 0 1 7.78,7.78 z"
     style="fill:#365f91" /><path
     id="circle66"
     d="m 306.7998,72.8009 a 7.7800002,7.7800002 0 0 1 -7.78,7.78 7.7800002,7.7800002 0 0 1 -7.78,-7.78 7.7800002,7.7800002 0 0 1 7.78,-7.78 7.7800002,7.7800002 0 0 1 7.78,7.78 z"
     style="fill:#365f91" /><path
     id="circle67"
     d="m 316.68429,50.20422 a 7.7800002,7.7800002 0 0 1 -7.78,7.78 7.7800002,7.7800002 0 0 1 -7.78,-7.78 7.7800002,7.7800002 0 0 1 7.78,-7.78 7.7800002,7.7800002 0 0 1 7.78,7.78 z"
     style="fill:#365f91" /><path
     id="circle68"
     d="m 341.9666,30.49621 a 7.7800002,7.7800002 0 0 1 -7.78,7.78 7.7800002,7.7800002 0 0 1 -7.78,-7.78 7.7800002,7.7800002 0 0 1 7.78,-7.78 7.7800002,7.7800002 0 0 1 7.78,7.78 z"
     style="fill:#365f91" /><path
     id="circle69"
     d="m 298.52452,23.54663 a 7.7800002,7.7800002 0 0 1 -7.78,7.77999 7.7800002,7.7800002 0 0 1 -7.78,-7.77999 7.7800002,7.7800002 0 0 1 7.78,-7.78 7.7800002,7.7800002 0 0 1 7.78,7.78 z"
     style="fill:#365f91" /><path
     id="circle70"
     d="m 327.73934,76.28646 a 7.7800002,7.7800002 0 0 1 -7.78,7.78 7.7800002,7.7800002 0 0 1 -7.78001,-7.78 7.7800002,7.7800002 0 0 1 7.78001,-7.78 7.7800002,7.7800002 0 0 1 7.78,7.78 z"
     style="fill:#365f91" /><path
     id="circle71"
     d="m 295.93374,47.25054 a 7.7800002,7.7800002 0 0 1 -7.78,7.78 7.7800002,7.7800002 0 0 1 -7.78,-7.78 7.7800002,7.7800002 0 0 1 7.78,-7.78 7.7800002,7.7800002 0 0 1 7.78,7.78 z"
     style="fill:#365f91" /><path
     id="circle72"
     d="m 337.30615,53.99395 a 7.7800002,7.7800002 0 0 1 -7.78,7.78 7.7800002,7.7800002 0 0 1 -7.78,-7.78 7.7800002,7.7800002 0 0 1 7.78,-7.78 7.7800002,7.7800002 0 0 1 7.78,7.78 z"
     style="fill:#365f91" /><path
     id="circle73"
     d="m 320.31271,26.45468 a 7.7800002,7.7800002 0 0 1 -7.78,7.77999 7.7800002,7.7800002 0 0 1 -7.78,-7.77999 7.7800002,7.7800002 0 0 1 7.78,-7.78001 7.7800002,7.7800002 0 0 1 7.78,7.78001 z"
     style="fill:#365f91" /><path
     id="circle74"
     d="m 274.95106,45.0505 a 7.7800002,7.7800002 0 0 1 -7.78001,7.78 7.7800002,7.7800002 0 0 1 -7.78,-7.78 7.7800002,7.7800002 0 0 1 7.78,-7.78 7.7800002,7.7800002 0 0 1 7.78001,7.78 z"
     style="fill:#365f91" /><path
     id="circle75"
     d="m 255.22075,20.01745 a 7.7800002,7.7800002 0 0 1 -7.78,7.78 7.7800002,7.7800002 0 0 1 -7.78,-7.78 7.7800002,7.7800002 0 0 1 7.78,-7.78 7.7800002,7.7800002 0 0 1 7.78,7.78 z"
     style="fill:#365f91" /><path
     id="circle76"
     d="m 399.82333,121.41338 a 7.7800002,7.7800002 0 0 1 -7.78,7.78 7.7800002,7.7800002 0 0 1 -7.78,-7.78 7.7800002,7.7800002 0 0 1 7.78,-7.78 7.7800002,7.7800002 0 0 1 7.78,7.78 z"
     style="fill:#212973" /><path
     id="circle77"
     d="m 408.99241,99.31026 a 7.7800002,7.7800002 0 0 1 -7.78,7.78 7.7800002,7.7800002 0 0 1 -7.78,-7.78 7.7800002,7.7800002 0 0 1 7.78,-7.78 7.7800002,7.7800002 0 0 1 7.78,7.78 z"
     style="fill:#212973" /><path
     id="circle78"
     d="m 419.76518,129.25277 a 7.7800002,7.7800002 0 0 1 -7.78,7.78 7.7800002,7.7800002 0 0 1 -7.78,-7.78 7.7800002,7.7800002 0 0 1 7.78,-7.78 7.7800002,7.7800002 0 0 1 7.78,7.78 z"
     style="fill:#212973" /><path
     id="circle79"
     d="m 388.77266,92.34954 a 7.7800002,7.7800002 0 0 1 -7.78,7.78 7.7800002,7.7800002 0 0 1 -7.78,-7.78 7.7800002,7.7800002 0 0 1 7.78,-7.77999 7.7800002,7.7800002 0 0 1 7.78,7.77999 z"
     style="fill:#212973" /><path
     id="circle80"
     d="m 379.69977,114.38353 a 7.7800002,7.7800002 0 0 1 -7.78,7.78001 7.7800002,7.7800002 0 0 1 -7.78,-7.78001 7.7800002,7.7800002 0 0 1 7.78,-7.78 7.7800002,7.7800002 0 0 1 7.78,7.78 z"
     style="fill:#212973" /><path
     id="circle81"
     d="m 359.29739,108.26379 a 7.7800002,7.7800002 0 0 1 -7.78,7.78 7.7800002,7.7800002 0 0 1 -7.78,-7.78 7.7800002,7.7800002 0 0 1 7.78,-7.78 7.7800002,7.7800002 0 0 1 7.78,7.78 z"
     style="fill:#212973" /><path
     id="circle82"
     d="m 363.18219,35.40411 a 7.7800002,7.7800002 0 0 1 -7.78,7.78 7.7800002,7.7800002 0 0 1 -7.78001,-7.78 7.7800002,7.7800002 0 0 1 7.78001,-7.78 7.7800002,7.7800002 0 0 1 7.78,7.78 z"
     style="fill:#212973" /><path
     id="circle83"
     d="m 417.73946,77.29085 a 7.7800002,7.7800002 0 0 1 -7.78,7.78 7.7800002,7.7800002 0 0 1 -7.78,-7.78 7.7800002,7.7800002 0 0 1 7.78,-7.77999 7.7800002,7.7800002 0 0 1 7.78,7.77999 z"
     style="fill:#212973" /><path
     id="circle84"
     d="m 397.94759,70.22787 a 7.7800002,7.7800002 0 0 1 -7.78,7.78 7.7800002,7.7800002 0 0 1 -7.78,-7.78 7.7800002,7.7800002 0 0 1 7.78,-7.77999 7.7800002,7.7800002 0 0 1 7.78,7.77999 z"
     style="fill:#212973" /><path
     id="circle85"
     d="m 384.33285,41.08386 a 7.7800002,7.7800002 0 0 1 -7.78,7.78 7.7800002,7.7800002 0 0 1 -7.78,-7.78 7.7800002,7.7800002 0 0 1 7.78,-7.78 7.7800002,7.7800002 0 0 1 7.78,7.78 z"
     style="fill:#212973" /><path
     id="circle86"
     d="m 368.69314,86.15612 a 7.7800002,7.7800002 0 0 1 -7.78,7.78 7.7800002,7.7800002 0 0 1 -7.78,-7.78 7.7800002,7.7800002 0 0 1 7.78,-7.77999 7.7800002,7.7800002 0 0 1 7.78,7.77999 z"
     style="fill:#212973" /><path
     id="circle87"
     d="m 405.25049,47.61376 a 7.7800002,7.7800002 0 0 1 -7.78,7.78 7.7800002,7.7800002 0 0 1 -7.78,-7.78 7.7800002,7.7800002 0 0 1 7.78,-7.78 7.7800002,7.7800002 0 0 1 7.78,7.78 z"
     style="fill:#212973" /><path
     id="circle88"
     d="m 425.90289,54.98382 a 7.7800002,7.7800002 0 0 1 -7.78,7.78 7.7800002,7.7800002 0 0 1 -7.78,-7.78 7.7800002,7.7800002 0 0 1 7.78,-7.78 7.7800002,7.7800002 0 0 1 7.78,7.78 z"
     style="fill:#212973" /><path
     id="circle89"
     d="m 370.3167,136.33028 a 7.7800002,7.7800002 0 0 1 -7.78,7.78 7.7800002,7.7800002 0 0 1 -7.78,-7.78 7.7800002,7.7800002 0 0 1 7.78,-7.78 7.7800002,7.7800002 0 0 1 7.78,7.78 z"
     style="fill:#212973" /><path
     id="circle90"
     d="m 378.03692,64.05706 a 7.7800002,7.7800002 0 0 1 -7.78,7.78 7.7800002,7.7800002 0 0 1 -7.78,-7.78 7.7800002,7.7800002 0 0 1 7.78,-7.78 7.7800002,7.7800002 0 0 1 7.78,7.78 z"
     style="fill:#212973" /><path
     id="circle91"
     d="m 349.97587,130.29513 a 7.7800002,7.7800002 0 0 1 -7.78,7.78 7.7800002,7.7800002 0 0 1 -7.78,-7.78 7.7800002,7.7800002 0 0 1 7.78,-7.78 7.7800002,7.7800002 0 0 1 7.78,7.78 z"
     style="fill:#212973" /><path
     id="circle92"
     d="m 338.655,103.06567 a 7.7800002,7.7800002 0 0 1 -7.78,7.78 7.7800002,7.7800002 0 0 1 -7.78,-7.78 7.7800002,7.7800002 0 0 1 7.78,-7.78 7.7800002,7.7800002 0 0 1 7.78,7.78 z"
     style="fill:#212973" /><path
     id="circle93"
     d="m 348.38221,80.74081 a 7.7800002,7.7800002 0 0 1 -7.78,7.78 7.7800002,7.7800002 0 0 1 -7.78,-7.78 7.7800002,7.7800002 0 0 1 7.78,-7.78 7.7800002,7.7800002 0 0 1 7.78,7.78 z"
     style="fill:#212973" /><path
     id="circle94"
     d="m 357.76755,58.61395 a 7.7800002,7.7800002 0 0 1 -7.78,7.78 7.7800002,7.7800002 0 0 1 -7.78,-7.78 7.7800002,7.7800002 0 0 1 7.78,-7.78001 7.7800002,7.7800002 0 0 1 7.78,7.78001 z"
     style="fill:#212973" /><path
     id="circle95"
     d="m 390.77099,143.42565 a 7.7800002,7.7800002 0 0 1 -7.78,7.78 7.7800002,7.7800002 0 0 1 -7.78,-7.78 7.7800002,7.7800002 0 0 1 7.78,-7.78 7.7800002,7.7800002 0 0 1 7.78,7.78 z"
     style="fill:#212973" /><path
     id="circle96"
     d="m 410.75366,151.21819 a 7.7800002,7.7800002 0 0 1 -7.78,7.78 7.7800002,7.7800002 0 0 1 -7.78,-7.78 7.7800002,7.7800002 0 0 1 7.78,-7.78 7.7800002,7.7800002 0 0 1 7.78,7.78 z"
     style="fill:#212973" /><path
     id="circle97"
     style="fill:#2b3e57"
     d="m 446.25824,63.18255 a 7.7800002,7.7800002 0 0 1 -7.78,7.78 7.7800002,7.7800002 0 0 1 -7.78,-7.78 7.7800002,7.7800002 0 0 1 7.78,-7.78 7.7800002,7.7800002 0 0 1 7.78,7.78 z" /><path
     id="circle98"
     style="fill:#2b3e57"
     d="m 437.38208,85.23498 a 7.7800002,7.7800002 0 0 1 -7.78,7.78 7.7800002,7.7800002 0 0 1 -7.78,-7.78 7.7800002,7.7800002 0 0 1 7.78,-7.78 7.7800002,7.7800002 0 0 1 7.78,7.78 z" /><path
     id="circle99"
     style="fill:#2b3e57"
     d="m 428.50592,107.28735 a 7.7800002,7.7800002 0 0 1 -7.78,7.78 7.7800002,7.7800002 0 0 1 -7.78,-7.78 7.7800002,7.7800002 0 0 1 7.78,-7.78 7.7800002,7.7800002 0 0 1 7.78,7.78 z" /><text
     class="party_count"
     dy="-1.507014"
     style="font-weight:bold;font-size:30.1403px;font-family:Merriweather;text-anchor:middle;display:none;opacity:0;fill:#ffffff;fill-opacity:1;stroke:none;stroke-width:2.51169;stroke-opacity:1"
     id="text114"
     transform="scale(0.98576184,1.0144438)"
     x="347.1749"
     y="1057.14"
     mask="url(#mask102)" /><text
     class="party_name"
     y="1057.14"
     dy="30.14028"
     style="font-weight:normal;font-size:30.1403px;font-family:Merriweather;text-anchor:middle;display:none;opacity:0;fill:#ffffff;fill-opacity:1;stroke:none;stroke-width:2.51169;stroke-opacity:1"
     id="text115"
     transform="scale(0.98576184,1.0144438)"
     x="347.1749"
     mask="url(#mask101)" /></svg>
