<?xml version="1.0" encoding="UTF-8" standalone="no"?>
<svg xmlns:svg="http://www.w3.org/2000/svg"
     xmlns="http://www.w3.org/2000/svg" version="1.1"
     width="360.0" height="185.0">
    <!-- Created with parliamentarch (https://github.com/Gouvernathor/parliamentarch/) -->
    <text x="180.0" y="175.0"
          style="font-size:36px;font-weight:bold;text-align:center;text-anchor:middle;font-family:sans-serif">663</text>
    <g style="fill:#4bb166"
       id="0-P-V">
        <title>PÉV</title>
        <circle cx="8.54" cy="176.50" r="2.80"/>
        <circle cx="15.54" cy="176.50" r="2.80"/>
        <circle cx="22.54" cy="176.50" r="2.80"/>
        <circle cx="29.54" cy="176.50" r="2.80"/>
        <circle cx="36.54" cy="176.50" r="2.80"/>
        <circle cx="43.54" cy="176.50" r="2.80"/>
        <circle cx="50.55" cy="176.50" r="2.80"/>
        <circle cx="57.55" cy="176.50" r="2.80"/>
        <circle cx="64.55" cy="176.50" r="2.80"/>
        <circle cx="71.56" cy="176.50" r="2.80"/>
        <circle cx="78.56" cy="176.50" r="2.80"/>
        <circle cx="85.56" cy="176.50" r="2.80"/>
        <circle cx="92.57" cy="176.50" r="2.80"/>
        <circle cx="8.89" cy="168.45" r="2.80"/>
        <circle cx="15.90" cy="168.54" r="2.80"/>
        <circle cx="22.92" cy="168.51" r="2.80"/>
        <circle cx="29.94" cy="168.48" r="2.80"/>
        <circle cx="36.95" cy="168.59" r="2.80"/>
        <circle cx="43.98" cy="168.55" r="2.80"/>
        <circle cx="51.01" cy="168.52" r="2.80"/>
        <circle cx="58.04" cy="168.48" r="2.80"/>
    </g>
    <g style="fill:#a70706"
       id="1-PS">
        <title>PS</title>
        <circle cx="65.08" cy="168.43" r="2.80"/>
        <circle cx="72.10" cy="168.57" r="2.80"/>
        <circle cx="79.15" cy="168.53" r="2.80"/>
        <circle cx="9.62" cy="160.43" r="2.80"/>
        <circle cx="16.65" cy="160.61" r="2.80"/>
        <circle cx="86.21" cy="168.48" r="2.80"/>
        <circle cx="23.70" cy="160.56" r="2.80"/>
        <circle cx="30.77" cy="160.49" r="2.80"/>
        <circle cx="93.24" cy="168.65" r="2.80"/>
        <circle cx="37.80" cy="160.71" r="2.80"/>
        <circle cx="44.88" cy="160.65" r="2.80"/>
        <circle cx="51.96" cy="160.58" r="2.80"/>
        <circle cx="59.06" cy="160.50" r="2.80"/>
        <circle cx="10.73" cy="152.45" r="2.80"/>
        <circle cx="17.78" cy="152.73" r="2.80"/>
        <circle cx="66.17" cy="160.42" r="2.80"/>
        <circle cx="24.89" cy="152.65" r="2.80"/>
        <circle cx="73.23" cy="160.70" r="2.80"/>
        <circle cx="32.02" cy="152.56" r="2.80"/>
        <circle cx="39.08" cy="152.89" r="2.80"/>
        <circle cx="80.37" cy="160.63" r="2.80"/>
        <circle cx="46.24" cy="152.81" r="2.80"/>
        <circle cx="87.53" cy="160.54" r="2.80"/>
        <circle cx="12.21" cy="144.53" r="2.80"/>
        <circle cx="53.41" cy="152.72" r="2.80"/>
        <circle cx="19.29" cy="144.91" r="2.80"/>
        <circle cx="94.61" cy="160.90" r="2.80"/>
        <circle cx="26.48" cy="144.81" r="2.80"/>
        <circle cx="60.60" cy="152.62" r="2.80"/>
        <circle cx="33.70" cy="144.71" r="2.80"/>
        <circle cx="67.82" cy="152.50" r="2.80"/>
        <circle cx="40.80" cy="145.15" r="2.80"/>
        <circle cx="74.93" cy="152.94" r="2.80"/>
        <circle cx="14.06" cy="136.69" r="2.80"/>
        <circle cx="48.05" cy="145.06" r="2.80"/>
        <circle cx="21.17" cy="137.17" r="2.80"/>
        <circle cx="82.20" cy="152.84" r="2.80"/>
        <circle cx="55.33" cy="144.96" r="2.80"/>
        <circle cx="28.46" cy="137.07" r="2.80"/>
        <circle cx="35.79" cy="136.95" r="2.80"/>
        <circle cx="62.65" cy="144.84" r="2.80"/>
        <circle cx="89.52" cy="152.74" r="2.80"/>
        <circle cx="42.93" cy="137.52" r="2.80"/>
        <circle cx="16.28" cy="128.94" r="2.80"/>
        <circle cx="96.67" cy="153.29" r="2.80"/>
        <circle cx="70.02" cy="144.72" r="2.80"/>
        <circle cx="23.43" cy="129.53" r="2.80"/>
        <circle cx="50.31" cy="137.43" r="2.80"/>
        <circle cx="77.19" cy="145.32" r="2.80"/>
        <circle cx="30.84" cy="129.43" r="2.80"/>
        <circle cx="57.73" cy="137.33" r="2.80"/>
        <circle cx="38.29" cy="129.32" r="2.80"/>
        <circle cx="18.86" cy="121.31" r="2.80"/>
        <circle cx="84.64" cy="145.23" r="2.80"/>
        <circle cx="45.49" cy="130.02" r="2.80"/>
        <circle cx="65.21" cy="137.22" r="2.80"/>
        <circle cx="26.06" cy="122.01" r="2.80"/>
    </g>
    <g style="fill:#d10b0b"
       id="2-PSD-">
        <title>PSD+</title>
        <circle cx="53.01" cy="129.94" r="2.80"/>
        <circle cx="33.60" cy="121.93" r="2.80"/>
        <circle cx="92.17" cy="145.13" r="2.80"/>
        <circle cx="72.76" cy="137.11" r="2.80"/>
        <circle cx="21.79" cy="113.81" r="2.80"/>
        <circle cx="41.19" cy="121.84" r="2.80"/>
        <circle cx="60.60" cy="129.86" r="2.80"/>
        <circle cx="80.01" cy="137.89" r="2.80"/>
        <circle cx="99.41" cy="145.91" r="2.80"/>
        <circle cx="29.05" cy="114.63" r="2.80"/>
        <circle cx="48.45" cy="122.67" r="2.80"/>
        <circle cx="68.26" cy="129.79" r="2.80"/>
        <circle cx="36.73" cy="114.57" r="2.80"/>
        <circle cx="87.67" cy="137.83" r="2.80"/>
        <circle cx="56.14" cy="122.63" r="2.80"/>
        <circle cx="25.07" cy="106.45" r="2.80"/>
        <circle cx="44.49" cy="114.52" r="2.80"/>
        <circle cx="76.02" cy="129.72" r="2.80"/>
        <circle cx="32.39" cy="107.40" r="2.80"/>
        <circle cx="63.92" cy="122.59" r="2.80"/>
        <circle cx="95.45" cy="137.79" r="2.80"/>
        <circle cx="51.82" cy="115.49" r="2.80"/>
        <circle cx="83.36" cy="130.68" r="2.80"/>
        <circle cx="40.24" cy="107.38" r="2.80"/>
        <circle cx="71.80" cy="122.57" r="2.80"/>
        <circle cx="28.70" cy="99.25" r="2.80"/>
        <circle cx="102.81" cy="138.80" r="2.80"/>
        <circle cx="59.70" cy="115.51" r="2.80"/>
        <circle cx="48.18" cy="107.38" r="2.80"/>
        <circle cx="36.07" cy="100.34" r="2.80"/>
        <circle cx="91.28" cy="130.70" r="2.80"/>
        <circle cx="79.79" cy="122.56" r="2.80"/>
        <circle cx="67.68" cy="115.54" r="2.80"/>
        <circle cx="55.57" cy="108.52" r="2.80"/>
        <circle cx="44.10" cy="100.38" r="2.80"/>
        <circle cx="32.66" cy="92.24" r="2.80"/>
        <circle cx="87.22" cy="123.74" r="2.80"/>
        <circle cx="99.35" cy="130.74" r="2.80"/>
        <circle cx="63.66" cy="108.61" r="2.80"/>
        <circle cx="75.80" cy="115.60" r="2.80"/>
        <circle cx="40.10" cy="93.47" r="2.80"/>
        <circle cx="52.24" cy="100.45" r="2.80"/>
        <circle cx="59.71" cy="101.76" r="2.80"/>
        <circle cx="106.82" cy="132.03" r="2.80"/>
        <circle cx="48.32" cy="93.59" r="2.80"/>
        <circle cx="71.88" cy="108.73" r="2.80"/>
        <circle cx="36.94" cy="85.41" r="2.80"/>
        <circle cx="95.43" cy="123.87" r="2.80"/>
        <circle cx="84.06" cy="115.69" r="2.80"/>
        <circle cx="44.45" cy="86.80" r="2.80"/>
        <circle cx="68.02" cy="101.95" r="2.80"/>
        <circle cx="56.66" cy="93.75" r="2.80"/>
        <circle cx="91.59" cy="117.10" r="2.80"/>
        <circle cx="80.24" cy="108.90" r="2.80"/>
        <circle cx="41.54" cy="78.80" r="2.80"/>
        <circle cx="52.87" cy="87.02" r="2.80"/>
        <circle cx="64.21" cy="95.24" r="2.80"/>
        <circle cx="103.84" cy="124.06" r="2.80"/>
        <circle cx="76.48" cy="102.19" r="2.80"/>
        <circle cx="49.12" cy="80.35" r="2.80"/>
        <circle cx="88.79" cy="109.14" r="2.80"/>
        <circle cx="61.44" cy="87.30" r="2.80"/>
        <circle cx="100.11" cy="117.39" r="2.80"/>
        <circle cx="72.76" cy="95.55" r="2.80"/>
        <circle cx="111.43" cy="125.64" r="2.80"/>
        <circle cx="46.45" cy="72.41" r="2.80"/>
        <circle cx="57.76" cy="80.69" r="2.80"/>
        <circle cx="85.12" cy="102.51" r="2.80"/>
        <circle cx="69.07" cy="88.97" r="2.80"/>
        <circle cx="96.43" cy="110.80" r="2.80"/>
        <circle cx="54.10" cy="74.13" r="2.80"/>
        <circle cx="81.48" cy="95.95" r="2.80"/>
        <circle cx="66.55" cy="81.10" r="2.80"/>
        <circle cx="108.87" cy="117.78" r="2.80"/>
        <circle cx="51.65" cy="66.26" r="2.80"/>
        <circle cx="77.86" cy="89.45" r="2.80"/>
        <circle cx="93.97" cy="102.93" r="2.80"/>
        <circle cx="62.96" cy="74.61" r="2.80"/>
        <circle cx="74.26" cy="82.99" r="2.80"/>
        <circle cx="105.29" cy="111.29" r="2.80"/>
        <circle cx="59.37" cy="68.16" r="2.80"/>
        <circle cx="90.41" cy="96.46" r="2.80"/>
        <circle cx="116.60" cy="119.70" r="2.80"/>
        <circle cx="101.72" cy="104.87" r="2.80"/>
        <circle cx="86.85" cy="90.03" r="2.80"/>
        <circle cx="71.99" cy="75.19" r="2.80"/>
        <circle cx="57.13" cy="60.35" r="2.80"/>
        <circle cx="83.31" cy="83.65" r="2.80"/>
        <circle cx="68.45" cy="68.81" r="2.80"/>
        <circle cx="64.93" cy="62.45" r="2.80"/>
        <circle cx="79.78" cy="77.30" r="2.80"/>
        <circle cx="99.58" cy="97.10" r="2.80"/>
        <circle cx="114.43" cy="111.95" r="2.80"/>
        <circle cx="96.08" cy="90.76" r="2.80"/>
        <circle cx="62.89" cy="54.71" r="2.80"/>
        <circle cx="110.93" cy="105.63" r="2.80"/>
        <circle cx="77.73" cy="69.58" r="2.80"/>
        <circle cx="92.58" cy="84.46" r="2.80"/>
        <circle cx="74.24" cy="63.29" r="2.80"/>
        <circle cx="107.43" cy="99.34" r="2.80"/>
        <circle cx="89.09" cy="78.18" r="2.80"/>
        <circle cx="70.75" cy="57.02" r="2.80"/>
        <circle cx="122.28" cy="114.24" r="2.80"/>
        <circle cx="85.60" cy="71.92" r="2.80"/>
        <circle cx="68.90" cy="49.35" r="2.80"/>
        <circle cx="105.57" cy="91.68" r="2.80"/>
        <circle cx="83.77" cy="64.29" r="2.80"/>
        <circle cx="102.11" cy="85.45" r="2.80"/>
        <circle cx="80.30" cy="58.07" r="2.80"/>
        <circle cx="120.46" cy="106.62" r="2.80"/>
        <circle cx="98.65" cy="79.24" r="2.80"/>
        <circle cx="76.83" cy="51.87" r="2.80"/>
        <circle cx="95.18" cy="73.05" r="2.80"/>
        <circle cx="117.00" cy="100.42" r="2.80"/>
        <circle cx="91.71" cy="66.88" r="2.80"/>
        <circle cx="113.53" cy="94.24" r="2.80"/>
        <circle cx="75.16" cy="44.28" r="2.80"/>
        <circle cx="90.08" cy="59.32" r="2.80"/>
    </g>
    <g style="fill:#56277e"
       id="3-LTI">
        <title>LTI</title>
        <circle cx="86.62" cy="53.17" r="2.80"/>
        <circle cx="128.43" cy="109.31" r="2.80"/>
        <circle cx="111.94" cy="86.69" r="2.80"/>
        <circle cx="83.15" cy="47.03" r="2.80"/>
        <circle cx="108.48" cy="80.55" r="2.80"/>
        <circle cx="105.02" cy="74.42" r="2.80"/>
        <circle cx="101.55" cy="68.29" r="2.80"/>
        <circle cx="81.65" cy="39.50" r="2.80"/>
        <circle cx="98.09" cy="62.18" r="2.80"/>
        <circle cx="126.92" cy="101.82" r="2.80"/>
        <circle cx="123.45" cy="95.71" r="2.80"/>
        <circle cx="96.64" cy="54.69" r="2.80"/>
        <circle cx="119.99" cy="89.61" r="2.80"/>
        <circle cx="93.17" cy="48.59" r="2.80"/>
        <circle cx="89.70" cy="42.50" r="2.80"/>
        <circle cx="88.35" cy="35.04" r="2.80"/>
        <circle cx="118.63" cy="82.15" r="2.80"/>
        <circle cx="115.16" cy="76.07" r="2.80"/>
        <circle cx="111.68" cy="69.99" r="2.80"/>
        <circle cx="108.20" cy="63.91" r="2.80"/>
        <circle cx="104.71" cy="57.83" r="2.80"/>
        <circle cx="134.99" cy="104.96" r="2.80"/>
        <circle cx="103.45" cy="50.42" r="2.80"/>
        <circle cx="99.96" cy="44.36" r="2.80"/>
        <circle cx="96.46" cy="38.29" r="2.80"/>
        <circle cx="95.26" cy="30.90" r="2.80"/>
        <circle cx="126.76" cy="85.46" r="2.80"/>
        <circle cx="130.26" cy="91.52" r="2.80"/>
        <circle cx="133.76" cy="97.58" r="2.80"/>
        <circle cx="111.57" cy="53.87" r="2.80"/>
        <circle cx="115.08" cy="59.92" r="2.80"/>
        <circle cx="118.60" cy="65.98" r="2.80"/>
        <circle cx="122.11" cy="72.04" r="2.80"/>
        <circle cx="125.63" cy="78.10" r="2.80"/>
        <circle cx="103.42" cy="34.41" r="2.80"/>
        <circle cx="106.94" cy="40.47" r="2.80"/>
        <circle cx="110.47" cy="46.53" r="2.80"/>
        <circle cx="102.36" cy="27.08" r="2.80"/>
        <circle cx="141.92" cy="101.22" r="2.80"/>
        <circle cx="118.64" cy="50.28" r="2.80"/>
        <circle cx="133.83" cy="81.82" r="2.80"/>
        <circle cx="122.19" cy="56.35" r="2.80"/>
        <circle cx="110.56" cy="30.88" r="2.80"/>
        <circle cx="137.38" cy="87.88" r="2.80"/>
        <circle cx="125.75" cy="62.41" r="2.80"/>
        <circle cx="114.12" cy="36.94" r="2.80"/>
        <circle cx="117.68" cy="43.01" r="2.80"/>
        <circle cx="129.32" cy="68.48" r="2.80"/>
        <circle cx="140.95" cy="93.95" r="2.80"/>
        <circle cx="109.63" cy="23.60" r="2.80"/>
        <circle cx="132.89" cy="74.54" r="2.80"/>
        <circle cx="117.86" cy="27.69" r="2.80"/>
        <circle cx="125.89" cy="47.09" r="2.80"/>
        <circle cx="121.46" cy="33.78" r="2.80"/>
        <circle cx="129.50" cy="53.19" r="2.80"/>
        <circle cx="117.05" cy="20.47" r="2.80"/>
        <circle cx="125.08" cy="39.88" r="2.80"/>
        <circle cx="133.11" cy="59.29" r="2.80"/>
    </g>
    <g style="fill:#255e4b"
       id="4-PPI">
        <title>PPI</title>
        <circle cx="141.14" cy="78.70" r="2.80"/>
        <circle cx="136.74" cy="65.39" r="2.80"/>
        <circle cx="149.16" cy="98.11" r="2.80"/>
        <circle cx="144.76" cy="84.81" r="2.80"/>
        <circle cx="140.38" cy="71.51" r="2.80"/>
        <circle cx="148.41" cy="90.94" r="2.80"/>
        <circle cx="125.30" cy="24.86" r="2.80"/>
        <circle cx="133.31" cy="44.31" r="2.80"/>
        <circle cx="128.96" cy="31.00" r="2.80"/>
        <circle cx="124.61" cy="17.69" r="2.80"/>
        <circle cx="136.97" cy="50.46" r="2.80"/>
        <circle cx="132.63" cy="37.15" r="2.80"/>
        <circle cx="140.65" cy="56.62" r="2.80"/>
        <circle cx="144.35" cy="62.80" r="2.80"/>
        <circle cx="148.66" cy="76.13" r="2.80"/>
        <circle cx="132.88" cy="22.39" r="2.80"/>
        <circle cx="132.29" cy="15.27" r="2.80"/>
        <circle cx="148.07" cy="69.00" r="2.80"/>
    </g>
    <g style="fill:#e7511e"
       id="5-ADLR">
        <title>ADLR</title>
        <circle cx="136.59" cy="28.60" r="2.80"/>
        <circle cx="140.88" cy="41.94" r="2.80"/>
        <circle cx="152.36" cy="82.33" r="2.80"/>
        <circle cx="156.65" cy="95.67" r="2.80"/>
        <circle cx="140.32" cy="34.83" r="2.80"/>
        <circle cx="144.59" cy="48.17" r="2.80"/>
        <circle cx="156.11" cy="88.57" r="2.80"/>
        <circle cx="148.34" cy="54.43" r="2.80"/>
        <circle cx="140.56" cy="20.30" r="2.80"/>
        <circle cx="140.08" cy="13.21" r="2.80"/>
        <circle cx="152.11" cy="60.72" r="2.80"/>
        <circle cx="144.33" cy="26.59" r="2.80"/>
        <circle cx="148.56" cy="39.99" r="2.80"/>
        <circle cx="156.34" cy="74.11" r="2.80"/>
        <circle cx="148.12" cy="32.92" r="2.80"/>
        <circle cx="155.92" cy="67.04" r="2.80"/>
        <circle cx="152.34" cy="46.33" r="2.80"/>
        <circle cx="160.14" cy="80.46" r="2.80"/>
        <circle cx="148.34" cy="18.58" r="2.80"/>
        <circle cx="147.96" cy="11.52" r="2.80"/>
        <circle cx="156.15" cy="52.72" r="2.80"/>
        <circle cx="164.33" cy="93.92" r="2.80"/>
        <circle cx="152.16" cy="24.98" r="2.80"/>
        <circle cx="163.97" cy="86.87" r="2.80"/>
        <circle cx="156.33" cy="38.47" r="2.80"/>
        <circle cx="159.99" cy="59.15" r="2.80"/>
        <circle cx="156.01" cy="31.42" r="2.80"/>
        <circle cx="164.16" cy="72.66" r="2.80"/>
        <circle cx="160.17" cy="44.95" r="2.80"/>
        <circle cx="156.19" cy="17.23" r="2.80"/>
        <circle cx="155.91" cy="10.20" r="2.80"/>
        <circle cx="163.88" cy="65.63" r="2.80"/>
        <circle cx="160.06" cy="23.77" r="2.80"/>
        <circle cx="164.05" cy="51.49" r="2.80"/>
        <circle cx="168.03" cy="79.21" r="2.80"/>
        <circle cx="164.18" cy="37.37" r="2.80"/>
        <circle cx="163.97" cy="30.36" r="2.80"/>
        <circle cx="167.96" cy="58.09" r="2.80"/>
        <circle cx="164.09" cy="16.27" r="2.80"/>
        <circle cx="163.91" cy="9.26" r="2.80"/>
        <circle cx="172.13" cy="92.85" r="2.80"/>
        <circle cx="168.08" cy="44.02" r="2.80"/>
        <circle cx="171.96" cy="85.84" r="2.80"/>
        <circle cx="168.02" cy="22.96" r="2.80"/>
        <circle cx="172.06" cy="71.79" r="2.80"/>
        <circle cx="171.92" cy="64.78" r="2.80"/>
        <circle cx="172.01" cy="50.75" r="2.80"/>
        <circle cx="172.08" cy="36.72" r="2.80"/>
        <circle cx="171.97" cy="29.71" r="2.80"/>
        <circle cx="172.04" cy="15.69" r="2.80"/>
        <circle cx="171.95" cy="8.69" r="2.80"/>
        <circle cx="176.00" cy="78.58" r="2.80"/>
        <circle cx="175.98" cy="57.57" r="2.80"/>
        <circle cx="176.02" cy="43.56" r="2.80"/>
        <circle cx="176.00" cy="22.55" r="2.80"/>
        <circle cx="180.00" cy="92.50" r="2.80"/>
        <circle cx="180.00" cy="85.50" r="2.80"/>
        <circle cx="180.00" cy="71.50" r="2.80"/>
        <circle cx="180.00" cy="64.50" r="2.80"/>
        <circle cx="180.00" cy="50.50" r="2.80"/>
        <circle cx="180.00" cy="36.50" r="2.80"/>
        <circle cx="180.00" cy="29.50" r="2.80"/>
        <circle cx="180.00" cy="15.50" r="2.80"/>
        <circle cx="180.00" cy="8.50" r="2.80"/>
        <circle cx="184.00" cy="22.55" r="2.80"/>
        <circle cx="183.98" cy="43.56" r="2.80"/>
        <circle cx="184.02" cy="57.57" r="2.80"/>
        <circle cx="184.00" cy="78.58" r="2.80"/>
        <circle cx="188.05" cy="8.69" r="2.80"/>
        <circle cx="187.96" cy="15.69" r="2.80"/>
        <circle cx="188.03" cy="29.71" r="2.80"/>
        <circle cx="187.92" cy="36.72" r="2.80"/>
        <circle cx="187.99" cy="50.75" r="2.80"/>
        <circle cx="188.08" cy="64.78" r="2.80"/>
        <circle cx="187.94" cy="71.79" r="2.80"/>
        <circle cx="191.98" cy="22.96" r="2.80"/>
        <circle cx="188.04" cy="85.84" r="2.80"/>
        <circle cx="191.92" cy="44.02" r="2.80"/>
        <circle cx="187.87" cy="92.85" r="2.80"/>
        <circle cx="196.09" cy="9.26" r="2.80"/>
        <circle cx="195.91" cy="16.27" r="2.80"/>
        <circle cx="192.04" cy="58.09" r="2.80"/>
        <circle cx="196.03" cy="30.36" r="2.80"/>
        <circle cx="195.82" cy="37.37" r="2.80"/>
        <circle cx="191.97" cy="79.21" r="2.80"/>
        <circle cx="195.95" cy="51.49" r="2.80"/>
        <circle cx="199.94" cy="23.77" r="2.80"/>
        <circle cx="196.12" cy="65.63" r="2.80"/>
        <circle cx="204.09" cy="10.20" r="2.80"/>
        <circle cx="203.81" cy="17.23" r="2.80"/>
        <circle cx="199.83" cy="44.95" r="2.80"/>
        <circle cx="195.84" cy="72.66" r="2.80"/>
        <circle cx="203.99" cy="31.42" r="2.80"/>
        <circle cx="200.01" cy="59.15" r="2.80"/>
        <circle cx="203.67" cy="38.47" r="2.80"/>
        <circle cx="196.03" cy="86.87" r="2.80"/>
        <circle cx="207.84" cy="24.98" r="2.80"/>
        <circle cx="195.67" cy="93.92" r="2.80"/>
    </g>
    <g style="fill:#f2a200"
       id="6-NTEA">
        <title>NTEA</title>
        <circle cx="203.85" cy="52.72" r="2.80"/>
        <circle cx="212.04" cy="11.52" r="2.80"/>
        <circle cx="211.66" cy="18.58" r="2.80"/>
        <circle cx="199.86" cy="80.46" r="2.80"/>
        <circle cx="207.66" cy="46.33" r="2.80"/>
        <circle cx="204.08" cy="67.04" r="2.80"/>
        <circle cx="211.88" cy="32.92" r="2.80"/>
        <circle cx="203.66" cy="74.11" r="2.80"/>
        <circle cx="211.44" cy="39.99" r="2.80"/>
        <circle cx="215.67" cy="26.59" r="2.80"/>
        <circle cx="207.89" cy="60.72" r="2.80"/>
        <circle cx="219.92" cy="13.21" r="2.80"/>
        <circle cx="219.44" cy="20.30" r="2.80"/>
        <circle cx="211.66" cy="54.43" r="2.80"/>
        <circle cx="203.89" cy="88.57" r="2.80"/>
        <circle cx="215.41" cy="48.17" r="2.80"/>
        <circle cx="219.68" cy="34.83" r="2.80"/>
        <circle cx="203.35" cy="95.67" r="2.80"/>
        <circle cx="207.64" cy="82.33" r="2.80"/>
        <circle cx="219.12" cy="41.94" r="2.80"/>
        <circle cx="223.41" cy="28.60" r="2.80"/>
        <circle cx="211.93" cy="69.00" r="2.80"/>
        <circle cx="227.71" cy="15.27" r="2.80"/>
        <circle cx="227.12" cy="22.39" r="2.80"/>
        <circle cx="211.34" cy="76.13" r="2.80"/>
        <circle cx="215.65" cy="62.80" r="2.80"/>
        <circle cx="219.35" cy="56.62" r="2.80"/>
        <circle cx="227.37" cy="37.15" r="2.80"/>
        <circle cx="223.03" cy="50.46" r="2.80"/>
        <circle cx="235.39" cy="17.69" r="2.80"/>
        <circle cx="231.04" cy="31.00" r="2.80"/>
    </g>
    <g style="fill:#e87c00"
       id="7-FFT">
        <title>FFT</title>
        <circle cx="226.69" cy="44.31" r="2.80"/>
        <circle cx="234.70" cy="24.86" r="2.80"/>
        <circle cx="211.59" cy="90.94" r="2.80"/>
        <circle cx="219.62" cy="71.51" r="2.80"/>
        <circle cx="215.24" cy="84.81" r="2.80"/>
        <circle cx="210.84" cy="98.11" r="2.80"/>
        <circle cx="223.26" cy="65.39" r="2.80"/>
        <circle cx="218.86" cy="78.70" r="2.80"/>
        <circle cx="226.89" cy="59.29" r="2.80"/>
        <circle cx="234.92" cy="39.88" r="2.80"/>
        <circle cx="242.95" cy="20.47" r="2.80"/>
        <circle cx="230.50" cy="53.19" r="2.80"/>
    </g>
    <g style="fill:#3d6ca5"
       id="8-RPNR">
        <title>RPNR</title>
        <circle cx="238.54" cy="33.78" r="2.80"/>
        <circle cx="234.11" cy="47.09" r="2.80"/>
        <circle cx="242.14" cy="27.69" r="2.80"/>
        <circle cx="227.11" cy="74.54" r="2.80"/>
        <circle cx="250.37" cy="23.60" r="2.80"/>
        <circle cx="219.05" cy="93.95" r="2.80"/>
        <circle cx="230.68" cy="68.48" r="2.80"/>
        <circle cx="242.32" cy="43.01" r="2.80"/>
        <circle cx="245.88" cy="36.94" r="2.80"/>
        <circle cx="234.25" cy="62.41" r="2.80"/>
        <circle cx="222.62" cy="87.88" r="2.80"/>
        <circle cx="249.44" cy="30.88" r="2.80"/>
        <circle cx="237.81" cy="56.35" r="2.80"/>
        <circle cx="226.17" cy="81.82" r="2.80"/>
        <circle cx="241.36" cy="50.28" r="2.80"/>
        <circle cx="218.08" cy="101.22" r="2.80"/>
        <circle cx="257.64" cy="27.08" r="2.80"/>
        <circle cx="249.53" cy="46.53" r="2.80"/>
        <circle cx="253.06" cy="40.47" r="2.80"/>
        <circle cx="256.58" cy="34.41" r="2.80"/>
        <circle cx="234.37" cy="78.10" r="2.80"/>
        <circle cx="237.89" cy="72.04" r="2.80"/>
        <circle cx="241.40" cy="65.98" r="2.80"/>
        <circle cx="244.92" cy="59.92" r="2.80"/>
        <circle cx="248.43" cy="53.87" r="2.80"/>
        <circle cx="226.24" cy="97.58" r="2.80"/>
        <circle cx="229.74" cy="91.52" r="2.80"/>
        <circle cx="233.24" cy="85.46" r="2.80"/>
        <circle cx="264.74" cy="30.90" r="2.80"/>
        <circle cx="263.54" cy="38.29" r="2.80"/>
        <circle cx="260.04" cy="44.36" r="2.80"/>
        <circle cx="256.55" cy="50.42" r="2.80"/>
        <circle cx="225.01" cy="104.96" r="2.80"/>
        <circle cx="255.29" cy="57.83" r="2.80"/>
        <circle cx="251.80" cy="63.91" r="2.80"/>
        <circle cx="248.32" cy="69.99" r="2.80"/>
        <circle cx="244.84" cy="76.07" r="2.80"/>
        <circle cx="241.37" cy="82.15" r="2.80"/>
        <circle cx="271.65" cy="35.04" r="2.80"/>
        <circle cx="270.30" cy="42.50" r="2.80"/>
        <circle cx="266.83" cy="48.59" r="2.80"/>
        <circle cx="240.01" cy="89.61" r="2.80"/>
        <circle cx="263.36" cy="54.69" r="2.80"/>
        <circle cx="236.55" cy="95.71" r="2.80"/>
        <circle cx="233.08" cy="101.82" r="2.80"/>
        <circle cx="261.91" cy="62.18" r="2.80"/>
        <circle cx="278.35" cy="39.50" r="2.80"/>
        <circle cx="258.45" cy="68.29" r="2.80"/>
        <circle cx="254.98" cy="74.42" r="2.80"/>
        <circle cx="251.52" cy="80.55" r="2.80"/>
        <circle cx="276.85" cy="47.03" r="2.80"/>
        <circle cx="248.06" cy="86.69" r="2.80"/>
        <circle cx="231.57" cy="109.31" r="2.80"/>
        <circle cx="273.38" cy="53.17" r="2.80"/>
        <circle cx="269.92" cy="59.32" r="2.80"/>
        <circle cx="284.84" cy="44.28" r="2.80"/>
        <circle cx="246.47" cy="94.24" r="2.80"/>
        <circle cx="268.29" cy="66.88" r="2.80"/>
        <circle cx="243.00" cy="100.42" r="2.80"/>
        <circle cx="264.82" cy="73.05" r="2.80"/>
        <circle cx="283.17" cy="51.87" r="2.80"/>
        <circle cx="261.35" cy="79.24" r="2.80"/>
        <circle cx="239.54" cy="106.62" r="2.80"/>
        <circle cx="279.70" cy="58.07" r="2.80"/>
        <circle cx="257.89" cy="85.45" r="2.80"/>
        <circle cx="276.23" cy="64.29" r="2.80"/>
        <circle cx="254.43" cy="91.68" r="2.80"/>
        <circle cx="291.10" cy="49.35" r="2.80"/>
        <circle cx="274.40" cy="71.92" r="2.80"/>
        <circle cx="237.72" cy="114.24" r="2.80"/>
        <circle cx="289.25" cy="57.02" r="2.80"/>
        <circle cx="270.91" cy="78.18" r="2.80"/>
        <circle cx="252.57" cy="99.34" r="2.80"/>
        <circle cx="285.76" cy="63.29" r="2.80"/>
        <circle cx="267.42" cy="84.46" r="2.80"/>
        <circle cx="282.27" cy="69.58" r="2.80"/>
        <circle cx="249.07" cy="105.63" r="2.80"/>
        <circle cx="297.11" cy="54.71" r="2.80"/>
        <circle cx="263.92" cy="90.76" r="2.80"/>
        <circle cx="245.57" cy="111.95" r="2.80"/>
        <circle cx="260.42" cy="97.10" r="2.80"/>
        <circle cx="280.22" cy="77.30" r="2.80"/>
        <circle cx="295.07" cy="62.45" r="2.80"/>
        <circle cx="291.55" cy="68.81" r="2.80"/>
        <circle cx="276.69" cy="83.65" r="2.80"/>
        <circle cx="302.87" cy="60.35" r="2.80"/>
        <circle cx="288.01" cy="75.19" r="2.80"/>
        <circle cx="273.15" cy="90.03" r="2.80"/>
        <circle cx="258.28" cy="104.87" r="2.80"/>
        <circle cx="243.40" cy="119.70" r="2.80"/>
        <circle cx="269.59" cy="96.46" r="2.80"/>
        <circle cx="300.63" cy="68.16" r="2.80"/>
        <circle cx="254.71" cy="111.29" r="2.80"/>
        <circle cx="285.74" cy="82.99" r="2.80"/>
        <circle cx="297.04" cy="74.61" r="2.80"/>
        <circle cx="266.03" cy="102.93" r="2.80"/>
        <circle cx="282.14" cy="89.45" r="2.80"/>
        <circle cx="308.35" cy="66.26" r="2.80"/>
        <circle cx="251.13" cy="117.78" r="2.80"/>
        <circle cx="293.45" cy="81.10" r="2.80"/>
        <circle cx="278.52" cy="95.95" r="2.80"/>
        <circle cx="305.90" cy="74.13" r="2.80"/>
        <circle cx="263.57" cy="110.80" r="2.80"/>
        <circle cx="290.93" cy="88.97" r="2.80"/>
        <circle cx="274.88" cy="102.51" r="2.80"/>
        <circle cx="302.24" cy="80.69" r="2.80"/>
        <circle cx="313.55" cy="72.41" r="2.80"/>
        <circle cx="248.57" cy="125.64" r="2.80"/>
        <circle cx="287.24" cy="95.55" r="2.80"/>
        <circle cx="259.89" cy="117.39" r="2.80"/>
        <circle cx="298.56" cy="87.30" r="2.80"/>
        <circle cx="271.21" cy="109.14" r="2.80"/>
        <circle cx="310.88" cy="80.35" r="2.80"/>
        <circle cx="283.52" cy="102.19" r="2.80"/>
        <circle cx="256.16" cy="124.06" r="2.80"/>
        <circle cx="295.79" cy="95.24" r="2.80"/>
        <circle cx="307.13" cy="87.02" r="2.80"/>
        <circle cx="318.46" cy="78.80" r="2.80"/>
        <circle cx="279.76" cy="108.90" r="2.80"/>
        <circle cx="268.41" cy="117.10" r="2.80"/>
        <circle cx="303.34" cy="93.75" r="2.80"/>
        <circle cx="291.98" cy="101.95" r="2.80"/>
        <circle cx="315.55" cy="86.80" r="2.80"/>
        <circle cx="275.94" cy="115.69" r="2.80"/>
        <circle cx="264.57" cy="123.87" r="2.80"/>
        <circle cx="323.06" cy="85.41" r="2.80"/>
        <circle cx="288.12" cy="108.73" r="2.80"/>
        <circle cx="311.68" cy="93.59" r="2.80"/>
        <circle cx="253.18" cy="132.03" r="2.80"/>
        <circle cx="300.29" cy="101.76" r="2.80"/>
    </g>
    <g style="fill:#21278a"
       id="9-PRN">
        <title>PRN</title>
        <circle cx="307.76" cy="100.45" r="2.80"/>
        <circle cx="319.90" cy="93.47" r="2.80"/>
        <circle cx="284.20" cy="115.60" r="2.80"/>
        <circle cx="296.34" cy="108.61" r="2.80"/>
        <circle cx="260.65" cy="130.74" r="2.80"/>
        <circle cx="272.78" cy="123.74" r="2.80"/>
        <circle cx="327.34" cy="92.24" r="2.80"/>
        <circle cx="315.90" cy="100.38" r="2.80"/>
        <circle cx="304.43" cy="108.52" r="2.80"/>
        <circle cx="292.32" cy="115.54" r="2.80"/>
        <circle cx="280.21" cy="122.56" r="2.80"/>
        <circle cx="268.72" cy="130.70" r="2.80"/>
        <circle cx="323.93" cy="100.34" r="2.80"/>
        <circle cx="311.82" cy="107.38" r="2.80"/>
        <circle cx="300.30" cy="115.51" r="2.80"/>
        <circle cx="257.19" cy="138.80" r="2.80"/>
        <circle cx="331.30" cy="99.25" r="2.80"/>
        <circle cx="288.20" cy="122.57" r="2.80"/>
        <circle cx="319.76" cy="107.38" r="2.80"/>
        <circle cx="276.64" cy="130.68" r="2.80"/>
        <circle cx="308.18" cy="115.49" r="2.80"/>
        <circle cx="264.55" cy="137.79" r="2.80"/>
        <circle cx="296.08" cy="122.59" r="2.80"/>
        <circle cx="327.61" cy="107.40" r="2.80"/>
    </g>
    <g style="fill:#344357"
       id="10-NCD">
        <title>NCD</title>
        <circle cx="283.98" cy="129.72" r="2.80"/>
        <circle cx="315.51" cy="114.52" r="2.80"/>
        <circle cx="334.93" cy="106.45" r="2.80"/>
        <circle cx="303.86" cy="122.63" r="2.80"/>
        <circle cx="272.33" cy="137.83" r="2.80"/>
        <circle cx="323.27" cy="114.57" r="2.80"/>
        <circle cx="291.74" cy="129.79" r="2.80"/>
        <circle cx="311.55" cy="122.67" r="2.80"/>
        <circle cx="330.95" cy="114.63" r="2.80"/>
        <circle cx="260.59" cy="145.91" r="2.80"/>
        <circle cx="279.99" cy="137.89" r="2.80"/>
        <circle cx="299.40" cy="129.86" r="2.80"/>
        <circle cx="318.81" cy="121.84" r="2.80"/>
        <circle cx="338.21" cy="113.81" r="2.80"/>
        <circle cx="287.24" cy="137.11" r="2.80"/>
        <circle cx="267.83" cy="145.13" r="2.80"/>
        <circle cx="326.40" cy="121.93" r="2.80"/>
        <circle cx="306.99" cy="129.94" r="2.80"/>
        <circle cx="333.94" cy="122.01" r="2.80"/>
        <circle cx="294.79" cy="137.22" r="2.80"/>
        <circle cx="314.51" cy="130.02" r="2.80"/>
        <circle cx="275.36" cy="145.23" r="2.80"/>
        <circle cx="341.14" cy="121.31" r="2.80"/>
        <circle cx="321.71" cy="129.32" r="2.80"/>
        <circle cx="302.27" cy="137.33" r="2.80"/>
        <circle cx="329.16" cy="129.43" r="2.80"/>
        <circle cx="282.81" cy="145.32" r="2.80"/>
        <circle cx="309.69" cy="137.43" r="2.80"/>
        <circle cx="336.57" cy="129.53" r="2.80"/>
        <circle cx="289.98" cy="144.72" r="2.80"/>
        <circle cx="263.33" cy="153.29" r="2.80"/>
        <circle cx="343.72" cy="128.94" r="2.80"/>
        <circle cx="317.07" cy="137.52" r="2.80"/>
        <circle cx="270.48" cy="152.74" r="2.80"/>
        <circle cx="297.35" cy="144.84" r="2.80"/>
        <circle cx="324.21" cy="136.95" r="2.80"/>
        <circle cx="331.54" cy="137.07" r="2.80"/>
        <circle cx="304.67" cy="144.96" r="2.80"/>
        <circle cx="277.80" cy="152.84" r="2.80"/>
        <circle cx="338.83" cy="137.17" r="2.80"/>
        <circle cx="311.95" cy="145.06" r="2.80"/>
        <circle cx="345.94" cy="136.69" r="2.80"/>
        <circle cx="285.07" cy="152.94" r="2.80"/>
        <circle cx="319.20" cy="145.15" r="2.80"/>
        <circle cx="292.18" cy="152.50" r="2.80"/>
        <circle cx="326.30" cy="144.71" r="2.80"/>
        <circle cx="299.40" cy="152.62" r="2.80"/>
        <circle cx="333.52" cy="144.81" r="2.80"/>
        <circle cx="265.39" cy="160.90" r="2.80"/>
        <circle cx="340.71" cy="144.91" r="2.80"/>
        <circle cx="306.59" cy="152.72" r="2.80"/>
        <circle cx="347.79" cy="144.53" r="2.80"/>
        <circle cx="272.47" cy="160.54" r="2.80"/>
        <circle cx="313.76" cy="152.81" r="2.80"/>
        <circle cx="279.63" cy="160.63" r="2.80"/>
        <circle cx="320.92" cy="152.89" r="2.80"/>
        <circle cx="327.98" cy="152.56" r="2.80"/>
        <circle cx="286.77" cy="160.70" r="2.80"/>
        <circle cx="335.11" cy="152.65" r="2.80"/>
        <circle cx="293.83" cy="160.42" r="2.80"/>
        <circle cx="342.22" cy="152.73" r="2.80"/>
        <circle cx="349.27" cy="152.45" r="2.80"/>
        <circle cx="300.94" cy="160.50" r="2.80"/>
        <circle cx="308.04" cy="160.58" r="2.80"/>
        <circle cx="315.12" cy="160.65" r="2.80"/>
        <circle cx="322.20" cy="160.71" r="2.80"/>
        <circle cx="266.76" cy="168.65" r="2.80"/>
        <circle cx="329.23" cy="160.49" r="2.80"/>
        <circle cx="336.30" cy="160.56" r="2.80"/>
        <circle cx="273.79" cy="168.48" r="2.80"/>
        <circle cx="343.35" cy="160.61" r="2.80"/>
        <circle cx="350.38" cy="160.43" r="2.80"/>
        <circle cx="280.85" cy="168.53" r="2.80"/>
        <circle cx="287.90" cy="168.57" r="2.80"/>
        <circle cx="294.92" cy="168.43" r="2.80"/>
        <circle cx="301.96" cy="168.48" r="2.80"/>
        <circle cx="308.99" cy="168.52" r="2.80"/>
        <circle cx="316.02" cy="168.55" r="2.80"/>
        <circle cx="323.05" cy="168.59" r="2.80"/>
        <circle cx="330.06" cy="168.48" r="2.80"/>
        <circle cx="337.08" cy="168.51" r="2.80"/>
        <circle cx="344.10" cy="168.54" r="2.80"/>
        <circle cx="351.11" cy="168.45" r="2.80"/>
        <circle cx="267.43" cy="176.50" r="2.80"/>
        <circle cx="274.44" cy="176.50" r="2.80"/>
        <circle cx="281.44" cy="176.50" r="2.80"/>
    </g>
    <g style="fill:#dedede"
       id="11-Non-inscrits">
        <title>Non-inscrits</title>
        <circle cx="288.44" cy="176.50" r="2.80"/>
        <circle cx="295.45" cy="176.50" r="2.80"/>
        <circle cx="302.45" cy="176.50" r="2.80"/>
        <circle cx="309.45" cy="176.50" r="2.80"/>
        <circle cx="316.46" cy="176.50" r="2.80"/>
        <circle cx="323.46" cy="176.50" r="2.80"/>
        <circle cx="330.46" cy="176.50" r="2.80"/>
        <circle cx="337.46" cy="176.50" r="2.80"/>
        <circle cx="344.46" cy="176.50" r="2.80"/>
    </g>
    <g style="fill:#ffffff; stroke-width:0.70; stroke:#000000"
       id="12-Vacant">
        <title>Vacant</title>
        <circle cx="351.46" cy="176.50" r="2.45"/>
    </g>
</svg>

