<?xml version="1.0" encoding="UTF-8" standalone="no"?>
<!-- Created with Inkscape (http://www.inkscape.org/) -->

<svg
   width="156.36874mm"
   height="41.618622mm"
   viewBox="0 0 156.36874 41.618621"
   version="1.1"
   id="svg1"
   inkscape:version="1.4.2 (f4327f4, 2025-05-13)"
   sodipodi:docname="newsAvangardeMagazine.svg"
   inkscape:export-filename="newsAvangardeMagazine.png"
   inkscape:export-xdpi="97.461929"
   inkscape:export-ydpi="97.461929"
   xmlns:inkscape="http://www.inkscape.org/namespaces/inkscape"
   xmlns:sodipodi="http://sodipodi.sourceforge.net/DTD/sodipodi-0.dtd"
   xmlns="http://www.w3.org/2000/svg"
   xmlns:svg="http://www.w3.org/2000/svg">
  <sodipodi:namedview
     id="namedview1"
     pagecolor="#505050"
     bordercolor="#ffffff"
     borderopacity="1"
     inkscape:showpageshadow="0"
     inkscape:pageopacity="0"
     inkscape:pagecheckerboard="1"
     inkscape:deskcolor="#505050"
     inkscape:document-units="mm"
     inkscape:zoom="1"
     inkscape:cx="352.5"
     inkscape:cy="212.5"
     inkscape:window-width="1920"
     inkscape:window-height="1057"
     inkscape:window-x="-8"
     inkscape:window-y="-8"
     inkscape:window-maximized="1"
     inkscape:current-layer="layer1" />
  <defs
     id="defs1">
    <inkscape:path-effect
       effect="perspective-envelope"
       up_left_point="171.3746,58.472477"
       up_right_point="201.05737,58.472477"
       down_left_point="169.45694,65.429237"
       down_right_point="199.56066,65.429237"
       id="path-effect5"
       is_visible="true"
       lpeversion="1"
       deform_type="perspective"
       horizontal_mirror="false"
       vertical_mirror="false"
       overflow_perspective="false" />
  </defs>
  <g
     inkscape:label="Layer 1"
     inkscape:groupmode="layer"
     id="layer1"
     transform="translate(-52.139641,-29.153812)">
    <rect
       style="opacity:0.634783;fill:#a50202;fill-opacity:1;stroke-width:0.284776;stroke-linecap:round"
       id="rect5"
       width="156.36874"
       height="41.618622"
       x="52.139641"
       y="29.153812"
       ry="0.5654704" />
    <text
       xml:space="preserve"
       style="font-weight:600;font-size:25.4px;line-height:0px;font-family:'Neue Haas Grotesk Display Pro';-inkscape-font-specification:'Neue Haas Grotesk Display Pro Semi-Bold';text-align:start;writing-mode:lr-tb;direction:ltr;text-anchor:start;opacity:0.634783;fill:#ffffff;stroke-width:0.307999;stroke-linecap:round"
       x="61.303696"
       y="57.876644"
       id="text1"><tspan
         sodipodi:role="line"
         id="tspan1"
         style="font-style:normal;font-variant:normal;font-weight:normal;font-stretch:normal;font-size:25.4px;font-family:Romie;-inkscape-font-specification:Romie;stroke-width:0.308"
         x="61.303696"
         y="57.876644"><tspan
           style="font-size:22.5778px"
           id="tspan2">   VANGARDE</tspan></tspan></text>
    <path
       style="font-size:31.75px;line-height:0px;font-family:Romie;-inkscape-font-specification:Romie;opacity:0.634783;fill:#ffffff;stroke-width:0.308;stroke-linecap:round"
       d="m 78.766194,51.971142 -6.19125,-16.98625 h -0.28575 c -0.127,0.41275 -0.635,1.04775 -1.0795,1.143 l 0.53975,1.524 -6.1595,15.46225 c -1.04775,2.63525 -1.4605,4.22275 -3.65125,4.22275 v 0.53975 h 6.477 v -0.5715 c -3.46075,0 -3.3655,-0.9525 -2.159,-3.96875 l 1.4605,-3.71475 h 8.41375 l 1.2065,3.302 c 1.61925,4.3815 1.11125,4.3815 -1.23825,4.3815 v 0.5715 h 6.985 v -0.5715 c -2.286,0 -2.44475,-0.1905 -4.318,-5.334 z m -6.69925,-13.462 4.064,11.1125 h -8.41375 z"
       id="text3"
       aria-label="A"
       sodipodi:nodetypes="ccccccccccccccccccccccc" />
    <text
       xml:space="preserve"
       style="font-style:normal;font-variant:normal;font-weight:normal;font-stretch:normal;font-size:7.05556px;line-height:0px;font-family:Romie;-inkscape-font-specification:Romie;text-align:start;writing-mode:lr-tb;direction:ltr;text-anchor:start;opacity:0.634783;fill:#ffffff;stroke-width:0.307999;stroke-linecap:round"
       x="79.227425"
       y="42.072887"
       id="text4"><tspan
         sodipodi:role="line"
         id="tspan3"
         style="font-size:7.05556px;stroke-width:0.308"
         x="79.227425"
         y="42.072887">New</tspan></text>
    <path
       style="font-size:7.05556px;line-height:0px;font-family:Romie;-inkscape-font-specification:Romie;opacity:0.634783;fill:#ffffff;stroke-width:0.308;stroke-linecap:round"
       d="m 177.16165,58.841465 0.0312,-0.118422 h -0.84711 l -3.23715,4.441085 -0.92775,-4.441085 h -0.87534 l -0.0326,0.118422 c 0.47307,0 0.70051,0.09759 0.5781,0.544054 l -0.98352,3.587237 c -0.12444,0.453858 -0.40831,0.553254 -0.8859,0.553254 l -0.0333,0.120752 h 1.64703 l 0.0329,-0.120752 c -0.54887,0 -0.69986,-0.09942 -0.57754,-0.546164 l 0.8942,-3.265916 0.84116,3.932832 h 0.16399 l 2.88337,-3.925836 -0.86839,3.266 c -0.11691,0.439688 -0.40708,0.539084 -0.87755,0.539084 l -0.0323,0.120752 h 1.83955 l 0.0318,-0.120752 c -0.55601,0 -0.70072,-0.09942 -0.58228,-0.546174 l 0.9548,-3.601294 c 0.11652,-0.439512 0.31891,-0.537077 0.8626,-0.537077 z m 2.25156,4.514184 c -0.18065,0.120658 -0.29688,0.184562 -0.38954,0.184562 -0.10693,0 -0.21144,-0.09228 -0.12546,-0.425713 l 0.50802,-1.970014 c 0.2028,-0.786425 -0.0713,-1.150702 -0.6941,-1.150702 -0.53789,0 -1.29478,0.322211 -1.67145,0.785262 -0.1886,0.231847 -0.0964,0.393571 0.0313,0.393571 0.1277,0 0.25496,-0.133598 0.43441,-0.358454 0.32802,-0.414039 0.73769,-0.70835 1.17659,-0.70835 0.34687,0 0.54338,0.280289 0.34723,1.038673 l -0.0801,0.309637 c -1.93146,0.57104 -2.52814,1.001956 -2.70146,1.660377 -0.10271,0.390217 0.18842,0.63885 0.67336,0.63885 0.53486,0 1.06638,-0.234433 1.68478,-0.971816 -0.1852,0.716078 -0.20859,0.971816 0.16229,0.971816 0.19255,0 0.4251,-0.127902 0.67029,-0.305435 z m -2.25691,0.156161 c -0.36352,0 -0.61074,-0.198731 -0.52139,-0.539054 0.14491,-0.55202 0.65143,-0.884065 2.28975,-1.420029 l -0.26108,1.009435 c -0.49462,0.672887 -1.10098,0.949648 -1.50728,0.949648 z m 3.07085,-0.553223 c 0.0687,-0.269072 0.44277,-0.424715 0.68667,-0.516649 0.15634,0.05662 0.33946,0.0919 0.55287,0.0919 0.7612,0 1.53586,-0.48047 1.74561,-1.319044 0.16518,-0.660393 -0.0905,-0.968902 -0.55793,-1.109017 0.29023,0 0.86735,0.07009 1.03196,0.06304 0.14333,-0.0069 0.29614,-0.336008 0.19002,-0.336008 -0.22641,0 -1.07346,0.160942 -1.76705,0.160942 -0.79974,0 -1.53229,0.539602 -1.72462,1.291408 -0.11171,0.43667 0.006,0.838814 0.35338,1.064867 -0.27063,0.113104 -0.79816,0.367775 -0.87793,0.679391 -0.0908,0.354594 0.19029,0.453972 0.6072,0.468171 -0.43555,0.170459 -0.95064,0.483284 -1.06556,0.931872 -0.14256,0.556517 0.25909,0.999775 1.26802,0.999775 0.83722,0 2.01018,-0.60035 2.23935,-1.547942 0.33428,-1.368663 -2.84859,-0.270075 -2.68199,-0.922728 z m 1.8538,-2.852776 c 0.67251,0 0.87861,0.532825 0.73226,1.116046 -0.17855,0.711569 -0.71335,1.198879 -1.31079,1.198879 -0.60455,0 -0.90008,-0.430855 -0.72037,-1.135555 0.13623,-0.534223 0.56269,-1.17937 1.2989,-1.17937 z m -1.36775,5.180376 c -0.73681,0 -1.10472,-0.43586 -0.99717,-0.856705 0.10554,-0.413013 0.52958,-0.732983 0.97049,-0.924767 0.88032,-0.01419 2.09893,-0.212923 1.86622,0.718175 -0.12471,0.498969 -0.89527,1.063297 -1.83954,1.063297 z m 5.77597,-1.930538 c -0.17894,0.120658 -0.29425,0.184562 -0.38692,0.184562 -0.10692,0 -0.21275,-0.09228 -0.13153,-0.425713 l 0.47988,-1.970014 c 0.19157,-0.786425 -0.0877,-1.150702 -0.71053,-1.150702 -0.53789,0 -1.29018,0.322211 -1.66024,0.785262 -0.18529,0.231847 -0.0908,0.393571 0.037,0.393571 0.1277,0 0.25304,-0.133598 0.42929,-0.358454 0.3221,-0.414039 0.72757,-0.70835 1.16647,-0.70835 0.34687,0 0.54738,0.280289 0.36207,1.038673 l -0.0757,0.309637 c -1.92331,0.57104 -2.51384,1.001956 -2.67775,1.660377 -0.0971,0.390217 0.19754,0.63885 0.68249,0.63885 0.53485,0 1.06303,-0.234433 1.67089,-0.971816 -0.17497,0.716078 -0.19471,0.971816 0.17617,0.971816 0.19255,0 0.42327,-0.127902 0.66593,-0.305435 z m -2.25468,0.156161 c -0.36353,0 -0.61358,-0.198731 -0.5291,-0.539054 0.13703,-0.55202 0.63881,-0.884065 2.26947,-1.420029 l -0.24666,1.009435 c -0.48501,0.672887 -1.08741,0.949648 -1.49371,0.949648 z m 5.78446,-1.0133 -0.0519,-0.02125 -0.0275,0.05653 c -0.42645,0.871455 -0.87722,0.999243 -1.55442,0.999243 h -0.96945 c -0.0427,0 -0.0536,-0.01419 -0.0325,-0.04257 l 3.04883,-3.314656 c 0.0295,-0.03505 0.0274,-0.05599 -0.0151,-0.05599 h -1.92556 c -0.24069,0 -0.29566,-0.0069 -0.24915,-0.112035 l -0.0907,-0.03502 -0.53928,1.002966 0.0996,0.02809 c 0.3972,-0.736926 0.9775,-0.764954 1.54398,-0.764954 h 0.59481 c 0.085,0 0.0837,0.03506 0.0367,0.08413 l -3.03969,3.259823 c -0.0194,0.02134 -0.008,0.06393 0.0202,0.06393 h 2.6381 c 0.0642,0 0.0835,-0.02135 0.10068,-0.06393 0.10304,-0.255562 0.2742,-0.709248 0.41244,-1.08432 z m 1.66316,-3.670978 c -0.0457,0.195157 0.0684,0.341617 0.26624,0.341617 0.19784,0 0.39442,-0.14646 0.43983,-0.341617 0.0454,-0.195002 -0.0797,-0.355055 -0.27724,-0.355055 -0.19755,0 -0.38319,0.160053 -0.42883,0.355055 z m -0.38813,4.152314 0.66612,-2.860029 h -0.29733 c -0.0622,0.266283 -0.43389,0.371472 -0.88731,0.371472 l -0.028,0.119277 h 0.7228 l -0.55363,2.36928 c -0.1044,0.446778 -0.35572,0.546164 -0.83331,0.546164 l -0.0284,0.120752 h 1.78249 l 0.028,-0.120752 c -0.54888,0 -0.67541,-0.09942 -0.57136,-0.546164 z m 4.48426,0.007 0.39668,-1.708785 c 0.22081,-0.955143 -0.13717,-1.284367 -0.80245,-1.284367 -0.48835,0 -0.94831,0.217097 -1.47125,0.708027 l 0.1331,-0.581993 h -0.29733 c -0.0611,0.266284 -0.43233,0.371482 -0.88574,0.371482 l -0.0275,0.119267 h 0.72281 l -0.54365,2.36928 c -0.10251,0.446778 -0.35343,0.546174 -0.83103,0.546174 l -0.0279,0.120741 h 1.78249 l 0.0274,-0.120741 c -0.54886,0 -0.67582,-0.09942 -0.57365,-0.546174 l 0.48564,-2.123534 c 0.57203,-0.519277 0.95868,-0.63141 1.3198,-0.63141 0.56647,0 0.75364,0.364618 0.59897,1.053248 l -0.38222,1.701696 c -0.0988,0.439686 -0.35078,0.546174 -0.82837,0.546174 l -0.0273,0.120741 h 1.78249 l 0.0269,-0.120741 c -0.51323,0 -0.68186,-0.106488 -0.5779,-0.539085 z m 4.30427,-0.346955 c -0.46801,0.55252 -1.03537,0.836337 -1.58729,0.850535 -1.01839,0.02838 -1.37888,-0.758527 -1.16163,-1.740457 0.0218,-0.0987 0.0492,-0.190281 0.0766,-0.281844 h 2.45613 c 0.22716,0 0.33962,-0.225247 0.38664,-0.443255 0.12114,-0.561713 -0.28719,-1.031176 -1.01616,-1.031176 -1.14655,0 -2.08416,0.939812 -2.32805,2.038451 -0.22609,1.018469 0.38813,1.721123 1.25818,1.721123 0.7702,0 1.39297,-0.340928 1.98171,-1.05676 z m -1.00068,-2.520163 c 0.57342,0 0.88185,0.406548 0.77697,0.891084 -0.064,0.295395 -0.18106,0.344664 -0.37979,0.344664 h -2.02264 c 0.28148,-0.695869 0.86798,-1.235748 1.62546,-1.235748 z"
       id="text5"
       aria-label="Magazine"
       inkscape:path-effect="#path-effect5"
       inkscape:original-d="m 177.25894,58.846417 v -0.11995 h -0.84667 l -2.03906,4.45912 -2.12372,-4.45912 h -0.87489 v 0.11995 c 0.47272,0 0.72672,0.0988 0.72672,0.55033 v 3.59834 c 0,0.45155 -0.254,0.55033 -0.72672,0.55033 v 0.11995 h 1.62984 v -0.11995 c -0.54328,0 -0.71967,-0.0988 -0.71967,-0.54327 v -3.27379 l 1.89794,3.93701 h 0.16228 l 1.82034,-3.92995 v 3.27378 c 0,0.43744 -0.26106,0.53622 -0.72673,0.53622 v 0.11995 h 1.82034 v -0.11995 c -0.55034,0 -0.71967,-0.0988 -0.71967,-0.54328 v -3.61244 c 0,-0.4445 0.17639,-0.54328 0.71967,-0.54328 z m 3.40784,4.52967 c -0.14817,0.11994 -0.24695,0.18344 -0.33867,0.18344 -0.10583,0 -0.23283,-0.0917 -0.23283,-0.42333 v -1.9685 c 0,-0.79022 -0.36689,-1.15711 -0.98778,-1.15711 -0.53622,0 -1.2065,0.32455 -1.4605,0.79022 -0.127,0.23283 0.007,0.39511 0.13405,0.39511 0.127,0 0.21873,-0.13405 0.33867,-0.35983 0.21872,-0.41628 0.55033,-0.71261 0.98778,-0.71261 0.34572,0 0.61383,0.28222 0.61383,1.04422 v 0.31044 c -1.77094,0.5715 -2.25072,1.00189 -2.25072,1.65806 0,0.38806 0.35278,0.635 0.83256,0.635 0.52916,0 0.99483,-0.23283 1.41816,-0.96661 0,0.71261 0.0423,0.96661 0.40923,0.96661 0.1905,0 0.38805,-0.127 0.58561,-0.30339 z m -2.19428,0.15522 c -0.35983,0 -0.65617,-0.19755 -0.65617,-0.53622 0,-0.55033 0.41628,-0.88195 1.905,-1.41817 v 1.00895 c -0.3175,0.67028 -0.84666,0.94544 -1.24883,0.94544 z m 2.89983,-0.55033 c 0,-0.26811 0.33161,-0.42333 0.55033,-0.51506 0.16934,0.0565 0.35984,0.0917 0.5715,0.0917 0.75495,0 1.40406,-0.47978 1.40406,-1.31939 0,-0.66322 -0.33161,-0.97366 -0.83255,-1.11478 0.28927,0 0.88194,0.0706 1.04422,0.0635 0.14111,-0.007 0.21166,-0.33866 0.10583,-0.33866 -0.22578,0 -1.03011,0.16227 -1.72156,0.16227 -0.79727,0 -1.38994,0.54328 -1.38994,1.29823 0,0.43744 0.21872,0.83961 0.62089,1.06539 -0.23989,0.11289 -0.6985,0.36689 -0.6985,0.67733 0,0.35278 0.30339,0.45156 0.71967,0.46567 -0.38806,0.16933 -0.81845,0.47978 -0.81845,0.92428 0,0.55033 0.508,0.98778 1.50283,0.98778 0.82551,0 1.83445,-0.59267 1.82739,-1.53106 -0.007,-1.36172 -2.88572,-0.26811 -2.88572,-0.91722 z m 1.12183,-2.8575 c 0.67028,0 1.00895,0.53622 1.00895,1.12183 0,0.71261 -0.40922,1.19945 -1.00189,1.19945 -0.59972,0 -1.00189,-0.43039 -1.00189,-1.13595 0,-0.53622 0.26106,-1.18533 0.99483,-1.18533 z m -0.0564,5.16467 c -0.72672,0 -1.19944,-0.43039 -1.19944,-0.84667 0,-0.40922 0.33866,-0.72672 0.72672,-0.91722 0.86783,-0.0141 2.02494,-0.21167 2.02494,0.71261 0,0.49389 -0.62089,1.05128 -1.55222,1.05128 z m 5.23523,-1.91206 c -0.14817,0.11994 -0.24695,0.18344 -0.33867,0.18344 -0.10583,0 -0.23283,-0.0917 -0.23283,-0.42333 v -1.9685 c 0,-0.79022 -0.36689,-1.15711 -0.98778,-1.15711 -0.53622,0 -1.2065,0.32455 -1.4605,0.79022 -0.127,0.23283 0.007,0.39511 0.13406,0.39511 0.127,0 0.21872,-0.13405 0.33866,-0.35983 0.21872,-0.41628 0.55034,-0.71261 0.98778,-0.71261 0.34572,0 0.61383,0.28222 0.61383,1.04422 v 0.31044 c -1.77094,0.5715 -2.25072,1.00189 -2.25072,1.65806 0,0.38806 0.35278,0.635 0.83256,0.635 0.52916,0 0.99483,-0.23283 1.41816,-0.96661 0,0.71261 0.0423,0.96661 0.40923,0.96661 0.1905,0 0.38805,-0.127 0.58561,-0.30339 z m -2.19428,0.15522 c -0.35983,0 -0.65617,-0.19755 -0.65617,-0.53622 0,-0.55033 0.41628,-0.88195 1.905,-1.41817 v 1.00895 c -0.3175,0.67028 -0.84666,0.94544 -1.24883,0.94544 z m 5.48923,-1.00894 -0.0564,-0.0212 -0.0141,0.0564 c -0.21872,0.86783 -0.635,0.99483 -1.30528,0.99483 h -0.95955 c -0.0423,0 -0.0564,-0.0141 -0.0423,-0.0423 l 2.24367,-3.31611 c 0.0212,-0.0353 0.0141,-0.0564 -0.0282,-0.0564 h -1.91911 c -0.23989,0 -0.29634,-0.007 -0.27517,-0.11289 l -0.0988,-0.0353 -0.29633,1.00894 0.10583,0.0282 c 0.21872,-0.74083 0.79022,-0.76905 1.35467,-0.76905 h 0.59267 c 0.0847,0 0.0917,0.0353 0.0564,0.0847 l -2.24367,3.25967 c -0.0141,0.0212 0.007,0.0635 0.0353,0.0635 h 2.61056 c 0.0635,0 0.0776,-0.0212 0.0847,-0.0635 0.0423,-0.254 0.10584,-0.70556 0.15523,-1.0795 z m 0.79728,-3.69006 c 0,0.19756 0.14817,0.34572 0.34572,0.34572 0.19756,0 0.35984,-0.14816 0.35984,-0.34572 0,-0.19756 -0.16228,-0.35983 -0.35984,-0.35983 -0.19755,0 -0.34572,0.16227 -0.34572,0.35983 z m 0.57856,4.16984 v -2.86456 h -0.29634 c 0,0.26811 -0.34572,0.37394 -0.79728,0.37394 v 0.11995 h 0.71967 v 2.37067 c 0,0.4445 -0.22578,0.54327 -0.6985,0.54327 v 0.11995 h 1.76389 v -0.11995 c -0.54328,0 -0.69144,-0.0988 -0.69144,-0.54327 z m 4.44499,0.007 0.0141,-1.70745 c 0.007,-0.95956 -0.42333,-1.29117 -1.08655,-1.29117 -0.48684,0 -0.89606,0.21872 -1.30528,0.71261 v -0.58561 h -0.29633 c 0,0.26811 -0.34573,0.37395 -0.79728,0.37395 v 0.11994 h 0.71967 v 2.37067 c 0,0.4445 -0.22578,0.54328 -0.69851,0.54328 v 0.11994 h 1.76389 v -0.11994 c -0.54327,0 -0.69144,-0.0988 -0.69144,-0.54328 v -2.12372 c 0.45156,-0.52211 0.81139,-0.635 1.17122,-0.635 0.56445,0 0.83256,0.36689 0.83256,1.05833 v 1.70039 c 0,0.43745 -0.22578,0.54328 -0.6985,0.54328 v 0.11994 h 1.76389 v -0.11994 c -0.508,0 -0.6985,-0.10583 -0.69145,-0.53622 z m 4.191,-0.34573 c -0.34572,0.55034 -0.84667,0.83256 -1.38995,0.84667 -1.00189,0.0282 -1.53105,-0.75494 -1.53105,-1.73567 0,-0.0988 0.007,-0.1905 0.0141,-0.28222 h 2.44122 c 0.22578,0 0.28928,-0.22578 0.28928,-0.4445 0,-0.56444 -0.508,-1.03717 -1.23472,-1.03717 -1.143,0 -1.86973,0.94545 -1.86973,2.04612 0,1.01599 0.762,1.7145 1.62278,1.7145 0.762,0 1.30528,-0.33867 1.73567,-1.05128 z m -1.53811,-2.52589 c 0.5715,0 0.96661,0.40922 0.96661,0.89606 0,0.29633 -0.10583,0.34572 -0.30339,0.34572 h -2.01083 c 0.127,-0.6985 0.59266,-1.24178 1.34761,-1.24178 z" />
  </g>
</svg>
