<?xml version="1.0" encoding="UTF-8" standalone="no"?>
<!-- Created with Inkscape (http://www.inkscape.org/) -->

<svg
   width="87.052284mm"
   height="56.058601mm"
   viewBox="0 0 87.052287 56.058601"
   version="1.1"
   id="svg1"
   inkscape:version="1.4.2 (f4327f4, 2025-05-13)"
   sodipodi:docname="stateAgency_ARM_icon.svg"
   xmlns:inkscape="http://www.inkscape.org/namespaces/inkscape"
   xmlns:sodipodi="http://sodipodi.sourceforge.net/DTD/sodipodi-0.dtd"
   xmlns:xlink="http://www.w3.org/1999/xlink"
   xmlns="http://www.w3.org/2000/svg"
   xmlns:svg="http://www.w3.org/2000/svg">
  <sodipodi:namedview
     id="namedview1"
     pagecolor="#505050"
     bordercolor="#ff0000"
     borderopacity="0.25882353"
     inkscape:showpageshadow="0"
     inkscape:pageopacity="0"
     inkscape:pagecheckerboard="1"
     inkscape:deskcolor="#505050"
     inkscape:document-units="mm"
     inkscape:zoom="0.53858859"
     inkscape:cx="527.30415"
     inkscape:cy="177.3153"
     inkscape:window-width="1920"
     inkscape:window-height="1057"
     inkscape:window-x="-8"
     inkscape:window-y="-8"
     inkscape:window-maximized="1"
     inkscape:current-layer="layer1" />
  <defs
     id="defs1">
    <inkscape:path-effect
       effect="perspective-envelope"
       up_left_point="63.562026,201.99942"
       up_right_point="304.00189,201.99942"
       down_left_point="63.293451,213.09373"
       down_right_point="304.00189,219.08208"
       id="path-effect10"
       is_visible="true"
       lpeversion="1"
       deform_type="perspective"
       horizontal_mirror="false"
       vertical_mirror="false"
       overflow_perspective="false" />
    <inkscape:path-effect
       effect="powerstroke"
       message=""
       id="path-effect8"
       is_visible="true"
       lpeversion="1.3"
       scale_width="1"
       interpolator_type="CubicBezierJohan"
       interpolator_beta="0.2"
       start_linecap_type="zerowidth"
       end_linecap_type="zerowidth"
       offset_points="0,4.9921381"
       linejoin_type="extrp_arc"
       miter_limit="4"
       not_jump="false"
       sort_points="true" />
    <inkscape:path-effect
       effect="bspline"
       id="path-effect7"
       is_visible="true"
       lpeversion="1.3"
       weight="33.333333"
       steps="2"
       helper_size="0"
       apply_no_weight="true"
       apply_with_weight="true"
       only_selected="false"
       uniform="false" />
    <linearGradient
       id="linearGradient5"
       inkscape:collect="always">
      <stop
         style="stop-color:#000000;stop-opacity:0.94736844;"
         offset="0"
         id="stop6" />
      <stop
         style="stop-color:#fb4d4d;stop-opacity:0.68684208;"
         offset="1"
         id="stop5" />
    </linearGradient>
    <inkscape:path-effect
       effect="skeletal"
       id="path-effect4"
       is_visible="true"
       lpeversion="1"
       pattern="M 0,4.9921382 C 0,2.2364779 2.2364779,0 4.9921382,0 c 2.7556604,0 4.9921383,2.2364779 4.9921383,4.9921382 0,2.7556604 -2.2364779,4.9921383 -4.9921383,4.9921383 C 2.2364779,9.9842765 0,7.7477986 0,4.9921382 Z"
       copytype="single_stretched"
       prop_scale="1"
       scale_y_rel="false"
       spacing="0"
       normal_offset="0"
       tang_offset="0"
       prop_units="false"
       vertical_pattern="false"
       hide_knot="false"
       fuse_tolerance="0" />
    <linearGradient
       inkscape:collect="always"
       xlink:href="#linearGradient5"
       id="linearGradient6"
       x1="80.039207"
       y1="107.91468"
       x2="126.56311"
       y2="107.91468"
       gradientUnits="userSpaceOnUse"
       gradientTransform="translate(-16.673684,40.585317)" />
    <inkscape:path-effect
       effect="fill_between_many"
       method="bsplinespiro"
       autoreverse="false"
       close="false"
       join="false"
       linkedpaths="#path7,0,1"
       id="path-effect9"
       is_visible="true"
       lpeversion="0" />
  </defs>
  <g
     inkscape:label="Layer 1"
     inkscape:groupmode="layer"
     id="layer1"
     transform="translate(-63.365527,-120.4707)">
    <path
       id="text1"
       style="font-size:84.6667px;font-family:'Times New Roman';-inkscape-font-specification:'Times New Roman, ';display:inline;fill:#9e1010;fill-opacity:1;stroke-width:0.0529167"
       d="m 100.06437,176.5293 9.82506,-56.0586 H 90.884466 c -10.886503,0 -18.989363,2.92145 -24.308593,8.76433 -4.74045,5.23654 41.277757,11.75467 41.277757,19.55437 0,5.81532 -47.051737,10.94161 -44.378347,15.3789 2.64584,4.43728 6.15984,7.60677 10.542,9.50846 4.3546,1.90169 10.721133,2.85254 19.099613,2.85254 z m -8.601124,-3.14193 c -6.61459,0 -12.030273,-2.23242 -16.247073,-6.69726 -4.2168,-4.46485 -6.3252,-10.56955 -6.3252,-18.31412 0,-7.68946 2.1084,-13.78039 6.3252,-18.2728 4.2168,-4.49241 9.522243,-6.73861 15.916343,-6.73861 2.37023,0 5.30545,0.38586 8.80567,1.15756 v 2.60449 h -4.83692 c -3.30729,0 -6.31141,0.53743 -9.01237,1.6123 -2.70095,1.07487 -5.016063,2.56315 -6.945313,4.46485 -1.92925,1.92925 -3.41753,4.23057 -4.46484,6.90397 -1.04731,2.70096 -1.57097,5.66374 -1.57097,8.88835 0,1.81901 0.22049,3.6518 0.66146,5.49838 0.41341,1.87413 1.04731,3.62423 1.90169,5.25032 0.85439,1.65364 1.91548,3.12814 3.18327,4.4235 1.26779,1.32291 2.74229,2.34266 4.4235,3.05924 1.543403,0.66146 3.431323,1.22646 5.663743,1.69499 2.20487,0.46853 4.78179,0.7028 7.73079,0.7028 h 3.26596 v 2.56315 c -3.16949,0.79926 -5.99447,1.19889 -8.47494,1.19889 z m 8.47494,-6.28385 h -4.42351 c -2.50803,0 -4.74045,-0.49609 -6.69726,-1.48828 -1.98438,-0.96463 -3.6518,-2.28754 -5.00228,-3.96875 -1.350483,-1.65365 -2.370233,-3.59668 -3.059253,-5.8291 -0.71658,-2.20486 -1.07487,-4.54752 -1.07487,-7.02799 0,-2.45291 0.35829,-4.82313 1.07487,-7.11068 0.68902,-2.28755 1.70877,-4.32705 3.059253,-6.1185 1.32292,-1.79145 2.949,-3.22461 4.87825,-4.29948 1.92926,-1.07487 4.12034,-1.6123 6.57325,-1.6123 h 4.67155 v 3.63802 c -5.37435,0.0276 -9.39822,1.30914 -12.07162,3.84472 -2.67339,2.5356 -4.01009,6.49057 -4.01009,11.86492 0,2.53559 0.38585,4.68533 1.15755,6.44922 0.74415,1.79145 1.81901,3.23839 3.22461,4.34082 1.37803,1.12999 3.05924,1.95681 5.04362,2.48046 1.98437,0.55122 4.20302,0.86817 6.65593,0.95085 z m 0,-6.40788 c -1.76389,-0.0551 -3.25218,-0.37207 -4.46485,-0.95084 -1.21267,-0.55122 -2.19108,-1.35048 -2.93522,-2.39779 -0.74415,-1.01975 -1.28158,-2.25998 -1.6123,-3.7207 -0.33073,-1.43316 -0.4961,-3.07302 -0.4961,-4.91959 0,-1.79146 0.16537,-3.47266 0.4961,-5.04362 0.30316,-1.54341 0.82682,-2.89388 1.57096,-4.05145 0.74415,-1.15755 1.72255,-2.06706 2.93522,-2.72851 1.21267,-0.66145 2.71474,-1.01974 4.50619,-1.07487 z"
       sodipodi:nodetypes="ccscsccscsssssccssccscccccsccscscccsccssccsscccccccccscsscc" />
    <path
       id="path5"
       style="font-size:84.6667px;font-family:'Times New Roman';-inkscape-font-specification:'Times New Roman, ';display:inline;fill:url(#linearGradient6);fill-opacity:0.239234;stroke-width:0.0529167"
       d="m 100.06437,176.5293 9.82506,-56.0586 H 90.884466 c -10.886503,0 -18.989363,2.92145 -24.308593,8.76433 -4.74045,5.23654 41.277757,11.75467 41.277757,19.55437 0,5.81532 -47.051737,10.94161 -44.378347,15.3789 2.64584,4.43728 6.15984,7.60677 10.542,9.50846 4.3546,1.90169 10.721133,2.85254 19.099613,2.85254 z m -8.601124,-3.14193 c -6.61459,0 -12.030273,-2.23242 -16.247073,-6.69726 -4.2168,-4.46485 -6.3252,-10.56955 -6.3252,-18.31412 0,-7.68946 2.1084,-13.78039 6.3252,-18.2728 4.2168,-4.49241 9.522243,-6.73861 15.916343,-6.73861 2.37023,0 5.30545,0.38586 8.80567,1.15756 v 2.60449 h -4.83692 c -3.30729,0 -6.31141,0.53743 -9.01237,1.6123 -2.70095,1.07487 -5.016063,2.56315 -6.945313,4.46485 -1.92925,1.92925 -3.41753,4.23057 -4.46484,6.90397 -1.04731,2.70096 -1.57097,5.66374 -1.57097,8.88835 0,1.81901 0.22049,3.6518 0.66146,5.49838 0.41341,1.87413 1.04731,3.62423 1.90169,5.25032 0.85439,1.65364 1.91548,3.12814 3.18327,4.4235 1.26779,1.32291 2.74229,2.34266 4.4235,3.05924 1.543403,0.66146 3.431323,1.22646 5.663743,1.69499 2.20487,0.46853 4.78179,0.7028 7.73079,0.7028 h 3.26596 v 2.56315 c -3.16949,0.79926 -5.99447,1.19889 -8.47494,1.19889 z m 8.47494,-6.28385 h -4.42351 c -2.50803,0 -4.74045,-0.49609 -6.69726,-1.48828 -1.98438,-0.96463 -3.6518,-2.28754 -5.00228,-3.96875 -1.350483,-1.65365 -2.370233,-3.59668 -3.059253,-5.8291 -0.71658,-2.20486 -1.07487,-4.54752 -1.07487,-7.02799 0,-2.45291 0.35829,-4.82313 1.07487,-7.11068 0.68902,-2.28755 1.70877,-4.32705 3.059253,-6.1185 1.32292,-1.79145 2.949,-3.22461 4.87825,-4.29948 1.92926,-1.07487 4.12034,-1.6123 6.57325,-1.6123 h 4.67155 v 3.63802 c -5.37435,0.0276 -9.39822,1.30914 -12.07162,3.84472 -2.67339,2.5356 -4.01009,6.49057 -4.01009,11.86492 0,2.53559 0.38585,4.68533 1.15755,6.44922 0.74415,1.79145 1.81901,3.23839 3.22461,4.34082 1.37803,1.12999 3.05924,1.95681 5.04362,2.48046 1.98437,0.55122 4.20302,0.86817 6.65593,0.95085 z m 0,-6.40788 c -1.76389,-0.0551 -3.25218,-0.37207 -4.46485,-0.95084 -1.21267,-0.55122 -2.19108,-1.35048 -2.93522,-2.39779 -0.74415,-1.01975 -1.28158,-2.25998 -1.6123,-3.7207 -0.33073,-1.43316 -0.4961,-3.07302 -0.4961,-4.91959 0,-1.79146 0.16537,-3.47266 0.4961,-5.04362 0.30316,-1.54341 0.82682,-2.89388 1.57096,-4.05145 0.74415,-1.15755 1.72255,-2.06706 2.93522,-2.72851 1.21267,-0.66145 2.71474,-1.01974 4.50619,-1.07487 z"
       sodipodi:nodetypes="ccscsccscsssssccssccscccccsccscscccsccssccsscccccccccscsscc" />
    <path
       id="path4"
       style="font-size:84.6667px;font-family:'Times New Roman';-inkscape-font-specification:'Times New Roman, ';stroke-width:0.0529167"
       d="m 109.81864,120.4707 -9.825064,56.0586 h 19.004964 c 10.8865,0 18.98936,-2.92145 24.30859,-8.76433 4.74045,-5.23654 7.11068,-11.75466 7.11068,-19.55436 0,-5.81532 -1.3367,-10.94162 -4.01009,-15.37891 -2.64584,-4.43728 -6.15984,-7.60677 -10.542,-9.50846 -4.3546,-1.90169 -10.72113,-2.85254 -19.09961,-2.85254 z m 8.60112,3.14193 c 6.61459,0 12.03027,2.23242 16.24707,6.69726 4.2168,4.46485 6.3252,10.56956 6.3252,18.31413 0,7.68946 -2.1084,13.78038 -6.3252,18.27279 -4.2168,4.49241 -9.52224,6.73861 -15.91634,6.73861 -2.37023,0 -5.30545,-0.38586 -8.80567,-1.15756 v -2.60449 h 4.83692 c 3.30729,0 6.31141,-0.53743 9.01237,-1.6123 2.70095,-1.07487 5.01606,-2.56315 6.94531,-4.46485 1.92925,-1.92925 3.41753,-4.23057 4.46484,-6.90397 1.04731,-2.70095 1.57097,-5.66373 1.57097,-8.88834 0,-1.81901 -0.22049,-3.6518 -0.66146,-5.49838 -0.41341,-1.87413 -1.04731,-3.62424 -1.90169,-5.25033 -0.85439,-1.65364 -1.91548,-3.12814 -3.18327,-4.4235 -1.26779,-1.32291 -2.74229,-2.34266 -4.4235,-3.05924 -1.5434,-0.66146 -3.43132,-1.22646 -5.66374,-1.69499 -2.20487,-0.46853 -4.78179,-0.7028 -7.73079,-0.7028 h -3.26596 v -2.56315 c 3.16949,-0.79926 5.99447,-1.19889 8.47494,-1.19889 z m -8.47494,6.28385 h 4.42351 c 2.50803,0 4.74045,0.49609 6.69726,1.48828 1.98438,0.96463 3.6518,2.28754 5.00228,3.96875 1.35048,1.65365 2.37023,3.59668 3.05925,5.82911 0.71658,2.20486 1.07487,4.54752 1.07487,7.02799 0,2.45291 -0.35829,4.82313 -1.07487,7.11068 -0.68902,2.28754 -1.70877,4.32704 -3.05925,6.11849 -1.32292,1.79145 -2.949,3.22461 -4.87825,4.29948 -1.92926,1.07487 -4.12034,1.6123 -6.57325,1.6123 h -4.67155 v -3.63802 c 5.37435,-0.0276 9.39822,-1.30914 12.07162,-3.84472 2.67339,-2.5356 4.01009,-6.49056 4.01009,-11.86491 0,-2.53559 -0.38585,-4.68533 -1.15755,-6.44922 -0.74415,-1.79146 -1.81901,-3.2384 -3.22461,-4.34083 -1.37803,-1.12999 -3.05924,-1.95681 -5.04362,-2.48046 -1.98437,-0.55122 -4.20302,-0.86817 -6.65593,-0.95085 z m 0,6.40788 c 1.76389,0.0551 3.25218,0.37207 4.46485,0.95084 1.21267,0.55122 2.19108,1.35048 2.93522,2.39779 0.74415,1.01976 1.28158,2.25999 1.6123,3.72071 0.33073,1.43316 0.4961,3.07302 0.4961,4.91959 0,1.79146 -0.16537,3.47266 -0.4961,5.04362 -0.30316,1.54341 -0.82682,2.89388 -1.57096,4.05144 -0.74415,1.15755 -1.72255,2.06706 -2.93522,2.72851 -1.21267,0.66145 -2.71474,1.01974 -4.50619,1.07487 z"
       sodipodi:nodetypes="ccscsccscsssssccssccscccccsccscscccsccssccsscccccccccscsscc" />
  </g>
</svg>
