<?xml version="1.0" encoding="UTF-8" standalone="no"?>
<!-- Created with Inkscape (http://www.inkscape.org/) -->

<svg
   width="275.17197mm"
   height="81.837097mm"
   viewBox="0 0 275.17197 81.837097"
   version="1.1"
   id="svg1"
   inkscape:version="1.4.2 (f4327f4, 2025-05-13)"
   sodipodi:docname="stateAgency_ARM_full.svg"
   xmlns:inkscape="http://www.inkscape.org/namespaces/inkscape"
   xmlns:sodipodi="http://sodipodi.sourceforge.net/DTD/sodipodi-0.dtd"
   xmlns:xlink="http://www.w3.org/1999/xlink"
   xmlns="http://www.w3.org/2000/svg"
   xmlns:svg="http://www.w3.org/2000/svg">
  <sodipodi:namedview
     id="namedview1"
     pagecolor="#505050"
     bordercolor="#ff0000"
     borderopacity="0.25882353"
     inkscape:showpageshadow="0"
     inkscape:pageopacity="0"
     inkscape:pagecheckerboard="1"
     inkscape:deskcolor="#505050"
     inkscape:document-units="mm"
     inkscape:zoom="0.53858859"
     inkscape:cx="369.48425"
     inkscape:cy="140.18121"
     inkscape:window-width="1920"
     inkscape:window-height="1057"
     inkscape:window-x="-8"
     inkscape:window-y="-8"
     inkscape:window-maximized="1"
     inkscape:current-layer="layer1" />
  <defs
     id="defs1">
    <inkscape:path-effect
       effect="perspective-envelope"
       up_left_point="63.562026,201.99942"
       up_right_point="304.00189,201.99942"
       down_left_point="63.293451,213.09373"
       down_right_point="304.00189,219.08208"
       id="path-effect10"
       is_visible="true"
       lpeversion="1"
       deform_type="perspective"
       horizontal_mirror="false"
       vertical_mirror="false"
       overflow_perspective="false" />
    <inkscape:path-effect
       effect="powerstroke"
       message=""
       id="path-effect8"
       is_visible="true"
       lpeversion="1.3"
       scale_width="1"
       interpolator_type="CubicBezierJohan"
       interpolator_beta="0.2"
       start_linecap_type="zerowidth"
       end_linecap_type="zerowidth"
       offset_points="0,4.9921381"
       linejoin_type="extrp_arc"
       miter_limit="4"
       not_jump="false"
       sort_points="true" />
    <inkscape:path-effect
       effect="bspline"
       id="path-effect7"
       is_visible="true"
       lpeversion="1.3"
       weight="33.333333"
       steps="2"
       helper_size="0"
       apply_no_weight="true"
       apply_with_weight="true"
       only_selected="false"
       uniform="false" />
    <linearGradient
       id="linearGradient5"
       inkscape:collect="always">
      <stop
         style="stop-color:#000000;stop-opacity:0.94736844;"
         offset="0"
         id="stop6" />
      <stop
         style="stop-color:#fb4d4d;stop-opacity:0.68684208;"
         offset="1"
         id="stop5" />
    </linearGradient>
    <inkscape:path-effect
       effect="skeletal"
       id="path-effect4"
       is_visible="true"
       lpeversion="1"
       pattern="M 0,4.9921382 C 0,2.2364779 2.2364779,0 4.9921382,0 c 2.7556604,0 4.9921383,2.2364779 4.9921383,4.9921382 0,2.7556604 -2.2364779,4.9921383 -4.9921383,4.9921383 C 2.2364779,9.9842765 0,7.7477986 0,4.9921382 Z"
       copytype="single_stretched"
       prop_scale="1"
       scale_y_rel="false"
       spacing="0"
       normal_offset="0"
       tang_offset="0"
       prop_units="false"
       vertical_pattern="false"
       hide_knot="false"
       fuse_tolerance="0" />
    <linearGradient
       inkscape:collect="always"
       xlink:href="#linearGradient5"
       id="linearGradient6"
       x1="80.039207"
       y1="107.91468"
       x2="126.56311"
       y2="107.91468"
       gradientUnits="userSpaceOnUse"
       gradientTransform="translate(-16.673684,40.585317)" />
    <inkscape:path-effect
       effect="fill_between_many"
       method="bsplinespiro"
       autoreverse="false"
       close="false"
       join="false"
       linkedpaths="#path7,0,1"
       id="path-effect9"
       is_visible="true"
       lpeversion="0" />
  </defs>
  <g
     inkscape:label="Layer 1"
     inkscape:groupmode="layer"
     id="layer1"
     transform="translate(-63.365527,-120.4707)">
    <path
       id="text1"
       style="font-size:84.6667px;font-family:'Times New Roman';-inkscape-font-specification:'Times New Roman, ';display:inline;fill:#9e1010;fill-opacity:1;stroke-width:0.0529167"
       d="m 100.06437,176.5293 9.82506,-56.0586 H 90.884466 c -10.886503,0 -18.989363,2.92145 -24.308593,8.76433 -4.74045,5.23654 41.277757,11.75467 41.277757,19.55437 0,5.81532 -47.051737,10.94161 -44.378347,15.3789 2.64584,4.43728 6.15984,7.60677 10.542,9.50846 4.3546,1.90169 10.721133,2.85254 19.099613,2.85254 z m -8.601124,-3.14193 c -6.61459,0 -12.030273,-2.23242 -16.247073,-6.69726 -4.2168,-4.46485 -6.3252,-10.56955 -6.3252,-18.31412 0,-7.68946 2.1084,-13.78039 6.3252,-18.2728 4.2168,-4.49241 9.522243,-6.73861 15.916343,-6.73861 2.37023,0 5.30545,0.38586 8.80567,1.15756 v 2.60449 h -4.83692 c -3.30729,0 -6.31141,0.53743 -9.01237,1.6123 -2.70095,1.07487 -5.016063,2.56315 -6.945313,4.46485 -1.92925,1.92925 -3.41753,4.23057 -4.46484,6.90397 -1.04731,2.70096 -1.57097,5.66374 -1.57097,8.88835 0,1.81901 0.22049,3.6518 0.66146,5.49838 0.41341,1.87413 1.04731,3.62423 1.90169,5.25032 0.85439,1.65364 1.91548,3.12814 3.18327,4.4235 1.26779,1.32291 2.74229,2.34266 4.4235,3.05924 1.543403,0.66146 3.431323,1.22646 5.663743,1.69499 2.20487,0.46853 4.78179,0.7028 7.73079,0.7028 h 3.26596 v 2.56315 c -3.16949,0.79926 -5.99447,1.19889 -8.47494,1.19889 z m 8.47494,-6.28385 h -4.42351 c -2.50803,0 -4.74045,-0.49609 -6.69726,-1.48828 -1.98438,-0.96463 -3.6518,-2.28754 -5.00228,-3.96875 -1.350483,-1.65365 -2.370233,-3.59668 -3.059253,-5.8291 -0.71658,-2.20486 -1.07487,-4.54752 -1.07487,-7.02799 0,-2.45291 0.35829,-4.82313 1.07487,-7.11068 0.68902,-2.28755 1.70877,-4.32705 3.059253,-6.1185 1.32292,-1.79145 2.949,-3.22461 4.87825,-4.29948 1.92926,-1.07487 4.12034,-1.6123 6.57325,-1.6123 h 4.67155 v 3.63802 c -5.37435,0.0276 -9.39822,1.30914 -12.07162,3.84472 -2.67339,2.5356 -4.01009,6.49057 -4.01009,11.86492 0,2.53559 0.38585,4.68533 1.15755,6.44922 0.74415,1.79145 1.81901,3.23839 3.22461,4.34082 1.37803,1.12999 3.05924,1.95681 5.04362,2.48046 1.98437,0.55122 4.20302,0.86817 6.65593,0.95085 z m 0,-6.40788 c -1.76389,-0.0551 -3.25218,-0.37207 -4.46485,-0.95084 -1.21267,-0.55122 -2.19108,-1.35048 -2.93522,-2.39779 -0.74415,-1.01975 -1.28158,-2.25998 -1.6123,-3.7207 -0.33073,-1.43316 -0.4961,-3.07302 -0.4961,-4.91959 0,-1.79146 0.16537,-3.47266 0.4961,-5.04362 0.30316,-1.54341 0.82682,-2.89388 1.57096,-4.05145 0.74415,-1.15755 1.72255,-2.06706 2.93522,-2.72851 1.21267,-0.66145 2.71474,-1.01974 4.50619,-1.07487 z"
       sodipodi:nodetypes="ccscsccscsssssccssccscccccsccscscccsccssccsscccccccccscsscc" />
    <path
       id="path5"
       style="font-size:84.6667px;font-family:'Times New Roman';-inkscape-font-specification:'Times New Roman, ';display:inline;fill:url(#linearGradient6);fill-opacity:0.239234;stroke-width:0.0529167"
       d="m 100.06437,176.5293 9.82506,-56.0586 H 90.884466 c -10.886503,0 -18.989363,2.92145 -24.308593,8.76433 -4.74045,5.23654 41.277757,11.75467 41.277757,19.55437 0,5.81532 -47.051737,10.94161 -44.378347,15.3789 2.64584,4.43728 6.15984,7.60677 10.542,9.50846 4.3546,1.90169 10.721133,2.85254 19.099613,2.85254 z m -8.601124,-3.14193 c -6.61459,0 -12.030273,-2.23242 -16.247073,-6.69726 -4.2168,-4.46485 -6.3252,-10.56955 -6.3252,-18.31412 0,-7.68946 2.1084,-13.78039 6.3252,-18.2728 4.2168,-4.49241 9.522243,-6.73861 15.916343,-6.73861 2.37023,0 5.30545,0.38586 8.80567,1.15756 v 2.60449 h -4.83692 c -3.30729,0 -6.31141,0.53743 -9.01237,1.6123 -2.70095,1.07487 -5.016063,2.56315 -6.945313,4.46485 -1.92925,1.92925 -3.41753,4.23057 -4.46484,6.90397 -1.04731,2.70096 -1.57097,5.66374 -1.57097,8.88835 0,1.81901 0.22049,3.6518 0.66146,5.49838 0.41341,1.87413 1.04731,3.62423 1.90169,5.25032 0.85439,1.65364 1.91548,3.12814 3.18327,4.4235 1.26779,1.32291 2.74229,2.34266 4.4235,3.05924 1.543403,0.66146 3.431323,1.22646 5.663743,1.69499 2.20487,0.46853 4.78179,0.7028 7.73079,0.7028 h 3.26596 v 2.56315 c -3.16949,0.79926 -5.99447,1.19889 -8.47494,1.19889 z m 8.47494,-6.28385 h -4.42351 c -2.50803,0 -4.74045,-0.49609 -6.69726,-1.48828 -1.98438,-0.96463 -3.6518,-2.28754 -5.00228,-3.96875 -1.350483,-1.65365 -2.370233,-3.59668 -3.059253,-5.8291 -0.71658,-2.20486 -1.07487,-4.54752 -1.07487,-7.02799 0,-2.45291 0.35829,-4.82313 1.07487,-7.11068 0.68902,-2.28755 1.70877,-4.32705 3.059253,-6.1185 1.32292,-1.79145 2.949,-3.22461 4.87825,-4.29948 1.92926,-1.07487 4.12034,-1.6123 6.57325,-1.6123 h 4.67155 v 3.63802 c -5.37435,0.0276 -9.39822,1.30914 -12.07162,3.84472 -2.67339,2.5356 -4.01009,6.49057 -4.01009,11.86492 0,2.53559 0.38585,4.68533 1.15755,6.44922 0.74415,1.79145 1.81901,3.23839 3.22461,4.34082 1.37803,1.12999 3.05924,1.95681 5.04362,2.48046 1.98437,0.55122 4.20302,0.86817 6.65593,0.95085 z m 0,-6.40788 c -1.76389,-0.0551 -3.25218,-0.37207 -4.46485,-0.95084 -1.21267,-0.55122 -2.19108,-1.35048 -2.93522,-2.39779 -0.74415,-1.01975 -1.28158,-2.25998 -1.6123,-3.7207 -0.33073,-1.43316 -0.4961,-3.07302 -0.4961,-4.91959 0,-1.79146 0.16537,-3.47266 0.4961,-5.04362 0.30316,-1.54341 0.82682,-2.89388 1.57096,-4.05145 0.74415,-1.15755 1.72255,-2.06706 2.93522,-2.72851 1.21267,-0.66145 2.71474,-1.01974 4.50619,-1.07487 z"
       sodipodi:nodetypes="ccscsccscsssssccssccscccccsccscscccsccssccsscccccccccscsscc" />
    <path
       id="path4"
       style="font-size:84.6667px;font-family:'Times New Roman';-inkscape-font-specification:'Times New Roman, ';stroke-width:0.0529167"
       d="m 109.81864,120.4707 -9.825064,56.0586 h 19.004964 c 10.8865,0 18.98936,-2.92145 24.30859,-8.76433 4.74045,-5.23654 7.11068,-11.75466 7.11068,-19.55436 0,-5.81532 -1.3367,-10.94162 -4.01009,-15.37891 -2.64584,-4.43728 -6.15984,-7.60677 -10.542,-9.50846 -4.3546,-1.90169 -10.72113,-2.85254 -19.09961,-2.85254 z m 8.60112,3.14193 c 6.61459,0 12.03027,2.23242 16.24707,6.69726 4.2168,4.46485 6.3252,10.56956 6.3252,18.31413 0,7.68946 -2.1084,13.78038 -6.3252,18.27279 -4.2168,4.49241 -9.52224,6.73861 -15.91634,6.73861 -2.37023,0 -5.30545,-0.38586 -8.80567,-1.15756 v -2.60449 h 4.83692 c 3.30729,0 6.31141,-0.53743 9.01237,-1.6123 2.70095,-1.07487 5.01606,-2.56315 6.94531,-4.46485 1.92925,-1.92925 3.41753,-4.23057 4.46484,-6.90397 1.04731,-2.70095 1.57097,-5.66373 1.57097,-8.88834 0,-1.81901 -0.22049,-3.6518 -0.66146,-5.49838 -0.41341,-1.87413 -1.04731,-3.62424 -1.90169,-5.25033 -0.85439,-1.65364 -1.91548,-3.12814 -3.18327,-4.4235 -1.26779,-1.32291 -2.74229,-2.34266 -4.4235,-3.05924 -1.5434,-0.66146 -3.43132,-1.22646 -5.66374,-1.69499 -2.20487,-0.46853 -4.78179,-0.7028 -7.73079,-0.7028 h -3.26596 v -2.56315 c 3.16949,-0.79926 5.99447,-1.19889 8.47494,-1.19889 z m -8.47494,6.28385 h 4.42351 c 2.50803,0 4.74045,0.49609 6.69726,1.48828 1.98438,0.96463 3.6518,2.28754 5.00228,3.96875 1.35048,1.65365 2.37023,3.59668 3.05925,5.82911 0.71658,2.20486 1.07487,4.54752 1.07487,7.02799 0,2.45291 -0.35829,4.82313 -1.07487,7.11068 -0.68902,2.28754 -1.70877,4.32704 -3.05925,6.11849 -1.32292,1.79145 -2.949,3.22461 -4.87825,4.29948 -1.92926,1.07487 -4.12034,1.6123 -6.57325,1.6123 h -4.67155 v -3.63802 c 5.37435,-0.0276 9.39822,-1.30914 12.07162,-3.84472 2.67339,-2.5356 4.01009,-6.49056 4.01009,-11.86491 0,-2.53559 -0.38585,-4.68533 -1.15755,-6.44922 -0.74415,-1.79146 -1.81901,-3.2384 -3.22461,-4.34083 -1.37803,-1.12999 -3.05924,-1.95681 -5.04362,-2.48046 -1.98437,-0.55122 -4.20302,-0.86817 -6.65593,-0.95085 z m 0,6.40788 c 1.76389,0.0551 3.25218,0.37207 4.46485,0.95084 1.21267,0.55122 2.19108,1.35048 2.93522,2.39779 0.74415,1.01976 1.28158,2.25999 1.6123,3.72071 0.33073,1.43316 0.4961,3.07302 0.4961,4.91959 0,1.79146 -0.16537,3.47266 -0.4961,5.04362 -0.30316,1.54341 -0.82682,2.89388 -1.57096,4.05144 -0.74415,1.15755 -1.72255,2.06706 -2.93522,2.72851 -1.21267,0.66145 -2.71474,1.01974 -4.50619,1.07487 z"
       sodipodi:nodetypes="ccscsccscsssssccssccscccccsccscscccsccssccsscccccccccscsscc" />
    <text
       xml:space="preserve"
       style="font-style:normal;font-variant:normal;font-weight:normal;font-stretch:normal;font-size:82.7749px;line-height:0px;font-family:'Times New Roman';-inkscape-font-specification:'Times New Roman, ';text-align:start;writing-mode:lr-tb;direction:ltr;text-anchor:start;fill:#000000;fill-opacity:1;stroke-width:0.0517343"
       x="149.77113"
       y="176.52968"
       id="text6"><tspan
         sodipodi:role="line"
         id="tspan6"
         style="font-style:normal;font-variant:normal;font-weight:normal;font-stretch:normal;line-height:0px;font-family:'Times New Roman';-inkscape-font-specification:'Times New Roman, ';writing-mode:lr-tb;stroke-width:0.0517343"
         x="149.77113"
         y="176.52968">ARM</tspan></text>
    <path
       d="M 336.44894,182.96385 C 245.45867,181.29899 154.4684,179.63414 63.478144,177.96929"
       id="path9"
       style="fill:#000000"
       inkscape:original-d="M 0,0"
       inkscape:path-effect="#path-effect9" />
    <path
       style="fill:#000000;fill-opacity:1;fill-rule:nonzero;stroke:#000000;stroke-width:0.149899;stroke-linecap:round;stroke-linejoin:miter;stroke-dasharray:none;stroke-opacity:1"
       d="m 68.085282,201.52746 c 0,0 0.09286,4.99127 0.09286,4.99127 53.682989,-0.99873 214.639089,-8.98619 268.322079,-9.98492 -53.68299,0.99873 -214.82481,-0.99635 -268.507797,0.002 0,0 0.09286,4.99127 0.09286,4.99127 z"
       id="path7"
       inkscape:linked-fill="path9"
       transform="matrix(-1.0169732,0,0,1.0001819,405.68985,-18.600271)"
       sodipodi:nodetypes="cc"
       inkscape:original-d="m 68.085282,201.52746 c 89.471648,-1.66455 178.943298,-3.3291 268.414938,-4.99365"
       inkscape:path-effect="#path-effect7;#path-effect8" />
    <path
       d="m 68.977387,207.82945 -3.183228,-0.0411 -0.58394,1.27197 c -0.143662,0.31261 -0.217332,0.54653 -0.221068,0.7019 -0.003,0.12351 0.05241,0.23411 0.16619,0.33185 0.117941,0.0939 0.373028,0.15839 0.76573,0.19359 l -0.0053,0.22161 -2.558572,-0.0485 0.0053,-0.22035 c 0.339301,-0.0533 0.560061,-0.12684 0.66193,-0.22045 0.207855,-0.18727 0.442588,-0.5713 0.704256,-1.15239 l 3.036452,-6.65808 0.212494,1e-4 2.725226,6.82234 c 0.221107,0.55258 0.424349,0.91354 0.609658,1.08251 0.189683,0.16515 0.455387,0.26105 0.797376,0.2876 l -0.0052,0.22467 -3.289703,-0.0624 0.0053,-0.22304 c 0.33026,-0.01 0.55377,-0.0602 0.67021,-0.15069 0.120581,-0.0904 0.18246,-0.2021 0.185592,-0.33496 0.0042,-0.17713 -0.07091,-0.45824 -0.225157,-0.8431 z m -0.160363,-0.44797 -1.320699,-3.30621 -1.504842,3.27253 z m 5.400423,1.24746 c -0.345851,-0.17161 -0.608646,-0.40678 -0.788673,-0.70551 -0.179775,-0.30252 -0.265413,-0.6341 -0.257032,-0.99491 0.01281,-0.55129 0.235369,-1.02371 0.668264,-1.41782 0.437832,-0.39478 0.990816,-0.59031 1.659827,-0.58603 0.549211,0.004 1.023129,0.13716 1.421308,0.40132 l 1.229467,0.009 c 0.182232,0.001 0.288108,0.008 0.317522,0.0207 0.02951,0.008 0.05035,0.025 0.06252,0.0497 0.02463,0.0371 0.03587,0.1028 0.03373,0.19711 -0.0024,0.10661 -0.0147,0.18033 -0.03685,0.22116 -0.01319,0.0204 -0.0369,0.0366 -0.07112,0.0486 -0.02997,0.012 -0.13613,0.0173 -0.318368,0.0158 l -0.754958,-0.006 c 0.22987,0.29665 0.339678,0.67435 0.329236,1.1329 -0.01194,0.5241 -0.229298,0.9698 -0.651542,1.33658 -0.421518,0.36616 -0.978814,0.54378 -1.670865,0.53338 -0.284602,-0.004 -0.574178,-0.0494 -0.868704,-0.13513 -0.187063,0.1518 -0.315238,0.2861 -0.384617,0.40295 -0.0651,0.11282 -0.09859,0.20986 -0.100468,0.29114 -0.0016,0.0691 0.03016,0.13671 0.09529,0.20285 0.06932,0.0662 0.203698,0.1153 0.403251,0.14718 0.116494,0.0183 0.408604,0.0376 0.877002,0.0578 0.864082,0.0352 1.425451,0.0735 1.681873,0.11479 0.391564,0.0601 0.701359,0.2069 0.929061,0.44066 0.232185,0.23409 0.344553,0.51949 0.336914,0.85605 -0.01053,0.46382 -0.245231,0.89399 -0.703466,1.28993 -0.672857,0.58259 -1.53682,0.86015 -2.589634,0.83396 -0.806254,-0.0201 -1.480878,-0.21373 -2.024982,-0.58038 -0.306138,-0.21017 -0.456499,-0.42461 -0.451403,-0.64353 0.0023,-0.0973 0.02729,-0.19409 0.0751,-0.2904 0.07388,-0.14851 0.223735,-0.3543 0.449692,-0.61754 0.02988,-0.0359 0.246641,-0.25089 0.650765,-0.64532 -0.213267,-0.12997 -0.364375,-0.24447 -0.453453,-0.34355 -0.0848,-0.10302 -0.125724,-0.2174 -0.122803,-0.34317 0.0033,-0.142 0.06524,-0.30737 0.185884,-0.49616 0.124851,-0.18883 0.405415,-0.45456 0.842237,-0.79761 z m 1.168886,-3.4118 c -0.309521,-0.002 -0.571295,0.11598 -0.785497,0.3543 -0.214017,0.23811 -0.326685,0.60492 -0.338146,1.10062 -0.01484,0.64205 0.11534,1.1417 0.390825,1.49924 0.210959,0.27157 0.483781,0.40987 0.818675,0.41468 0.318604,0.005 0.583613,-0.10796 0.79483,-0.33777 0.211398,-0.23001 0.322867,-0.59428 0.334271,-1.09263 0.01486,-0.64941 -0.118661,-1.15911 -0.40028,-1.5288 -0.207959,-0.2708 -0.47959,-0.40728 -0.814678,-0.40964 z m -1.278474,5.44755 c -0.200499,0.20357 -0.352676,0.39371 -0.456623,0.57047 -0.103906,0.1767 -0.157585,0.34016 -0.161069,0.49044 -0.0045,0.19496 0.112055,0.36822 0.349919,0.51991 0.410727,0.26163 1.011091,0.40182 1.802564,0.42024 0.756334,0.0176 1.317668,-0.10039 1.682541,-0.35431 0.369563,-0.25012 0.557914,-0.52294 0.564629,-0.81819 0.0049,-0.21322 -0.09968,-0.36707 -0.313421,-0.46149 -0.217767,-0.0944 -0.651345,-0.15604 -1.299516,-0.18491 -0.943704,-0.0427 -1.66602,-0.10339 -2.169024,-0.18216 z m 6.048756,-3.41361 c -0.02321,0.83974 0.173647,1.50158 0.591178,1.98614 0.418328,0.48551 0.918143,0.7336 1.499925,0.74359 0.388666,0.007 0.728293,-0.0891 1.018653,-0.28741 0.295135,-0.20264 0.546062,-0.55156 0.752628,-1.04684 l 0.199465,0.1275 c -0.103936,0.56769 -0.38058,1.08245 -0.829352,1.54379 -0.447879,0.45637 -0.999933,0.6779 -1.65537,0.66522 -0.709407,-0.0137 -1.31012,-0.28929 -1.802915,-0.8258 -0.487316,-0.53933 -0.720474,-1.25445 -0.700307,-2.14615 0.02184,-0.96548 0.294428,-1.71482 0.818606,-2.24899 0.529656,-0.5394 1.185233,-0.80704 1.96786,-0.80205 0.664289,0.004 1.206684,0.21892 1.626366,0.64468 0.420582,0.42244 0.623373,0.98688 0.607763,1.69279 z m 0.0081,-0.3581 2.734564,0.0289 c -0.01352,-0.36454 -0.05321,-0.62163 -0.119059,-0.77125 -0.102872,-0.23266 -0.26077,-0.416 -0.473579,-0.55001 -0.208297,-0.13385 -0.428639,-0.20158 -0.660999,-0.20329 -0.356693,-0.003 -0.679397,0.12901 -0.968271,0.39461 -0.284167,0.26121 -0.454972,0.62816 -0.512656,1.10103 z m 6.663145,-0.68119 c 0.726791,-0.80464 1.413667,-1.20577 2.0604,-1.20164 0.332912,0.002 0.617873,0.0837 0.854719,0.24485 0.237179,0.15711 0.423324,0.41701 0.558315,0.77976 0.09278,0.2532 0.133584,0.64068 0.122371,1.16238 l -0.05305,2.4683 c -0.0079,0.36624 0.01806,0.61518 0.07781,0.74682 0.0469,0.10616 0.123365,0.18971 0.229426,0.25065 0.110594,0.061 0.313675,0.0943 0.609479,0.0998 l -0.0049,0.22782 -3.027948,-0.0574 0.0049,-0.22637 0.126222,0.002 c 0.283691,0.005 0.482009,-0.031 0.594735,-0.10871 0.117314,-0.0819 0.199938,-0.20222 0.247836,-0.36103 0.01916,-0.0627 0.03233,-0.25994 0.0395,-0.59174 l 0.05102,-2.36179 c 0.01134,-0.52469 -0.05379,-0.90521 -0.19531,-1.14149 -0.136892,-0.24028 -0.37606,-0.36173 -0.717201,-0.36446 -0.526246,-0.004 -1.055036,0.2632 -1.586414,0.80143 l -0.06613,3.02557 c -0.0085,0.38851 0.01045,0.62916 0.05684,0.72194 0.05896,0.12229 0.140642,0.21366 0.24506,0.27412 0.108964,0.0564 0.328826,0.0876 0.659898,0.0938 l -0.0049,0.2261 -2.982624,-0.0566 0.005,-0.22467 0.130883,0.002 c 0.305679,0.006 0.512749,-0.0635 0.620943,-0.20738 0.112709,-0.14807 0.17366,-0.43054 0.182815,-0.84732 l 0.04668,-2.12506 c 0.0151,-0.68733 0.0068,-1.10609 -0.02494,-1.25634 -0.02734,-0.15018 -0.07541,-0.25262 -0.144216,-0.30733 -0.0644,-0.0546 -0.153428,-0.0824 -0.26704,-0.0834 -0.122289,-0.001 -0.269202,0.029 -0.440696,0.0899 l -0.09314,-0.22522 1.826777,-0.6865 0.283471,0.002 z m 10.295839,2.65986 c -0.186031,0.77 -0.531101,1.3597 -1.034537,1.7688 -0.502346,0.40404 -1.051768,0.59998 -1.647894,0.58845 -0.707951,-0.0137 -1.317544,-0.30303 -1.829464,-0.86704 -0.510734,-0.56271 -0.755609,-1.31437 -0.735514,-2.25582 0.01946,-0.91172 0.323043,-1.64968 0.911772,-2.21496 0.59461,-0.56656 1.300158,-0.84773 2.117697,-0.84251 0.614999,0.004 1.118645,0.16035 1.510255,0.46965 0.392375,0.30558 0.585396,0.62276 0.578555,0.95116 -0.0034,0.16208 -0.06351,0.29373 -0.180348,0.39493 -0.112116,0.0969 -0.268987,0.14432 -0.470523,0.14222 -0.26997,-0.003 -0.4717,-0.0858 -0.605355,-0.24888 -0.07575,-0.0901 -0.124675,-0.26073 -0.146792,-0.51188 -0.01754,-0.25108 -0.104771,-0.44315 -0.261606,-0.57615 -0.156806,-0.12866 -0.376286,-0.19399 -0.658274,-0.19604 -0.454117,-0.003 -0.822369,0.15078 -1.105169,0.46199 -0.375025,0.41161 -0.569563,0.9577 -0.584026,1.63878 -0.01473,0.69387 0.152911,1.31004 0.503361,1.84911 0.355647,0.53579 0.844622,0.80938 1.467703,0.82013 0.44671,0.008 0.851537,-0.12801 1.214245,-0.40747 0.25596,-0.192 0.508636,-0.54424 0.758001,-1.05694 z m 2.001798,-1.40532 c -0.02257,0.87418 0.192698,1.5633 0.646503,2.06803 0.454814,0.50575 0.997284,0.76442 1.627954,0.77525 0.42136,0.007 0.78929,-0.0922 1.10351,-0.29853 0.3194,-0.21082 0.59045,-0.57401 0.81297,-1.08965 l 0.21667,0.1329 c -0.11102,0.59112 -0.40947,1.12701 -0.8947,1.6071 -0.48425,0.47488 -1.08209,0.70511 -1.79262,0.69136 -0.76896,-0.0149 -1.420798,-0.30225 -1.956394,-0.86118 -0.529613,-0.56181 -0.784337,-1.30638 -0.765109,-2.23458 0.02082,-1.00499 0.313959,-1.78489 0.880352,-2.34076 0.572362,-0.56134 1.282051,-0.83979 2.130341,-0.83438 0.72012,0.005 1.30879,0.22829 1.76509,0.67176 0.4573,0.44005 0.67888,1.02792 0.66406,1.76305 z m 0.0077,-0.37279 2.964021,0.0313 c -0.0157,-0.3796 -0.0595,-0.6473 -0.13136,-0.80313 -0.11221,-0.24229 -0.28393,-0.43324 -0.51503,-0.57284 -0.22619,-0.13944 -0.46523,-0.21003 -0.71709,-0.21187 -0.38661,-0.003 -0.735963,0.13409 -1.048244,0.4105 -0.307175,0.27183 -0.491184,0.65376 -0.552297,1.146 z m 13.608801,3.62251 c -0.334,0.3027 -0.6586,0.51928 -0.97381,0.64989 -0.31473,0.12605 -0.65214,0.18553 -1.01212,0.17857 -0.72808,-0.0141 -1.35682,-0.30013 -1.88692,-0.85722 -0.52879,-0.56015 -0.78424,-1.2699 -0.76729,-2.13008 0.0169,-0.86003 0.33062,-1.64273 0.94205,-2.34942 0.61292,-0.71269 1.39236,-1.06664 2.34001,-1.0606 0.58986,0.004 1.07514,0.17632 1.45526,0.51809 l 0.0215,-1.11655 c 0.0133,-0.6914 0.002,-1.11637 -0.0342,-1.27497 -0.0312,-0.15856 -0.0855,-0.26652 -0.16264,-0.32389 -0.0772,-0.0574 -0.17442,-0.0861 -0.29174,-0.0863 -0.12703,-2.2e-4 -0.29616,0.0346 -0.50733,0.10456 l -0.0906,-0.2308 2.01864,-0.73788 h 0.33196 l -0.1341,7.01438 c -0.0136,0.71148 -0.005,1.1471 0.0267,1.3068 0.0364,0.15539 0.0935,0.26473 0.17115,0.328 0.0826,0.0634 0.17817,0.096 0.28669,0.098 0.13326,0.002 0.31176,-0.0322 0.5356,-0.10357 l 0.0772,0.23401 -2.0243,0.71216 -0.33832,-0.007 z m 0.009,-0.46298 0.06,-3.12068 c -0.0236,-0.29991 -0.10652,-0.57388 -0.2486,-0.82182 -0.14199,-0.24778 -0.33395,-0.43419 -0.57577,-0.55923 -0.2366,-0.12928 -0.46933,-0.1947 -0.69821,-0.19635 -0.42797,-0.003 -0.81248,0.16735 -1.15376,0.51095 -0.44942,0.45164 -0.6824,1.11482 -0.69954,1.99021 -0.0173,0.8843 0.18215,1.56625 0.59897,2.04639 0.41766,0.47662 0.88928,0.71995 1.41514,0.72935 0.44395,0.008 0.87789,-0.18484 1.30173,-0.57882 z m 3.98344,-2.58693 c -0.022,0.90615 0.21114,1.62061 0.70007,2.14409 0.49004,0.52458 1.07369,0.79309 1.75153,0.80473 0.45291,0.008 0.84812,-0.0951 1.18535,-0.30882 0.3428,-0.2184 0.63322,-0.59482 0.87109,-1.12938 l 0.2333,0.13793 c -0.1178,0.6129 -0.43725,1.16838 -0.95762,1.66587 -0.51929,0.49206 -1.16129,0.73033 -1.92498,0.71556 -0.82639,-0.016 -1.52756,-0.31438 -2.10449,-0.89415 -0.57046,-0.58269 -0.84604,-1.35461 -0.82781,-2.31669 0.0197,-1.04167 0.33261,-1.84993 0.93965,-2.42592 0.61349,-0.58171 1.37534,-0.87017 2.28697,-0.86436 0.77398,0.005 1.40732,0.23701 1.899,0.69695 0.49278,0.45641 0.73256,1.06606 0.71856,1.82833 z m 0.007,-0.38642 3.18536,0.0337 c -0.0179,-0.39357 -0.0657,-0.67115 -0.14332,-0.83273 -0.12125,-0.25124 -0.30632,-0.44927 -0.55506,-0.59407 -0.24347,-0.14462 -0.50056,-0.21787 -0.77123,-0.21985 -0.41547,-0.003 -0.79052,0.13879 -1.12534,0.42523 -0.32934,0.28168 -0.52604,0.67752 -0.59041,1.18774 z m 11.76572,-2.01661 -0.0248,1.40425 c 0.61669,-0.93183 1.2422,-1.39648 1.87669,-1.39243 0.28893,0.002 0.52685,0.081 0.71361,0.23749 0.18699,0.15207 0.27879,0.32868 0.2753,0.52975 -0.003,0.17823 -0.0742,0.32846 -0.21335,0.45064 -0.13906,0.12212 -0.30327,0.1823 -0.49259,0.18057 -0.18394,-0.002 -0.39,-0.0811 -0.61814,-0.23815 -0.22261,-0.16143 -0.38882,-0.24254 -0.49876,-0.24344 -0.0942,-7.7e-4 -0.19699,0.0439 -0.30839,0.13403 -0.23843,0.18454 -0.4866,0.48934 -0.74449,0.91426 l -0.0529,2.99422 c -0.006,0.34569 0.0388,0.60811 0.13478,0.78729 0.0657,0.12408 0.18393,0.22865 0.35485,0.31374 0.17104,0.0851 0.41879,0.13074 0.74348,0.13674 l -0.004,0.24628 -3.6602,-0.0694 0.004,-0.24453 c 0.36184,0.007 0.63187,-0.0382 0.80978,-0.13473 0.13087,-0.0702 0.22367,-0.18428 0.27837,-0.34216 0.0273,-0.0767 0.0442,-0.29653 0.0506,-0.6595 l 0.043,-2.41535 c 0.0129,-0.72552 0.002,-1.15641 -0.0315,-1.29274 -0.0286,-0.14079 -0.089,-0.24331 -0.18116,-0.30753 -0.0869,-0.0642 -0.19772,-0.0968 -0.33231,-0.0979 -0.16037,-0.001 -0.34191,0.0311 -0.54459,0.0973 l -0.0731,-0.24486 2.16748,-0.74597 z m 7.30549,5.65807 c -0.76411,0.48931 -1.24219,0.77079 -1.43574,0.84544 -0.29003,0.10957 -0.5974,0.16119 -0.92203,0.15495 -0.50477,-0.01 -0.91855,-0.16678 -1.24177,-0.47093 -0.31749,-0.30365 -0.47188,-0.69799 -0.46347,-1.18329 0.005,-0.30672 0.0892,-0.57103 0.2516,-0.79306 0.22224,-0.30837 0.60326,-0.59653 1.14373,-0.86471 0.5469,-0.26865 1.45342,-0.59347 2.72329,-0.97541 l 0.004,-0.24903 c 0.0107,-0.63175 -0.1,-1.06615 -0.33183,-1.30309 -0.22628,-0.23667 -0.56127,-0.35652 -1.00457,-0.35971 -0.33598,-0.002 -0.60366,0.0737 -0.80324,0.22838 -0.20476,0.15449 -0.30881,0.33265 -0.31228,0.53455 l 0.009,0.3994 c -0.004,0.21111 -0.0702,0.37339 -0.19964,0.48679 -0.12409,0.11341 -0.28693,0.16901 -0.48843,0.16684 -0.19605,-0.002 -0.35652,-0.0634 -0.48147,-0.18381 -0.11961,-0.1203 -0.1776,-0.28343 -0.17404,-0.48941 0.007,-0.39364 0.24578,-0.75336 0.71752,-1.07959 0.47257,-0.3268 1.13205,-0.48772 1.97991,-0.48231 0.65246,0.004 1.18688,0.1021 1.60256,0.29403 0.31489,0.14533 0.54531,0.37106 0.69104,0.67719 0.0937,0.19955 0.13538,0.60677 0.12506,1.22166 l -0.0362,2.15734 c -0.0102,0.60598 -0.003,0.97862 0.0217,1.11787 0.0247,0.13465 0.0664,0.22563 0.12497,0.27294 0.064,0.0474 0.13651,0.0719 0.21753,0.0733 0.0865,0.002 0.16239,-0.0134 0.22781,-0.0447 0.11457,-0.0583 0.33656,-0.22364 0.66623,-0.49639 l -0.006,0.38959 c -0.61801,0.68451 -1.20187,1.02091 -1.75172,1.01035 -0.26372,-0.005 -0.47211,-0.0876 -0.62529,-0.2476 -0.15308,-0.15987 -0.22907,-0.42905 -0.22804,-0.80758 z m 0.008,-0.44993 0.0409,-2.41508 c -0.81362,0.26686 -1.33794,0.45603 -1.57468,0.56804 -0.42444,0.19679 -0.72874,0.40408 -0.91329,0.62201 -0.18443,0.21777 -0.27885,0.4574 -0.28335,0.719 -0.006,0.33047 0.10377,0.60777 0.32852,0.83205 0.22502,0.21989 0.48674,0.33255 0.78523,0.33782 0.40566,0.007 0.94431,-0.21383 1.61671,-0.66384 z m 8.47331,0.79997 c -0.37645,0.32159 -0.74262,0.55155 -1.09855,0.69008 -0.35538,0.13367 -0.73669,0.1965 -1.14381,0.18862 -0.82329,-0.0159 -1.5354,-0.32091 -2.13716,-0.91389 -0.6002,-0.59617 -0.89216,-1.35099 -0.87698,-2.26544 0.0152,-0.91428 0.366,-1.74614 1.05373,-2.49707 0.68948,-0.75743 1.56901,-1.13343 2.64059,-1.1266 0.66715,0.004 1.21688,0.188 1.64849,0.55172 l 0.0191,-1.18766 c 0.0118,-0.7354 -0.003,-1.18743 -0.0447,-1.35613 -0.0361,-0.16866 -0.0979,-0.2835 -0.1855,-0.34453 -0.0876,-0.061 -0.19772,-0.0916 -0.33042,-0.0918 -0.14369,-2.5e-4 -0.33484,0.0368 -0.57335,0.11114 l -0.10356,-0.24546 2.28018,-0.78473 0.37565,0 -0.11885,7.46221 c -0.0121,0.75694 9e-5,1.22042 0.0364,1.39036 0.042,0.16537 0.10704,0.28177 0.19524,0.34918 0.0938,0.0675 0.2021,0.1024 0.32494,0.10456 0.15084,0.003 0.35272,-0.0339 0.60577,-0.10957 l 0.0885,0.24911 -2.28765,0.75515 -0.38281,-0.007 z m 0.008,-0.4925 0.0533,-3.31954 c -0.0281,-0.31904 -0.12319,-0.61051 -0.28508,-0.87432 -0.16179,-0.26363 -0.3798,-0.462 -0.65391,-0.59513 -0.26821,-0.13761 -0.53173,-0.2073 -0.79057,-0.20916 -0.48397,-0.003 -0.91794,0.17755 -1.3022,0.54274 -0.50596,0.47997 -0.76624,1.18495 -0.78155,2.11571 -0.0155,0.94024 0.21318,1.66556 0.68662,2.17656 0.47443,0.50733 1.00886,0.76667 1.60359,0.7773 0.50217,0.009 0.99213,-0.19556 1.46977,-0.61416 z m 5.25942,-8.7793 c 0.23733,0 0.43699,0.071 0.59891,0.21297 0.16776,0.13738 0.25015,0.30554 0.24707,0.50443 -0.003,0.1989 -0.0907,0.36922 -0.2628,0.51089 -0.16633,0.1416 -0.36822,0.21204 -0.60557,0.2114 -0.23714,-6.4e-4 -0.43913,-0.0721 -0.60604,-0.21419 -0.16681,-0.14204 -0.24862,-0.31216 -0.24552,-0.51042 0.003,-0.19824 0.0874,-0.36575 0.25287,-0.50259 0.17132,-0.14164 0.37832,-0.21249 0.62108,-0.21249 z m 0.65147,3.40228 -0.081,5.23225 c -0.006,0.40781 0.0235,0.6811 0.0894,0.81985 0.0717,0.13414 0.17504,0.23568 0.31021,0.30461 0.14091,0.0691 0.39607,0.10703 0.76581,0.11387 l -0.004,0.2567 -3.77285,-0.0716 0.004,-0.25488 c 0.37628,0.007 0.62979,-0.0191 0.76017,-0.0781 0.13044,-0.0591 0.23341,-0.15891 0.30887,-0.29946 0.0811,-0.1405 0.12481,-0.41177 0.13109,-0.81378 l 0.0391,-2.50355 c 0.011,-0.70426 -0.007,-1.16056 -0.0547,-1.36894 -0.037,-0.15153 -0.0974,-0.25599 -0.18097,-0.31338 -0.0835,-0.0621 -0.19833,-0.0937 -0.34454,-0.0949 -0.15737,-0.001 -0.3489,0.0325 -0.57451,0.10141 l -0.11377,-0.25552 2.34403,-0.77693 z m 6.02355,0.0384 c 1.2077,0.008 2.17571,0.39392 2.90151,1.16025 0.61794,0.65648 0.92136,1.40769 0.90913,2.25252 -0.009,0.59389 -0.19068,1.19252 -0.54591,1.79531 -0.35482,0.60211 -0.83871,1.05173 -1.45097,1.34891 -0.60511,0.29664 -1.27636,0.43758 -2.01323,0.42333 -1.19673,-0.0231 -2.13802,-0.43558 -2.82642,-1.2357 -0.57973,-0.67234 -0.8628,-1.41973 -0.85024,-2.24325 0.009,-0.5997 0.19537,-1.19267 0.55898,-1.77949 0.36986,-0.59224 0.84971,-1.02699 1.44017,-1.30416 0.59178,-0.28253 1.21735,-0.42193 1.87698,-0.41772 z m -0.27621,0.46514 c -0.30658,-0.002 -0.61683,0.0721 -0.93077,0.22273 -0.30775,0.14576 -0.55933,0.40647 -0.7549,0.78204 -0.19545,0.37534 -0.29759,0.85883 -0.30653,1.45071 -0.0144,0.95478 0.20028,1.78188 0.64469,2.48211 0.45099,0.70162 1.05262,1.05983 1.80582,1.07369 0.56339,0.0104 1.03176,-0.1734 1.40458,-0.55168 0.37331,-0.37876 0.56702,-1.0378 0.58078,-1.97662 0.0172,-1.17449 -0.2758,-2.10147 -0.8779,-2.77995 -0.40623,-0.46425 -0.92837,-0.69841 -1.56577,-0.70303 z m 11.0329,5.76532 c -0.40855,0.33516 -0.80618,0.57473 -1.19293,0.71892 -0.38616,0.13912 -0.8007,0.20432 -1.2435,0.19575 -0.89536,-0.0173 -1.67062,-0.33597 -2.32669,-0.95482 -0.65433,-0.6221 -0.97402,-1.40934 -0.96032,-2.36279 0.0137,-0.95327 0.39249,-1.82044 1.13783,-2.60315 0.74729,-0.78956 1.70251,-1.18139 2.86793,-1.17396 0.72566,0.005 1.32423,0.19643 1.79491,0.57595 l 0.0171,-1.2388 c 0.0106,-0.76707 -0.007,-1.23856 -0.0528,-1.41453 -0.0398,-0.17592 -0.10742,-0.29571 -0.20287,-0.35937 -0.0954,-0.0636 -0.21537,-0.0956 -0.35974,-0.0958 -0.15631,-2.7e-4 -0.36412,0.0384 -0.62332,0.11587 l -0.11341,-0.25602 2.47818,-0.81841 h 0.40874 l -0.10611,7.78446 c -0.0108,0.78967 0.004,1.27319 0.044,1.45051 0.0462,0.17256 0.11735,0.29404 0.21353,0.36444 0.10229,0.0705 0.22027,0.10699 0.35397,0.10934 0.16416,0.003 0.38377,-0.035 0.65894,-0.11384 l 0.0971,0.25998 -2.48712,0.78591 -0.41652,-0.008 z m 0.007,-0.51373 0.0477,-3.46261 c -0.0316,-0.33279 -0.13592,-0.63686 -0.31286,-0.9121 -0.17683,-0.27504 -0.41461,-0.48203 -0.71318,-0.62097 -0.29217,-0.14362 -0.57901,-0.21639 -0.86055,-0.21841 -0.52636,-0.004 -0.99775,0.18487 -1.41448,0.56556 -0.54867,0.50032 -0.82951,1.23534 -0.84328,2.2059 -0.0139,0.98046 0.23691,1.73697 0.75329,2.2702 0.51748,0.52945 1.09949,0.80034 1.74639,0.8119 0.54625,0.01 1.07861,-0.20319 1.59695,-0.63947 z m 5.69691,-9.15746 c 0.25842,0 0.47606,0.0741 0.65282,0.22224 0.18312,0.14336 0.27336,0.31885 0.27064,0.5264 -0.003,0.20756 -0.0976,0.3853 -0.28458,0.53312 -0.18068,0.14774 -0.40029,0.22122 -0.65874,0.22052 -0.2582,-7e-4 -0.47835,-0.0752 -0.66052,-0.22356 -0.18205,-0.14823 -0.27165,-0.32574 -0.26889,-0.5326 0.003,-0.20685 0.094,-0.38163 0.27373,-0.52441 0.18608,-0.14778 0.41123,-0.22171 0.67554,-0.22171 z m 0.72006,3.55043 -0.0718,5.4603 c -0.006,0.42561 0.0277,0.71083 0.0999,0.85569 0.0785,0.14006 0.19136,0.24611 0.33877,0.31817 0.15369,0.0722 0.43171,0.11204 0.83445,0.11948 l -0.003,0.26792 -4.10836,-0.0779 0.004,-0.26594 c 0.40963,0.008 0.68552,-0.0194 0.82727,-0.0809 0.14183,-0.0616 0.25362,-0.16562 0.33532,-0.31223 0.0879,-0.14654 0.13461,-0.42958 0.14019,-0.84907 l 0.0347,-2.6124 c 0.01,-0.73487 -0.0115,-1.21101 -0.0639,-1.42846 -0.0409,-0.15813 -0.10687,-0.26716 -0.198,-0.32707 -0.0911,-0.0648 -0.21621,-0.0979 -0.37539,-0.0992 -0.17131,-0.001 -0.37969,0.0338 -0.62506,0.10559 l -0.12465,-0.26664 2.54952,-0.80992 z m 5.70225,0.77813 -0.0567,4.5123 c -0.008,0.63996 0.0751,1.04652 0.24943,1.21972 0.23063,0.2244 0.54179,0.3403 0.93374,0.34754 l 0.78873,0.0146 -0.003,0.27101 -5.15776,-0.0978 0.003,-0.26853 0.38331,0.007 c 0.24959,0.005 0.47818,-0.041 0.6857,-0.13682 0.20767,-0.0959 0.3502,-0.22797 0.42748,-0.39613 0.0836,-0.1681 0.12848,-0.49649 0.13469,-0.98508 l 0.0573,-4.49982 -1.66685,-0.0128 0.007,-0.5363 1.66679,0.0112 0.006,-0.44822 c 0.009,-0.6822 0.15379,-1.25926 0.43553,-1.73154 0.28198,-0.4727 0.70756,-0.85339 1.27738,-1.14218 0.57731,-0.29435 1.22349,-0.44173 1.93904,-0.44171 0.66652,1e-5 1.27839,0.17071 1.83528,0.51262 0.36766,0.22665 0.54997,0.48096 0.54655,0.7627 -0.002,0.15094 -0.0867,0.2941 -0.25452,0.42944 -0.16767,0.13022 -0.34721,0.19498 -0.53861,0.19433 -0.14664,-5e-4 -0.30228,-0.0412 -0.46689,-0.12208 -0.15808,-0.0858 -0.35309,-0.26454 -0.58493,-0.53598 -0.23158,-0.27622 -0.44504,-0.46198 -0.64043,-0.55742 -0.19524,-0.0954 -0.41309,-0.14315 -0.65351,-0.14339 -0.29073,-2.9e-4 -0.53778,0.062 -0.74125,0.18663 -0.20326,0.1196 -0.35056,0.30912 -0.442,0.56858 -0.0914,0.2544 -0.14374,0.91576 -0.15717,1.98429 l -0.006,0.49441 2.23769,0.0151 -0.007,0.54155 z m 6.15847,0.0474 -0.0545,4.56182 c -0.008,0.64698 0.0775,1.05802 0.25584,1.23316 0.23589,0.22691 0.55402,0.34414 0.95464,0.35155 l 0.80617,0.0149 -0.003,0.27399 -5.27142,-0.1 0.003,-0.27146 0.39172,0.007 c 0.25507,0.005 0.48864,-0.0413 0.70065,-0.13817 0.21216,-0.0969 0.35772,-0.23039 0.43657,-0.40039 0.0853,-0.16992 0.13092,-0.50189 0.1369,-0.99584 l 0.0551,-4.54905 -1.70344,-0.0131 0.007,-0.54216 1.70336,0.0115 0.005,-0.45311 c 0.008,-0.68967 0.15621,-1.27302 0.44378,-1.75046 0.28783,-0.47786 0.72248,-0.86271 1.30463,-1.15467 0.58982,-0.29757 1.25015,-0.44657 1.98151,-0.44655 0.68128,2e-5 1.30683,0.1726 1.87634,0.51828 0.376,0.22916 0.56255,0.48628 0.55928,0.77114 -0.002,0.1526 -0.0884,0.29735 -0.25984,0.43417 -0.17129,0.13165 -0.35477,0.19712 -0.55042,0.19646 -0.1499,-5.1e-4 -0.30901,-0.0417 -0.47733,-0.12345 -0.16166,-0.0868 -0.36112,-0.26747 -0.59831,-0.5419 -0.23692,-0.27927 -0.45524,-0.46708 -0.65502,-0.56357 -0.19964,-0.0964 -0.42234,-0.14473 -0.66806,-0.14497 -0.29716,-2.9e-4 -0.54961,0.0626 -0.75747,0.18867 -0.20765,0.1209 -0.35807,0.3125 -0.45132,0.57481 -0.0932,0.25718 -0.1462,0.92579 -0.15911,2.00604 l -0.006,0.49983 2.2871,0.0154 -0.006,0.54751 z m 11.09704,-0.47051 -0.0464,4.28723 c -0.009,0.81924 0.009,1.32206 0.054,1.50838 0.0516,0.18131 0.13057,0.309 0.23697,0.38305 0.11312,0.0742 0.24345,0.1126 0.39099,0.11519 0.20804,0.004 0.44356,-0.0361 0.70665,-0.11934 l 0.13835,0.27377 -2.76165,0.82283 -0.44953,-0.009 0.0164,-1.49565 c -0.79135,0.6438 -1.39256,1.04588 -1.80475,1.20735 -0.41162,0.16123 -0.84479,0.23736 -1.29941,0.22857 -0.50648,-0.01 -0.94517,-0.13061 -1.31638,-0.36221 -0.36411,-0.23626 -0.61586,-0.5339 -0.75557,-0.89299 -0.13962,-0.35889 -0.20564,-0.86405 -0.19813,-1.51556 l 0.036,-3.1215 c 0.004,-0.3306 -0.0392,-0.55984 -0.12912,-0.6877 -0.0899,-0.12782 -0.22567,-0.22543 -0.40737,-0.29285 -0.17502,-0.0724 -0.49673,-0.10775 -0.96465,-0.10607 l 0.003,-0.28147 3.14338,0.0212 -0.0534,4.69122 c -0.007,0.6534 0.13221,1.08467 0.41915,1.29391 0.29382,0.20957 0.64844,0.31812 1.06406,0.32547 0.28403,0.005 0.6055,-0.0585 0.96452,-0.19064 0.36609,-0.13221 0.80044,-0.38926 1.30332,-0.7715 l 0.044,-3.99866 c 0.004,-0.40045 -0.089,-0.67073 -0.28027,-0.81079 -0.18438,-0.14504 -0.57501,-0.22481 -1.17105,-0.23938 l 0.003,-0.28416 z m 8.2754,-0.15565 -0.0244,2.44401 -0.34048,-0.004 c -0.25339,-0.76977 -0.58446,-1.29429 -0.99296,-1.57385 -0.40105,-0.27911 -0.91563,-0.42077 -1.54315,-0.42527 -0.47656,-0.003 -0.86164,0.0898 -1.15562,0.27954 -0.29369,0.18954 -0.44164,0.40085 -0.44408,0.63405 -0.003,0.29023 0.10282,0.54006 0.31769,0.74961 0.2082,0.21482 0.63395,0.44514 1.27822,0.69123 l 1.49077,0.57184 c 1.38881,0.5342 2.08154,1.22606 2.07312,2.07374 -0.006,0.65417 -0.33938,1.17702 -0.99759,1.56786 -0.6499,0.38491 -1.37515,0.56931 -2.17515,0.55383 -0.57302,-0.0111 -1.22572,-0.10167 -1.95754,-0.27145 -0.22319,-0.0561 -0.40585,-0.0855 -0.54804,-0.0881 -0.15567,-0.003 -0.27814,0.0622 -0.36746,0.1952 l -0.3345,-0.006 0.0268,-2.53941 0.33442,0.005 c 0.18171,0.72813 0.53811,1.28094 1.06987,1.65852 0.53276,0.37831 1.13317,0.57393 1.8016,0.58633 0.47156,0.009 0.85588,-0.0884 1.15263,-0.29169 0.30394,-0.20855 0.45753,-0.46169 0.46053,-0.75925 0.004,-0.36017 -0.16146,-0.66552 -0.49498,-0.91585 -0.32627,-0.24993 -0.98293,-0.56938 -1.96769,-0.95757 -0.98136,-0.38685 -1.62153,-0.73193 -1.92277,-1.03602 -0.30096,-0.29857 -0.44894,-0.67276 -0.44418,-1.1228 0.006,-0.58446 0.2713,-1.07109 0.79604,-1.46043 0.53241,-0.38995 1.21653,-0.58252 2.05348,-0.57718 0.3682,0.002 0.81483,0.065 1.34025,0.18823 0.34855,0.0805 0.58128,0.12119 0.69791,0.122 0.10982,7.5e-4 0.19582,-0.0169 0.25799,-0.053 0.0622,-0.0361 0.13515,-0.11651 0.21886,-0.24117 z m 4.59193,-3.74985 c 0.29356,0 0.54116,0.0789 0.7427,0.23689 0.20874,0.15281 0.31213,0.33987 0.31004,0.5611 -0.002,0.22126 -0.10903,0.41069 -0.32073,0.56823 -0.20456,0.15745 -0.45369,0.23573 -0.74729,0.23494 -0.2933,-8e-4 -0.54371,-0.0803 -0.75134,-0.23839 -0.20748,-0.158 -0.3101,-0.34718 -0.30797,-0.56764 0.002,-0.22044 0.10488,-0.4067 0.30836,-0.55885 0.21062,-0.15749 0.46599,-0.23628 0.76623,-0.23628 z m 0.83526,3.7845 -0.055,5.82064 c -0.004,0.4537 0.0349,0.75781 0.11765,0.91233 0.0898,0.14941 0.21864,0.26262 0.3865,0.33962 0.17499,0.0772 0.49113,0.12001 0.94888,0.12847 l -0.003,0.28567 -4.66752,-0.0885 0.003,-0.28342 c 0.46518,0.009 0.77835,-0.0198 0.93904,-0.0852 0.16077,-0.0654 0.28723,-0.1762 0.37932,-0.33236 0.0991,-0.15608 0.1508,-0.45771 0.1551,-0.90482 l 0.0268,-2.78433 c 0.008,-0.78323 -0.0189,-1.29071 -0.0794,-1.5225 -0.0472,-0.16856 -0.12267,-0.28479 -0.22645,-0.3487 -0.10373,-0.0691 -0.24601,-0.10442 -0.42677,-0.10589 -0.19456,-0.002 -0.43101,0.0358 -0.70927,0.11216 l -0.1428,-0.28421 2.89161,-0.8619 z m 7.46248,0.0477 c 1.49849,0.01 2.70346,0.44071 3.61147,1.29546 0.77335,0.73245 1.15694,1.57026 1.1492,2.51206 -0.005,0.66207 -0.22637,1.32911 -0.66235,2.0004 -0.43542,0.67042 -1.03241,1.17051 -1.79001,1.50031 -0.74853,0.32913 -1.58032,0.48454 -2.49462,0.46685 -1.4843,-0.0287 -2.65469,-0.49025 -3.51466,-1.38264 -0.724,-0.74966 -1.08109,-1.58211 -1.07267,-2.49869 0.006,-0.66746 0.2316,-1.32718 0.67688,-1.97987 0.45303,-0.65882 1.04379,-1.1423 1.77311,-1.45032 0.7311,-0.31407 1.50552,-0.46878 2.32365,-0.46356 z m -0.33853,0.51782 c -0.38023,-0.003 -0.7643,0.0797 -1.15222,0.24717 -0.38025,0.16201 -0.68982,0.45203 -0.92895,0.86999 -0.23896,0.41766 -0.36134,0.95583 -0.36725,1.61479 -0.01,1.06303 0.26374,1.98434 0.8207,2.76497 0.56526,0.78234 1.31446,1.1827 2.24888,1.19989 0.69912,0.0129 1.27877,-0.19082 1.73823,-0.61151 0.46011,-0.42129 0.69482,-1.15537 0.70363,-2.20164 0.011,-1.30886 -0.36089,-2.34226 -1.11423,-3.09894 -0.5082,-0.51764 -1.15809,-0.77898 -1.94879,-0.78472 z m 9.55308,1.11787 c 1.20342,-1.04258 2.35133,-1.56184 3.44331,-1.55487 0.56246,0.004 1.04625,0.11038 1.45099,0.32057 0.40535,0.20501 0.72725,0.54365 0.96546,1.01603 0.16386,0.32979 0.2434,0.83416 0.23854,1.51302 l -0.023,3.21217 c -0.003,0.47666 0.0472,0.80087 0.15192,0.97263 0.0823,0.13853 0.21399,0.24784 0.39524,0.32794 0.18893,0.0803 0.53381,0.12507 1.03516,0.13434 l -0.002,0.2967 -5.12308,-0.0972 0.002,-0.29424 0.21316,0.004 c 0.47922,0.009 0.81325,-0.0368 1.00162,-0.13709 0.19602,-0.10566 0.33242,-0.26162 0.4091,-0.46786 0.0307,-0.0814 0.0476,-0.33789 0.0508,-0.76941 l 0.0226,-3.07142 c 0.005,-0.68228 -0.11531,-1.17734 -0.36081,-1.48506 -0.23774,-0.31284 -0.64496,-0.47147 -1.22102,-0.47609 -0.88813,-0.007 -1.77268,0.33853 -2.65378,1.03554 l -0.0305,3.92826 c -0.004,0.50447 0.0344,0.81712 0.11507,0.93793 0.10263,0.15923 0.24272,0.27849 0.42033,0.35775 0.18519,0.074 0.55672,0.11621 1.11528,0.12654 l -0.002,0.29379 -5.02367,-0.0953 0.002,-0.29138 0.22005,0.004 c 0.51407,0.01 0.86047,-0.0787 1.03864,-0.2647 0.18566,-0.19137 0.28069,-0.55753 0.28499,-1.09835 l 0.0219,-2.75725 c 0.007,-0.89173 -0.018,-1.43506 -0.0754,-1.6301 -0.05,-0.19493 -0.13362,-0.32798 -0.25076,-0.39917 -0.10977,-0.0711 -0.26022,-0.10742 -0.45128,-0.10898 -0.20562,-0.002 -0.45177,0.0368 -0.73836,0.11523 l -0.16247,-0.2923 3.05454,-0.88552 0.4775,0.003 z m 23.55273,6.54012 -6.16817,-9.66068 -0.0456,7.57568 c -0.004,0.6974 0.0991,1.13449 0.30991,1.31129 0.2892,0.2398 0.74852,0.36561 1.37869,0.37725 l 0.56824,0.0105 -0.002,0.31085 -5.54364,-0.10516 0.002,-0.30812 0.55928,0.0103 c 0.66934,0.0124 1.14587,-0.12358 1.4287,-0.40802 0.17295,-0.17518 0.26141,-0.58032 0.2653,-1.21529 l 0.0453,-7.39635 c 0.003,-0.50048 -0.0728,-0.86212 -0.22755,-1.08485 -0.10824,-0.1614 -0.31017,-0.29512 -0.60561,-0.40115 -0.28734,-0.11146 -0.7535,-0.1676 -1.39769,-0.16848 l 0.002,-0.30743 4.498,0.004 5.81111,8.97517 5.91882,-8.96485 4.73605,0.004 -0.001,0.31776 -0.58346,-8e-4 c -0.71855,-9.9e-4 -1.22618,0.14677 -1.5239,0.44308 -0.18182,0.18222 -0.27415,0.59851 -0.27707,1.24901 l -0.034,7.5898 c -0.003,0.71447 0.11004,1.16238 0.33986,1.34376 0.30395,0.24581 0.78627,0.37492 1.44775,0.38714 l 0.58406,0.0108 -0.001,0.3185 -7.08574,-0.13443 0.002,-0.31499 0.5845,0.0108 c 0.70771,0.0131 1.20557,-0.12571 1.49256,-0.41655 0.18051,-0.17904 0.27233,-0.59322 0.27539,-1.2424 l 0.0365,-7.73245 -6.39231,9.61967 z m 18.49089,-7.84854 c 1.76575,0.0113 3.1889,0.48016 4.26506,1.40903 0.91683,0.79617 1.37475,1.70657 1.3717,2.7296 -0.002,0.71918 -0.25844,1.44346 -0.76838,2.172 -0.50923,0.72753 -1.21002,1.26971 -2.10113,1.62659 -0.88026,0.35609 -1.85955,0.52335 -2.93694,0.50251 -1.74846,-0.0338 -3.1294,-0.53676 -4.14732,-1.5065 -0.85675,-0.81443 -1.28217,-1.71801 -1.27809,-2.71231 0.003,-0.72404 0.26406,-1.43946 0.78384,-2.1471 0.52894,-0.71436 1.22116,-1.23847 2.07772,-1.57218 0.8588,-0.34035 1.76982,-0.50779 2.73354,-0.50164 z m -0.39547,0.56185 c -0.44788,-0.003 -0.89971,0.086 -1.35546,0.26746 -0.44671,0.17553 -0.80935,0.49002 -1.08821,0.94336 -0.27865,0.45299 -0.41928,1.03682 -0.42204,1.75184 -0.004,1.15347 0.32312,2.15359 0.98386,3.00155 0.67063,0.84999 1.55559,1.2858 2.65652,1.30605 0.82391,0.0152 1.50576,-0.20501 2.04463,-0.66106 0.53972,-0.45677 0.81171,-1.25361 0.81537,-2.38981 0.005,-1.42134 -0.44055,-2.54387 -1.33341,-3.3661 -0.60226,-0.56238 -1.36971,-0.84654 -2.30126,-0.85329 z m 11.29298,-0.49227 -0.004,1.81984 c 1.01102,-1.20594 2.04993,-1.80678 3.11717,-1.79996 0.48623,0.003 0.88882,0.10638 1.20746,0.30998 0.31896,0.19788 0.47831,0.4274 0.47779,0.68841 -4.5e-4,0.23136 -0.11626,0.42615 -0.34731,0.58429 -0.2309,0.15804 -0.50578,0.23557 -0.82451,0.23267 -0.30959,-0.003 -0.65842,-0.10659 -1.04636,-0.31112 -0.37866,-0.21011 -0.66027,-0.31584 -0.84509,-0.31735 -0.15834,-0.001 -0.32993,0.0563 -0.51475,0.17281 -0.39568,0.23846 -0.80443,0.63273 -1.22622,1.18253 l -0.009,3.88102 c -0.001,0.44812 0.0813,0.78862 0.24722,1.02158 0.11358,0.16132 0.31498,0.29774 0.60438,0.40927 0.28966,0.11163 0.70727,0.17253 1.25332,0.18263 l -7.1e-4,0.31951 -6.14386,-0.11656 9e-4,-0.31655 c 0.60622,0.0112 1.05745,-0.045 1.35305,-0.16883 0.21752,-0.0901 0.37009,-0.23717 0.45763,-0.44133 0.0437,-0.0992 0.0662,-0.38384 0.0675,-0.85401 l 0.008,-3.12843 c 0.003,-0.93962 -0.0265,-1.49771 -0.0869,-1.67439 -0.0517,-0.18243 -0.15562,-0.31538 -0.31176,-0.39884 -0.14739,-0.0834 -0.33387,-0.12594 -0.55938,-0.12778 -0.26868,-0.002 -0.57188,0.0393 -0.90953,0.12429 l -0.1287,-0.31712 3.61335,-0.96007 z m 7.53587,3.3724 c -0.0109,1.21576 0.4312,2.17606 1.32804,2.88218 0.89953,0.70811 1.96036,1.07339 3.18391,1.0944 0.81819,0.014 1.52905,-0.12119 2.13187,-0.40611 0.61302,-0.29128 1.12645,-0.79578 1.53982,-1.51367 l 0.42686,0.18724 c -0.1936,0.82433 -0.75407,1.56971 -1.67965,2.23508 -0.92316,0.65763 -2.07544,0.97243 -3.45437,0.94576 -1.4905,-0.0288 -2.76285,-0.43568 -3.81937,-1.21867 -1.04411,-0.78621 -1.56367,-1.82346 -1.56124,-3.11345 0.003,-1.3966 0.53928,-2.47892 1.61243,-3.24902 1.08542,-0.77836 2.44828,-1.16322 4.09208,-1.15275 1.3972,0.009 2.54892,0.32286 3.4527,0.94314 0.90633,0.61599 1.36002,1.43757 1.35918,2.4636 z m 8.7e-4,-0.51844 5.74405,0.0607 c -0.0449,-0.5293 -0.14013,-0.90272 -0.28555,-1.12029 -0.22704,-0.33824 -0.56756,-0.60513 -1.02123,-0.80064 -0.44399,-0.19519 -0.91012,-0.29447 -1.39833,-0.29805 -0.74899,-0.005 -1.42016,0.18366 -2.014,0.56692 -0.58386,0.37673 -0.92527,0.90704 -1.02494,1.59132 z m 14.68896,-7.08296 -0.002,11.09444 c -1.1e-4,0.52414 0.056,0.87255 0.16823,1.04522 0.12168,0.17291 0.30432,0.30735 0.548,0.40331 0.24386,0.0899 0.69923,0.14108 1.36696,0.15343 v 0.33021 l -6.28241,-0.11919 2.1e-4,-0.32718 c 0.58276,0.0108 0.98112,-0.0213 1.19442,-0.0963 0.21342,-0.075 0.38057,-0.20253 0.50138,-0.38256 0.12085,-0.18008 0.1814,-0.52831 0.18163,-1.04459 l 0.003,-7.57408 c 4.1e-4,-0.93988 -0.0318,-1.51594 -0.0966,-1.72828 -0.0648,-0.21835 -0.17143,-0.36705 -0.31983,-0.44611 -0.139,-0.079 -0.31965,-0.11868 -0.54188,-0.11907 -0.2406,-4.2e-4 -0.54574,0.0474 -0.91528,0.14348 l -0.23514,-0.31771 3.79916,-1.01505 z"
       id="text9"
       style="font-size:18.7689px;line-height:0px;font-family:'Times New Roman';-inkscape-font-specification:'Times New Roman, ';stroke:#000000;stroke-width:0.22316;stroke-linecap:round"
       transform="matrix(1.1345754,0.04727222,-0.03635061,0.87987246,1.2981847,-1.363862)"
       aria-label="Agence de radiodiffusion Morel"
       inkscape:original-d="m 72.002532,210.87066 h -4.811363 l -0.843135,1.9612 q -0.311593,0.724 -0.311593,1.08141 0,0.2841 0.265771,0.50405 0.274935,0.21078 1.173056,0.27493 v 0.33909 h -3.913242 v -0.33909 q 0.778983,-0.13746 1.008095,-0.35741 0.46739,-0.4399 1.035589,-1.78708 l 4.371467,-10.22758 h 0.320758 l 4.325645,10.33756 q 0.522376,1.24637 0.943943,1.62211 0.430732,0.36658 1.191386,0.4124 v 0.33909 H 71.8559 v -0.33909 q 0.742325,-0.0367 0.998931,-0.24744 0.26577,-0.21078 0.26577,-0.51321 0,-0.40324 -0.36658,-1.27386 z m -0.256606,-0.67818 -2.107835,-5.02214 -2.162823,5.02214 z m 8.055597,1.77792 q -0.769818,-0.37575 -1.18222,-1.04476 -0.412403,-0.67817 -0.412403,-1.49381 0,-1.24637 0.934779,-2.14449 0.943944,-0.89812 2.410264,-0.89812 1.20055,0 2.080342,0.58652 h 1.777913 q 0.394074,0 0.458226,0.0275 0.06415,0.0183 0.09164,0.0733 0.05499,0.0825 0.05499,0.29327 0,0.23828 -0.04582,0.32992 -0.02749,0.0458 -0.100809,0.0733 -0.06415,0.0275 -0.458226,0.0275 h -1.090575 q 0.513212,0.65984 0.513212,1.68627 0,1.17305 -0.898121,2.00702 -0.898122,0.83397 -2.410264,0.83397 -0.623186,0 -1.273866,-0.18329 -0.403238,0.34825 -0.54987,0.61403 -0.137468,0.2566 -0.137468,0.43989 0,0.1558 0.146632,0.30243 0.155797,0.14663 0.595693,0.21078 0.256606,0.0367 1.28303,0.0642 1.887888,0.0458 2.446922,0.12831 0.852299,0.11914 1.356346,0.63235 0.513213,0.51321 0.513213,1.2647 0,1.03559 -0.971438,1.94287 -1.429662,1.33802 -3.729952,1.33802 -1.768749,0 -2.987628,-0.79731 -0.687337,-0.45823 -0.687337,-0.95311 0,-0.21995 0.100809,-0.43989 0.155797,-0.33909 0.641516,-0.94395 0.06415,-0.0825 0.934779,-0.98976 -0.476554,-0.2841 -0.678173,-0.50405 -0.192455,-0.22911 -0.192455,-0.51321 0,-0.32076 0.256606,-0.75149 0.265771,-0.43073 1.209714,-1.21888 z m 1.594624,-5.14129 q -0.678173,0 -1.136399,0.54071 -0.458225,0.5407 -0.458225,1.65877 0,1.44799 0.623186,2.24531 0.476555,0.60485 1.209715,0.60485 0.696502,0 1.145562,-0.52237 0.449061,-0.52238 0.449061,-1.64045 0,-1.45716 -0.632351,-2.28196 -0.467389,-0.60486 -1.200549,-0.60486 z m -1.686269,8.20223 q -0.430731,0.46739 -0.650679,0.87063 -0.219948,0.40324 -0.219948,0.74232 0,0.4399 0.531541,0.76982 0.91645,0.5682 2.648541,0.5682 1.64961,0 2.428593,-0.58653 0.788147,-0.57736 0.788147,-1.2372 0,-0.47656 -0.46739,-0.67818 -0.476554,-0.20162 -1.887887,-0.23827 -2.062013,-0.055 -3.170918,-0.21079 z m 8.642125,-5.23293 q -0.0092,1.86956 0.907285,2.93264 0.916451,1.06308 2.153658,1.06308 0.824805,0 1.429663,-0.44906 0.614021,-0.45822 1.026424,-1.55796 l 0.284099,0.18329 q -0.192454,1.25553 -1.118069,2.29112 -0.925615,1.02643 -2.318619,1.02643 -1.512143,0 -2.593554,-1.17306 -1.072247,-1.18222 -1.072247,-3.17092 0,-2.15365 1.099741,-3.3542 1.108904,-1.20972 2.776844,-1.20972 1.411333,0 2.318619,0.93478 0.907285,0.92562 0.907285,2.48358 z m 0,-0.53154 h 3.885748 q -0.04582,-0.80648 -0.192454,-1.1364 -0.229113,-0.51321 -0.687338,-0.80647 -0.44906,-0.29327 -0.943943,-0.29327 -0.760654,0 -1.365511,0.59569 -0.595693,0.58653 -0.696502,1.64045 z m 9.36612,-1.09974 q 1.475485,-1.77791 2.813507,-1.77791 0.68733,0 1.18222,0.34825 0.49488,0.33908 0.78814,1.12723 0.20162,0.54987 0.20162,1.68627 v 3.58332 q 0,0.79731 0.12831,1.08141 0.10081,0.22911 0.32075,0.35742 0.22912,0.1283 0.83397,0.1283 v 0.32992 h -4.151517 v -0.32992 h 0.174127 q 0.58653,0 0.81564,-0.17413 0.23828,-0.18329 0.32992,-0.53154 0.0367,-0.13746 0.0367,-0.86146 v -3.43669 q 0,-1.14556 -0.30243,-1.65877 -0.29326,-0.52238 -0.99893,-0.52238 -1.090575,0 -2.171987,1.19139 v 4.42645 q 0,0.8523 0.10081,1.05392 0.128303,0.26577 0.348251,0.39407 0.229113,0.11914 0.91645,0.11914 v 0.32992 h -4.151519 v -0.32992 h 0.18329 q 0.641515,0 0.861463,-0.32076 0.229113,-0.32992 0.229113,-1.24637 v -3.11593 q 0,-1.51214 -0.07332,-1.84207 -0.06415,-0.32992 -0.210784,-0.44906 -0.137467,-0.11913 -0.375745,-0.11913 -0.256606,0 -0.614021,0.13746 l -0.137468,-0.32992 2.529403,-1.02642 h 0.394073 z m 14.067517,3.67496 q -0.33909,1.65878 -1.32886,2.5569 -0.98976,0.88896 -2.19031,0.88896 -1.42966,0 -2.49275,-1.20055 -1.06308,-1.20055 -1.06308,-3.24424 0,-1.97953 1.17306,-3.21674 1.18222,-1.2372 2.83183,-1.2372 1.23721,0 2.03452,0.65984 0.79731,0.65068 0.79731,1.35635 0,0.34825 -0.22911,0.5682 -0.21995,0.21078 -0.62319,0.21078 -0.5407,0 -0.81564,-0.34825 -0.1558,-0.19246 -0.21078,-0.73316 -0.0458,-0.54071 -0.36658,-0.82481 -0.32076,-0.27493 -0.88896,-0.27493 -0.91645,0 -1.47548,0.67817 -0.74233,0.89812 -0.74233,2.37361 0,1.50298 0.73316,2.6577 0.74233,1.14557 1.99786,1.14557 0.89812,0 1.61295,-0.61403 0.50405,-0.42156 0.98061,-1.53047 z m 2.61188,-2.04368 q -0.009,1.86956 0.90728,2.93264 0.91645,1.06308 2.15366,1.06308 0.8248,0 1.42966,-0.44906 0.61402,-0.45822 1.02643,-1.55796 l 0.2841,0.18329 q -0.19246,1.25553 -1.11807,2.29112 -0.92562,1.02643 -2.31862,1.02643 -1.51215,0 -2.59356,-1.17306 -1.07224,-1.18222 -1.07224,-3.17092 0,-2.15365 1.09974,-3.3542 1.1089,-1.20972 2.77684,-1.20972 1.41133,0 2.31862,0.93478 0.90729,0.92562 0.90729,2.48358 z m 0,-0.53154 h 3.88574 q -0.0458,-0.80648 -0.19245,-1.1364 -0.22911,-0.51321 -0.68734,-0.80647 -0.44906,-0.29327 -0.94394,-0.29327 -0.76065,0 -1.36551,0.59569 -0.59569,0.58653 -0.6965,1.64045 z m 17.54085,4.82053 q -0.61402,0.64151 -1.20055,0.92561 -0.58652,0.27494 -1.2647,0.27494 -1.37467,0 -2.4011,-1.14557 -1.02642,-1.15472 -1.02642,-2.96013 0,-1.80541 1.1364,-3.29922 1.1364,-1.50298 2.92347,-1.50298 1.10891,0 1.8329,0.70567 v -1.5488 q 0,-1.43883 -0.0733,-1.76875 -0.0642,-0.32992 -0.21079,-0.44906 -0.14663,-0.11914 -0.36658,-0.11914 -0.23827,0 -0.63235,0.14663 l -0.11914,-0.32076 2.50191,-1.02642 h 0.41241 v 9.70521 q 0,1.47548 0.0641,1.8054 0.0733,0.32076 0.21995,0.44906 0.15579,0.12831 0.35741,0.12831 0.24744,0 0.65985,-0.1558 l 0.10081,0.32076 -2.49275,1.03559 h -0.42157 z m 0,-0.64152 v -4.32564 q -0.055,-0.62319 -0.32992,-1.1364 -0.27493,-0.51321 -0.73316,-0.76982 -0.44906,-0.26577 -0.87979,-0.26577 -0.80648,0 -1.43883,0.724 -0.83397,0.9531 -0.83397,2.78601 0,1.85122 0.80648,2.84099 0.80648,0.9806 1.79624,0.9806 0.83397,0 1.61295,-0.83397 z m 4.86636,-3.64747 q -0.009,1.86956 0.90728,2.93264 0.91645,1.06308 2.15366,1.06308 0.82481,0 1.42966,-0.44906 0.61402,-0.45822 1.02643,-1.55796 l 0.2841,0.18329 q -0.19246,1.25553 -1.11807,2.29112 -0.92562,1.02643 -2.31862,1.02643 -1.51214,0 -2.59356,-1.17306 -1.07224,-1.18222 -1.07224,-3.17092 0,-2.15365 1.09974,-3.3542 1.1089,-1.20972 2.77684,-1.20972 1.41134,0 2.31862,0.93478 0.90729,0.92562 0.90729,2.48358 z m 0,-0.53154 h 3.88575 q -0.0458,-0.80648 -0.19246,-1.1364 -0.22911,-0.51321 -0.68734,-0.80647 -0.44906,-0.29327 -0.94394,-0.29327 -0.76065,0 -1.36551,0.59569 -0.59569,0.58653 -0.6965,1.64045 z m 14.06751,-2.87765 v 1.88788 q 1.05392,-1.88788 2.16282,-1.88788 0.50405,0 0.83397,0.31159 0.32992,0.30243 0.32992,0.70567 0,0.35741 -0.23827,0.60485 -0.23828,0.24744 -0.5682,0.24744 -0.32076,0 -0.724,-0.31159 -0.39407,-0.32076 -0.58653,-0.32076 -0.16496,0 -0.35741,0.18329 -0.41241,0.37575 -0.8523,1.23721 v 4.02322 q 0,0.6965 0.17412,1.05392 0.11914,0.24744 0.42157,0.4124 0.30243,0.16496 0.87063,0.16496 v 0.32992 h -4.29815 v -0.32992 q 0.64151,0 0.95311,-0.20162 0.22911,-0.14663 0.32075,-0.46739 0.0458,-0.1558 0.0458,-0.88896 v -3.25339 q 0,-1.46632 -0.0642,-1.74126 -0.055,-0.2841 -0.21994,-0.4124 -0.1558,-0.1283 -0.39408,-0.1283 -0.2841,0 -0.64151,0.13746 l -0.0917,-0.32992 2.53857,-1.02642 z m 8.55047,7.43241 q -1.29219,0.99893 -1.62211,1.15472 -0.49489,0.22912 -1.05392,0.22912 -0.87063,0 -1.43883,-0.5957 -0.55903,-0.59569 -0.55903,-1.56713 0,-0.61402 0.27493,-1.06308 0.37575,-0.62318 1.30136,-1.17305 0.93478,-0.54987 3.0976,-1.33802 v -0.32992 q 0,-1.25554 -0.40324,-1.72293 -0.39407,-0.46739 -1.15472,-0.46739 -0.57737,0 -0.91645,0.31159 -0.34825,0.3116 -0.34825,0.71484 l 0.0183,0.53154 q 0,0.42156 -0.21994,0.65068 -0.21079,0.22911 -0.55904,0.22911 -0.33908,0 -0.55903,-0.23828 -0.21079,-0.23828 -0.21079,-0.65068 0,-0.78815 0.80648,-1.44799 0.80648,-0.65984 2.26363,-0.65984 1.11807,0 1.8329,0.37574 0.54071,0.2841 0.79731,0.88896 0.16496,0.39407 0.16496,1.61295 v 2.85016 q 0,1.20055 0.0458,1.47548 0.0458,0.26578 0.14663,0.35742 0.10997,0.0917 0.24744,0.0917 0.14663,0 0.25661,-0.0642 0.19245,-0.11913 0.74232,-0.669 v 0.51321 q -1.02642,1.37467 -1.9612,1.37467 -0.44906,0 -0.71483,-0.31159 -0.26577,-0.31159 -0.27494,-1.06308 z m 0,-0.5957 v -3.19841 q -1.38384,0.54987 -1.78708,0.77899 -0.72399,0.40323 -1.03558,0.84313 -0.3116,0.4399 -0.3116,0.96227 0,0.65985 0.39408,1.09974 0.39407,0.43073 0.90728,0.43073 0.6965,0 1.8329,-0.91645 z m 9.50359,0.86147 q -0.61402,0.64151 -1.20055,0.92561 -0.58652,0.27494 -1.2647,0.27494 -1.37467,0 -2.4011,-1.14557 -1.02642,-1.15472 -1.02642,-2.96013 0,-1.80541 1.1364,-3.29922 1.1364,-1.50298 2.92347,-1.50298 1.10891,0 1.8329,0.70567 v -1.5488 q 0,-1.43883 -0.0733,-1.76875 -0.0642,-0.32992 -0.21079,-0.44906 -0.14663,-0.11914 -0.36658,-0.11914 -0.23827,0 -0.63235,0.14663 l -0.11913,-0.32076 2.5019,-1.02642 h 0.41241 v 9.70521 q 0,1.47548 0.0642,1.8054 0.0733,0.32076 0.21995,0.44906 0.15579,0.12831 0.35741,0.12831 0.24744,0 0.65985,-0.1558 l 0.10081,0.32076 -2.49275,1.03559 h -0.42157 z m 0,-0.64152 v -4.32564 q -0.055,-0.62319 -0.32992,-1.1364 -0.27493,-0.51321 -0.73316,-0.76982 -0.44906,-0.26577 -0.87979,-0.26577 -0.80648,0 -1.43883,0.724 -0.83397,0.9531 -0.83397,2.78601 0,1.85122 0.80648,2.84099 0.80648,0.9806 1.79624,0.9806 0.83397,0 1.61295,-0.83397 z m 5.59035,-11.44646 q 0.38491,0 0.65068,0.27493 0.27494,0.26578 0.27494,0.65068 0,0.38491 -0.27494,0.65985 -0.26577,0.27493 -0.65068,0.27493 -0.38491,0 -0.65984,-0.27493 -0.27494,-0.27494 -0.27494,-0.65985 0,-0.3849 0.26577,-0.65068 0.27494,-0.27493 0.66901,-0.27493 z m 0.76066,4.3898 v 6.74507 q 0,0.78815 0.10997,1.05392 0.11914,0.2566 0.33909,0.38491 0.22911,0.1283 0.8248,0.1283 v 0.32992 h -4.0782 v -0.32992 q 0.61402,0 0.8248,-0.11914 0.21079,-0.11914 0.32993,-0.39407 0.1283,-0.27494 0.1283,-1.05392 v -3.23507 q 0,-1.36551 -0.0825,-1.76875 -0.0641,-0.29326 -0.20162,-0.40324 -0.13747,-0.11913 -0.37574,-0.11913 -0.25661,0 -0.62319,0.13746 l -0.1283,-0.32992 2.5294,-1.02642 z m 6.42431,0 q 1.90622,0 3.06094,1.44799 0.98061,1.23721 0.98061,2.84099 0,1.12724 -0.54071,2.28196 -0.54071,1.15473 -1.49381,1.74126 -0.94395,0.58653 -2.10784,0.58653 -1.89705,0 -3.01512,-1.51215 -0.94394,-1.27386 -0.94394,-2.85932 0,-1.15473 0.5682,-2.29113 0.57736,-1.14556 1.51214,-1.68626 0.93478,-0.54987 1.97953,-0.54987 z m -0.2841,0.59569 q -0.48572,0 -0.9806,0.29326 -0.48572,0.2841 -0.78815,1.0081 -0.30243,0.72399 -0.30243,1.86039 0,1.8329 0.724,3.16176 0.73316,1.32885 1.92454,1.32885 0.88896,0 1.46632,-0.73316 0.57737,-0.73316 0.57737,-2.52024 0,-2.23614 -0.96227,-3.51917 -0.65068,-0.87979 -1.65878,-0.87979 z m 11.49228,7.10249 q -0.61402,0.64151 -1.20055,0.92561 -0.58653,0.27494 -1.2647,0.27494 -1.37467,0 -2.4011,-1.14557 -1.02642,-1.15472 -1.02642,-2.96013 0,-1.80541 1.1364,-3.29922 1.13639,-1.50298 2.92347,-1.50298 1.10891,0 1.8329,0.70567 v -1.5488 q 0,-1.43883 -0.0733,-1.76875 -0.0642,-0.32992 -0.21079,-0.44906 -0.14663,-0.11914 -0.36658,-0.11914 -0.23828,0 -0.63235,0.14663 l -0.11914,-0.32076 2.50191,-1.02642 h 0.4124 v 9.70521 q 0,1.47548 0.0642,1.8054 0.0733,0.32076 0.21994,0.44906 0.1558,0.12831 0.35742,0.12831 0.24744,0 0.65984,-0.1558 l 0.10081,0.32076 -2.49274,1.03559 h -0.42157 z m 0,-0.64152 v -4.32564 q -0.055,-0.62319 -0.32992,-1.1364 -0.27494,-0.51321 -0.73316,-0.76982 -0.44906,-0.26577 -0.87979,-0.26577 -0.80648,0 -1.43883,0.724 -0.83397,0.9531 -0.83397,2.78601 0,1.85122 0.80648,2.84099 0.80647,0.9806 1.79624,0.9806 0.83397,0 1.61295,-0.83397 z m 5.59035,-11.44646 q 0.38491,0 0.65068,0.27493 0.27494,0.26578 0.27494,0.65068 0,0.38491 -0.27494,0.65985 -0.26577,0.27493 -0.65068,0.27493 -0.38491,0 -0.65984,-0.27493 -0.27494,-0.27494 -0.27494,-0.65985 0,-0.3849 0.26577,-0.65068 0.27494,-0.27493 0.66901,-0.27493 z m 0.76065,4.3898 v 6.74507 q 0,0.78815 0.10998,1.05392 0.11914,0.2566 0.33908,0.38491 0.22912,0.1283 0.82481,0.1283 v 0.32992 h -4.0782 v -0.32992 q 0.61402,0 0.8248,-0.11914 0.21079,-0.11914 0.32992,-0.39407 0.12831,-0.27494 0.12831,-1.05392 v -3.23507 q 0,-1.36551 -0.0825,-1.76875 -0.0642,-0.29326 -0.20162,-0.40324 -0.13747,-0.11913 -0.37575,-0.11913 -0.2566,0 -0.62318,0.13746 l -0.12831,-0.32992 2.52941,-1.02642 z m 5.59951,0.90728 v 5.51703 q 0,1.17306 0.25661,1.48465 0.33909,0.40324 0.90728,0.40324 h 0.76066 v 0.32992 h -5.01298 v -0.32992 h 0.37574 q 0.36658,0 0.66901,-0.18329 0.30243,-0.18329 0.4124,-0.49488 0.11914,-0.3116 0.11914,-1.20972 v -5.51703 h -1.63128 v -0.65984 h 1.63128 v -0.54987 q 0,-1.25554 0.40324,-2.12617 0.40324,-0.87062 1.22804,-1.40217 0.83397,-0.5407 1.86956,-0.5407 0.96227,0 1.76875,0.62318 0.53154,0.41241 0.53154,0.92562 0,0.27493 -0.23828,0.52238 -0.23827,0.23827 -0.51321,0.23827 -0.21078,0 -0.44906,-0.14663 -0.22911,-0.1558 -0.5682,-0.65068 -0.33909,-0.50405 -0.62319,-0.67817 -0.28409,-0.17413 -0.63235,-0.17413 -0.42156,0 -0.71483,0.22912 -0.29326,0.21994 -0.42156,0.6965 -0.12831,0.46739 -0.12831,2.42859 v 0.60486 h 2.16283 v 0.65984 z m 5.91111,0 v 5.51703 q 0,1.17306 0.2566,1.48465 0.33909,0.40324 0.90729,0.40324 h 0.76065 v 0.32992 h -5.01298 v -0.32992 h 0.37574 q 0.36658,0 0.66901,-0.18329 0.30243,-0.18329 0.4124,-0.49488 0.11914,-0.3116 0.11914,-1.20972 v -5.51703 h -1.63128 v -0.65984 h 1.63128 v -0.54987 q 0,-1.25554 0.40324,-2.12617 0.40324,-0.87062 1.22804,-1.40217 0.83397,-0.5407 1.86956,-0.5407 0.96227,0 1.76875,0.62318 0.53154,0.41241 0.53154,0.92562 0,0.27493 -0.23827,0.52238 -0.23828,0.23827 -0.51322,0.23827 -0.21078,0 -0.44906,-0.14663 -0.22911,-0.1558 -0.5682,-0.65068 -0.33908,-0.50405 -0.62318,-0.67817 -0.2841,-0.17413 -0.63235,-0.17413 -0.42157,0 -0.71483,0.22912 -0.29327,0.21994 -0.42157,0.6965 -0.1283,0.46739 -0.1283,2.42859 v 0.60486 h 2.16282 v 0.65984 z m 10.3284,-0.65984 v 5.0863 q 0,1.45715 0.0642,1.78707 0.0733,0.32076 0.21995,0.44906 0.15579,0.12831 0.35741,0.12831 0.2841,0 0.64152,-0.1558 l 0.1283,0.32076 -2.51107,1.03559 h -0.41241 v -1.77792 q -1.08141,1.17306 -1.64961,1.47549 -0.5682,0.30243 -1.20055,0.30243 -0.70566,0 -1.22804,-0.40324 -0.51321,-0.4124 -0.71483,-1.05392 -0.20162,-0.64151 -0.20162,-1.81457 v -3.74828 q 0,-0.59569 -0.1283,-0.82481 -0.12831,-0.22911 -0.38491,-0.34825 -0.24744,-0.1283 -0.90729,-0.11914 v -0.33908 h 2.94181 v 5.61784 q 0,1.17305 0.40324,1.53963 0.4124,0.36658 0.98976,0.36658 0.39408,0 0.88896,-0.24744 0.50405,-0.24744 1.19138,-0.94394 v -4.75638 q 0,-0.71483 -0.26577,-0.96227 -0.2566,-0.25661 -1.08141,-0.27494 v -0.33908 z m 7.45073,-0.24744 v 2.85932 h -0.30243 q -0.34825,-1.34718 -0.89812,-1.8329 -0.5407,-0.48572 -1.38384,-0.48572 -0.64151,0 -1.03559,0.33909 -0.39407,0.33909 -0.39407,0.75149 0,0.51321 0.29326,0.87979 0.2841,0.37574 1.15473,0.79731 l 1.33802,0.65068 q 1.86039,0.90729 1.86039,2.39194 0,1.14556 -0.87062,1.85123 -0.86147,0.6965 -1.93371,0.6965 -0.76982,0 -1.75959,-0.27494 -0.30243,-0.0916 -0.49488,-0.0916 -0.21079,0 -0.32992,0.23827 h -0.30243 v -2.99679 h 0.30243 q 0.2566,1.28303 0.9806,1.93371 0.72399,0.65068 1.62211,0.65068 0.63236,0 1.02643,-0.36658 0.40324,-0.37574 0.40324,-0.89812 0,-0.63235 -0.44906,-1.06308 -0.4399,-0.43073 -1.76875,-1.09058 -1.32886,-0.65984 -1.74126,-1.19138 -0.4124,-0.52238 -0.4124,-1.31969 0,-1.03559 0.70567,-1.73209 0.71483,-0.6965 1.84206,-0.6965 0.49488,0 1.20055,0.21078 0.46739,0.13747 0.62319,0.13747 0.14663,0 0.22911,-0.0642 0.0825,-0.0642 0.19245,-0.2841 z m 4.01405,-4.3898 q 0.38491,0 0.65068,0.27493 0.27494,0.26578 0.27494,0.65068 0,0.38491 -0.27494,0.65985 -0.26577,0.27493 -0.65068,0.27493 -0.38491,0 -0.65984,-0.27493 -0.27494,-0.27494 -0.27494,-0.65985 0,-0.3849 0.26578,-0.65068 0.27493,-0.27493 0.669,-0.27493 z m 0.76066,4.3898 v 6.74507 q 0,0.78815 0.10997,1.05392 0.11914,0.2566 0.33909,0.38491 0.22911,0.1283 0.8248,0.1283 v 0.32992 h -4.0782 v -0.32992 q 0.61402,0 0.82481,-0.11914 0.21078,-0.11914 0.32992,-0.39407 0.1283,-0.27494 0.1283,-1.05392 v -3.23507 q 0,-1.36551 -0.0825,-1.76875 -0.0642,-0.29326 -0.20162,-0.40324 -0.13747,-0.11913 -0.37574,-0.11913 -0.25661,0 -0.62319,0.13746 l -0.1283,-0.32992 2.5294,-1.02642 z m 6.42431,0 q 1.90622,0 3.06094,1.44799 0.98061,1.23721 0.98061,2.84099 0,1.12724 -0.54071,2.28196 -0.5407,1.15473 -1.49381,1.74126 -0.94395,0.58653 -2.10784,0.58653 -1.89705,0 -3.01512,-1.51215 -0.94394,-1.27386 -0.94394,-2.85932 0,-1.15473 0.5682,-2.29113 0.57736,-1.14556 1.51214,-1.68626 0.93478,-0.54987 1.97953,-0.54987 z m -0.2841,0.59569 q -0.48572,0 -0.9806,0.29326 -0.48572,0.2841 -0.78815,1.0081 -0.30243,0.72399 -0.30243,1.86039 0,1.8329 0.724,3.16176 0.73316,1.32885 1.92455,1.32885 0.88895,0 1.46632,-0.73316 0.57736,-0.73316 0.57736,-2.52024 0,-2.23614 -0.96227,-3.51917 -0.65068,-0.87979 -1.65878,-0.87979 z m 8.00977,1.18222 q 1.47549,-1.77791 2.8135,-1.77791 0.68734,0 1.18222,0.34825 0.49489,0.33908 0.78815,1.12723 0.20162,0.54987 0.20162,1.68627 v 3.58332 q 0,0.79731 0.1283,1.08141 0.10081,0.22911 0.32076,0.35742 0.22911,0.1283 0.83397,0.1283 v 0.32992 h -4.15152 v -0.32992 h 0.17413 q 0.58653,0 0.81564,-0.17413 0.23827,-0.18329 0.32992,-0.53154 0.0367,-0.13746 0.0367,-0.86146 v -3.43669 q 0,-1.14556 -0.30243,-1.65877 -0.29326,-0.52238 -0.99893,-0.52238 -1.09058,0 -2.17199,1.19139 v 4.42645 q 0,0.8523 0.10081,1.05392 0.1283,0.26577 0.34825,0.39407 0.22911,0.11914 0.91645,0.11914 v 0.32992 h -4.15152 v -0.32992 h 0.18329 q 0.64152,0 0.86147,-0.32076 0.22911,-0.32992 0.22911,-1.24637 v -3.11593 q 0,-1.51214 -0.0733,-1.84207 -0.0642,-0.32992 -0.21078,-0.44906 -0.13747,-0.11913 -0.37575,-0.11913 -0.2566,0 -0.61402,0.13746 l -0.13746,-0.32992 2.5294,-1.02642 h 0.39407 z m 18.72308,6.86421 -4.8022,-10.4567 v 8.30304 q 0,1.14557 0.24744,1.42967 0.33909,0.3849 1.07225,0.3849 h 0.43989 v 0.33909 h -4.32564 v -0.33909 h 0.4399 q 0.78814,0 1.11807,-0.47655 0.20161,-0.29326 0.20161,-1.33802 v -8.11975 q 0,-0.8248 -0.18329,-1.19138 -0.1283,-0.26577 -0.47655,-0.4399 -0.33909,-0.18329 -1.09974,-0.18329 v -0.33908 h 3.51917 l 4.50893,9.72353 4.43562,-9.72353 h 3.51917 v 0.33908 h -0.43073 q -0.79731,0 -1.12723,0.47656 -0.20162,0.29326 -0.20162,1.33801 v 8.11975 q 0,1.14557 0.2566,1.42967 0.33909,0.3849 1.07225,0.3849 h 0.43073 v 0.33909 h -5.27875 v -0.33909 h 0.43989 q 0.79732,0 1.11807,-0.47655 0.20162,-0.29326 0.20162,-1.33802 v -8.30304 l -4.79303,10.4567 z m 13.70094,-8.64212 q 1.90622,0 3.06094,1.44799 0.98061,1.23721 0.98061,2.84099 0,1.12724 -0.54071,2.28196 -0.54071,1.15473 -1.49381,1.74126 -0.94395,0.58653 -2.10784,0.58653 -1.89705,0 -3.01512,-1.51215 -0.94394,-1.27386 -0.94394,-2.85932 0,-1.15473 0.56819,-2.29113 0.57737,-1.14556 1.51215,-1.68626 0.93478,-0.54987 1.97953,-0.54987 z m -0.2841,0.59569 q -0.48572,0 -0.9806,0.29326 -0.48572,0.2841 -0.78815,1.0081 -0.30243,0.72399 -0.30243,1.86039 0,1.8329 0.724,3.16176 0.73316,1.32885 1.92454,1.32885 0.88896,0 1.46632,-0.73316 0.57737,-0.73316 0.57737,-2.52024 0,-2.23614 -0.96227,-3.51917 -0.65068,-0.87979 -1.65878,-0.87979 z m 8.01893,-0.59569 v 1.88788 q 1.05392,-1.88788 2.16283,-1.88788 0.50404,0 0.83397,0.31159 0.32992,0.30243 0.32992,0.70567 0,0.35741 -0.23828,0.60485 -0.23828,0.24744 -0.5682,0.24744 -0.32075,0 -0.72399,-0.31159 -0.39408,-0.32076 -0.58653,-0.32076 -0.16496,0 -0.35742,0.18329 -0.4124,0.37575 -0.8523,1.23721 v 4.02322 q 0,0.6965 0.17413,1.05392 0.11914,0.24744 0.42157,0.4124 0.30243,0.16496 0.87063,0.16496 v 0.32992 h -4.29816 v -0.32992 q 0.64152,0 0.95311,-0.20162 0.22911,-0.14663 0.32076,-0.46739 0.0458,-0.1558 0.0458,-0.88896 v -3.25339 q 0,-1.46632 -0.0642,-1.74126 -0.055,-0.2841 -0.21995,-0.4124 -0.15579,-0.1283 -0.39407,-0.1283 -0.2841,0 -0.64152,0.13746 l -0.0916,-0.32992 2.53857,-1.02642 z m 5.20545,3.40919 q -0.009,1.86956 0.90729,2.93264 0.91645,1.06308 2.15365,1.06308 0.82481,0 1.42967,-0.44906 0.61402,-0.45822 1.02642,-1.55796 l 0.2841,0.18329 q -0.19245,1.25553 -1.11807,2.29112 -0.92561,1.02643 -2.31862,1.02643 -1.51214,0 -2.59355,-1.17306 -1.07225,-1.18222 -1.07225,-3.17092 0,-2.15365 1.09974,-3.3542 1.10891,-1.20972 2.77685,-1.20972 1.41133,0 2.31861,0.93478 0.90729,0.92562 0.90729,2.48358 z m 0,-0.53154 h 3.88575 q -0.0458,-0.80648 -0.19246,-1.1364 -0.22911,-0.51321 -0.68733,-0.80647 -0.44906,-0.29327 -0.94395,-0.29327 -0.76065,0 -1.36551,0.59569 -0.59569,0.58653 -0.6965,1.64045 z m 9.80601,-7.26745 v 11.13487 q 0,0.78815 0.10997,1.04475 0.11914,0.25661 0.35742,0.39408 0.23827,0.1283 0.88895,0.1283 v 0.32992 h -4.11486 v -0.32992 q 0.57736,0 0.78815,-0.11914 0.21078,-0.11914 0.32992,-0.39407 0.11914,-0.27494 0.11914,-1.05392 v -7.62487 q 0,-1.42049 -0.0641,-1.74125 -0.0641,-0.32992 -0.21079,-0.44906 -0.13746,-0.11914 -0.35741,-0.11914 -0.23828,0 -0.60486,0.14663 l -0.1558,-0.32076 2.50191,-1.02642 z"
       inkscape:path-effect="#path-effect10" />
  </g>
</svg>
