<svg version="1.2" xmlns="http://www.w3.org/2000/svg" viewBox="0 0 1424 363" width="320" height="82">
	<title>Sezik_logo_corp (1)</title>
	<style>
		.s0 { fill: #000000 } 
		.s1 { fill: #c70914 } 
		.s2 { fill: #ffffff } 
	</style>
	<g id="Layer 1">
		<g id="Background">
			<path id="Path 0" fill-rule="evenodd" class="s0" d="m52.5 39c-2.2 0.4-5.9 1.9-8.3 3.4-2.3 1.4-5.6 4.5-7.3 6.8-1.6 2.4-3.5 5.9-4 7.8-0.6 2.2-0.9 22.8-0.7 56l0.3 52.5c4 7 7 10.5 9.1 12.3 2.1 1.8 6.2 3.9 8.9 4.7 3.9 1.2 11.3 1.5 34.3 1.5h29.2v103h-82v21c121.9-0.5 122.5-0.5 126.5-2.7 2.2-1.2 5.5-3.6 7.4-5.5 1.9-1.8 4.4-5.3 5.5-7.8 2-4.4 2.1-5.8 2.1-56.5 0-50.7-0.1-52.1-2.1-56.5-1.1-2.5-3.4-6-5-7.8-1.6-1.9-5.1-4.5-7.9-5.8-4.8-2.3-6.2-2.4-35.8-3.1l-30.7-0.8v-101.5l81.5-0.5v-21c-90.7-0.2-118.8 0.1-121 0.5zm145.5 134v135h115v-21h-55v-103h55v-20.5c-17.4-1.2-29.8-1.5-38.8-1.5h-16.2v-102c25.2 0 37.6-0.3 43.8-0.8l11.2-0.7v-20.5h-115zm121.5-134.3c-0.5 0.3-0.8 5.1-0.7 10.5l0.2 9.8c26 1 47.1 1 63.8 0.6 16.6-0.3 30.2-0.5 30.2-0.3 0 0.1-18.9 50.4-42 111.7-23.2 61.3-44.3 117.2-47 124.3l-5 12.7h166v-21h-93c0.5-3.5 20.5-56.9 44.8-121 24.2-64.1 45-118.9 46.1-121.8 1.2-2.8 2.1-5.4 2.1-5.7 0-0.3-37.1-0.5-82.3-0.5-45.3 0-82.7 0.3-83.2 0.7zm181.5 134.3v135h60v-270h-60zm91.5-134.3c-0.5 0.3-0.8 61.1-0.7 135l0.2 134.3h60l0.5-79c43.4 60.7 56.5 78.5 57 78.7 0.5 0.2 17.1 0.2 36.7 0.1l35.7-0.3c-24.5-34.1-46.5-64.9-64.9-90.5-18.3-25.6-33.4-46.9-33.6-47.5-0.2-0.6 21.9-30.3 49.1-66l49.5-65c-20.5-0.4-26.5-0.4-26.6-0.2 0 0.1-22.5 29.7-49.9 65.7-27.3 36-50.6 66.4-51.6 67.5-1.9 2-1.9 0.7-1.9-65.8v-67.7c-45.5 0-59 0.3-59.5 0.7z"/>
			<path id="Path 1" fill-rule="evenodd" class="s1" d="m805.1 122.9l-0.1 11.1h44v44c-40.7 0.5-42.8 0.7-46.5 2.6-2.2 1.2-5.8 4.1-7.9 6.5-2.2 2.4-4.7 6-5.5 7.9-1.4 3-1.6 9.7-1.6 48 0 43.1 0.1 44.6 2.1 49 1.1 2.5 3.4 6 5 7.8 1.6 1.9 5.3 4.5 8.1 5.8l5.3 2.4h86l-0.5-174.5c-3.9-8.4-6.8-12.4-9-14.3-2.2-2-5.6-4.3-7.5-5.1-2.9-1.3-9.3-1.7-37.7-1.9l-34.2-0.3zm27 77h17v86h-17v-43zm82 10v98h44v-174h32l-0.5-21.5-75.5-0.5zm84 0v98h45v-146.5l16.9-17 0.1 163.5h44v-145.5l17.9-19 0.1 164.5h44c0-162.6-0.2-172-1.7-177-1.1-3.8-3-6.9-6.2-10.3-2.7-2.7-6.5-5.5-9.1-6.5-3.1-1.1-7.3-1.6-13.5-1.6-6.4 0.1-10.2 0.6-13 1.9-2.2 1-7.5 5.2-11.8 9.4l-7.7 7.6c-1.7-4.6-3.6-7.7-5.4-9.9-1.8-2.3-5.4-5-8.6-6.5-4.7-2.1-7-2.5-14.5-2.5-6.9 0-10.1 0.5-13.5 2-2.6 1.2-7.5 5.1-11.3 9l-6.7 6.9v-18.5h-45zm206.9-96.7c-2.5 0.7-6.2 2.5-8.2 4-2.1 1.5-5.1 4.6-6.7 7-1.7 2.3-3.5 6.5-4.1 9.2-0.6 3.2-0.9 32.4-0.7 79.5l0.3 74.5c4.1 8.6 7 12.5 9.1 14.2 2.1 1.7 5.6 3.9 7.6 4.7 3.2 1.4 9.2 1.6 39.8 1.6h36v-22h-48v-44c36.9 0 41.7-0.3 44.7-1.6 2.1-0.8 5.5-3 7.6-4.7 2.1-1.7 5.1-5.6 6.5-8.7l2.7-5.5v-88c-3.9-8.3-6.8-12.4-9-14.3-2.2-1.9-5.6-4.2-7.5-5.1-2.9-1.3-8.9-1.6-34.5-1.8-21.8-0.1-32.4 0.2-35.6 1zm25.1 20.7h17v86h-17v-43zm92.9-20.7c-2.5 0.7-6.2 2.5-8.2 4-2.1 1.5-5.1 4.6-6.7 7-1.7 2.3-3.5 6.5-4.1 9.2-0.7 3.1-1 16.7-0.8 36 0.3 28.9 0.5 31.3 2.4 35.5 1.2 2.5 3.9 6.2 6 8.3 2.2 2.1 5.5 4.6 7.5 5.5 2.8 1.4 6.9 1.8 21.7 2l18.3 0.2c-0.8 39.2-1 53.8-1 57.8v7.2l-54.5 0.5-0.5 21.5 79.5 0.1c8.4-4.3 12.3-7.4 14-9.6 1.8-2.2 4-6.1 4.9-8.7 1.3-4 1.6-9.9 1.6-35.5 0-24-0.3-31.9-1.5-35.8-0.8-2.8-3.1-6.9-5.3-9.5-2.1-2.4-6.1-5.6-8.8-7-4.6-2.3-6-2.5-22.2-2.7l-17.2-0.3v-65h55v-22c-63.4 0.1-77 0.5-80.1 1.3zm84.3 179.7c-1.2 1.1-2.5 3-2.8 4.3-0.4 1.2-0.4 3.2 0 4.5 0.3 1.2 1.6 3.1 2.8 4.2 1.3 1.2 3.5 2.1 5 2 1.5 0 3.7-0.4 4.8-1 1.1-0.5 2.6-2.4 3.4-4.2 1-2.6 1.1-3.9 0.2-6.2-0.6-1.6-2-3.5-3.1-4.2-1.1-0.8-3.4-1.4-5.1-1.4-1.7 0-4 0.9-5.2 2zm0.8 2c1.1-1.1 3.2-2 4.7-2 1.5 0 3.6 0.8 4.6 1.7 1 1 1.8 3.2 1.8 4.8 0 1.7-0.8 3.8-1.8 4.8-1 1-3.1 1.8-4.6 1.8-1.5-0.1-3.6-1-4.7-2.1-1.1-1.1-2-3.1-2-4.5 0-1.3 0.9-3.4 2-4.5zm2 4c0 2.8 0.4 5 1 5 0.4 0 0.7-0.4 0.9-1q0.1-0.3 0.1-0.7c0-1.6 0.1-1.7 1.1-0.3q0.1 0.1 0.2 0.2c0.6 1 1.8 1.8 2.7 1.8 1.2 0.1 1.2-0.3-0.3-1.9-1-1.2-1.3-2.3-0.7-2.6 0.5-0.2 1-1.4 1-2.5 0-1.1-0.7-2.2-1.5-2.5-0.9-0.2-2.2-0.5-3-0.5-1.2 0-1.5 1.3-1.5 5z"/>
			<path id="Shape 1" fill-rule="evenodd" class="s2" d=""/>
			<path id="Shape 2" fill-rule="evenodd" class="s2" d="m1412 296c0 0 2-0.2 2 1 0 1.2-3.7 2.3-2-1z"/>
			<path id="Shape 3" fill-rule="evenodd" class="s2" d="m969-246"/>
		</g>
	</g>
</svg>
