<svg xmlns="http://www.w3.org/2000/svg" xmlns:xlink="http://www.w3.org/1999/xlink" version="1.1" viewBox="0 0.02 500 499.96" width="160" height="160"> 
<g id="surface1">
<path style=" stroke:none;fill-rule:evenodd;fill:rgb(0.392157%,0.392157%,0.392157%);fill-opacity:1;" d="M 228.109375 1.144531 C 220.476562 1.839844 212.800781 2.628906 210.996094 2.90625 C 209.238281 3.230469 206.742188 3.691406 205.445312 3.921875 C 204.199219 4.15625 200.867188 4.804688 198.046875 5.359375 C 195.269531 5.914062 192.21875 6.421875 191.339844 6.515625 C 190.460938 6.609375 189.398438 7.023438 189.027344 7.394531 C 188.609375 7.859375 187.546875 8.089844 186.160156 8.089844 C 184.910156 8.089844 183.941406 8.273438 183.941406 8.554688 C 183.941406 8.785156 183.339844 9.015625 182.550781 9.015625 C 181.8125 9.015625 180.792969 9.199219 180.378906 9.386719 C 179.914062 9.617188 179.039062 10.035156 178.390625 10.3125 C 177.742188 10.589844 176.492188 10.960938 175.613281 11.097656 C 174.734375 11.285156 173.671875 11.609375 173.300781 11.792969 C 172.933594 11.976562 172.097656 12.347656 171.453125 12.582031 C 170.804688 12.859375 169.140625 13.320312 167.753906 13.644531 C 166.363281 13.96875 164.882812 14.386719 164.515625 14.570312 C 164.144531 14.800781 162.570312 15.402344 161.046875 16.007812 C 159.519531 16.5625 158.085938 17.210938 157.855469 17.441406 C 157.578125 17.625 157.113281 17.8125 156.789062 17.8125 C 156.464844 17.8125 154.988281 18.320312 153.554688 19.015625 C 152.074219 19.664062 149.621094 20.773438 148.09375 21.515625 C 146.570312 22.253906 145.042969 22.859375 144.765625 22.859375 C 144.441406 22.902344 143.054688 23.460938 141.757812 24.152344 C 140.417969 24.847656 139.261719 25.589844 139.214844 25.773438 C 139.121094 25.960938 138.890625 26.144531 138.613281 26.144531 C 138.382812 26.144531 136.53125 26.929688 134.589844 27.902344 C 132.601562 28.921875 130.148438 30.171875 129.132812 30.726562 C 128.113281 31.28125 127.003906 31.976562 126.636719 32.300781 C 126.265625 32.578125 125.015625 33.320312 123.859375 33.875 C 122.703125 34.476562 121.132812 35.308594 120.34375 35.820312 C 119.605469 36.328125 118.355469 37.117188 117.570312 37.53125 C 116.828125 37.949219 114.238281 39.617188 111.925781 41.234375 C 109.570312 42.855469 107.535156 44.199219 107.394531 44.199219 C 107.253906 44.199219 104.109375 46.511719 100.363281 49.335938 C 96.570312 52.160156 93.335938 54.753906 93.058594 55.078125 C 92.824219 55.449219 92.410156 55.726562 92.132812 55.773438 C 91.902344 55.773438 90.511719 56.835938 89.125 58.132812 C 87.738281 59.429688 85.886719 61.097656 85.101562 61.835938 C 84.269531 62.578125 83.296875 63.179688 83.019531 63.132812 C 82.695312 63.132812 82.558594 63.226562 82.789062 63.363281 C 82.972656 63.503906 81.402344 65.171875 79.320312 67.066406 C 77.191406 68.917969 73.398438 72.667969 70.855469 75.308594 C 68.3125 77.945312 65.261719 81.28125 64.058594 82.667969 C 62.902344 84.011719 60.773438 86.417969 59.339844 87.945312 C 57.953125 89.472656 56.75 90.863281 56.75 91.046875 C 56.75 91.234375 56.425781 91.789062 56.054688 92.207031 C 55.640625 92.667969 54.019531 94.613281 52.449219 96.558594 C 50.875 98.546875 48.425781 101.742188 46.992188 103.734375 C 45.558594 105.722656 43.199219 109.101562 41.765625 111.1875 C 40.332031 113.316406 39.175781 115.121094 39.175781 115.261719 C 39.175781 115.351562 38.621094 116.230469 37.925781 117.113281 C 37.1875 118.039062 36.863281 118.730469 37.09375 118.730469 C 37.371094 118.683594 37.230469 119.054688 36.816406 119.519531 C 36.398438 119.980469 34.875 122.296875 33.4375 124.75 C 32.003906 127.15625 30.847656 129.332031 30.847656 129.609375 C 30.894531 129.84375 30.570312 130.351562 30.15625 130.769531 C 29.738281 131.136719 29.414062 131.648438 29.414062 131.925781 C 29.460938 132.15625 29.046875 132.898438 28.535156 133.546875 C 28.027344 134.148438 27.613281 134.933594 27.613281 135.257812 C 27.613281 135.582031 27.011719 136.832031 26.316406 138.035156 C 25.578125 139.238281 24.835938 140.769531 24.605469 141.414062 C 24.421875 142.015625 23.21875 144.65625 22.015625 147.203125 C 20.765625 149.75 19.75 152.203125 19.75 152.617188 C 19.75 153.082031 19.5625 153.542969 19.285156 153.683594 C 19.054688 153.777344 18.5 154.980469 18.085938 156.324219 C 17.667969 157.664062 17.160156 158.960938 16.929688 159.238281 C 16.742188 159.46875 16.050781 161.230469 15.355469 163.171875 C 14.707031 165.070312 13.828125 167.664062 13.460938 168.960938 C 13.089844 170.210938 12.625 171.785156 12.488281 172.433594 C 12.347656 173.035156 12.070312 173.773438 11.886719 174.054688 C 11.65625 174.285156 11.054688 176.183594 10.453125 178.21875 C 9.898438 180.257812 9.25 182.757812 9.019531 183.773438 C 8.742188 184.792969 8.371094 185.996094 8.140625 186.414062 C 7.910156 186.875 7.308594 189.46875 6.800781 192.199219 C 6.289062 194.929688 5.644531 197.617188 5.363281 198.125 C 5.085938 198.636719 4.808594 199.746094 4.71875 200.671875 C 4.671875 201.550781 4.347656 203.542969 4.070312 205.070312 C 3.792969 206.597656 3.421875 208.867188 3.285156 210.160156 C 3.144531 211.410156 2.867188 212.894531 2.636719 213.402344 C 2.40625 213.910156 2.128906 215.578125 1.941406 217.105469 C 1.804688 218.632812 1.574219 221.410156 1.480469 223.355469 C 1.339844 225.253906 1.0625 228.773438 0.785156 231.226562 C 0.507812 233.632812 0.371094 237.429688 0.417969 239.699219 C 0.507812 241.964844 0.417969 243.863281 0.230469 244.003906 C 0 244.09375 -0.046875 246.734375 0.046875 249.835938 C 0.183594 252.984375 1.015625 264.046875 1.941406 274.511719 C 2.867188 284.925781 3.792969 294.09375 4.070312 294.878906 C 4.300781 295.621094 4.488281 296.871094 4.53125 297.65625 C 4.53125 298.398438 4.808594 299.460938 5.226562 299.972656 C 5.597656 300.480469 5.875 301.871094 5.875 303.074219 C 5.875 304.277344 6.105469 305.386719 6.335938 305.527344 C 6.613281 305.621094 6.800781 306.636719 6.800781 307.703125 C 6.800781 308.8125 7.078125 310.109375 7.445312 310.621094 C 7.769531 311.128906 8.234375 312.5625 8.417969 313.859375 C 8.601562 315.109375 8.878906 316.359375 9.113281 316.636719 C 9.296875 316.867188 9.621094 318.117188 9.804688 319.414062 C 9.988281 320.664062 10.3125 322.007812 10.546875 322.425781 C 10.730469 322.792969 11.285156 324.414062 11.746094 325.988281 C 12.210938 327.5625 12.71875 328.90625 12.949219 328.90625 C 13.136719 328.90625 13.273438 329.277344 13.273438 329.691406 C 13.320312 330.15625 13.921875 332.191406 14.617188 334.230469 C 15.355469 336.265625 16.371094 339.042969 16.835938 340.480469 C 17.34375 341.867188 17.992188 343.441406 18.269531 343.949219 C 18.546875 344.460938 19.195312 345.800781 19.65625 346.960938 C 20.164062 348.070312 20.859375 349.875 21.136719 350.894531 C 21.460938 351.914062 22.109375 353.300781 22.570312 353.996094 C 23.078125 354.691406 23.449219 355.476562 23.449219 355.753906 C 23.449219 355.988281 24.050781 357.285156 24.789062 358.625 C 25.53125 359.96875 26.269531 361.589844 26.5 362.238281 C 26.6875 362.839844 27.011719 363.578125 27.242188 363.855469 C 27.472656 364.089844 28.304688 365.429688 29.046875 366.867188 C 29.785156 368.253906 30.847656 370.339844 31.40625 371.496094 C 31.960938 372.605469 32.792969 373.996094 33.253906 374.503906 C 33.71875 375.015625 34.085938 375.617188 34.085938 375.894531 C 34.085938 376.125 34.550781 377.050781 35.152344 377.976562 C 35.75 378.855469 36.722656 380.523438 37.371094 381.679688 C 37.972656 382.792969 38.621094 383.855469 38.804688 383.996094 C 38.988281 384.085938 39.960938 385.476562 40.886719 387.050781 C 41.855469 388.625 43.566406 391.261719 44.679688 392.835938 C 45.835938 394.457031 46.851562 395.890625 47.039062 396.03125 C 47.175781 396.125 47.777344 397.050781 48.332031 397.976562 C 48.886719 398.949219 49.488281 399.734375 49.71875 399.6875 C 49.90625 399.6875 50.273438 400.152344 50.597656 400.753906 C 50.875 401.308594 51.523438 402.28125 51.984375 402.882812 C 52.449219 403.484375 53.511719 404.828125 54.34375 405.890625 C 55.175781 406.957031 56.242188 408.253906 56.65625 408.761719 C 57.027344 409.269531 58.785156 411.214844 60.449219 413.160156 C 62.160156 415.058594 64.011719 417.1875 64.660156 417.929688 C 65.261719 418.667969 68.914062 422.417969 72.707031 426.261719 C 76.546875 430.148438 80.984375 434.453125 82.648438 435.84375 C 84.316406 437.234375 86.398438 439.085938 87.320312 440.011719 C 88.246094 440.890625 90.1875 442.554688 91.714844 443.667969 C 93.195312 444.824219 95.601562 446.722656 96.988281 447.878906 C 98.375 449.082031 100.78125 450.890625 102.308594 452 C 103.832031 453.066406 106.65625 455.054688 108.550781 456.445312 C 110.445312 457.832031 112.4375 459.128906 112.945312 459.359375 C 113.453125 459.59375 114.980469 460.566406 116.320312 461.492188 C 117.617188 462.371094 118.863281 463.15625 119.097656 463.15625 C 119.28125 463.15625 120.066406 463.667969 120.808594 464.269531 C 121.59375 464.824219 123.257812 465.886719 124.507812 466.535156 C 125.800781 467.230469 127.882812 468.386719 129.132812 469.128906 C 130.425781 469.917969 132.371094 470.980469 133.527344 471.488281 C 134.683594 472.046875 135.929688 472.648438 136.300781 472.925781 C 136.671875 473.15625 138.152344 473.898438 139.539062 474.546875 C 140.925781 475.195312 142.589844 475.980469 143.238281 476.257812 C 143.886719 476.535156 144.488281 476.953125 144.625 477.136719 C 144.765625 477.324219 145.273438 477.554688 145.78125 477.695312 C 146.292969 477.832031 149.019531 478.898438 151.796875 480.054688 C 154.617188 481.257812 157.625 482.554688 158.5 482.925781 C 159.378906 483.339844 161.785156 484.265625 163.820312 484.960938 C 165.855469 485.703125 168.769531 486.71875 170.296875 487.230469 C 171.820312 487.738281 174.226562 488.480469 175.613281 488.894531 C 177.003906 489.3125 179.316406 490.054688 180.703125 490.46875 C 182.089844 490.933594 184.308594 491.535156 185.558594 491.859375 C 186.855469 492.183594 188.289062 492.460938 188.796875 492.554688 C 189.304688 492.601562 190.691406 493.015625 191.941406 493.386719 C 193.144531 493.804688 194.347656 494.035156 194.578125 493.941406 C 194.855469 493.804688 195.316406 493.894531 195.640625 494.128906 C 195.917969 494.359375 197.539062 494.777344 199.203125 495.007812 C 200.867188 495.238281 202.488281 495.5625 202.808594 495.703125 C 203.085938 495.886719 204.566406 496.117188 206.046875 496.257812 C 207.480469 496.441406 208.960938 496.71875 209.285156 496.953125 C 209.5625 497.230469 209.980469 497.320312 210.210938 497.230469 C 210.394531 497.136719 212.9375 497.414062 215.851562 497.878906 C 218.765625 498.292969 222.835938 498.710938 224.871094 498.757812 C 226.90625 498.804688 228.804688 499.035156 229.035156 499.265625 C 229.3125 499.496094 230.328125 499.683594 231.347656 499.683594 C 232.363281 499.683594 238.285156 499.777344 244.527344 499.914062 C 254.425781 500.097656 257.847656 499.960938 271.816406 498.757812 C 280.605469 498.015625 288.421875 497.183594 289.160156 496.90625 C 289.945312 496.671875 291.519531 496.441406 292.769531 496.488281 C 293.972656 496.488281 295.035156 496.257812 295.171875 496.027344 C 295.3125 495.746094 296.097656 495.5625 296.929688 495.5625 C 297.71875 495.515625 299.152344 495.332031 300.03125 495.101562 C 300.910156 494.867188 303.40625 494.359375 305.578125 493.941406 C 307.753906 493.527344 310.160156 492.96875 310.898438 492.738281 C 311.683594 492.507812 313.535156 491.90625 315.0625 491.394531 C 316.585938 490.886719 318.484375 490.46875 319.222656 490.46875 C 320.011719 490.46875 321.027344 490.191406 321.535156 489.824219 C 322.046875 489.5 323.203125 489.082031 324.078125 488.894531 C 324.957031 488.757812 326.347656 488.292969 327.085938 487.925781 C 327.871094 487.554688 328.984375 487.230469 329.628906 487.230469 C 330.277344 487.230469 331.480469 486.8125 332.3125 486.304688 C 333.097656 485.792969 334.210938 485.378906 334.71875 485.378906 C 335.226562 485.378906 336.429688 484.960938 337.398438 484.453125 C 338.324219 483.941406 339.390625 483.527344 339.710938 483.527344 C 339.992188 483.527344 341.238281 483.0625 342.488281 482.554688 C 343.691406 482.046875 345.078125 481.441406 345.585938 481.210938 C 346.09375 481.027344 347.4375 480.425781 348.59375 479.914062 C 349.75 479.40625 351.597656 478.574219 352.753906 478.0625 C 353.910156 477.554688 355.578125 476.90625 356.457031 476.535156 C 357.335938 476.210938 358.398438 475.703125 358.769531 475.378906 C 359.136719 475.054688 360.339844 474.453125 361.449219 474.082031 C 362.515625 473.664062 363.394531 473.109375 363.394531 472.878906 C 363.394531 472.601562 363.671875 472.414062 363.996094 472.371094 C 364.273438 472.371094 365.382812 471.953125 366.398438 471.488281 C 367.417969 470.980469 369.5 469.824219 371.023438 468.945312 C 372.550781 468.0625 374.539062 467 375.417969 466.628906 C 376.296875 466.210938 377.824219 465.242188 378.792969 464.5 C 379.71875 463.757812 380.644531 463.15625 380.875 463.15625 C 381.0625 463.15625 382.355469 462.417969 383.742188 461.535156 C 385.132812 460.65625 386.519531 459.777344 386.75 459.546875 C 387.027344 459.316406 387.722656 458.851562 388.367188 458.527344 C 389.015625 458.203125 389.617188 457.785156 389.757812 457.601562 C 389.894531 457.417969 391.144531 456.539062 392.53125 455.65625 C 393.917969 454.730469 395.582031 453.574219 396.230469 453.019531 C 396.878906 452.464844 397.527344 452 397.757812 452 C 397.941406 452.046875 398.453125 451.675781 398.914062 451.214844 C 399.375 450.796875 400.996094 449.5 402.476562 448.34375 C 404 447.230469 405.34375 446.167969 405.480469 446.027344 C 405.621094 445.84375 406.175781 445.425781 406.683594 445.054688 C 407.238281 444.6875 408.582031 443.574219 409.691406 442.554688 C 410.753906 441.539062 412.003906 440.472656 412.464844 440.242188 C 412.882812 439.964844 415.148438 437.972656 417.507812 435.84375 C 419.867188 433.667969 424.90625 428.761719 428.699219 424.964844 C 432.492188 421.121094 435.542969 417.882812 435.542969 417.789062 C 435.542969 417.652344 436.191406 416.816406 437.023438 415.890625 C 437.855469 414.964844 439.429688 413.207031 440.492188 411.957031 C 441.558594 410.707031 443.636719 408.207031 445.117188 406.402344 C 446.597656 404.59375 448.632812 401.910156 449.652344 400.429688 C 450.667969 398.949219 452.148438 397.003906 452.933594 396.078125 C 453.722656 395.152344 456.21875 391.585938 458.484375 388.160156 C 460.707031 384.6875 462.601562 381.773438 462.601562 381.632812 C 462.601562 381.449219 462.972656 380.847656 463.433594 380.246094 C 463.898438 379.597656 464.542969 378.578125 464.914062 377.976562 C 465.285156 377.328125 465.839844 376.265625 466.164062 375.660156 C 466.441406 375.015625 466.996094 374.179688 467.273438 373.808594 C 467.597656 373.394531 468.984375 370.894531 470.371094 368.253906 C 471.714844 365.570312 473.054688 362.976562 473.332031 362.46875 C 473.609375 361.960938 474.582031 359.96875 475.460938 358.070312 C 476.339844 356.125 477.585938 353.441406 478.234375 352.050781 C 478.882812 350.617188 479.992188 348.257812 480.640625 346.726562 C 481.285156 345.199219 481.796875 343.671875 481.796875 343.347656 C 481.796875 343.023438 482.121094 342.332031 482.488281 341.730469 C 482.859375 341.171875 483.96875 338.304688 484.941406 335.386719 C 485.957031 332.421875 486.976562 329.507812 487.253906 328.90625 C 487.484375 328.257812 488.039062 326.5 488.503906 324.96875 C 488.964844 323.441406 489.703125 320.941406 490.167969 319.414062 C 490.628906 317.886719 491.277344 315.480469 491.691406 314.089844 C 492.0625 312.65625 492.527344 310.710938 492.664062 309.695312 C 492.847656 308.675781 493.128906 307.425781 493.359375 306.914062 C 493.589844 306.40625 493.960938 304.601562 494.285156 302.980469 C 494.5625 301.3125 494.976562 299.230469 495.207031 298.351562 C 495.441406 297.425781 495.855469 295.480469 496.179688 293.953125 C 496.503906 292.425781 496.828125 290.527344 496.875 289.789062 C 496.917969 289 497.195312 286.824219 497.476562 284.925781 C 497.753906 282.980469 498.074219 280.480469 498.167969 279.371094 C 498.308594 278.214844 498.632812 275.296875 498.910156 272.890625 C 499.1875 270.4375 499.464844 264.511719 499.554688 259.695312 C 499.601562 254.835938 499.832031 250.621094 499.972656 250.296875 C 500.15625 249.972656 499.464844 240.113281 498.445312 228.308594 C 497.382812 216.042969 496.363281 206.503906 496.039062 205.996094 C 495.71875 205.484375 495.347656 204.003906 495.164062 202.753906 C 494.976562 201.457031 494.605469 199.46875 494.375 198.355469 C 494.097656 197.199219 493.636719 194.652344 493.3125 192.664062 C 492.941406 190.671875 492.527344 189.097656 492.339844 189.097656 C 492.109375 189.097656 491.878906 187.847656 491.738281 186.320312 C 491.601562 184.792969 491.324219 183.542969 491.046875 183.542969 C 490.816406 183.542969 490.582031 182.988281 490.582031 182.386719 C 490.582031 181.738281 490.167969 180.257812 489.660156 179.144531 C 489.148438 177.988281 488.734375 176.597656 488.734375 175.996094 C 488.734375 175.441406 488.410156 174.332031 488.039062 173.589844 C 487.625 172.804688 487.207031 171.460938 487.023438 170.582031 C 486.882812 169.65625 486.605469 168.730469 486.421875 168.496094 C 486.191406 168.21875 485.773438 166.96875 485.449219 165.71875 C 485.125 164.421875 484.617188 163.128906 484.246094 162.804688 C 483.921875 162.480469 483.644531 161.832031 483.644531 161.320312 C 483.644531 160.8125 483.277344 159.703125 482.8125 158.867188 C 482.351562 158.035156 481.703125 156.414062 481.378906 155.304688 C 481.054688 154.148438 480.363281 152.617188 479.898438 151.925781 C 479.4375 151.230469 479.019531 150.304688 479.019531 149.839844 C 479.066406 149.425781 478.652344 148.453125 478.09375 147.757812 C 477.585938 147.0625 477.171875 146.277344 477.171875 146.046875 C 477.171875 145.765625 476.429688 143.960938 475.550781 141.972656 C 474.625 140.027344 473.746094 138.082031 473.515625 137.710938 C 473.285156 137.296875 471.898438 134.703125 470.464844 131.925781 C 469.03125 129.101562 467.597656 126.695312 467.320312 126.507812 C 466.996094 126.371094 466.578125 125.628906 466.394531 124.890625 C 466.164062 124.195312 465.375 122.714844 464.636719 121.601562 C 463.898438 120.539062 463.296875 119.425781 463.296875 119.195312 C 463.296875 118.917969 463.109375 118.730469 462.832031 118.730469 C 462.601562 118.730469 462.371094 118.453125 462.371094 118.128906 C 462.371094 117.804688 461.167969 115.816406 459.6875 113.6875 C 458.253906 111.511719 456.726562 109.242188 456.3125 108.59375 C 455.941406 107.898438 454.601562 106 453.445312 104.378906 C 452.242188 102.714844 450.898438 100.910156 450.4375 100.351562 C 450.019531 99.796875 448.632812 97.945312 447.339844 96.28125 C 446.089844 94.566406 443.59375 91.464844 441.835938 89.382812 C 440.078125 87.296875 437.070312 83.871094 435.128906 81.742188 C 433.1875 79.613281 429.117188 75.355469 426.0625 72.300781 C 423.011719 69.242188 418.664062 65.171875 416.351562 63.226562 C 414.085938 61.28125 411.679688 59.199219 411.03125 58.640625 C 410.382812 58.039062 408.210938 56.1875 406.175781 54.523438 C 404.140625 52.855469 402.011719 51.097656 401.457031 50.632812 C 400.855469 50.125 400.253906 49.753906 400.070312 49.753906 C 399.839844 49.753906 399.191406 49.246094 398.542969 48.597656 C 397.898438 47.949219 397.203125 47.394531 396.925781 47.441406 C 396.695312 47.441406 396.140625 47.117188 395.769531 46.699219 C 395.398438 46.28125 393.640625 44.984375 391.882812 43.78125 C 390.082031 42.625 388.414062 41.515625 388.183594 41.421875 C 387.90625 41.28125 385.59375 39.800781 383.050781 38.132812 C 380.507812 36.421875 377.40625 34.476562 376.113281 33.78125 C 374.863281 33.089844 373.613281 32.347656 373.335938 32.164062 C 373.105469 31.929688 370.609375 30.589844 367.789062 29.105469 C 365.011719 27.625 362.097656 26.097656 361.3125 25.726562 C 360.570312 25.3125 359.554688 24.941406 359.136719 24.894531 C 358.675781 24.800781 357.75 24.339844 357.058594 23.785156 C 356.316406 23.273438 355.4375 22.8125 355.066406 22.71875 C 354.699219 22.671875 353.03125 21.933594 351.367188 21.144531 C 349.703125 20.359375 348.039062 19.664062 347.667969 19.664062 C 347.296875 19.664062 346.789062 19.476562 346.511719 19.199219 C 346.28125 18.96875 344.894531 18.273438 343.503906 17.765625 C 342.117188 17.210938 339.296875 16.144531 337.261719 15.402344 C 335.226562 14.617188 332.730469 13.832031 331.710938 13.550781 C 330.695312 13.320312 329.769531 12.949219 329.628906 12.765625 C 329.492188 12.582031 328.148438 12.070312 326.625 11.609375 C 325.097656 11.144531 323.109375 10.636719 322.230469 10.40625 C 321.351562 10.21875 319.777344 9.757812 318.761719 9.339844 C 317.742188 8.96875 315.894531 8.414062 314.597656 8.136719 C 313.351562 7.8125 311.546875 7.441406 310.667969 7.304688 C 309.789062 7.164062 308.863281 6.886719 308.585938 6.699219 C 308.355469 6.46875 306.132812 5.960938 303.730469 5.496094 C 301.324219 5.082031 298.503906 4.480469 297.484375 4.199219 C 296.46875 3.921875 295.128906 3.738281 294.480469 3.832031 C 293.832031 3.878906 293.136719 3.691406 292.859375 3.414062 C 292.628906 3.183594 291.101562 2.953125 289.53125 2.953125 C 287.910156 2.953125 286.617188 2.8125 286.617188 2.628906 C 286.617188 2.441406 284.488281 2.117188 281.898438 1.886719 C 279.261719 1.703125 276.949219 1.332031 276.671875 1.144531 C 276.441406 0.960938 273.621094 0.636719 270.429688 0.496094 C 267.238281 0.3125 259.558594 0.128906 253.316406 0.0351562 C 244.160156 -0.0585938 239.347656 0.171875 228.109375 1.144531 Z M 228.109375 1.144531 "/>
<path style=" stroke:none;fill-rule:evenodd;fill:rgb(100%,100%,99.607843%);fill-opacity:1;" d="M 242.214844 21.328125 C 241.847656 21.421875 238.515625 21.699219 234.816406 21.933594 C 231.117188 22.164062 225.195312 22.671875 221.632812 23.089844 C 218.074219 23.460938 212.753906 24.199219 209.839844 24.753906 C 206.925781 25.265625 203.503906 25.914062 202.207031 26.191406 C 200.960938 26.421875 199.0625 26.792969 198.046875 26.886719 C 197.027344 27.023438 196.011719 27.300781 195.734375 27.53125 C 195.503906 27.71875 194.253906 28.042969 192.957031 28.226562 C 191.710938 28.414062 190.230469 28.875 189.722656 29.199219 C 189.210938 29.570312 188.425781 29.847656 188.011719 29.847656 C 187.546875 29.847656 185.789062 30.265625 184.078125 30.773438 C 180.933594 31.699219 180.933594 31.699219 180.609375 33.644531 C 180.425781 34.753906 179.824219 41.234375 179.316406 48.132812 C 178.804688 54.984375 178.203125 66.742188 177.925781 74.289062 C 177.695312 81.789062 177.464844 93.640625 177.464844 100.675781 C 177.464844 107.667969 177.695312 119.519531 177.925781 127.066406 C 178.203125 134.5625 178.804688 145.8125 179.316406 152.0625 C 179.824219 158.265625 180.054688 163.496094 179.871094 163.683594 C 179.683594 163.820312 177.835938 164.101562 175.753906 164.238281 C 172.054688 164.515625 171.914062 164.515625 171.683594 163.496094 C 171.542969 162.941406 170.851562 158.082031 170.066406 152.757812 C 169.324219 147.386719 168.074219 136.648438 167.335938 128.917969 C 166.550781 121.140625 165.484375 108.824219 164.929688 101.601562 C 164.28125 92.066406 163.914062 81.371094 163.683594 63.273438 C 163.359375 38.457031 163.359375 38.179688 162.433594 38.457031 C 161.925781 38.644531 160.8125 39.058594 160.027344 39.382812 C 159.195312 39.753906 158.410156 40.21875 158.269531 40.496094 C 158.132812 40.726562 157.34375 41.050781 156.558594 41.234375 C 155.726562 41.375 154.292969 41.929688 153.414062 42.394531 C 152.535156 42.855469 150.824219 43.644531 149.621094 44.199219 C 148.371094 44.707031 147.308594 45.308594 147.171875 45.585938 C 147.03125 45.820312 146.382812 46.144531 145.691406 46.234375 C 144.949219 46.375 144.070312 46.835938 143.65625 47.300781 C 143.238281 47.761719 142.035156 48.410156 140.972656 48.828125 C 139.910156 49.199219 139.078125 49.617188 139.078125 49.753906 C 139.078125 49.847656 137.6875 50.679688 135.976562 51.558594 C 134.265625 52.4375 132.738281 53.320312 132.601562 53.457031 C 132.460938 53.644531 131.539062 54.199219 130.519531 54.707031 C 129.503906 55.21875 128.347656 56.003906 127.976562 56.421875 C 127.605469 56.835938 127.003906 57.160156 126.726562 57.160156 C 126.402344 57.160156 126.125 57.347656 126.125 57.625 C 126.125 57.855469 125.570312 58.273438 124.878906 58.457031 C 124.136719 58.6875 123.074219 59.335938 122.425781 59.890625 C 121.777344 60.449219 119.511719 62.113281 117.339844 63.550781 C 115.164062 64.984375 112.898438 66.652344 112.25 67.253906 C 111.601562 67.855469 110.078125 69.011719 108.828125 69.800781 C 107.578125 70.585938 106.46875 71.464844 106.285156 71.742188 C 106.144531 72.019531 105.082031 72.949219 103.972656 73.828125 C 102.863281 74.707031 101.011719 76.28125 99.808594 77.34375 L 97.683594 79.289062 C 99.71875 84.890625 101.660156 90.167969 103.324219 94.660156 C 104.941406 99.101562 107.671875 106.1875 109.335938 110.398438 C 111.003906 114.566406 113.40625 120.539062 114.65625 123.59375 C 115.949219 126.648438 118.21875 131.832031 119.652344 135.167969 C 121.132812 138.453125 123.90625 144.609375 125.800781 148.824219 C 127.699219 152.988281 130.519531 159.007812 132.09375 162.109375 L 134.914062 167.804688 C 131.859375 168.128906 129.226562 168.359375 127.050781 168.496094 L 123.121094 168.773438 C 121.777344 166.414062 119.417969 162.0625 117.015625 157.617188 C 114.5625 153.128906 111.882812 148.128906 110.957031 146.507812 C 110.078125 144.839844 106.5625 137.898438 103.1875 131.09375 C 99.761719 124.285156 96.988281 118.59375 96.988281 118.5 C 96.988281 118.363281 95.414062 115.027344 93.519531 111.09375 C 91.621094 107.113281 90.050781 103.777344 90.050781 103.6875 C 90.050781 103.546875 89.542969 102.34375 88.941406 101 C 88.339844 99.660156 87.277344 97.207031 86.582031 95.585938 C 85.886719 93.917969 85.195312 92.390625 85.054688 92.207031 C 84.871094 92.019531 84.085938 92.53125 83.25 93.363281 C 82.464844 94.195312 80.800781 96.046875 79.550781 97.484375 C 78.347656 98.871094 76.269531 101.277344 75.019531 102.808594 C 73.722656 104.289062 71.964844 106.464844 71.085938 107.621094 C 70.207031 108.730469 69.097656 109.9375 68.683594 110.261719 C 68.21875 110.585938 67.851562 111.046875 67.851562 111.324219 C 67.851562 111.554688 67.386719 112.390625 66.832031 113.128906 C 66.230469 113.871094 65.351562 115.074219 64.84375 115.816406 C 64.335938 116.507812 63.964844 117.25 64.058594 117.4375 C 64.105469 117.621094 64.011719 117.757812 63.828125 117.757812 C 63.59375 117.757812 62.578125 119.007812 61.515625 120.539062 C 60.402344 122.066406 59.523438 123.546875 59.523438 123.824219 C 59.523438 124.054688 59.386719 124.242188 59.199219 124.242188 C 58.96875 124.242188 58.507812 124.796875 58.136719 125.535156 C 57.722656 126.230469 56.472656 128.269531 55.363281 130.074219 C 54.207031 131.878906 53.003906 133.777344 52.726562 134.238281 C 52.402344 134.75 51.847656 135.675781 51.570312 136.324219 C 51.246094 136.925781 50.875 137.574219 50.738281 137.710938 C 50.550781 137.804688 48.65625 141.507812 46.4375 145.90625 C 44.214844 150.304688 42.410156 154.191406 42.410156 154.609375 C 42.410156 154.980469 46.574219 159.515625 51.617188 164.65625 C 56.703125 169.839844 60.773438 174.097656 60.773438 174.144531 C 60.726562 174.191406 56.195312 174.65625 50.738281 175.164062 L 40.792969 176.089844 C 37.230469 172.523438 35.890625 171.507812 35.613281 171.507812 C 35.289062 171.507812 35.011719 171.878906 35.011719 172.292969 C 35.011719 172.757812 34.59375 173.773438 34.085938 174.609375 C 33.578125 175.441406 33.160156 176.507812 33.160156 176.921875 C 33.160156 177.386719 32.882812 178.542969 32.46875 179.46875 C 32.097656 180.441406 31.683594 181.875 31.496094 182.710938 C 31.359375 183.542969 31.082031 184.421875 30.894531 184.699219 C 30.710938 184.933594 30.25 186.460938 29.878906 188.078125 C 29.507812 189.699219 29.09375 191.136719 28.90625 191.226562 C 28.675781 191.320312 28.535156 191.921875 28.535156 192.570312 L 28.535156 193.726562 C 31.960938 191.320312 33.855469 190.253906 35.011719 189.792969 C 36.585938 189.191406 45.371094 188.265625 70.855469 186.042969 C 89.449219 184.375 105.035156 183.125 105.542969 183.171875 C 106.378906 183.265625 106.515625 183.867188 107.023438 189.097656 C 107.300781 192.246094 107.441406 195.023438 107.253906 195.210938 C 107.070312 195.347656 96.386719 196.414062 83.527344 197.523438 C 70.625 198.589844 59.988281 199.605469 59.847656 199.746094 C 59.710938 199.839844 60.726562 213.308594 62.160156 229.605469 C 63.546875 245.902344 64.84375 259.371094 65.027344 259.605469 C 65.167969 259.789062 72.800781 259.324219 81.957031 258.492188 C 92.269531 257.613281 99.484375 257.148438 100.917969 257.382812 C 102.214844 257.519531 104.386719 258.261719 105.777344 259 C 107.164062 259.695312 108.875 260.898438 109.523438 261.59375 C 110.167969 262.335938 111.140625 263.539062 111.648438 264.324219 C 112.203125 265.066406 112.945312 266.6875 113.359375 267.890625 C 113.871094 269.371094 114.886719 279 116.460938 296.824219 C 117.941406 313.535156 118.726562 325.015625 118.632812 327.515625 C 118.449219 330.617188 118.171875 331.960938 117.199219 333.859375 C 116.507812 335.203125 115.070312 337.144531 114.007812 338.210938 C 112.898438 339.230469 110.769531 340.710938 109.246094 341.40625 C 106.609375 342.699219 105.683594 342.792969 89.589844 344.230469 C 80.292969 345.015625 66.277344 346.21875 58.367188 346.914062 C 50.042969 347.609375 44.03125 348.300781 44.078125 348.582031 C 44.078125 348.8125 44.261719 349.644531 44.445312 350.433594 C 44.679688 351.171875 45.1875 352.238281 45.648438 352.746094 C 46.113281 353.253906 46.714844 354.367188 46.992188 355.292969 C 47.316406 356.171875 47.960938 357.421875 48.472656 358.070312 C 48.980469 358.671875 49.394531 359.460938 49.351562 359.785156 C 49.351562 360.105469 49.71875 360.753906 50.183594 361.265625 C 50.597656 361.726562 51.753906 363.71875 52.726562 365.664062 C 53.652344 367.5625 54.714844 369.042969 54.898438 369.226562 C 55.085938 369.503906 54.992188 369.367188 55.222656 369.738281 C 55.410156 369.921875 56.289062 371.542969 57.445312 373.347656 C 58.601562 375.105469 59.570312 376.679688 59.710938 376.910156 C 59.847656 377.097656 59.988281 377.234375 60.125 377.421875 C 60.265625 377.605469 61.234375 378.808594 62.253906 380.382812 C 63.226562 382.003906 64.382812 383.578125 64.796875 383.996094 C 65.214844 384.363281 65.582031 384.875 65.582031 385.152344 C 65.582031 385.382812 66.460938 386.632812 67.574219 387.929688 C 68.636719 389.179688 69.929688 390.847656 70.441406 391.632812 C 70.902344 392.375 71.875 393.53125 72.519531 394.179688 C 73.167969 394.78125 73.863281 395.660156 74.140625 396.078125 C 74.371094 396.539062 75.710938 398.160156 77.101562 399.78125 C 78.488281 401.355469 81.402344 404.550781 83.574219 406.816406 L 87.507812 410.9375 C 107.210938 401.167969 115.117188 397.1875 117.800781 395.753906 C 120.484375 394.320312 124.832031 391.957031 127.515625 390.476562 C 130.195312 388.996094 133.203125 387.328125 134.21875 386.773438 C 135.238281 386.171875 137.226562 385.058594 138.613281 384.320312 C 140 383.53125 141.710938 382.511719 142.453125 382.050781 C 143.148438 381.585938 143.792969 381.21875 143.933594 381.21875 C 144.070312 381.21875 147.449219 379.179688 151.472656 376.726562 C 155.449219 374.273438 159.65625 371.726562 160.8125 371.03125 C 161.96875 370.339844 166.457031 367.515625 170.757812 364.78125 C 175.105469 362.050781 181.859375 357.609375 185.789062 354.921875 C 189.722656 352.238281 193.605469 349.597656 194.347656 348.996094 C 195.546875 348.117188 196.75 347.886719 202.441406 347.46875 C 206.140625 347.144531 209.238281 347.007812 209.378906 347.144531 C 209.515625 347.285156 208.914062 347.933594 208.035156 348.671875 C 207.15625 349.367188 203.828125 352.097656 200.636719 354.738281 C 197.445312 357.375 192.449219 361.3125 189.582031 363.53125 C 186.714844 365.753906 181.582031 369.597656 178.25 372.050781 C 174.875 374.550781 169.140625 378.765625 165.441406 381.402344 C 161.738281 384.042969 153.921875 389.363281 148.050781 393.300781 C 142.128906 397.234375 136.023438 401.261719 134.40625 402.234375 C 132.785156 403.253906 129.179688 405.519531 126.359375 407.28125 C 123.582031 409.039062 120.113281 411.167969 118.726562 412.003906 C 117.339844 412.835938 113.082031 415.289062 109.246094 417.511719 C 105.453125 419.6875 102.03125 421.632812 101.660156 421.816406 C 101.289062 422.003906 100.917969 422.371094 100.828125 422.648438 C 100.734375 422.882812 102.445312 424.59375 104.621094 426.445312 C 106.792969 428.296875 108.691406 429.824219 108.921875 429.824219 C 109.105469 429.824219 109.660156 430.289062 110.214844 430.890625 C 110.726562 431.445312 111.789062 432.371094 112.621094 432.925781 C 113.453125 433.527344 114.238281 433.992188 114.472656 433.992188 C 114.65625 433.992188 115.441406 434.59375 116.273438 435.289062 C 117.0625 435.9375 118.308594 436.953125 118.957031 437.464844 C 119.652344 437.972656 120.761719 438.714844 121.453125 439.175781 C 122.101562 439.640625 122.980469 440.101562 123.351562 440.289062 C 123.722656 440.472656 124.460938 440.9375 124.96875 441.398438 C 125.480469 441.816406 128.300781 443.667969 131.214844 445.472656 C 134.128906 447.277344 136.765625 448.761719 136.996094 448.804688 C 137.273438 448.804688 137.78125 449.082031 138.152344 449.453125 C 138.519531 449.777344 141.34375 451.351562 144.394531 452.878906 C 147.449219 454.453125 152.398438 456.859375 155.402344 458.25 C 158.363281 459.683594 161.09375 460.84375 161.414062 460.84375 C 161.691406 460.796875 162.25 461.074219 162.527344 461.398438 C 162.988281 461.859375 163.265625 461.859375 163.867188 461.304688 C 164.28125 460.890625 167.707031 456.953125 171.40625 452.464844 C 175.105469 448.019531 178.945312 443.4375 179.871094 442.277344 C 180.792969 441.167969 183.015625 438.34375 184.820312 436.074219 C 186.621094 433.761719 191.480469 427.417969 195.59375 421.957031 C 199.664062 416.445312 203.828125 410.9375 204.753906 409.6875 C 205.679688 408.390625 207.710938 405.566406 209.238281 403.4375 C 210.765625 401.261719 215.019531 395.011719 218.71875 389.550781 C 222.375 384.042969 227.230469 376.679688 229.496094 373.117188 C 231.71875 369.550781 235.695312 363.070312 238.285156 358.765625 C 240.828125 354.414062 243.882812 349.273438 244.992188 347.285156 C 246.332031 344.96875 247.394531 343.582031 247.996094 343.488281 C 248.507812 343.394531 250.308594 343.164062 252.066406 343.023438 C 254.011719 342.886719 255.167969 342.933594 255.167969 343.257812 C 255.167969 343.488281 252.390625 349.273438 248.96875 356.078125 C 245.546875 362.886719 240.828125 372.003906 238.515625 376.355469 C 236.15625 380.660156 232.6875 386.910156 230.792969 390.246094 C 228.894531 393.53125 225.425781 399.363281 223.160156 403.207031 C 220.894531 407.003906 218.398438 411.167969 217.609375 412.464844 C 216.777344 413.714844 214.695312 417.046875 212.9375 419.871094 C 211.136719 422.648438 208.222656 427.234375 206.371094 430.058594 C 204.566406 432.835938 200.40625 438.992188 197.121094 443.714844 C 193.882812 448.390625 189.074219 455.148438 186.53125 458.667969 C 183.941406 462.183594 181.488281 465.609375 181.074219 466.304688 C 180.609375 467 180.425781 467.648438 180.609375 467.832031 C 180.792969 467.972656 182.414062 468.574219 184.171875 469.175781 C 185.976562 469.730469 187.824219 470.285156 188.332031 470.378906 C 188.84375 470.425781 190.507812 470.84375 192.035156 471.257812 C 193.558594 471.675781 195.546875 472.230469 196.425781 472.507812 C 197.304688 472.785156 198.554688 473.0625 199.203125 473.15625 C 199.851562 473.25 200.683594 473.480469 201.050781 473.574219 C 201.421875 473.710938 202.808594 473.945312 204.058594 474.082031 C 205.355469 474.222656 206.878906 474.546875 207.527344 474.824219 C 208.175781 475.101562 209.425781 475.378906 210.304688 475.472656 C 211.179688 475.5625 213.402344 475.886719 215.160156 476.121094 C 216.964844 476.398438 219.320312 476.722656 220.476562 476.859375 C 221.632812 477 223.300781 477.136719 224.179688 477.230469 C 225.058594 477.277344 226.074219 477.460938 226.398438 477.648438 C 226.675781 477.832031 228.0625 477.925781 229.40625 477.878906 C 230.699219 477.832031 232.132812 477.972656 232.503906 478.203125 C 232.875 478.386719 238.007812 478.621094 243.835938 478.664062 L 254.472656 478.757812 C 256.367188 472.230469 257.433594 468.527344 258.078125 466.398438 C 258.726562 464.222656 260.023438 459.640625 260.949219 456.214844 C 261.871094 452.742188 262.9375 448.898438 263.304688 447.648438 C 263.675781 446.351562 264.878906 441.445312 266.035156 436.769531 C 267.144531 432.046875 268.578125 425.984375 269.226562 423.34375 C 269.828125 420.660156 271.121094 414.917969 272 410.613281 C 272.925781 406.261719 274.175781 400.011719 274.777344 396.726562 C 275.425781 393.390625 276.765625 385.570312 277.78125 379.367188 C 278.800781 373.117188 279.957031 365.707031 280.328125 362.929688 C 280.742188 360.105469 281.34375 355.433594 281.761719 352.515625 C 282.128906 349.550781 282.59375 345.664062 282.777344 343.8125 L 283.148438 340.480469 C 286.015625 340.15625 287.726562 339.921875 288.835938 339.785156 L 290.78125 339.554688 C 290.78125 343.671875 290.363281 351.125 289.855469 358.765625 C 289.34375 366.402344 288.652344 375.753906 288.234375 379.597656 C 287.867188 383.394531 287.449219 387.234375 287.3125 388.160156 C 287.171875 389.039062 286.753906 392.558594 286.433594 396.03125 C 286.0625 399.457031 285.230469 406.03125 284.582031 410.613281 C 283.933594 415.195312 283.195312 420.195312 282.964844 421.722656 C 282.730469 423.25 281.851562 428.34375 281.066406 433.066406 C 280.28125 437.742188 278.570312 446.90625 277.320312 453.433594 C 276.023438 459.917969 274.40625 467.738281 273.621094 470.796875 C 272.878906 473.851562 272.277344 476.722656 272.277344 477.136719 C 272.277344 477.785156 272.554688 477.925781 273.574219 477.738281 C 274.269531 477.648438 276.71875 477.414062 278.984375 477.277344 C 281.296875 477.089844 283.886719 476.675781 284.765625 476.351562 C 285.644531 476.027344 288.558594 475.378906 291.242188 474.960938 C 293.925781 474.5 296.976562 473.988281 298.085938 473.757812 C 299.152344 473.527344 300.910156 473.109375 302.019531 472.878906 C 303.082031 472.648438 304.609375 472.324219 305.347656 472.136719 C 306.132812 471.953125 306.96875 471.675781 307.199219 471.445312 C 307.476562 471.257812 308.769531 470.980469 310.113281 470.84375 C 311.40625 470.65625 312.609375 470.332031 312.75 470.101562 C 312.886719 469.824219 313.394531 469.636719 313.90625 469.636719 C 314.414062 469.636719 315.199219 469.453125 315.664062 469.222656 C 316.078125 468.988281 318.019531 468.34375 319.917969 467.785156 C 321.8125 467.230469 324.035156 466.492188 324.773438 466.167969 C 325.558594 465.84375 326.902344 465.425781 327.78125 465.242188 C 328.660156 465.007812 329.816406 464.59375 330.324219 464.269531 C 330.832031 463.898438 332.40625 463.296875 333.792969 462.878906 C 335.179688 462.460938 336.566406 461.953125 336.800781 461.769531 C 337.078125 461.535156 338.1875 461.121094 339.296875 460.75 C 340.40625 460.425781 341.425781 459.871094 341.515625 459.546875 C 341.5625 459.222656 342.027344 458.992188 342.488281 458.992188 C 342.902344 458.992188 343.875 458.714844 344.570312 458.390625 C 345.910156 457.832031 345.910156 457.785156 345.585938 454.824219 C 345.449219 453.15625 344.707031 447.417969 343.96875 442.09375 C 343.183594 436.722656 342.027344 428.898438 341.378906 424.734375 C 340.730469 420.519531 339.480469 413.113281 338.601562 408.300781 C 337.722656 403.4375 336.660156 397.929688 336.289062 396.03125 C 335.921875 394.085938 334.671875 388.253906 333.5625 383.070312 C 332.453125 377.835938 330.695312 370.105469 329.628906 365.941406 C 328.613281 361.726562 326.484375 353.488281 324.957031 347.65625 C 323.433594 341.773438 322.230469 336.960938 322.324219 336.914062 C 322.414062 336.867188 324.496094 336.773438 327.039062 336.683594 L 331.574219 336.542969 C 333.285156 341.171875 335.320312 347.238281 337.214844 352.976562 C 339.113281 358.671875 341.191406 365.246094 341.886719 367.5625 C 342.582031 369.828125 343.273438 372.234375 343.503906 372.882812 C 343.691406 373.484375 344.199219 375.152344 344.617188 376.585938 C 344.984375 377.976562 346.1875 382.144531 347.207031 385.847656 C 348.269531 389.503906 350.210938 396.910156 351.597656 402.28125 C 352.941406 407.605469 355.207031 417.1875 356.59375 423.574219 C 357.980469 429.917969 359.738281 438.113281 360.480469 441.769531 C 361.171875 445.425781 361.914062 448.667969 362.097656 448.945312 C 362.328125 449.316406 362.652344 449.222656 363.253906 448.667969 C 363.71875 448.25 364.457031 447.878906 364.917969 447.878906 C 365.335938 447.878906 365.707031 447.648438 365.707031 447.417969 C 365.707031 447.140625 365.9375 446.953125 366.167969 446.953125 C 366.445312 446.953125 367.742188 446.214844 369.082031 445.335938 C 370.378906 444.40625 371.625 443.714844 371.855469 443.714844 C 372.042969 443.714844 372.550781 443.390625 373.011719 442.972656 C 373.429688 442.601562 375.140625 441.398438 376.804688 440.335938 C 378.472656 439.269531 380.042969 438.203125 380.367188 437.925781 C 380.691406 437.648438 381.664062 436.910156 382.585938 436.308594 C 383.511719 435.660156 385.132812 434.453125 386.195312 433.621094 C 387.257812 432.835938 388.96875 431.585938 389.988281 430.890625 C 391.003906 430.148438 392.253906 429.175781 392.808594 428.667969 C 393.316406 428.160156 394.566406 427.09375 395.539062 426.355469 C 396.507812 425.566406 397.527344 424.734375 397.804688 424.457031 C 398.082031 424.179688 399.886719 422.648438 401.78125 420.984375 C 403.679688 419.363281 407.980469 415.335938 411.261719 412.003906 C 414.59375 408.667969 418.386719 404.640625 419.726562 403.066406 L 422.132812 400.199219 C 418.800781 394.273438 417.554688 392.003906 417.183594 391.402344 C 416.859375 390.753906 415.101562 387.929688 413.34375 385.152344 C 411.585938 382.328125 408.117188 376.867188 405.621094 372.929688 C 403.121094 369.042969 397.898438 361.125 393.964844 355.339844 C 390.035156 349.597656 385.132812 342.5625 383.097656 339.785156 C 381.015625 336.960938 378.980469 334.089844 378.515625 333.394531 L 377.730469 332.144531 C 380.414062 331.820312 382.863281 331.589844 384.898438 331.453125 C 386.933594 331.265625 389.433594 331.035156 390.449219 330.894531 L 392.300781 330.664062 C 401.644531 342.375 406.453125 348.488281 408.996094 351.820312 C 411.585938 355.109375 415.425781 360.199219 417.597656 363.164062 C 419.726562 366.078125 423.566406 371.402344 426.109375 374.96875 C 428.605469 378.53125 431.335938 382.328125 432.074219 383.4375 C 432.863281 384.503906 433.554688 385.382812 433.695312 385.382812 C 433.832031 385.382812 434.574219 384.734375 435.3125 383.996094 C 436.101562 383.207031 436.515625 382.558594 436.238281 382.605469 C 436.007812 382.605469 436.332031 382.050781 436.976562 381.308594 C 437.625 380.617188 438.691406 379.226562 439.246094 378.207031 C 439.847656 377.191406 440.910156 375.617188 441.605469 374.734375 C 442.296875 373.808594 443.269531 372.375 443.730469 371.496094 C 444.195312 370.570312 445.027344 369.179688 445.628906 368.347656 C 446.183594 367.515625 446.644531 366.726562 446.644531 366.632812 C 446.644531 366.496094 447.339844 365.292969 448.171875 363.949219 C 448.957031 362.605469 449.789062 361.496094 450.019531 361.402344 C 450.207031 361.355469 450.34375 360.988281 450.34375 360.617188 C 450.34375 360.199219 450.714844 359.320312 451.175781 358.625 C 451.640625 357.929688 452.84375 355.710938 453.8125 353.671875 C 454.785156 351.636719 456.035156 348.902344 456.636719 347.65625 C 457.191406 346.359375 458.300781 343.949219 459.085938 342.332031 C 459.871094 340.664062 461.027344 337.839844 461.722656 336.082031 C 462.371094 334.277344 463.203125 332.191406 463.574219 331.453125 C 463.898438 330.664062 464.589844 328.8125 465.144531 327.285156 C 465.652344 325.757812 466.578125 323.027344 467.226562 321.265625 C 467.828125 319.460938 468.660156 316.777344 469.121094 315.25 C 469.539062 313.722656 469.957031 312.101562 469.957031 311.636719 C 470 310.945312 469.679688 310.851562 467.457031 311.082031 C 466.070312 311.222656 457.929688 311.960938 449.421875 312.703125 C 440.910156 313.441406 433.925781 314 433.878906 313.953125 C 433.878906 313.90625 425.691406 304.277344 415.65625 292.566406 C 405.667969 280.851562 397.386719 271.128906 397.296875 271.039062 C 397.25 270.898438 397.019531 270.945312 396.832031 271.175781 C 396.601562 271.363281 397.339844 281.6875 398.453125 294.09375 C 399.5625 306.5 400.300781 316.730469 400.164062 316.867188 C 399.976562 316.960938 392.207031 317.75 382.910156 318.535156 C 373.570312 319.367188 365.796875 319.878906 365.660156 319.691406 C 365.472656 319.554688 364.273438 306.777344 362.929688 291.40625 C 361.636719 275.992188 359.925781 256.734375 359.230469 248.585938 C 358.535156 240.4375 356.5 217.570312 354.789062 197.800781 C 353.03125 178.035156 351.691406 161.738281 351.832031 161.601562 C 351.96875 161.507812 359.785156 160.765625 369.175781 159.933594 C 378.609375 159.144531 386.378906 158.589844 386.519531 158.777344 C 386.65625 158.960938 387.722656 170.257812 388.921875 183.914062 C 390.125 197.570312 391.652344 215.117188 392.300781 222.894531 C 392.992188 230.625 393.640625 237.105469 393.734375 237.242188 C 393.828125 237.335938 394.011719 237.335938 394.105469 237.242188 C 394.242188 237.105469 401.226562 226.039062 409.691406 212.707031 C 418.109375 199.328125 429.300781 181.597656 434.527344 173.359375 C 439.707031 165.070312 444.703125 157.203125 445.535156 155.859375 C 446.414062 154.515625 447.246094 153.359375 447.476562 153.21875 C 447.664062 153.128906 449.742188 152.851562 452.101562 152.664062 C 454.460938 152.433594 456.359375 152.109375 456.359375 151.925781 C 456.359375 151.738281 455.617188 150.074219 454.738281 148.222656 C 453.859375 146.371094 453.121094 144.609375 453.121094 144.285156 C 453.121094 143.960938 452.84375 143.546875 452.472656 143.359375 C 452.148438 143.175781 451.5 142.296875 451.132812 141.414062 C 450.714844 140.488281 449.835938 138.960938 449.234375 137.945312 C 448.585938 136.925781 447.847656 135.628906 447.570312 135.027344 C 447.339844 134.472656 447.109375 133.777344 447.109375 133.546875 C 447.109375 133.269531 446.828125 132.898438 446.460938 132.710938 C 446.136719 132.527344 445.304688 131.324219 444.65625 130.074219 C 444.007812 128.777344 443.128906 127.433594 442.714844 127.066406 C 442.296875 126.648438 441.972656 126.183594 442.019531 126 C 442.019531 125.816406 441.742188 125.351562 441.464844 125.027344 C 440.957031 124.472656 439.660156 124.609375 432.769531 126.140625 C 428.328125 127.15625 419.773438 129.195312 413.808594 130.675781 C 407.839844 132.203125 399.191406 134.519531 394.613281 135.8125 C 390.035156 137.109375 383.464844 139.007812 380.042969 140.074219 C 376.621094 141.089844 369.128906 143.453125 363.394531 145.351562 L 352.988281 148.730469 C 327.550781 150.953125 319.734375 151.554688 319.222656 151.554688 C 318.714844 151.554688 320.890625 150.257812 324.078125 148.730469 C 327.269531 147.203125 333.699219 144.285156 338.417969 142.25 C 343.136719 140.210938 347.898438 138.128906 349.054688 137.574219 C 350.210938 137.0625 355.113281 135.074219 359.925781 133.175781 C 364.78125 131.277344 370.886719 128.917969 373.570312 127.898438 C 376.25 126.878906 381.664062 124.890625 385.59375 123.5 C 389.523438 122.109375 397.988281 119.242188 404.324219 117.113281 C 410.707031 114.980469 418.894531 112.390625 422.59375 111.324219 C 426.292969 110.261719 429.484375 109.242188 429.671875 109.054688 C 429.902344 108.917969 429.160156 107.714844 428.050781 106.417969 C 426.988281 105.074219 425.230469 103.039062 424.214844 101.835938 C 423.195312 100.632812 421.34375 98.457031 420.050781 97.019531 C 418.800781 95.585938 415.148438 91.835938 411.957031 88.640625 C 408.765625 85.445312 404.835938 81.695312 403.167969 80.261719 C 401.503906 78.828125 399.609375 77.066406 398.914062 76.417969 C 398.175781 75.769531 397.527344 75.214844 397.386719 75.214844 C 397.25 75.214844 396.785156 74.753906 396.277344 74.152344 C 395.816406 73.59375 394.519531 72.484375 393.410156 71.742188 C 392.300781 70.957031 390.914062 69.890625 390.359375 69.289062 C 389.757812 68.734375 389.203125 68.273438 389.0625 68.273438 C 388.921875 68.273438 388.136719 67.714844 387.351562 67.113281 C 386.519531 66.464844 385.640625 65.773438 385.363281 65.539062 C 385.132812 65.355469 383.976562 64.523438 382.820312 63.6875 C 381.664062 62.902344 379.859375 61.605469 378.792969 60.863281 C 377.683594 60.078125 376.667969 59.476562 376.480469 59.476562 C 376.25 59.476562 375.605469 59.011719 374.957031 58.410156 C 374.308594 57.855469 373.335938 57.113281 372.875 56.789062 C 372.367188 56.464844 371.535156 56.003906 371.023438 55.679688 C 370.238281 55.261719 369.3125 55.773438 363.855469 59.847656 C 360.433594 62.4375 356.363281 65.492188 354.835938 66.652344 C 353.3125 67.855469 349.65625 70.726562 346.742188 73.039062 C 343.828125 75.355469 340.683594 77.855469 339.757812 78.640625 C 338.835938 79.429688 337.722656 80.355469 337.214844 80.769531 C 336.753906 81.140625 334.488281 82.992188 332.175781 84.890625 C 329.90625 86.789062 325.003906 90.957031 321.304688 94.148438 C 317.605469 97.296875 312.515625 101.789062 309.972656 104.101562 C 307.476562 106.417969 303.730469 109.84375 301.648438 111.742188 C 299.613281 113.640625 290.964844 122.203125 282.40625 130.722656 C 273.898438 139.285156 265.109375 148.222656 262.9375 150.675781 C 260.761719 153.082031 258.589844 155.535156 258.078125 156.089844 C 257.386719 156.96875 256.554688 157.15625 252.390625 157.527344 C 249.707031 157.757812 247.488281 157.894531 247.441406 157.804688 C 247.351562 157.664062 247.996094 156.738281 248.785156 155.628906 C 249.617188 154.5625 252.808594 150.535156 255.859375 146.738281 C 258.914062 142.898438 261.734375 139.378906 262.148438 138.871094 C 262.566406 138.359375 264.785156 135.722656 267.007812 133.082031 C 269.226562 130.398438 273.25 125.722656 275.933594 122.667969 C 278.617188 119.613281 282.917969 114.796875 285.460938 112.019531 C 288.003906 109.195312 291.519531 105.351562 293.324219 103.453125 C 295.082031 101.558594 301.789062 94.796875 308.125 88.410156 C 314.507812 82.019531 322.601562 74.058594 326.160156 70.726562 C 329.722656 67.4375 334.808594 62.761719 337.492188 60.355469 C 340.175781 57.949219 344.894531 53.734375 348.039062 51.003906 L 353.679688 46.050781 C 351.367188 44.617188 350.582031 44.199219 350.441406 44.199219 C 350.304688 44.199219 347.761719 43.042969 344.753906 41.652344 C 341.792969 40.21875 339.066406 39.105469 338.789062 39.105469 C 338.464844 39.105469 337.679688 38.734375 337.03125 38.320312 C 336.382812 37.855469 334.71875 37.164062 333.332031 36.746094 C 331.941406 36.28125 329.351562 35.355469 327.550781 34.707031 C 325.792969 34.015625 323.570312 33.226562 322.691406 32.996094 C 321.8125 32.71875 320.472656 32.253906 319.6875 31.929688 C 318.945312 31.605469 316.957031 31.003906 315.292969 30.542969 C 313.628906 30.125 311.269531 29.476562 309.972656 29.152344 C 308.726562 28.78125 306.414062 28.136719 304.886719 27.71875 C 303.359375 27.300781 301.601562 26.839844 300.953125 26.746094 C 300.308594 26.652344 299.058594 26.375 298.179688 26.097656 C 297.300781 25.867188 295.960938 25.679688 295.171875 25.679688 C 294.433594 25.679688 293.230469 25.355469 292.535156 24.988281 C 291.796875 24.570312 290.78125 24.386719 290.222656 24.570312 C 289.625 24.710938 288.746094 24.617188 288.234375 24.386719 C 287.726562 24.109375 285.96875 23.738281 284.304688 23.597656 C 282.640625 23.414062 280.371094 23.179688 279.214844 23.089844 L 277.136719 22.902344 C 274.128906 28.089844 271.167969 33.550781 268.578125 38.414062 C 265.988281 43.226562 260.902344 53.273438 257.203125 60.726562 C 253.546875 68.179688 250.542969 74.382812 250.542969 74.519531 C 250.542969 74.613281 249.800781 76.234375 248.875 78.085938 C 247.996094 79.9375 245.5 85.398438 243.371094 90.261719 C 241.246094 95.074219 238.5625 101.417969 237.359375 104.378906 C 236.15625 107.296875 233.9375 112.804688 232.410156 116.648438 C 230.882812 120.445312 228.292969 127.203125 226.628906 131.695312 C 225.011719 136.136719 222.097656 144.378906 220.199219 149.980469 C 218.304688 155.582031 216.59375 160.257812 216.40625 160.441406 C 216.222656 160.582031 214.464844 160.859375 212.523438 160.996094 C 210.535156 161.183594 208.914062 161.183594 208.914062 161.089844 C 208.914062 160.953125 209.65625 157.988281 210.535156 154.46875 C 211.460938 151 213.214844 144.238281 214.511719 139.5625 C 215.808594 134.84375 217.332031 129.425781 217.933594 127.527344 C 218.535156 125.582031 219.875 121.230469 220.941406 117.804688 C 222.003906 114.332031 224.222656 107.484375 225.890625 102.527344 C 227.554688 97.53125 230.882812 88.269531 233.242188 81.929688 C 235.601562 75.539062 238.46875 67.949219 239.671875 65.03125 C 240.828125 62.066406 241.984375 59.289062 242.214844 58.78125 C 242.445312 58.273438 244.113281 54.289062 245.960938 49.984375 C 247.765625 45.632812 250.171875 40.125 251.234375 37.71875 C 252.34375 35.265625 254.011719 31.652344 254.933594 29.617188 C 255.90625 27.578125 257.0625 24.941406 257.523438 23.828125 C 258.035156 22.671875 258.3125 21.609375 258.125 21.515625 C 257.988281 21.375 254.519531 21.238281 250.402344 21.238281 C 246.285156 21.191406 242.585938 21.238281 242.214844 21.328125 Z M 435.730469 194.746094 C 423.058594 214.882812 412.328125 231.828125 411.957031 232.429688 C 411.355469 233.355469 411.355469 233.539062 412.003906 234.328125 C 412.417969 234.789062 425.925781 250.578125 442.019531 269.417969 C 458.113281 288.257812 471.433594 303.859375 471.667969 304.136719 C 471.851562 304.371094 472.359375 302.933594 472.824219 300.898438 C 473.285156 298.859375 473.703125 296.871094 473.703125 296.5 C 473.746094 296.082031 473.886719 295.574219 474.070312 295.34375 C 474.210938 295.066406 474.582031 293.445312 474.859375 291.730469 C 475.089844 290.019531 475.503906 287.332031 475.78125 285.714844 C 476.015625 284.140625 476.246094 282.101562 476.292969 281.222656 C 476.382812 280.296875 476.570312 279.371094 476.753906 279.140625 C 476.9375 278.863281 477.171875 277.011719 477.308594 274.972656 C 477.449219 272.9375 477.679688 269.878906 477.863281 268.261719 C 478.050781 266.59375 478.1875 263.351562 478.1875 261.085938 C 478.1875 258.769531 478.417969 256.6875 478.605469 256.457031 C 478.835938 256.179688 478.882812 253.910156 478.652344 251.132812 C 478.417969 248.445312 478.234375 245.4375 478.234375 244.417969 C 478.234375 243.402344 478.09375 239.09375 477.910156 234.929688 C 477.726562 230.714844 477.402344 227.058594 477.214844 226.828125 C 476.984375 226.550781 476.660156 224.28125 476.523438 221.734375 C 476.339844 219.1875 476.015625 216.367188 475.78125 215.484375 C 475.550781 214.558594 475.136719 211.644531 474.859375 209.003906 C 474.625 206.320312 474.210938 203.914062 473.980469 203.679688 C 473.792969 203.402344 473.46875 202.476562 473.285156 201.597656 C 473.101562 200.671875 472.824219 199.144531 472.683594 198.125 C 472.546875 197.105469 472.269531 196.042969 472.082031 195.8125 C 471.898438 195.53125 471.574219 194.191406 471.390625 192.800781 C 471.203125 191.367188 470.835938 190.070312 470.511719 189.886719 C 470.234375 189.699219 469.863281 188.683594 469.679688 187.570312 C 469.492188 186.503906 469.214844 184.976562 469.078125 184.238281 C 468.890625 183.449219 468.382812 182.015625 467.964844 180.996094 C 467.503906 179.976562 466.996094 178.496094 466.808594 177.757812 C 466.625 176.96875 465.746094 174.285156 464.867188 171.738281 C 463.988281 169.191406 462.601562 165.8125 461.863281 164.191406 C 461.121094 162.617188 460.425781 160.859375 460.289062 160.257812 C 460.195312 159.703125 459.78125 158.960938 459.457031 158.683594 C 458.949219 158.21875 454.601562 164.839844 435.730469 194.746094 Z M 24.652344 211.550781 C 24.464844 212.570312 24.1875 214.511719 24.050781 215.949219 C 23.957031 217.335938 23.632812 218.726562 23.402344 219.050781 C 23.171875 219.375 23.078125 219.792969 23.171875 219.976562 C 23.308594 220.160156 23.21875 221.179688 22.988281 222.199219 C 22.800781 223.214844 22.476562 226.410156 22.292969 229.375 C 22.109375 232.289062 21.96875 235.578125 22.015625 236.640625 C 22.0625 237.753906 21.875 238.726562 21.597656 238.863281 C 21.320312 239.003906 21.230469 241.410156 21.414062 245.4375 C 21.460938 247.519531 21.597656 250.207031 21.597656 250.621094 C 21.554688 251.085938 21.597656 251.828125 21.597656 251.964844 C 21.597656 252.148438 21.644531 253.121094 21.597656 254.140625 C 21.554688 255.253906 21.367188 257.84375 21.644531 260.621094 C 21.875 263.167969 22.152344 266.5 22.246094 268.027344 C 22.339844 269.558594 22.664062 273.585938 22.988281 277.054688 C 23.265625 280.480469 23.679688 283.722656 23.910156 284.230469 C 24.144531 284.742188 24.421875 285.851562 24.605469 286.777344 C 24.746094 287.65625 25.113281 289.925781 25.34375 291.871094 C 25.578125 293.769531 25.902344 296.40625 26.132812 297.75 C 26.316406 299.046875 26.734375 300.386719 27.058594 300.757812 C 27.378906 301.082031 27.613281 302.007812 27.613281 302.84375 C 27.613281 303.675781 27.84375 304.460938 28.074219 304.601562 C 28.351562 304.695312 28.675781 305.988281 28.90625 307.425781 C 29.09375 308.859375 29.371094 310.109375 29.601562 310.203125 C 29.785156 310.296875 30.0625 311.453125 30.203125 312.796875 C 30.386719 314.136719 30.664062 315.433594 30.847656 315.710938 C 31.035156 315.941406 31.359375 316.867188 31.542969 317.792969 C 31.726562 318.675781 32.144531 319.691406 32.46875 320.109375 C 32.792969 320.480469 33.300781 321.730469 33.53125 322.886719 C 33.808594 324 34.363281 325.988281 34.78125 327.285156 C 35.195312 328.535156 35.84375 330.203125 36.214844 330.988281 C 36.585938 331.730469 37 333.027344 37.230469 333.859375 C 37.417969 334.691406 37.785156 335.480469 38.019531 335.570312 C 38.296875 335.664062 48.609375 334.878906 61.003906 333.8125 C 73.355469 332.746094 83.621094 331.777344 83.761719 331.683594 C 83.945312 331.542969 82.929688 318.117188 81.492188 301.824219 C 80.105469 285.527344 78.949219 272.011719 78.949219 271.824219 C 78.949219 271.640625 77.425781 271.59375 75.621094 271.734375 C 73.769531 271.871094 66.230469 272.472656 58.832031 273.167969 C 51.476562 273.816406 44.402344 274.277344 43.105469 274.1875 C 41.855469 274.046875 39.777344 273.492188 38.480469 272.890625 C 37.230469 272.242188 35.195312 270.808594 34.039062 269.648438 C 32.882812 268.492188 31.496094 266.59375 30.988281 265.484375 C 30.480469 264.324219 29.925781 262.566406 29.738281 261.546875 C 29.601562 260.53125 29.046875 254.882812 28.535156 249.046875 C 28.027344 243.167969 27.058594 232.335938 26.457031 224.976562 C 25.808594 217.570312 25.253906 211.132812 25.160156 210.625 C 25.113281 210.070312 24.882812 210.484375 24.652344 211.550781 Z M 24.652344 211.550781 "/>
<path style=" stroke:none;fill-rule:evenodd;fill:rgb(0.392157%,0.392157%,0.392157%);fill-opacity:1;" d="M 314.367188 164.65625 C 305.855469 165.441406 298.78125 166.136719 298.640625 166.277344 C 298.503906 166.367188 299.289062 176.597656 300.398438 189.003906 C 301.507812 201.414062 303.730469 226.828125 305.347656 245.578125 C 307.011719 264.28125 309.1875 289.601562 310.25 301.824219 C 311.316406 314.046875 312.285156 324.183594 312.472656 324.320312 C 312.609375 324.507812 320.378906 324 329.722656 323.164062 C 339.019531 322.378906 346.789062 321.589844 346.972656 321.5 C 347.113281 321.359375 346.28125 310.296875 345.125 296.960938 C 343.96875 283.582031 340.960938 248.679688 338.417969 219.421875 C 335.875 190.117188 333.699219 165.488281 333.5625 164.65625 C 333.332031 163.265625 333.238281 163.171875 331.617188 163.21875 C 330.648438 163.21875 322.878906 163.914062 314.367188 164.65625 Z M 274.824219 168.128906 C 267.976562 168.773438 246.515625 170.671875 227.183594 172.339844 L 192.035156 175.441406 C 192.171875 181.183594 192.359375 183.914062 192.496094 185.257812 L 192.726562 187.710938 C 196.148438 187.664062 208.359375 186.644531 222.097656 185.441406 C 235.832031 184.191406 247.210938 183.3125 247.351562 183.496094 C 247.535156 183.636719 246.378906 188.359375 244.757812 193.960938 C 243.140625 199.5625 239.347656 213.078125 236.296875 224.050781 C 233.242188 234.976562 228.109375 253.308594 224.871094 264.789062 C 221.679688 276.222656 216.363281 295.066406 213.078125 306.683594 C 209.839844 318.257812 206.789062 329.042969 206.324219 330.617188 C 205.816406 332.191406 205.539062 333.628906 205.679688 333.71875 C 205.816406 333.859375 214.328125 333.257812 224.640625 332.332031 C 234.953125 331.453125 250.261719 330.109375 258.636719 329.367188 C 267.050781 328.628906 280.234375 327.46875 288.003906 326.777344 C 295.773438 326.128906 302.25 325.433594 302.386719 325.25 C 302.527344 325.109375 302.433594 322.332031 302.15625 319.089844 C 301.878906 315.851562 301.554688 313.121094 301.417969 312.980469 C 301.277344 312.839844 294.339844 313.304688 285.921875 314.046875 C 277.550781 314.785156 265.433594 315.898438 259.003906 316.5 C 252.621094 317.054688 247.257812 317.425781 247.074219 317.332031 C 246.933594 317.191406 249.292969 308.027344 252.390625 296.960938 C 255.488281 285.851562 258.957031 273.492188 260.113281 269.417969 C 261.226562 265.34375 264.878906 252.429688 268.207031 240.714844 C 271.492188 229.003906 275.007812 216.503906 275.980469 212.941406 C 276.949219 209.375 279.632812 199.652344 281.992188 191.414062 C 284.351562 183.125 286.894531 174.332031 287.679688 171.832031 C 288.46875 169.332031 288.882812 167.246094 288.652344 167.109375 C 288.421875 166.96875 288.050781 166.878906 287.773438 166.921875 C 287.542969 166.921875 281.714844 167.480469 274.824219 168.128906 Z M 154.109375 178.726562 C 136.070312 180.347656 121.175781 181.785156 121.039062 181.921875 C 120.898438 182.0625 121.269531 187.664062 121.871094 194.328125 C 122.472656 200.996094 123.628906 214.605469 124.554688 224.605469 C 125.433594 234.605469 126.867188 250.945312 127.746094 260.945312 C 128.578125 270.945312 130.519531 292.75 131.953125 309.460938 C 133.386719 326.128906 134.683594 339.878906 134.773438 340.015625 C 134.914062 340.109375 147.632812 339.136719 163.035156 337.746094 C 178.480469 336.40625 193.558594 335.0625 196.566406 334.738281 L 201.976562 334.230469 C 201.976562 331.359375 201.746094 328.535156 201.515625 326.128906 C 201.238281 323.675781 200.960938 321.683594 200.914062 321.636719 C 200.867188 321.589844 193.652344 322.144531 184.863281 322.886719 C 176.078125 323.675781 168.863281 324.230469 168.769531 324.136719 C 168.722656 324.089844 168.351562 320.574219 167.984375 316.40625 C 167.613281 312.191406 166.550781 300.527344 165.671875 290.480469 C 164.792969 280.390625 163.914062 270.390625 163.726562 268.167969 L 163.359375 264.140625 C 165.855469 263.722656 173.070312 263.074219 180.933594 262.425781 C 188.84375 261.734375 195.316406 261.175781 195.410156 261.132812 C 195.503906 261.085938 195.410156 258.585938 195.269531 255.53125 C 195.085938 252.472656 194.855469 249.695312 194.671875 249.328125 C 194.390625 248.816406 192.265625 248.910156 182.550781 249.742188 C 176.078125 250.253906 169 250.902344 166.828125 251.085938 C 164.652344 251.269531 162.757812 251.316406 162.570312 251.179688 C 162.386719 250.992188 161.183594 238.910156 159.890625 224.28125 C 158.59375 209.605469 157.390625 196.136719 157.207031 194.28125 L 156.882812 190.902344 C 159.058594 190.902344 166.273438 190.347656 174.320312 189.652344 C 182.367188 188.960938 189.074219 188.265625 189.167969 188.171875 C 189.304688 188.035156 189.167969 185.210938 188.890625 181.921875 C 188.472656 177.199219 188.195312 175.90625 187.640625 175.8125 C 187.269531 175.765625 172.191406 177.0625 154.109375 178.726562 Z M 154.109375 178.726562 "/>
</g>
</svg>
