<?xml version="1.0" encoding="UTF-8" standalone="no"?>
<!-- Created with Inkscape (http://www.inkscape.org/) -->

<svg
   width="239.05319"
   height="68.537445"
   viewBox="0 0 63.24949 18.133866"
   version="1.1"
   id="svg1"
   sodipodi:docname="PartyLogo_RPNR.svg"
   inkscape:version="1.4.2 (f4327f4, 2025-05-13)"
   xmlns:inkscape="http://www.inkscape.org/namespaces/inkscape"
   xmlns:sodipodi="http://sodipodi.sourceforge.net/DTD/sodipodi-0.dtd"
   xmlns:xlink="http://www.w3.org/1999/xlink"
   xmlns="http://www.w3.org/2000/svg"
   xmlns:svg="http://www.w3.org/2000/svg">
  <sodipodi:namedview
     id="namedview1"
     pagecolor="#505050"
     bordercolor="#00bf38"
     borderopacity="1"
     inkscape:showpageshadow="0"
     inkscape:pageopacity="0"
     inkscape:pagecheckerboard="1"
     inkscape:deskcolor="#505050"
     inkscape:document-units="mm"
     inkscape:zoom="4"
     inkscape:cx="127.125"
     inkscape:cy="1.125"
     inkscape:window-width="1920"
     inkscape:window-height="1057"
     inkscape:window-x="-8"
     inkscape:window-y="-8"
     inkscape:window-maximized="1"
     inkscape:current-layer="layer1" />
  <defs
     id="defs1">
    <filter
       style="color-interpolation-filters:sRGB"
       inkscape:label="Blur"
       id="filter144"
       x="-0.062103368"
       y="-0.04874865"
       width="1.1242067"
       height="1.0974973">
      <feGaussianBlur
         stdDeviation="0.3 0.3"
         result="blur"
         id="feGaussianBlur144" />
    </filter>
    <filter
       style="color-interpolation-filters:sRGB"
       inkscape:label="Blur"
       id="filter143"
       x="-0.062222432"
       y="-0.04874862"
       width="1.1244448"
       height="1.0974972">
      <feGaussianBlur
         stdDeviation="0.3 0.3"
         result="blur"
         id="feGaussianBlur143" />
    </filter>
    <linearGradient
       inkscape:collect="always"
       xlink:href="#linearGradient42"
       id="linearGradient43"
       x1="141.47472"
       y1="-5.7070689"
       x2="149.80725"
       y2="-52.963249"
       gradientUnits="userSpaceOnUse"
       gradientTransform="matrix(0.58139716,0,0,0.58139716,189.89083,-13.256149)" />
    <linearGradient
       id="linearGradient42"
       inkscape:collect="always">
      <stop
         style="stop-color:#3e6da6;stop-opacity:1;"
         offset="0.45000002"
         id="stop42" />
      <stop
         style="stop-color:#6dbcff;stop-opacity:1;"
         offset="0.65714282"
         id="stop43" />
    </linearGradient>
  </defs>
  <g
     inkscape:label="Layer 1"
     inkscape:groupmode="layer"
     id="layer1"
     transform="translate(-64.821579,-131.33797)">
    <rect
       style="fill:#ffffff;fill-rule:evenodd;stroke-width:0.821688;stroke-linecap:square;stroke-linejoin:round"
       id="rect2"
       width="63.249489"
       height="18.133865"
       x="64.821579"
       y="131.33797" />
    <rect
       style="fill:#ffffff;fill-rule:evenodd;stroke-width:0.842258;stroke-linecap:square;stroke-linejoin:round"
       id="rect1"
       width="10.268896"
       height="12.590264"
       x="88.596657"
       y="132.18416" />
    <g
       id="g44"
       inkscape:label="FInalLogo"
       transform="matrix(1.826987,0,0,1.826987,-404.30162,193.98331)">
      <path
         id="text38"
         style="font-style:normal;font-variant:normal;font-weight:800;font-stretch:normal;font-size:17.6389px;line-height:16.5365px;font-family:Montserrat;-inkscape-font-specification:'Montserrat Ultra-Bold';text-align:start;writing-mode:lr-tb;direction:ltr;text-anchor:start;opacity:1;fill:url(#linearGradient43);fill-rule:evenodd;stroke-width:9.22967;stroke-linecap:square;stroke-linejoin:round;stroke-opacity:0;paint-order:fill markers stroke"
         d="m 260.61685,-34.288823 v 7.17854 h 2.03071 v -1.907227 h 1.10745 l 1.30243,1.907227 h 2.17402 l -1.54849,-2.256044 c 0.45122,-0.218777 0.79664,-0.519677 1.03593,-0.902538 0.24613,-0.389698 0.36895,-0.844124 0.36895,-1.363721 0,-0.540107 -0.12988,-1.008648 -0.38968,-1.405183 -0.2598,-0.403371 -0.62887,-0.711027 -1.10745,-0.922968 -0.47857,-0.218777 -1.0426,-0.328086 -1.69209,-0.328086 z m 10.36477,0.57385 c -0.2213,0 -0.39351,0.06122 -0.51616,0.183873 -0.12266,0.122652 -0.18388,0.289299 -0.18388,0.499941 v 0.188078 h -0.35993 v 0.315769 h 0.35993 v 1.803873 h 0.38397 v -1.803873 h 0.60779 v -0.315769 h -0.6159 v -0.184172 c 0,-0.247972 0.1147,-0.371951 0.344,-0.371951 0.10933,0 0.20796,0.03339 0.29594,0.100048 l 0.11597,-0.292033 c -0.0533,-0.03999 -0.11732,-0.07061 -0.19198,-0.09194 -0.0747,-0.02133 -0.15443,-0.03185 -0.23975,-0.03185 z m -2.09591,0.04387 -0.5438,0.52007 h 0.35993 l 0.6718,-0.52007 z m -0.24006,0.807897 c -0.20263,0 -0.38506,0.04669 -0.54771,0.140007 -0.15998,0.09066 -0.28674,0.218656 -0.38006,0.383969 -0.0906,0.165314 -0.1361,0.350515 -0.1361,0.555824 0,0.207975 0.0466,0.394716 0.14001,0.56003 0.096,0.165314 0.23078,0.294553 0.4041,0.387876 0.17331,0.09066 0.37181,0.136101 0.59578,0.136101 0.17598,0 0.33459,-0.02937 0.47591,-0.08803 0.14398,-0.05866 0.26424,-0.143992 0.36023,-0.255979 l -0.21212,-0.247867 c -0.15464,0.170646 -0.3587,0.255979 -0.612,0.255979 -0.20798,0 -0.38266,-0.05626 -0.52398,-0.168249 -0.13865,-0.114653 -0.21997,-0.265225 -0.24396,-0.45187 h 1.72005 c 0.005,-0.04799 0.008,-0.08664 0.008,-0.115972 0,-0.213308 -0.0452,-0.402528 -0.13581,-0.567842 -0.088,-0.165313 -0.21196,-0.293313 -0.37195,-0.383969 -0.15731,-0.09332 -0.33755,-0.140007 -0.5402,-0.140007 z m 3.86764,0 c -0.21064,0 -0.39987,0.04669 -0.56785,0.140007 -0.16797,0.09066 -0.29999,0.218656 -0.39598,0.383969 -0.0933,0.162648 -0.14001,0.347849 -0.14001,0.555824 0,0.207975 0.0467,0.394716 0.14001,0.56003 0.096,0.162648 0.22801,0.290647 0.39598,0.38397 0.16798,0.09332 0.35721,0.140007 0.56785,0.140007 0.21064,0 0.39862,-0.04669 0.56394,-0.140007 0.16798,-0.09332 0.29876,-0.221322 0.39207,-0.38397 0.096,-0.165314 0.14392,-0.352055 0.14392,-0.56003 0,-0.207975 -0.0479,-0.393176 -0.14392,-0.555824 -0.0933,-0.165313 -0.22409,-0.293313 -0.39207,-0.383969 -0.16532,-0.09332 -0.3533,-0.140007 -0.56394,-0.140007 z m 2.77161,0 c -0.18665,0 -0.34526,0.03185 -0.47591,0.09584 -0.13065,0.06399 -0.22928,0.157362 -0.29594,0.280014 v -0.355727 h -0.36804 v 2.119642 h 0.38396 v -1.055765 c 0,-0.229306 0.0587,-0.405531 0.17607,-0.528183 0.11998,-0.125318 0.28385,-0.187777 0.49183,-0.187777 0.0374,0 0.0667,0.0012 0.088,0.0039 z m 1.57192,0 c -0.15997,0 -0.30251,0.02937 -0.42782,0.08803 -0.12533,0.056 -0.22674,0.138547 -0.30406,0.247868 v -0.315769 h -0.36805 v 2.119642 h 0.38398 v -1.091818 c 0,-0.22664 0.0575,-0.400085 0.17216,-0.520071 0.11464,-0.122652 0.26924,-0.183873 0.46388,-0.183873 0.17597,0 0.31048,0.05194 0.40379,0.155932 0.096,0.103988 0.14392,0.258578 0.14392,0.463887 v 1.175943 h 0.38397 v -1.091818 c 0,-0.22664 0.0575,-0.400085 0.17215,-0.520071 0.11466,-0.122652 0.26925,-0.183873 0.4639,-0.183873 0.17597,0 0.31077,0.05194 0.40409,0.155932 0.096,0.103988 0.14392,0.258578 0.14392,0.463887 v 1.175943 h 0.38396 v -1.219808 c 0,-0.303964 -0.0788,-0.533371 -0.23615,-0.68802 -0.15464,-0.154648 -0.3652,-0.231943 -0.63183,-0.231943 -0.17865,0 -0.34004,0.03463 -0.48402,0.103954 -0.14132,0.06933 -0.252,0.165475 -0.33199,0.288127 -0.0693,-0.127986 -0.16796,-0.225374 -0.29595,-0.292033 -0.12798,-0.06666 -0.27453,-0.100048 -0.43985,-0.100048 z m 4.00764,0 c -0.20263,0 -0.38536,0.04669 -0.548,0.140007 -0.15999,0.09066 -0.28675,0.218656 -0.38007,0.383969 -0.0906,0.165314 -0.1358,0.350515 -0.1358,0.555824 0,0.207975 0.0464,0.394716 0.13971,0.56003 0.096,0.165314 0.23078,0.294553 0.4041,0.387876 0.17331,0.09066 0.37181,0.136101 0.59578,0.136101 0.17598,0 0.33489,-0.02937 0.47621,-0.08803 0.14398,-0.05866 0.26394,-0.143992 0.35993,-0.255979 l -0.21212,-0.247867 c -0.15465,0.170646 -0.3587,0.255979 -0.612,0.255979 -0.20798,0 -0.38236,-0.05626 -0.52368,-0.168249 -0.13865,-0.114653 -0.21996,-0.265225 -0.24396,-0.45187 h 1.71975 c 0.005,-0.04799 0.008,-0.08664 0.008,-0.115972 0,-0.213308 -0.0452,-0.402528 -0.1358,-0.567842 -0.088,-0.165313 -0.21197,-0.293313 -0.37194,-0.383969 -0.15733,-0.09332 -0.33727,-0.140007 -0.53992,-0.140007 z m 2.02832,0.07 c -0.0605,0 -0.1159,0.01187 -0.16615,0.03546 -0.0502,0.02256 -0.0919,0.05643 -0.12469,0.10155 v -0.129195 h -0.14151 v 1.113751 h 0.14782 v -0.421525 c 0.0339,0.04307 0.0747,0.07599 0.12289,0.09855 0.0492,0.02256 0.10318,0.03365 0.16164,0.03365 0.079,0 0.14955,-0.01741 0.21211,-0.05228 0.0626,-0.03486 0.11145,-0.08346 0.14632,-0.146017 0.0359,-0.06358 0.0538,-0.136383 0.0538,-0.218424 0,-0.08204 -0.0179,-0.154364 -0.0538,-0.21692 -0.0349,-0.06255 -0.0838,-0.11115 -0.14632,-0.146018 -0.0626,-0.03486 -0.13315,-0.05257 -0.21211,-0.05257 z m 0.96592,0 c -0.081,0 -0.15381,0.01819 -0.21841,0.05408 -0.0646,0.03486 -0.11541,0.08394 -0.15233,0.147518 -0.0359,0.06255 -0.0538,0.133926 -0.0538,0.213917 0,0.07999 0.0179,0.151837 0.0538,0.215419 0.0369,0.06255 0.0877,0.111626 0.15233,0.147519 0.0646,0.03589 0.1374,0.05378 0.21841,0.05378 0.081,0 0.15335,-0.01789 0.21693,-0.05378 0.0646,-0.0359 0.11493,-0.08496 0.15082,-0.147519 0.0369,-0.06358 0.0553,-0.135428 0.0553,-0.215419 0,-0.07999 -0.0184,-0.151361 -0.0553,-0.213917 -0.0359,-0.06358 -0.0862,-0.112651 -0.15082,-0.147518 -0.0636,-0.03589 -0.13591,-0.05408 -0.21693,-0.05408 z m 2.10762,0 c -0.0718,0 -0.13302,0.01235 -0.18326,0.03696 -0.0502,0.02461 -0.0882,0.06068 -0.11387,0.10786 v -0.137003 h -0.14151 v 0.815409 h 0.14782 v -0.406203 c 0,-0.08819 0.0225,-0.155927 0.0676,-0.2031 0.0462,-0.04819 0.10929,-0.07211 0.18927,-0.07211 0.0144,0 0.0257,4.77e-4 0.0339,0.0015 z m -1.4878,0.0078 v 0.469296 c 0,0.116909 0.0314,0.205388 0.0941,0.265894 0.0626,0.05948 0.14817,0.08923 0.25687,0.08923 0.0574,0 0.11014,-0.01109 0.15834,-0.03365 0.0492,-0.02359 0.0886,-0.0565 0.11838,-0.09855 v 0.123183 h 0.14 v -0.815409 h -0.14752 v 0.421525 c 0,0.08614 -0.0225,0.152922 -0.0676,0.200096 -0.0451,0.04717 -0.10684,0.07061 -0.18478,0.07061 -0.0707,0 -0.12519,-0.0201 -0.16314,-0.06009 -0.0379,-0.04102 -0.0568,-0.101002 -0.0568,-0.179967 v -0.45217 z m -21.83096,0.09644 h 1.12788 c 0.41705,0 0.73175,0.09242 0.9437,0.27701 0.21194,0.184594 0.31787,0.444352 0.31787,0.779355 0,0.335004 -0.10593,0.594762 -0.31787,0.779356 -0.21195,0.177757 -0.52665,0.266495 -0.9437,0.266495 h -1.12788 z m 20.2329,0.02524 c 0.0523,0 0.099,0.01157 0.14,0.03515 0.042,0.02359 0.0747,0.05745 0.0983,0.101551 0.0246,0.04307 0.037,0.09292 0.037,0.14932 0,0.0564 -0.0123,0.106727 -0.037,0.150824 -0.0236,0.04307 -0.0562,0.07694 -0.0983,0.101551 -0.0411,0.02359 -0.0877,0.03515 -0.14,0.03515 -0.0513,0 -0.098,-0.01157 -0.14001,-0.03515 -0.042,-0.02461 -0.075,-0.05848 -0.0985,-0.101551 -0.0236,-0.0441 -0.0354,-0.09442 -0.0354,-0.150824 0,-0.0564 0.0119,-0.106249 0.0354,-0.14932 0.0246,-0.04307 0.0575,-0.07646 0.0985,-0.100049 0.042,-0.02461 0.0887,-0.03665 0.14001,-0.03665 z m 0.97824,0 c 0.0523,0 0.099,0.01157 0.14001,0.03515 0.042,0.02359 0.075,0.05745 0.0985,0.101551 0.0236,0.04307 0.0351,0.09292 0.0351,0.14932 0,0.0564 -0.0116,0.106727 -0.0351,0.150824 -0.0236,0.04307 -0.0565,0.07694 -0.0985,0.101551 -0.0411,0.02359 -0.0877,0.03515 -0.14001,0.03515 -0.0523,0 -0.0995,-0.01157 -0.1415,-0.03515 -0.0411,-0.02461 -0.0739,-0.05848 -0.0985,-0.101551 -0.0236,-0.0441 -0.0351,-0.09442 -0.0351,-0.150824 0,-0.0564 0.0116,-0.106249 0.0351,-0.14932 0.0246,-0.0441 0.0575,-0.07796 0.0985,-0.101551 0.042,-0.02359 0.0892,-0.03515 0.1415,-0.03515 z m -15.21305,0.124384 c 0.18398,0 0.33734,0.0575 0.45999,0.172155 0.12532,0.111987 0.19859,0.257301 0.21992,0.435946 h -1.35981 c 0.0214,-0.181312 0.0934,-0.328165 0.21602,-0.440153 0.12532,-0.111986 0.27991,-0.167948 0.46388,-0.167948 z m 12.21881,0 c 0.18399,0 0.33703,0.0575 0.45969,0.172155 0.12532,0.111987 0.1989,0.257301 0.22023,0.435946 h -1.35982 c 0.0214,-0.181312 0.0931,-0.328165 0.21572,-0.440153 0.12532,-0.111986 0.28021,-0.167948 0.46418,-0.167948 z m -8.35117,0.01202 c 0.13597,0 0.25719,0.03061 0.36384,0.09194 0.10932,0.06133 0.19465,0.149438 0.25598,0.264091 0.0613,0.111987 0.0922,0.241225 0.0922,0.387875 0,0.146649 -0.0309,0.277428 -0.0922,0.392081 -0.0613,0.111987 -0.14666,0.199799 -0.25598,0.263792 -0.10665,0.06132 -0.22787,0.09224 -0.36384,0.09224 -0.13598,0 -0.25873,-0.03091 -0.36805,-0.09224 -0.10665,-0.06399 -0.19198,-0.151805 -0.25598,-0.263792 -0.0613,-0.114653 -0.0919,-0.245432 -0.0919,-0.392081 0,-0.14665 0.0306,-0.275888 0.0919,-0.387875 0.064,-0.114653 0.14933,-0.202765 0.25598,-0.264091 0.10932,-0.06133 0.23207,-0.09194 0.36805,-0.09194 z m 11.99768,0.825022 v 0.178165 h -0.1385 v 0.121679 h 0.1385 v 0.447664 c 0,0.08204 0.0225,0.145183 0.0676,0.189281 0.0452,0.0441 0.10875,0.0661 0.1908,0.0661 0.0339,0 0.0667,-0.0046 0.0985,-0.01382 0.0318,-0.01026 0.0584,-0.0248 0.0799,-0.04326 l -0.0463,-0.106058 c -0.0318,0.02564 -0.0702,0.03846 -0.11537,0.03846 -0.041,0 -0.0727,-0.01187 -0.0952,-0.03546 -0.0215,-0.02359 -0.0322,-0.05745 -0.0322,-0.101551 v -0.441354 h 0.23374 v -0.12168 h -0.23374 v -0.178164 z m -1.61519,0.170653 c -0.0646,0 -0.12269,0.01139 -0.17396,0.03395 -0.0502,0.02256 -0.0901,0.0547 -0.11988,0.09674 v -0.123182 h -0.14151 v 0.815408 h 0.14782 v -0.420022 c 0,-0.08717 0.023,-0.153648 0.0691,-0.199796 0.0461,-0.04717 0.10929,-0.07091 0.18929,-0.07091 0.0708,0 0.12489,0.0201 0.16283,0.06009 0.0379,0.03999 0.0571,0.0995 0.0571,0.178465 v 0.45217 h 0.14751 v -0.469295 c 0,-0.115884 -0.0307,-0.20341 -0.0922,-0.262889 -0.0605,-0.0605 -0.14249,-0.09074 -0.24607,-0.09074 z m 0.96593,0 c -0.081,0 -0.15381,0.01788 -0.21842,0.05378 -0.0646,0.03486 -0.11542,0.08424 -0.15233,0.147819 -0.0359,0.06255 -0.0538,0.133626 -0.0538,0.213617 0,0.07999 0.0179,0.151836 0.0538,0.215419 0.0369,0.06255 0.0877,0.111925 0.15233,0.147819 0.0646,0.03589 0.1374,0.05378 0.21842,0.05378 0.081,0 0.15334,-0.01788 0.21692,-0.05378 0.0646,-0.0359 0.11493,-0.08526 0.15083,-0.147819 0.0369,-0.06358 0.0553,-0.135429 0.0553,-0.215419 0,-0.07999 -0.0184,-0.151061 -0.0553,-0.213617 -0.0359,-0.06358 -0.0862,-0.112952 -0.15083,-0.147819 -0.0636,-0.0359 -0.1359,-0.05378 -0.21692,-0.05378 z m 1.70292,0 c -0.0718,0 -0.13272,0.01234 -0.18297,0.03696 -0.0502,0.02461 -0.0882,0.06038 -0.11387,0.107559 v -0.137003 h -0.14151 v 0.815409 h 0.14782 v -0.406202 c 0,-0.08819 0.0225,-0.155627 0.0676,-0.202801 0.0462,-0.04819 0.10929,-0.07241 0.18928,-0.07241 0.0144,0 0.0254,4.77e-4 0.0336,0.0015 z m 0.50775,0 c -0.0779,0 -0.14835,0.01788 -0.21091,0.05378 -0.0615,0.03486 -0.11012,0.08424 -0.14601,0.147819 -0.0349,0.06358 -0.0523,0.134652 -0.0523,0.213617 0,0.07999 0.0179,0.151836 0.0538,0.215419 0.0369,0.06358 0.0887,0.113428 0.15534,0.149321 0.0667,0.03487 0.14309,0.05228 0.22924,0.05228 0.0677,0 0.12861,-0.01139 0.18297,-0.03395 0.0554,-0.02256 0.10158,-0.05548 0.1385,-0.09855 l -0.0814,-0.09524 c -0.0595,0.06563 -0.13813,0.09855 -0.23555,0.09855 -0.08,0 -0.14695,-0.02153 -0.2013,-0.0646 -0.0533,-0.0441 -0.0848,-0.102171 -0.094,-0.173958 h 0.66158 c 0.002,-0.01846 0.003,-0.03319 0.003,-0.04447 0,-0.08204 -0.0174,-0.154842 -0.0523,-0.218424 -0.0339,-0.06358 -0.0815,-0.112951 -0.14302,-0.147819 -0.0605,-0.03589 -0.12966,-0.05378 -0.20761,-0.05378 z m 0,0.124685 c 0.0708,0 0.1298,0.022 0.17697,0.0661 0.0482,0.04307 0.0762,0.09894 0.0844,0.167648 h -0.52307 c 0.008,-0.06973 0.0361,-0.126079 0.0832,-0.169151 0.0482,-0.04307 0.10771,-0.0646 0.17846,-0.0646 z m -2.21067,0.0045 c 0.0523,0 0.099,0.01187 0.14,0.03546 0.042,0.02359 0.075,0.05745 0.0985,0.101551 0.0236,0.04307 0.0354,0.09262 0.0354,0.14902 0,0.0564 -0.0119,0.106726 -0.0354,0.150824 -0.0236,0.04307 -0.0565,0.07694 -0.0985,0.10155 -0.041,0.02359 -0.0877,0.03546 -0.14,0.03546 -0.0523,0 -0.0995,-0.01187 -0.14151,-0.03546 -0.041,-0.02461 -0.0736,-0.05848 -0.0983,-0.10155 -0.0236,-0.0441 -0.0354,-0.09442 -0.0354,-0.150824 0,-0.0564 0.0119,-0.105949 0.0354,-0.14902 0.0246,-0.0441 0.0572,-0.07796 0.0983,-0.101551 0.042,-0.02359 0.0892,-0.03546 0.14151,-0.03546 z m -3.85321,1.144696 c -0.11465,0 -0.20802,0.03339 -0.28002,0.100049 -0.072,0.06666 -0.10786,0.149212 -0.10786,0.247867 0,0.09866 0.0359,0.181209 0.10786,0.247868 0.072,0.06666 0.16537,0.100048 0.28002,0.100048 0.11465,0 0.20802,-0.03339 0.28002,-0.100048 0.072,-0.06933 0.10785,-0.155898 0.10785,-0.259886 0,-0.09599 -0.0359,-0.176063 -0.10785,-0.240055 -0.072,-0.06399 -0.16537,-0.09584 -0.28002,-0.09584 z m -11.15464,0.143914 -0.54019,0.575954 h 0.48821 l 0.72378,-0.575954 z m 6.879,0.03605 v 2.967499 h 0.59609 v -0.247868 c 0.15464,0.186644 0.37973,0.280015 0.67569,0.280015 0.19998,0 0.38147,-0.04545 0.54412,-0.136102 0.1653,-0.09332 0.29455,-0.222561 0.38787,-0.387875 0.0933,-0.16798 0.14,-0.362458 0.14,-0.583765 0,-0.221307 -0.0466,-0.414846 -0.14,-0.58016 -0.0933,-0.167981 -0.22257,-0.297219 -0.38787,-0.387875 -0.16265,-0.09332 -0.34414,-0.140008 -0.54412,-0.140008 -0.27462,0 -0.49044,0.08657 -0.64776,0.259886 v -1.043747 z m 2.75989,0 v 2.967499 h 0.62373 v -2.967499 z m -9.80292,0.783861 c -0.21598,0 -0.412,0.04792 -0.58798,0.143914 -0.17332,0.09332 -0.31059,0.22534 -0.41191,0.395987 -0.0986,0.16798 -0.14812,0.3575 -0.14812,0.568142 0,0.213308 0.0507,0.403768 0.15203,0.571747 0.10132,0.167981 0.24539,0.299999 0.43204,0.395987 0.18664,0.09332 0.40121,0.140008 0.64385,0.140008 0.38929,0 0.68517,-0.115943 0.88781,-0.347916 l -0.33199,-0.359933 c -0.0746,0.07199 -0.15597,0.125174 -0.24395,0.159836 -0.0853,0.03199 -0.18396,0.04807 -0.29595,0.04807 -0.16264,0 -0.29868,-0.03864 -0.408,-0.115971 -0.10932,-0.07732 -0.17858,-0.182751 -0.20791,-0.316069 h 1.62781 c 0.008,-0.103987 0.012,-0.15995 0.012,-0.167949 0,-0.223973 -0.0492,-0.419991 -0.14782,-0.587972 -0.096,-0.170646 -0.22956,-0.301123 -0.4002,-0.39178 -0.17064,-0.09065 -0.36111,-0.136102 -0.57174,-0.136102 z m 2.80765,0 c -0.29596,0 -0.52135,0.09337 -0.676,0.280016 v -0.247868 h -0.59578 v 2.92754 h 0.62372 v -1.003789 c 0.15732,0.173314 0.37342,0.259886 0.64806,0.259886 0.19998,0 0.38117,-0.04545 0.54381,-0.136102 0.16532,-0.09332 0.29485,-0.222561 0.38818,-0.387875 0.0933,-0.16798 0.1397,-0.362458 0.1397,-0.583765 0,-0.221307 -0.0464,-0.414846 -0.1397,-0.58016 -0.0933,-0.167981 -0.22286,-0.297219 -0.38818,-0.387875 -0.16264,-0.09332 -0.34383,-0.140008 -0.54381,-0.140008 z m 10.31879,0 c -0.20264,0 -0.3866,0.04545 -0.55191,0.136103 -0.16265,0.09065 -0.29065,0.219894 -0.38397,0.387874 -0.0933,0.16798 -0.14001,0.362759 -0.14001,0.584066 0,0.221307 0.0466,0.415785 0.14001,0.583765 0.0933,0.16798 0.22132,0.297219 0.38397,0.387875 0.16531,0.09066 0.34927,0.136102 0.55191,0.136102 0.27464,0 0.48921,-0.08657 0.64387,-0.259886 v 1.003789 h 0.62402 v -2.92754 h -0.59609 v 0.247868 c -0.15464,-0.186645 -0.3785,-0.280016 -0.6718,-0.280016 z m 5.57927,0 c -0.21597,0 -0.41199,0.04792 -0.58797,0.143914 -0.17331,0.09332 -0.31058,0.22534 -0.41191,0.395987 -0.0987,0.16798 -0.14782,0.3575 -0.14782,0.568142 0,0.213308 0.0504,0.403768 0.15172,0.571747 0.10133,0.167981 0.24541,0.299999 0.43205,0.395987 0.18664,0.09332 0.40122,0.140008 0.64385,0.140008 0.38929,0 0.68547,-0.115943 0.88812,-0.347916 l -0.33199,-0.359933 c -0.0747,0.07199 -0.15598,0.125174 -0.24396,0.159836 -0.0853,0.03199 -0.18396,0.04807 -0.29594,0.04807 -0.16265,0 -0.29868,-0.03864 -0.408,-0.115971 -0.10932,-0.07732 -0.17858,-0.182751 -0.20791,-0.316069 h 1.62781 c 0.008,-0.103987 0.0116,-0.15995 0.0116,-0.167949 0,-0.223973 -0.0491,-0.419991 -0.14781,-0.587972 -0.096,-0.170646 -0.22925,-0.301123 -0.39989,-0.39178 -0.17065,-0.09065 -0.36141,-0.136102 -0.57205,-0.136102 z m -14.42227,0.03215 v 1.215602 c 0,0.319962 0.0826,0.561425 0.24787,0.724073 0.16531,0.162648 0.38946,0.243961 0.6721,0.243961 0.13331,0 0.2573,-0.02411 0.37194,-0.07211 0.11465,-0.05066 0.21329,-0.122698 0.29594,-0.21602 v 0.25598 h 0.59188 v -2.151489 h -0.62403 v 1.063877 c 0,0.191977 -0.0451,0.337291 -0.1358,0.435946 -0.0906,0.09599 -0.21061,0.143913 -0.35993,0.143913 -0.29064,0 -0.43595,-0.173445 -0.43595,-0.520071 v -1.123665 z m 6.72307,0 v 2.151489 h 0.62402 v -2.151489 z m 3.95175,0 v 1.215602 c 0,0.319962 0.0825,0.561425 0.24787,0.724073 0.16532,0.162648 0.38946,0.243961 0.67209,0.243961 0.13333,0 0.25731,-0.02411 0.37196,-0.07211 0.11465,-0.05066 0.21328,-0.122698 0.29593,-0.21602 v 0.25598 h 0.59188 v -2.151489 h -0.62402 v 1.063877 c 0,0.191977 -0.0451,0.337291 -0.13581,0.435946 -0.0906,0.09599 -0.21091,0.143913 -0.36023,0.143913 -0.29063,0 -0.43595,-0.173445 -0.43595,-0.520071 v -1.123665 z m -14.95436,0.439852 c 0.13864,0 0.25613,0.04142 0.35212,0.124084 0.096,0.07999 0.15443,0.187896 0.17576,0.32388 h -1.05967 c 0.0214,-0.138651 0.0798,-0.248095 0.17576,-0.328086 0.096,-0.07999 0.21471,-0.119878 0.35603,-0.119878 z m 18.70572,0 c 0.13865,0 0.25614,0.04142 0.35213,0.124084 0.096,0.07999 0.15473,0.187896 0.17605,0.32388 h -1.05996 c 0.0214,-0.138651 0.0801,-0.248095 0.17605,-0.328086 0.096,-0.07999 0.21442,-0.119878 0.35573,-0.119878 z m -16.01013,0.03996 c 0.15999,0 0.29076,0.05472 0.39209,0.164043 0.10398,0.106654 0.15593,0.250729 0.15593,0.43204 0,0.181312 -0.0519,0.326626 -0.15593,0.435946 -0.10133,0.106655 -0.2321,0.159838 -0.39209,0.159838 -0.15998,0 -0.2917,-0.05318 -0.39568,-0.159838 -0.10133,-0.10932 -0.15203,-0.254634 -0.15203,-0.435946 0,-0.181311 0.0507,-0.325386 0.15203,-0.43204 0.10398,-0.10932 0.2357,-0.164043 0.39568,-0.164043 z m 5.50746,0 c 0.15999,0 0.29077,0.05472 0.39209,0.164043 0.10399,0.106654 0.15593,0.250729 0.15593,0.43204 0,0.181312 -0.0519,0.326626 -0.15593,0.435946 -0.10132,0.106655 -0.2321,0.159838 -0.39209,0.159838 -0.15998,0 -0.29199,-0.05318 -0.39598,-0.159838 -0.10132,-0.10932 -0.15202,-0.254634 -0.15202,-0.435946 0,-0.181311 0.0507,-0.325386 0.15202,-0.43204 0.10399,-0.10932 0.236,-0.164043 0.39598,-0.164043 z m 5.02735,0 c 0.15732,0 0.2881,0.05472 0.39209,0.164043 0.10399,0.106654 0.15593,0.250729 0.15593,0.43204 0,0.181312 -0.0519,0.326626 -0.15593,0.435946 -0.10399,0.106655 -0.23477,0.159838 -0.39209,0.159838 -0.15998,0 -0.29199,-0.05318 -0.39598,-0.159838 -0.10399,-0.10932 -0.15593,-0.254634 -0.15593,-0.435946 0,-0.181311 0.0519,-0.325386 0.15593,-0.43204 0.10399,-0.10932 0.236,-0.164043 0.39598,-0.164043 z" />
      <path
         style="display:inline;opacity:1;fill:#ff8c00;fill-opacity:1;fill-rule:evenodd;stroke-width:9.22967;stroke-linecap:square;stroke-linejoin:round;stroke-opacity:0;paint-order:fill markers stroke"
         id="path40"
         d="m 257.76457,-24.939751 c 0.0306,0.01422 0.0593,0.03329 0.0917,0.04269 0.008,0.0023 -0.0144,-0.012 -0.0135,-0.02 5.8e-4,-0.0054 0.0202,0.0011 0.016,-0.0024 -0.0367,-0.03086 -0.16427,-0.09412 -0.1176,-0.08301 0.12656,0.03012 0.33254,0.199081 0.11938,0.03414 0.017,0.0033 0.0417,0.02448 0.051,0.0099 0.009,-0.01422 -0.0466,-0.03134 -0.0319,-0.03949 0.0215,-0.01182 0.0471,0.01431 0.0714,0.01777 0.17724,0.02532 -0.0662,-0.01893 0.0759,-0.0096 0.026,0.0017 0.051,0.01024 0.0766,0.01538 0.1209,0.01207 0.0324,0.01847 0.0208,-0.04829 -10e-4,-0.01062 0.0203,-0.0085 0.0282,-0.0157 0.0757,-0.0686 -0.11081,-0.09161 0.12194,-0.0329 0.006,-0.084 -0.0122,0.0085 0.10135,-0.01491 0.0129,-0.0026 -0.0129,-0.03083 -0.003,-0.03958 0.0587,-0.05171 0.18033,0.101282 0.1236,-0.04739 0.0752,-0.04519 0.17023,0.101998 0.23075,0.05152 0.0362,-0.03017 -0.0913,-0.05316 -0.10047,-0.09937 -0.005,-0.02668 0.0555,0.01152 0.0815,0.0034 0.0123,-0.0039 0.0117,-0.02284 0.0174,-0.03426 0.0374,0.0066 0.0749,0.01317 0.1124,0.01975 0.10645,0.05953 0.095,-0.07724 0.1077,-0.07901 0.005,-6.39e-4 0.14528,0.05134 0.1775,0.0064 0.01,-0.01363 -10e-4,-0.03348 -0.003,-0.05022 0.0348,0.0039 0.0733,0.02817 0.10432,0.01189 0.0178,-0.0093 -0.0355,-0.05145 -0.0165,-0.058 0.0389,-0.01338 0.0804,0.02556 0.12129,0.0219 0.0139,-0.0012 0.01,-0.03419 0.0236,-0.03486 0.0446,-0.0021 0.0904,0.04575 0.13105,0.02738 0.024,-0.01083 -0.0238,-0.04697 -0.0357,-0.07046 0.21006,0.03789 0.0428,0.01285 0.22303,0.02843 0.0365,0.0031 0.0733,0.01856 0.10936,0.0121 0.0149,-0.0026 0.018,-0.02437 0.0271,-0.03655 -0.002,-0.01915 -0.0255,-0.05279 -0.007,-0.05748 0.0448,-0.01122 0.0908,0.01672 0.13614,0.02507 0.007,-0.01432 0.006,-0.0398 0.0214,-0.04297 0.0395,-0.008 0.0804,0.0067 0.12,0.01434 0.0558,0.01072 0.11085,0.0556 0.16566,0.04053 0.0269,-0.0074 -0.0456,-0.05251 -0.0325,-0.07715 0.0126,-0.02368 0.0529,-0.01452 0.0796,-0.01155 0.0567,0.0063 0.11111,0.026 0.16666,0.03901 0.0249,-0.0056 0.0734,0.0087 0.0749,-0.01687 0.002,-0.04087 -0.0879,-0.06676 -0.0678,-0.102442 0.0198,-0.03512 0.0804,0.0064 0.12062,0.0086 0.11112,0.0062 0.22042,0.0137 0.33151,0.0072 0.10981,-0.138699 0.29,-0.01653 0.4292,-0.06696 0.0192,-0.0069 0.0324,-0.02475 0.0486,-0.03714 0.25164,0.109761 0.15026,0.0051 0.3505,0.0091 0.0442,9.28e-4 0.089,0.02013 0.13236,0.01134 0.0194,-0.0039 0.0253,-0.03055 0.0379,-0.04582 0.0494,0.0069 0.0988,0.01366 0.14819,0.02049 0.22173,-0.05105 -0.11577,0.01438 0.25955,0.01865 0.0224,3.07e-4 0.0383,-0.02336 0.0574,-0.03504 0.0447,0.0038 0.0895,0.0062 0.13402,0.01126 0.0502,0.0057 0.10139,0.03469 0.1499,0.02085 0.0212,-0.0061 0.005,-0.04389 0.008,-0.06583 0.11454,-0.0012 0.22128,0.05685 0.33458,0.06173 0.0157,6.39e-4 0.1365,-0.04835 0.15204,-0.04976 0.29151,-0.02637 -0.003,0.04094 0.21102,-0.01443 0.0537,-0.003 0.17409,-0.01189 0.2259,-0.006 0.0585,0.0066 0.11476,0.03536 0.17365,0.03311 0.0224,-9.28e-4 0.0324,-0.03263 0.0529,-0.04173 0.12593,-0.05588 0.19955,0.01498 0.34032,0.05963 0.21942,0.157019 0.0605,-0.08535 0.10619,-0.08659 0.0855,-0.0024 0.1615,0.05846 0.24555,0.07422 0.0322,0.006 0.19472,-0.01753 0.2279,-0.01561 0.057,0.0033 0.11301,0.01696 0.16952,0.02544 0.15313,-0.01887 0.29656,0.04247 0.44972,0.03832 0.0357,-9.29e-4 0.0707,-0.01869 0.10627,-0.01522 0.24484,0.02388 0.17157,0.11847 0.24002,-0.01833 0.0377,-0.0049 0.0754,-0.01963 0.11312,-0.01466 0.0803,0.01058 0.15511,0.04887 0.23523,0.0606 0.042,0.0061 0.085,-0.01257 0.12724,-0.0075 0.0741,0.0088 0.14466,0.03744 0.2184,0.04872 0.0509,0.0078 0.10282,0.0054 0.15424,0.0082 0.065,0.01098 0.13007,0.02195 0.19511,0.03294 0.25809,-0.02307 -0.0214,-0.0098 0.33403,0.02952 0.35522,0.03926 -0.0785,-0.04589 0.28581,-0.0014 0.55651,0.068 -0.0693,0.02921 0.3726,0.05103 0.0217,0.0032 0.3426,0.05226 0.37161,0.04842 0.0275,-0.0036 0.0429,-0.03518 0.0642,-0.05276 0.0515,0.0012 0.10356,-0.004 0.15453,0.0035 0.15885,0.02337 0.31312,0.07122 0.46981,0.106229 0.1724,-0.08217 0.005,-0.02316 0.30127,4.61e-4 0.40706,0.0324 -0.25306,-0.107582 0.33657,0.02159 0.3116,0.06826 0.1674,0.100449 0.3546,0.03191 0.25106,0.07468 0.51207,0.09118 0.77195,0.102583 0.0512,0.0023 0.10298,-0.0069 0.15368,4.62e-4 0.0824,0.01191 0.16223,0.03796 0.24336,0.05695 0.0943,0.03166 0.18572,-0.0244 0.27851,-0.01775 0.0741,0.0053 0.14547,0.03138 0.21918,0.04095 0.0562,0.0073 0.11329,0.0034 0.16958,0.0095 0.54427,0.05943 -0.10168,0.01049 0.38068,0.04337 0.24175,0.04774 0.17282,0.05279 0.37542,0.03873 0.0456,-0.0032 0.0912,-0.01969 0.13641,-0.01331 0.0924,0.01301 0.17819,0.05918 0.27076,0.0707 0.0415,0.0051 0.0824,-0.01443 0.12354,-0.02165 0.0694,0.01037 0.1388,0.02073 0.20821,0.03109 0.0994,0.02907 0.19515,0.07637 0.29811,0.0872 0.0318,0.0033 0.0526,-0.039 0.0835,-0.04705 0.1038,-0.02703 0.24869,-0.003 0.3453,0.01778 0.32813,0.07033 0.18687,0.125607 0.35919,0.02668 0.60502,0.10664 -0.1156,-0.01272 0.3996,0.052 0.0726,0.0091 0.14347,0.03021 0.21633,0.03654 0.14998,0.01303 0.1618,-0.02703 0.316,-6.4e-4 0.0924,0.01581 0.18149,0.04721 0.27224,0.07081 0.18092,-0.03604 0.35872,0.03481 0.53769,0.03921 0.0429,0.0011 0.0846,-0.02297 0.12732,-0.01916 0.29767,0.06419 0.15922,0.04772 0.41375,0.06119 0.0882,-0.01123 0.19692,-0.03034 0.28559,-0.01764 0.0851,0.01219 0.16507,0.05759 0.25102,0.05921 0.0293,6.39e-4 0.0409,-0.05627 0.0701,-0.05315 0.73756,0.07902 0.0299,0.113503 0.44616,0.08326 0.0669,0.0093 0.13384,0.0185 0.20076,0.02775 0.0558,0.0024 0.11208,-1.43e-4 0.16749,0.0071 0.0767,0.01 0.15047,0.0449 0.22782,0.04421 0.0317,-3.07e-4 0.051,-0.04992 0.0825,-0.04699 0.37641,0.03487 0.19695,0.164224 0.353,0.02286 0.0351,-0.01126 0.0684,-0.03494 0.10526,-0.03378 0.0786,0.0025 0.15441,0.02978 0.23167,0.04442 0.061,0.01157 0.37087,0.07247 0.44143,0.07366 0.0418,7.86e-4 0.0812,-0.02109 0.12282,-0.02498 0.0532,-0.005 0.1069,-0.0011 0.16036,-0.0015 0.0928,0.02383 0.18269,0.0663 0.27834,0.0715 0.0314,0.0017 0.0474,-0.0496 0.0788,-0.05212 0.0495,-0.004 0.39493,0.06373 0.43475,0.06832 0.15507,0.01788 0.16131,0.0082 0.30084,-0.01438 0.10562,0.0249 0.21091,-0.0093 0.3162,-0.0045 0.0679,0.0031 0.13519,0.01434 0.20232,0.0248 0.0806,0.01257 0.31569,0.06981 0.41332,0.05402 0.0307,-0.005 0.0514,-0.03519 0.0772,-0.05279 0.59058,-0.02757 -0.53225,0.01069 0.41984,0.05803 0.0327,0.0016 0.0533,-0.04547 0.0859,-0.04745 0.0707,-0.0043 0.13978,0.02468 0.21045,0.02946 0.0518,0.0035 0.10378,-0.0054 0.1557,-0.0046 0.0602,7.86e-4 0.12017,0.0061 0.18026,0.0092 0.15994,-0.03974 0.32711,-0.01685 0.4895,-0.0069 0.065,0.004 0.13022,0.02115 0.19498,0.01401 0.403,-0.04445 -0.45123,-0.130803 0.33377,-0.01004 0.1456,-0.129463 -0.0145,-0.01582 0.25033,-0.06302 0.0351,-0.0063 0.0594,-0.05213 0.095,-0.04965 0.10499,0.0073 0.20121,0.06825 0.30602,0.07751 0.0398,0.0036 0.0745,-0.02913 0.11283,-0.04049 0.0426,-0.01263 0.0864,-0.02092 0.1296,-0.03138 0.15679,-0.02915 0.31419,-0.05595 0.47453,-0.04677 0.14572,0.0084 0.25526,0.04926 0.39822,0.01335 0.0365,-0.0092 0.066,-0.03624 0.099,-0.05435 0.2528,0.01695 0.15164,0.02489 0.36711,-0.0075 0.0501,-0.0075 0.10425,-0.0024 0.15019,-0.02387 0.0301,-0.01407 0.0318,-0.07032 0.0646,-0.07626 0.0764,-0.01385 0.15435,0.01933 0.23196,0.02255 0.0624,0.0026 0.12477,-0.0034 0.18714,-0.0051 0.0314,-0.02021 0.0574,-0.055 0.0944,-0.06062 0.0724,-0.01097 0.14632,0.01984 0.2192,0.01306 0.0431,-0.004 0.0788,-0.03958 0.12179,-0.04477 0.0683,-0.0083 0.13836,0.01572 0.20632,0.0051 10e-4,-3.08e-4 0.2098,-0.107147 0.21165,-0.108095 0.12808,-0.07491 0.26968,0.03806 0.397,0.002 0.0329,-0.0093 -10e-4,-0.08569 0.0307,-0.09805 0.0781,-0.03024 0.27858,0.04504 0.36462,-0.01617 0.0286,-0.02035 0.0127,-0.06904 0.0192,-0.10356 0.0672,0.0011 0.13434,0.0023 0.20151,0.0034 0.078,0.0074 0.15571,0.02082 0.23407,0.02221 0.12308,0.0022 0.20528,-0.02528 0.32495,-0.04029 0.0568,-0.0071 0.13504,0.02905 0.17109,-0.01544 0.0311,-0.03839 -0.0293,-0.09436 -0.0439,-0.14154 0.081,0.0083 0.16423,0.04572 0.24296,0.02502 0.0332,-0.0087 10e-4,-0.08401 0.0329,-0.09756 0.0569,-0.02445 0.38298,0.01928 0.42592,0.01469 0.0401,-0.0043 0.0727,-0.03486 0.10908,-0.05229 0.0596,-0.0038 0.11912,-0.0076 0.17868,-0.01142 0.0737,0.0045 0.15919,0.05383 0.22109,0.01357 0.0389,-0.02527 -0.0714,-0.105596 -0.0351,-0.134517 0.0523,-0.04174 0.13581,0.01879 0.20064,0.0024 0.0329,-0.0083 0.0389,-0.06506 0.0722,-0.07156 0.6435,-0.125748 -0.0666,0.121966 0.33872,-0.02998 0.17014,-0.108495 0.0562,-0.06484 0.36586,-0.01206 0,0 -1.06427,-0.613843 -1.06427,-0.613843 v 0 c -0.15015,0.101711 -0.0529,0.0626 -0.31146,0.04284 -0.0184,0.02678 -0.0266,0.06499 -0.0552,0.08034 -0.0499,0.02678 -0.27247,0.03723 -0.31742,0.04192 -0.16266,0.01697 -0.14583,0.01445 -0.29427,0.05665 -0.0435,0.01235 -0.0866,0.02587 -0.12991,0.03881 -0.14298,0.15123 0.0129,0.02408 -0.2889,0.06217 -0.10477,0.01323 -0.11317,0.09718 -0.22202,0.103163 -0.32197,0.0177 -0.18617,-0.118515 -0.31031,0.05127 -0.0574,0.0049 -0.11494,0.0097 -0.17241,0.01457 -0.0145,0.02981 -0.0118,0.07973 -0.0435,0.0894 -0.0684,0.02087 -0.14287,-0.01337 -0.21437,-0.01074 -0.15688,0.0058 -0.27685,0.09867 -0.43586,0.088 -0.10088,-0.0051 -0.25079,-0.03277 -0.35197,0.02229 -0.0294,0.01602 -0.0322,0.06745 -0.0642,0.07734 -0.15476,0.04777 -0.34226,-0.06469 -0.47738,0.06533 -0.0974,-0.01886 -0.19316,-0.06227 -0.29221,-0.05657 -0.0338,0.0019 -0.0364,0.06083 -0.066,0.07715 -0.0414,0.02284 -0.0933,0.01831 -0.13767,0.03499 -0.0364,0.01372 -0.065,0.04601 -0.10275,0.05553 -0.088,0.02218 -0.29186,0.01166 -0.37454,0.0101 -0.0132,0.0026 -0.27755,0.05586 -0.29096,0.05679 -0.0657,0.0046 -0.13208,-0.01106 -0.19755,-0.0039 -0.043,0.0046 -0.0822,0.02741 -0.12395,0.03888 -0.18276,0.05024 -0.087,-0.0021 -0.2207,0.09389 -0.0681,-0.0031 -0.13627,-0.01322 -0.20434,-0.0094 -0.0473,0.0026 -0.092,0.03243 -0.13932,0.02877 -0.0981,-0.0076 -0.19233,-0.04131 -0.2885,-0.06196 -0.0277,0.02005 -0.0492,0.0573 -0.0833,0.06017 -0.36508,0.03066 -0.13388,-0.10958 -0.32012,0.02701 -0.59102,-0.0467 0.0741,-0.01602 -0.33374,0.01483 -0.1064,0.008 -0.24473,-0.02539 -0.35255,3.08e-4 -0.0337,0.008 -0.0553,0.04754 -0.0895,0.05267 -0.0637,0.0096 -0.12853,-0.0069 -0.19278,-0.01031 -0.30816,0.03224 0.0279,0.0099 -0.3798,-0.02003 -0.0527,-0.0039 -0.10552,0.0095 -0.15828,0.0071 -0.0689,-0.0031 -0.13708,-0.0308 -0.20574,-0.02369 -0.0315,0.0033 -0.0474,0.04867 -0.0788,0.05315 -0.0625,0.0089 -0.12595,-0.0099 -0.18893,-0.01491 -0.24694,0.04549 5.9e-4,0.01355 -0.33642,-0.006 -0.10399,-0.006 -0.2081,0.02825 -0.31243,0.0073 -0.0665,-0.0043 -0.13205,-0.02421 -0.19868,-0.0224 -0.0388,0.0011 -0.0748,0.02058 -0.11216,0.03086 -0.0641,-0.01062 -0.34903,-0.06119 -0.42256,-0.06045 -0.0404,4.62e-4 -0.0779,0.02553 -0.11834,0.02703 -0.16874,0.0062 -0.33732,-0.0721 -0.50305,-0.01155 -0.0516,0.0014 -0.10339,0.0089 -0.15479,0.0042 -0.15657,-0.01444 -0.26507,-0.06216 -0.42189,-0.06133 -0.042,1.53e-4 -0.0817,0.0249 -0.1237,0.02386 -0.35091,-0.0086 -0.0926,-0.06817 -0.32436,3.08e-4 -0.31085,0.01743 0.0233,0.0146 -0.44081,-0.07216 -0.2479,-0.04634 -0.0891,0.01891 -0.30742,0.0088 -0.0704,-0.0033 -0.1387,-0.02828 -0.2091,-0.0308 -0.0434,-0.0016 -0.086,0.01244 -0.12898,0.01867 -0.0511,0.0011 -0.10268,0.0099 -0.15335,0.0031 -0.0847,-0.0114 -0.16567,-0.04223 -0.24973,-0.05735 -0.0639,-0.0115 -0.12928,-0.01358 -0.19366,-0.02245 -0.16781,-0.02313 -0.32709,-0.0554 -0.49607,-0.01704 -0.0613,-0.0057 -0.12316,-0.0069 -0.18383,-0.01718 -0.0826,-0.01401 -0.16141,-0.05775 -0.24518,-0.05557 -0.0277,7.86e-4 -0.0267,0.05809 -0.0539,0.06332 -0.202,0.03886 -0.38742,-0.145523 -0.58858,-0.07406 -0.0634,-0.0068 -0.12725,-0.0099 -0.19013,-0.02035 -0.1096,-0.01823 -0.28588,-0.07862 -0.40868,-0.05807 -0.0308,0.0051 -0.0489,0.04817 -0.0801,0.04859 -0.13597,0.0018 -0.26464,-0.08283 -0.40424,-0.05485 -0.07,-0.01072 -0.14036,-0.01976 -0.21013,-0.03218 -0.0781,-0.01389 -0.15395,-0.04436 -0.23319,-0.0467 -0.0352,-0.0011 -0.0639,0.03495 -0.099,0.03692 -0.0639,0.0036 -0.12712,-0.01452 -0.1908,-0.02069 -0.29258,-0.02833 -0.082,0.0043 -0.41306,-0.06065 -0.0624,-0.0061 -0.12464,-0.01572 -0.18732,-0.01824 -0.0995,-0.004 -0.19941,0.02047 -0.29854,0.01095 -0.0762,-0.0073 -0.1493,-0.03841 -0.22577,-0.04216 -0.0402,-0.002 -0.0787,0.01687 -0.11805,0.02531 -0.0854,-0.02035 -0.17074,-0.0407 -0.25611,-0.06105 -0.0714,-0.01167 -0.14281,-0.02334 -0.21421,-0.03501 -0.0296,0.01438 -0.0561,0.0453 -0.089,0.04317 -0.0902,-0.0059 -0.17405,-0.05003 -0.26302,-0.06598 -0.0587,-0.01052 -0.11945,-0.0044 -0.17845,-0.01317 -0.67802,-0.100319 0.14941,-0.0078 -0.42081,-0.06731 -0.0672,-0.0094 -0.13424,-0.01881 -0.20137,-0.02822 -0.0285,0.0145 -0.0537,0.04292 -0.0856,0.04352 -0.0727,0.0014 -0.1427,-0.02915 -0.21491,-0.03792 -0.20212,-0.02455 -0.40811,-0.0084 -0.60223,-0.08889 -0.38743,-0.01744 0.0916,0.01225 -0.38754,-0.051 -0.0544,-0.0072 -0.11025,7.86e-4 -0.16453,-0.0075 -0.0803,-0.01222 -0.15654,-0.05213 -0.23778,-0.05372 -0.0299,-6.39e-4 -0.0464,0.04293 -0.076,0.04757 -0.0551,0.0086 -0.1115,-0.0063 -0.16726,-0.0094 -0.0646,-0.0087 -0.12899,-0.01897 -0.19378,-0.02605 -0.0581,-0.0064 -0.11707,-0.0058 -0.17495,-0.01429 -0.0747,-0.011 -0.14692,-0.03735 -0.22209,-0.04415 -0.0438,-0.0039 -0.0873,0.01029 -0.13122,0.01219 -0.21103,0.009 -0.16401,-0.0038 -0.42097,-0.07511 -0.0554,-0.0033 -0.11082,-0.0045 -0.166,-0.0097 -0.0629,-0.006 -0.12546,-0.03243 -0.18811,-0.02405 -0.0269,0.0036 -0.0312,0.05455 -0.0583,0.05702 -0.14428,0.01317 -0.39366,-0.112699 -0.50784,-0.132096 -0.0341,-0.0058 -0.0662,0.01997 -0.0993,0.02996 -0.0425,0.0039 -0.0852,0.0061 -0.12746,0.01165 -0.038,0.0049 -0.0753,0.02459 -0.11337,0.01984 -0.0851,-0.01063 -0.16497,-0.04754 -0.24893,-0.06508 -0.15809,-0.03305 -0.31823,-0.03155 -0.47865,-0.02955 -0.25167,0.0012 -0.0309,0.0065 -0.32065,-0.02266 -0.0523,-0.0052 -0.10519,-0.0034 -0.15725,-0.01048 -0.16021,-0.0216 -0.31775,-0.07699 -0.48111,-0.04055 -0.0831,-0.02347 -0.16339,-0.06122 -0.24923,-0.07043 -0.0284,-0.003 -0.0497,0.03091 -0.0779,0.03533 -0.0444,0.007 -0.0905,-0.0091 -0.13493,-0.0019 -0.0267,0.0044 -0.0458,0.03623 -0.0729,0.03577 -0.13232,-0.0023 -0.25642,-0.07809 -0.38884,-0.07999 -0.0147,0.01743 -0.0214,0.05101 -0.0442,0.0523 -0.12351,0.0069 -0.24135,-0.07455 -0.36487,-0.06783 -0.0239,0.0012 -0.0349,0.04196 -0.0589,0.04143 -0.12633,-0.0028 -0.24263,-0.08379 -0.37148,-0.0757 -10e-4,4.61e-4 -0.16163,0.05039 -0.16325,0.0503 -0.0632,-0.0034 -0.12273,-0.04338 -0.18595,-0.03929 -0.021,0.0014 -0.0161,0.04151 -0.0334,0.0535 -0.10415,0.07231 -0.25914,-0.03531 -0.33942,-0.06197 -0.0448,0.137793 0.0212,0.0029 -0.18982,0.02856 -0.0204,0.0025 -0.007,0.0497 -0.0264,0.05579 -0.12104,0.03751 -0.25562,-0.107568 -0.35503,-0.0019 -0.0494,-0.0042 -0.35078,-0.03137 -0.38792,-0.02289 -0.0198,0.0045 -0.0198,0.04549 -0.0402,0.04586 -0.0629,0.0012 -0.12167,-0.04914 -0.18416,-0.04172 -0.0216,0.0026 -0.006,0.04308 -0.009,0.06463 -0.0502,-0.0072 -0.0999,-0.02083 -0.15065,-0.02156 -0.31982,-0.0046 0.18831,0.0535 -0.19051,0.02331 -0.0484,-0.0039 -0.20289,-0.04652 -0.26591,-0.02376 -0.018,0.0065 -0.0208,0.03223 -0.0311,0.04835 -0.0348,0.0012 -0.071,-0.0059 -0.10448,0.0039 -0.0962,0.02804 0.019,0.08602 -0.13564,0.05094 -0.0905,-0.02052 -0.17002,-0.09112 -0.26278,-0.09159 -0.0333,-1.53e-4 0.0282,0.06032 0.0423,0.09047 -0.0487,-0.0076 -0.0973,-0.01517 -0.14599,-0.02275 -0.0346,7.86e-4 -0.0692,0.0016 -0.10374,0.0024 -0.009,0.01615 -0.008,0.04571 -0.0264,0.04845 -0.069,0.01039 -0.20281,-0.05769 -0.24029,-0.01489 -0.0174,0.0198 0.0472,0.07163 0.0213,0.07606 -0.0632,0.01077 -0.12416,-0.03196 -0.18625,-0.04794 -0.0253,0.0051 -0.0506,0.01042 -0.0758,0.01561 -0.01,0.014 -0.0134,0.0351 -0.0289,0.042 -0.0261,0.01157 -0.0566,0.0082 -0.085,0.0086 -0.0361,4.61e-4 -0.0784,-0.02631 -0.10817,-0.0059 -0.12474,0.08591 0.33394,0.117988 -0.11293,0.04687 -0.0475,-0.0092 -0.095,-0.01847 -0.14252,-0.02771 0.0117,0.02509 0.0625,0.07126 0.0351,0.07529 -0.0628,0.0092 -0.12487,-0.07981 -0.18264,-0.05357 -0.0389,0.0177 0.11766,0.07806 0.0808,0.09983 -0.0734,0.04333 -0.16831,-0.09529 -0.25183,-0.04379 0.0691,0.152899 0.0276,0.01698 -0.17251,-7.86e-4 -0.0168,-0.0015 0.009,0.0349 0.002,0.05054 -0.0247,0.06119 -0.13884,0.05339 -0.17946,0.04254 5.9e-4,0.01661 0.008,0.03452 10e-4,0.04984 -0.0392,0.09308 -0.19422,-0.04649 -0.22858,0.01249 -0.0142,0.02437 0.0697,0.06272 0.0434,0.07268 -0.0458,0.01729 -0.0951,-0.02348 -0.14261,-0.03523 0.001,0.162052 0.0132,-0.167032 -0.1625,-0.0025 -0.0357,0.03349 0.10754,0.05488 0.10413,0.103765 -0.003,0.04327 -0.27967,-0.120011 -0.23382,-0.01 -0.0437,0.01816 -0.0435,0.02204 -0.0956,0.02459 -0.0205,0.0011 -0.089,-0.01048 -0.11294,0.01135 -0.008,0.0076 1.5e-4,0.02465 -0.007,0.03303 -0.009,0.0098 -0.0242,0.01029 -0.0363,0.01545 -0.0143,0.0036 -0.0283,0.01288 -0.0429,0.01095 -0.0394,-0.0051 -0.0784,-0.04769 -0.11475,-0.03168 -0.0237,0.01046 0.0645,0.04041 0.0486,0.06086 -0.0104,0.01331 -0.19254,-0.05297 -0.18692,-0.04427 0.0373,0.05773 0.10992,0.08263 0.16488,0.123938 -0.52339,-0.224662 -0.0899,-0.06284 -0.10908,-0.0073 -0.0117,0.03363 -0.0661,-0.03736 -0.10146,-0.03324 -0.0171,0.002 0.0472,0.03521 0.0311,0.04144 -0.0665,0.02572 -0.0946,-0.06551 -0.0683,0.0017 -0.009,4.61e-4 -0.0178,0.0028 -0.0265,0.0014 -0.0179,-0.003 -0.035,-0.0197 -0.0524,-0.0146 -0.01,0.003 0.0189,0.01383 0.0197,0.02419 4.6e-4,0.0059 -0.0148,-0.0026 -0.0177,0.0026 -0.0111,0.01979 0.10731,0.05488 -0.0442,-0.0064 z" />
    </g>
  </g>
</svg>
