<svg xmlns="http://www.w3.org/2000/svg" xml:space="preserve" id="svg1" width="500" height="262.491" version="1.1"><g id="g1" transform="matrix(1.16817 0 0 1.16817 0 -.347)"><rect id="rect1" width="428" height="74.987" x="0" y="150.013" ry="0" style="fill:#da8e0a;fill-opacity:1;stroke:none;stroke-width:18.3108;stroke-linecap:square"/><rect id="rect2" width="428" height="74.987" x=".02" y="75.034" ry="0" style="fill:#003ab1;fill-opacity:1;stroke:none;stroke-width:18.3108;stroke-linecap:square"/><rect id="rect3" width="428" height="74.737" x=".02" y=".297" ry="0" style="fill:#00a825;fill-opacity:1;stroke:none;stroke-width:18.2803;stroke-linecap:square"/><rect id="rect4" width="187.25" height="149.716" x="0" y=".297" ry="0" style="display:inline;fill:#fff;fill-opacity:1;stroke:none;stroke-width:1.01179;stroke-linecap:square"/><g id="g16" fill="#000" stroke="none" color="#000" transform="matrix(.0206 0 0 .0206 14.001 8.13)"><path id="outputsvg-p11U7YzCso" fill="#000" stroke="none" d="M588 5768c-8-7-24-27-36-44l-21-31-119-5c-64-3-127-10-139-16-25-14-43-61-43-112 0-70 36-129 140-230 89-88 97-99 103-143 9-67-1-155-33-282-62-243-66-378-15-479 15-31 26-59 22-62-3-3-20 2-37 12-37 22-56 14-83-37-21-39-18-116 4-130 8-5 41-9 74-9s65-4 72-8c6-4 32-49 58-100 46-92 151-246 253-372 78-96 96-139 90-213-3-34-22-114-41-177-20-63-45-158-56-210s-25-111-31-130c-18-61-12-132 15-187 100-200 392-514 578-621 54-31 74-29 82 9 6 28 2 36-38 73-51 47-121 176-112 206 9 29 78 84 200 160 116 72 137 81 145 65 2-6-49-42-114-81-142-85-200-140-190-181 14-56 55-123 98-159l45-37-6-82c-5-75-4-84 16-104 26-26 49-27 110 0 43 18 55 19 107 10 60-11 144-6 179 12 11 5 48 32 83 59 56 44 81 54 255 108 105 33 204 60 219 60 26 0 28 3 28 45 0 39-6 52-41 90-42 46-69 57-69 30 0-25-73-3-100 30-12 15-12 18 3 26 25 14 21 29-8 29-15 0-25 6-25 15 0 12-9 11-57-6-139-53-204-54-238-6-33 47-4 96 34 58 12-12 27-17 40-14 12 3 21 1 21-6 0-17 21-13 36 6 13 17 13 17 14 1 0-19 30-26 30-8 0 6 5 10 10 10 6 0 10-7 10-15 0-24 13-18 53 23 74 75 43 94-140 85-151-7-254 11-327 58-69 43-65 73 26 247 153 288 198 416 198 559 0 83-10 125-36 154-14 16-20 14-71-17-30-18-89-61-130-94l-74-61 8-87c12-135 7-271-13-314-20-46-51-54-38-11 5 16 9 120 9 232l1 204 39 33c108 92 297 201 392 227 39 10 47 8 104-21 34-18 68-32 76-32 7 0 34-19 58-41 35-33 45-38 45-23 0 14 3 15 12 6 7-7 27-12 46-12h35l-5 45c-5 42-4 45 18 45 13 0 24 5 24 10 0 6 23 10 50 10 47 0 50 2 50 25 0 22 4 25 35 25 35 0 35 0 35 45v44l-77 3c-72 3-78 5-81 25-2 13-12 23-25 25-12 2 17 7 66 12l87 8v80l-59-4-59-3 20 27c14 20 18 40 16 75l-3 48-49 3c-34 2-53-2-66-13-20-18-32-85-16-85 6 0 4-6-2-12-9-9-15-9-20-3-4 6-32 16-63 22s-80 26-110 45c-48 29-62 33-119 32-84-2-178-38-490-189-129-62-269-129-311-148-84-38-103-58-142-153-30-70-117-402-117-444 0-34-9-60-21-60-24 0-18 154 11 245 5 17 20 66 34 110 32 108 92 254 113 277 18 20 260 141 476 238 64 29 117 58 117 64s-21 43-47 81c-120 181-336 418-485 535-17 13-28 31-28 46 0 24-21 78-58 153-28 55-91 112-185 168-49 29-122 79-164 110-65 48-80 66-106 120-27 60-28 65-13 82 20 21 108 41 151 34 17-2 59-14 95-25 86-28 135-28 191 0 49 24 106 92 94 112-4 6 5 26 19 45 30 38 31 48 13 64-15 12-34-6-77-71-27-40-67-68-99-68-37 0-36 28 3 70 27 30 36 49 36 75 0 19-4 35-8 35s-28-21-52-46c-50-50-114-88-136-80-12 5-12 11 1 42 20 48 20 104 0 104-8 0-33-25-55-55-39-53-81-77-65-37 4 9 9 33 12 53 7 47-13 61-39 28-42-55-58-70-68-64-5 3-7 17-4 30 6 25-3 65-15 65-4 0-14-6-23-12m1597-3268c4-11 16-21 28-21 22-2 22-2 0-6-13-2-23-11-23-19 0-20-27-29-45-14-20 16-19 35 2 60 22 25 30 25 38 0m-90-40c3-5 2-10-4-10-5 0-11-12-13-27-3-25-7-28-36-26-35 1-72 27-72 49 0 8 17 14 48 17 26 2 52 4 59 5 6 1 15-2 18-8" color="#000" style="display:inline"/><path id="outputsvg-p18Rzodpuk" fill="#000" stroke="none" d="M1904 5745c-37-42-64-46-64-11 0 33-20 44-36 20-24-34-78-83-105-94-21-9-45-7-115 10-125 30-193 39-230 28-63-17-126-123-108-181 3-12 29-71 57-131l50-109-7-100c-7-115-21-152-101-273-30-45-55-84-55-86 0-3 39-38 86-78 99-85 271-274 351-385 30-41 60-75 66-75 15 1 130 244 152 323 13 44 16 89 13 190-3 129-4 134-40 209-53 112-90 164-174 244-44 42-74 79-74 91 0 11 10 35 23 54 41 61 163 87 252 53 156-61 219-68 289-34 80 38 176 154 176 210 0 31-17 24-51-22-60-83-140-130-176-102-17 14-17 14 1 28 10 8 15 19 12 24-3 6 7 16 23 23 32 14 61 56 61 88 0 31-17 26-72-24-30-27-60-45-74-45-32 0-30 13 7 59 25 32 30 46 27 82l-3 44-40-52c-38-49-69-72-82-59-4 3-1 16 6 29 6 12 13 35 14 52 3 42-22 42-59 0" color="#000"/><path id="outputsvg-pSQEN5ly6" fill="#000" stroke="none" d="M5836 5771c-8-12 4-70 15-77 5-3 9-12 9-20 0-23-28-16-53 13-12 14-34 40-50 57l-27 31 2-48c1-35 9-55 29-80 61-71 7-81-69-12-56 51-72 55-72 21 0-15 12.513-48.461 40.513-74.461 9.247-21.732 15.249-32.002 25.929-33.661-3-4 18.558-14.878 29.558-22.878 18-15 18-15 1-29-36-28-116 19-176 102q-51 69-51 21c0-34 19-59 45-59 28 0 35-27 8-32-13-2-6-14 32-51 111-106 177-112 380-33 89 34 211 8 252-53 13-19 23-43 23-54 0-12-30-49-74-91-84-80-121-132-174-244-36-75-37-80-40-209-3-101 0-146 13-190 22-79 137-322 152-323 6 0 36 34 66 75 80 111 252 300 351 385 47 40 86 75 86 78 0 2-25 41-55 86-80 121-94 158-101 273l-7 100 50 109c28 60 54 119 57 131 18 58-45 164-108 181-37 11-105 2-230-28-70-17-94-19-115-10-27 11-81 60-105 94-16 24-36 13-36-20 0-35-26-31-64 11-33 35-50 43-60 26" color="#000"/><path id="outputsvg-paJU3lNqm" fill="#000" stroke="none" d="M7174 5756c-3-14-3-34 1-44 3-11 1-23-5-27-10-6-25 9-68 64-26 33-46 19-39-28 3-20 8-44 12-53 16-40-26-16-65 37-22 30-47 55-55 55-20 0-20-56 0-104 13-31 13-37 1-42-22-8-86 30-136 80-24 25-48 46-52 46s-8-16-8-35c0-26 9-45 36-75 39-42 40-70 3-70-32 0-72 28-99 68-43 65-62 83-77 71-14-12-18-39-5-39 12 0 43-61 36-71-11-19 48-88 95-111 56-28 105-28 191 0 36 11 79 23 95 25 43 7 131-13 151-34 15-17 14-22-13-82-26-54-41-72-106-120-42-31-115-81-164-110-94-56-157-113-185-168-37-75-58-129-58-153 0-15-11-33-27-46-150-117-366-354-486-535-26-38-47-75-47-81s53-35 118-64c215-97 457-218 475-238 21-23 81-169 113-277 14-44 29-93 34-110 29-91 35-245 11-245-12 0-21 26-21 60 0 42-87 374-117 444-39 95-58 115-142 153-42 19-182 86-311 148-312 151-406 187-490 189-57 1-72-3-117-31-61-38-131-58-168-49-19 5-25 13-25 35 0 43-29 63-86 59l-49-3-3-48c-2-35 2-55 16-75l20-27-59 3-59 4v-35c0-32 3-35 38-41 93-16 126-23 110-25-13-1-18-13-20-58l-3-58-37-3c-37-3-38-3-38 32s-1 36-40 36h-40v-40c0-39 1-40 35-40 32 0 35-2 35-30 0-29 1-30 50-30 28 0 50-4 50-10 0-5 11-10 24-10 22 0 23-3 18-45l-5-45h35c19 0 39 5 46 12 9 9 12 8 12-6 0-15 10-10 45 23 24 22 51 41 58 41 8 0 42 14 76 32 57 29 65 31 104 21 95-26 284-135 392-227l39-33 1-204c0-112 4-216 9-232 13-43-18-35-38 11-20 43-25 179-13 314l8 87-74 61c-41 33-100 76-130 94-51 31-57 33-71 17-26-29-36-71-36-154 0-143 45-271 198-559 91-174 95-204 26-247-73-47-176-65-327-58-183 9-216-11-139-86 43-42 49-44 55-20 4 17 5 17 6 1 2-26 30-22 41 5l9 22 7-23c7-25 34-30 34-6 0 12 6 15 21 11 13-3 28 2 40 14 38 38 67-11 34-58-34-48-99-47-238 6-31 11-57 16-57 11 0-6-16-10-35-10-42 0-48-24-9-34 30-8 28-23-7-47-36-25-79-33-79-14 0 16-18 20-35 7-6-4-25-24-43-45-26-30-32-46-32-82 0-42 2-45 28-45 15 0 114-27 219-60 174-54 199-64 255-108 35-27 72-54 83-59 35-18 119-23 179-12 52 9 64 8 107-10 61-27 84-26 110 0 20 20 21 29 16 104l-6 82 45 37c43 36 84 103 98 159 10 41-48 96-190 181-65 39-117 76-114 81 7 16 30 6 145-65 122-76 191-131 200-160 9-30-61-159-112-206-40-37-44-45-38-73 8-38 28-40 82-9 186 107 478 421 578 621 27 55 33 126 15 187-6 19-20 78-31 130s-36 147-56 210c-19 63-38 143-41 177-6 74 12 117 90 213 102 126 207 280 253 372 26 51 52 96 58 100 7 4 39 8 72 8s66 4 74 9c22 14 25 91 4 130-27 51-46 59-83 37-17-10-34-15-37-12-4 3 7 31 22 62 51 101 47 236-15 479-32 127-42 215-33 282 6 44 14 55 103 143 104 101 140 160 140 230 0 51-18 98-43 112-12 6-75 13-139 16l-119 5-21 31c-23 33-47 56-60 56-4 0-10-11-14-24M5670 2467c0-20-27-40-45-33-22 8-20 64 3 68 20 4 42-14 42-35m123-7c24 0 37-5 37-13 0-23-37-49-72-50-29-2-33 1-36 26-2 15-8 27-13 27-6 0-7 5-3 11 3 6 16 8 28 5 11-3 38-6 59-6" color="#000"/><path id="outputsvg-p64Dwnh6D" fill="#000" stroke="none" d="M5100 5345c0-29 6-39 33-55 17-11 49-20 70-20 35 0 37 2 37 33 0 27-6 36-40 55-21 12-53 22-69 22-29 0-31-3-31-35" color="#000"/><path id="outputsvg-p1PJOzaFB" fill="#000" stroke="none" d="M2598 5354c-23-12-28-22-28-51v-36l45 5c57 7 75 22 75 64 0 32-2 34-32 34-18-1-45-8-60-16" color="#000"/><path id="outputsvg-pCG6F4Oas" fill="#000" stroke="none" d="M2880 4936c0-54 8-66 46-66 32 0 34 2 34 34 0 54-8 66-46 66-32 0-34-2-34-34" color="#000"/><path id="outputsvg-peClz4I4A" fill="#000" stroke="none" d="M4846 4954c-3-9-6-31-6-50 0-32 2-34 34-34 38 0 46 12 46 66 0 32-2 34-34 34-22 0-36-6-40-16" color="#000"/><path id="outputsvg-pzVfD7fgA" fill="#000" stroke="none" d="M2890 4690c0-39 1-40 35-40s35 1 35 40-1 40-35 40-35-1-35-40" color="#000"/><path id="outputsvg-pniiXy7ws" fill="#000" stroke="none" d="M4840 4695c0-33 2-35 35-35s35 2 35 35-2 35-35 35-35-2-35-35" color="#000"/><path id="outputsvg-pzg7aJ9E7" fill="#000" stroke="none" d="M2400 3660v-40h80v80h-80z" color="#000"/><path id="outputsvg-pm4I7WRbm" fill="#000" stroke="none" d="M5320 3659v-40l38 3c35 3 37 5 40 41l3 37h-81z" color="#000"/><path id="outputsvg-pzj6Ml2qZ" fill="#000" stroke="none" d="M1950 3434c-25-127-87-265-206-464-60-99-80-160-53-160 6 0 33 20 60 44 60 54 188 107 326 135 115 24 156 18 214-29l39-31v260c0 143-4 262-9 265-17 11-148 28-253 33l-106 5z" color="#000"/><path id="outputsvg-pG4IMPYx7" fill="#000" stroke="none" d="M5605 3478c-27-5-68-12-90-16l-40-7-3-263-2-263 39 31c58 47 99 53 214 29 138-28 266-81 326-135 27-24 54-44 60-44 27 0 7 61-53 160-119 198-181 337-206 463l-11 57-92-1c-51-1-114-5-142-11" color="#000"/><path id="outputsvg-p4fmRCdkG" fill="#000" stroke="none" d="M2340 2641c0-13-9-21-30-26-30-7-43-35-15-35 8 0 15-9 15-20s7-20 15-20 15-9 15-20c0-15 7-20 26-20 17 0 40-16 73-50 37-39 55-50 79-50 40 0 52 22 52 95 0 64-21 116-58 145-19 16-40 20-98 20-66 0-74-2-74-19" color="#000"/><path id="outputsvg-pujYiyuQf" fill="#000" stroke="none" d="M5285 2638c-37-29-55-76-55-143 0-77 11-95 60-95 22 0 40 4 40 10 0 21 80 90 105 90 18 0 25 5 25 20 0 13 7 20 20 20 14 0 20 7 20 21 0 21-4 21-72 17-41-3-64-2-53 3 11 4 41 8 68 8 35 1 47 5 47 16 0 8-7 15-15 15s-15 9-15 20c0 18-7 20-74 20-60 0-78-4-101-22" color="#000"/><path id="outputsvg-pngWR5lLD" fill="#000" stroke="none" d="M2604 2284c-16-7-5-43 16-54 22-12 30-4 30 32 0 28-15 35-46 22" color="#000"/><path id="outputsvg-p4GAEvWpE" fill="#000" stroke="none" d="M5060 2279c0-6-7-17-15-25-19-19-19-34-2-34 16 0 57 42 57 58 0 7-9 12-20 12s-20-5-20-11" color="#000"/><path id="outputsvg-pVlYoLvmj" fill="#000" stroke="none" d="M5150 2262c0-36 8-44 30-32 24 13 32 47 13 54-31 12-43 6-43-22" color="#000"/></g><g id="g17" fill="#774a09" stroke="none" color="#000" transform="matrix(.0206 0 0 .0206 14.001 8.13)"><path id="outputsvg-p10uvlHfxH" fill="#774a09" stroke="none" d="M3845 6206c-5-2-71-23-145-46-257-80-492-182-662-287-414-256-645-557-688-895-5-46-10-248-10-450 0-239-4-368-10-368-5 0-10-4-10-10 0-5 14-10 30-10 23 0 30 5 30 19 0 11-6 22-12 24q-15 6 0 6c9 1 12 72 12 321 0 364 9 477 51 605 73 229 263 460 527 643 115 80 174 112 351 196 190 89 308 134 472 181l119 35 119-35c707-203 1215-590 1354-1031 38-118 47-238 47-590 0-290 1-318 18-330 16-13 16-14 0-8-14 5-18 1-18-15 0-17 6-21 30-21 17 0 30 5 30 10 0 6-4 10-10 10s-10 129-10 368c0 202-5 404-10 450-35 280-213 553-497 764-197 147-333 222-570 317-272 108-486 167-538 147" color="#000"/><path id="outputsvg-phDVNzCYY" fill="#774a09" stroke="none" d="M5037 5403c-4-3-7-24-7-45 0-37 1-38 34-38 37 0 46 12 46 61 0 26-3 29-33 29-19 0-37-3-40-7" color="#000"/><path id="outputsvg-p5u2oKIlV" fill="#774a09" stroke="none" d="M2700 5355c0-24 5-35 15-35s15-11 15-35c0-33 2-35 35-35 34 0 35 1 35 40 0 29-4 40-15 40q-15 0-15 30c0 28-3 30-35 30-33 0-35-2-35-35" color="#000"/><path id="outputsvg-pqLgvAvZF" fill="#774a09" stroke="none" d="M2810 5095c0-33 2-35 35-35s35 2 35 35-2 35-35 35-35-2-35-35" color="#000"/><path id="outputsvg-palHeRmIO" fill="#774a09" stroke="none" d="M4830 4900c0-39 1-40 35-40 35 0 35 1 35 43-1 42-1 42-16 17-14-23-14-23-9-2 5 19 2 22-19 22-24 0-26-4-26-40" color="#000"/><path id="outputsvg-po9gn2h8v" fill="#774a09" stroke="none" d="M2900 4898c0-37 1-38 35-38 33 0 35 2 35 35 0 31-3 35-25 35-19 0-23-4-18-17 5-15 3-14-10 2-16 19-16 19-17-17" color="#000"/><path id="outputsvg-p1GwbtEFzw" fill="#774a09" stroke="none" d="M2330 3774c0-3 5-15 11-27 12-22 12-22-10-3-21 19-21 19-21-7 0-24 4-27 35-27 33 0 35 2 35 35 0 31-3 35-25 35-14 0-25-3-25-6" color="#000"/><path id="outputsvg-pTin14tvY" fill="#774a09" stroke="none" d="M5420 3745c0-33 2-35 35-35 31 0 35 3 35 27 0 26 0 26-21 7-22-19-22-19-10 3 15 30 14 33-14 33-22 0-25-4-25-35" color="#000"/><path id="outputsvg-p1Gff4It1G" fill="#774a09" stroke="none" d="M2328 3663c9-4 12-117 12-519 0-507 0-514 20-514s20 7 20 520v520l-32-1c-18 0-27-3-20-6" color="#000"/><path id="outputsvg-pHVkOj40w" fill="#774a09" stroke="none" d="M5420 3150c0-513 0-520 20-520s20 7 20 514c0 402 3 515 13 519 6 3-3 6-20 6l-33 1z" color="#000"/><path id="outputsvg-p11TbM9J6E" fill="#774a09" stroke="none" d="M2330 2543c5-2 10-26 10-52 0-35 5-53 20-66 20-18 20-17 20 42 0 49-3 62-17 67-35 12-43 14-33 9" color="#000"/><path id="outputsvg-pxQCIBn48" fill="#774a09" stroke="none" d="M5420 2468v-62l20 22c13 14 20 35 20 62 0 33-3 40-20 40-18 0-20-7-20-62" color="#000"/></g><g id="g18" fill="#665c18" stroke="none" color="#000" transform="matrix(.0206 0 0 .0206 14.001 8.13)"><path id="outputsvg-pgrYMP2Q5" fill="#665c18" stroke="none" d="m2412 2325-12-25h3000l-12 25-11 25H2423Z" color="#000"/></g><g id="g19" fill="#c70015" stroke="none" color="#000" transform="matrix(.0206 0 0 .0206 14.001 8.13)"><path id="outputsvg-pMa6Iu2LX" fill="#c70015" stroke="none" d="M2572 5173c3-36 5-38 41-41l38-3-3 38c-3 36-5 38-41 41l-38 3z" color="#000"/><path id="outputsvg-pVJlfwR1K" fill="#c70015" stroke="none" d="M2347 2650c-5-18 0-20 55-20 56 0 63-2 94-35 38-40 52-95 36-137-8-22-7-28 4-28s14 17 14 75c0 69-2 77-31 110-28 32-36 35-85 35-30 0-54 5-54 10 0 19-28 10-33-10" color="#000"/><path id="outputsvg-pSLqOKKuZ" fill="#c70015" stroke="none" d="M5420 2661c0-5-25-11-55-13-44-4-62-11-85-33-29-27-30-33-30-112v-83h35c24 0 41 7 53 21 44 55 82 82 82 59 0-19 28-10 33 10 4 17 0 20-33 20-30 0-46-7-73-32-18-18-39-42-45-53-12-20-12-20-27-1-31 40-10 125 40 164 21 17 41 22 85 22 53 0 58 2 53 20-5 19-33 29-33 11" color="#000"/><path id="outputsvg-pFcJBuvcQ" fill="#c70015" stroke="none" d="M2270 2601c-30-10-80-30-111-44-32-14-82-33-112-42-80-23-83-45-7-45 55 0 78-11 48-23-7-3 2-6 20-6 30-1 32 1 22 19-9 17-7 22 15 30 36 14 45 13 45-5 0-17 18-19 40-5 13 9 13 12-3 24-19 15-25 13 87 36 66 14 116-1 155-45 17-19 35-35 41-35 5 0 10 20 10 45 0 35-6 51-31 80-30 34-34 35-98 34-36 0-91-8-121-18" color="#000"/><path id="outputsvg-pdBNlPG4L" fill="#c70015" stroke="none" d="M5350 2613c-8-3-27-17-42-31-24-22-28-34-28-79 0-56 15-64 39-20 43 79 141 81 334 8 24-9 26-14 17-31-10-18-8-20 22-19 18 0 27 3 21 6-29 11-10 23 37 23 82 0 65 25-40 62-41 14-104 39-140 54-64 27-183 42-220 27" color="#000"/><path id="outputsvg-pwSrH3lmI" fill="#c70015" stroke="none" d="M2345 2522c3-8 5-18 5-23 0-14 28-11 33 4 2 7 21-5 47-31 28-27 51-42 63-40 18 3 14 9-25 49-36 38-53 47-87 51-32 3-40 0-36-10" color="#000"/></g><g id="g20" fill="#009a43" stroke="none" color="#000" transform="matrix(.0206 0 0 .0206 14.001 8.13)"><path id="outputsvg-p11ZvpZHOS" fill="#009a43" stroke="none" d="M4400 3315c0-33 2-35 35-35s35 2 35 35-2 35-35 35-35-2-35-35" color="#000"/><path id="outputsvg-pjwqnBBfR" fill="#009a43" stroke="none" d="M2378 2674c-5-4-8-16-8-26 0-15 8-18 46-18 40 0 51-5 80-35 18-19 35-35 38-35s6 18 6 40c0 31-5 43-24 55-27 18-127 32-138 19" color="#000"/><path id="outputsvg-pU1gpaMnx" fill="#009a43" stroke="none" d="M2350 2452c0-17 58-82 73-82s6 68-11 83c-25 23-62 22-62-1" color="#000"/></g><g id="g21" fill="#904b0a" stroke="none" color="#000" transform="matrix(.0206 0 0 .0206 14.001 8.13)"><path id="outputsvg-pyzI7Pcue" fill="#904b0a" stroke="none" d="M3748 6166c-111-33-293-98-330-118-29-14-21-28 17-28 19 0 35 5 35 10 0 6 11 10 25 10s25 5 25 10c0 6 7 10 16 10s80 21 158 47c109 36 155 46 206 46s97-10 206-46c78-26 149-47 158-47s16-4 16-10c0-5 11-10 25-10s25-4 25-10c0-5 9-10 21-10 11 0 27-7 35-15 9-8 31-15 50-15 21 0 34-5 34-13 0-15 181-107 210-107 11 0 20-7 20-15s11-17 25-21c14-3 25-10 25-15s7-9 15-9 15-4 15-10c0-5 7-10 15-10s15-4 15-10c0-5 7-10 15-10s15-4 15-10c0-5 7-10 15-10s15-4 15-10c0-5 8-10 19-10 10 0 21-9 24-20s14-20 25-20 22-9 25-20c4-15 14-20 36-20 26 0 31-4 31-23 0-30 98-127 128-127 18 0 22-6 22-30 0-18 6-33 15-36 8-4 15-13 15-20 0-8 7-17 15-20 8-4 15-12 15-20s5-14 10-14c6 0 10-7 10-15s7-15 15-15 15-9 15-20 13-47 30-80c32-63 80-217 80-256 0-18 6-24 21-24 19 0 20 4 14 52-9 68-50 199-82 263-191 379-652 702-1268 890-169 51-196 52-337 11" color="#000"/><path id="outputsvg-ptyIrznT0" fill="#904b0a" stroke="none" d="M3113 5904c-260-138-516-373-636-586-51-89-100-229-112-316-6-47-5-52 13-52 16 0 21 9 26 49 8 60 44 168 80 238 14 29 26 61 26 73 0 11 7 20 15 20s15 7 15 15 5 15 10 15c6 0 10 6 10 14s7 16 15 20c8 3 15 15 15 26s7 20 15 20c10 0 15 11 15 35 0 32 3 35 28 35 35 0 122 84 122 118 0 18 6 22 31 22 22 0 32 5 36 20 3 11 14 20 25 20s22 9 25 20 14 20 24 20c11 0 19 5 19 10 0 6 7 10 15 10s15 5 15 10c0 6 7 10 15 10s15 9 15 20c0 16 7 20 30 20 17 0 30 4 30 9s11 12 25 15c14 4 25 13 25 21s9 15 20 15c37 0 70 22 70 47 0 12-2 23-4 23s-35-16-73-36" color="#000"/><path id="outputsvg-p18QfQC4hq" fill="#904b0a" stroke="none" d="M2356 4908c-10-38-7-48 14-48 16 0 20 7 20 35 0 40-24 49-34 13" color="#000"/><path id="outputsvg-pwFisUR6R" fill="#904b0a" stroke="none" d="M5410 4895c0-28 4-35 20-35 21 0 24 10 14 48-10 36-34 27-34-13" color="#000"/></g><g id="g22" fill="#038e55" stroke="none" color="#000" transform="matrix(.0206 0 0 .0206 14.001 8.13)"><path id="outputsvg-p14IykefBJ" fill="#038e55" stroke="none" d="M3717 3603c-4-3-7-24-7-45 0-37 1-38 34-38 37 0 46 12 46 61 0 26-3 29-33 29-19 0-37-3-40-7" color="#000"/><path id="outputsvg-pVQ1toH0l" fill="#038e55" stroke="none" d="M4007 3604c-4-4-7-25-7-46v-38h91l-3 43c-3 40-4 42-38 45-20 2-39 0-43-4" color="#000"/><path id="outputsvg-p1FY14tGon" fill="#038e55" stroke="none" d="M3560 3554v-45l43 3c42 3 42 3 45 46l3 42h-91z" color="#000"/><path id="outputsvg-puke4IxHR" fill="#038e55" stroke="none" d="M4140 3567c0-42 15-57 57-57 30 0 33 3 33 29 0 50-9 61-51 61-37 0-39-1-39-33" color="#000"/><path id="outputsvg-pBw1nob64" fill="#038e55" stroke="none" d="M3377 3263c-4-3-7-21-7-40 0-32 1-33 40-33h40v40c0 39-1 40-33 40-19 0-37-3-40-7" color="#000"/><path id="outputsvg-p18qVDWjdJ" fill="#038e55" stroke="none" d="M3230 3215c0-33 2-35 35-35s35 2 35 35-2 35-35 35-35-2-35-35" color="#000"/><path id="outputsvg-pMhPHYLO1" fill="#038e55" stroke="none" d="M4510 3185v-55h40c44 0 48 9 34 79-6 27-10 31-40 31h-34z" color="#000"/><path id="outputsvg-pHulIXMPw" fill="#038e55" stroke="none" d="M4540 2968c0-45 43-88 87-88 31 0 33 2 33 33 0 44-43 87-88 87-29 0-32-3-32-32" color="#000"/><path id="outputsvg-prMR4yi11" fill="#038e55" stroke="none" d="M3117 2922c-31-31-57-62-57-68 0-7-9-14-20-17-15-4-20-14-20-41 0-35 1-36 36-36 27 0 37 5 41 20 3 11 11 20 17 20 7 0 38 27 69 60 43 45 57 67 57 90 0 27-3 30-32 29-26 0-45-12-91-57" color="#000"/><path id="outputsvg-p12tZk5Msz" fill="#038e55" stroke="none" d="M4712 2793c3-36 5-38 41-41l38-3-3 38c-3 36-5 38-41 41l-38 3z" color="#000"/><path id="outputsvg-pE9PRWXHp" fill="#038e55" stroke="none" d="M4803 2688c6-45 13-59 54-100 43-44 51-48 95-48 48 0 48 0 48 33 0 27-12 44-68 100s-73 67-101 67h-34z" color="#000"/><path id="outputsvg-p16mUrE7Uv" fill="#038e55" stroke="none" d="M2872 2677c-22-23-32-43-32-65 0-30 3-32 33-32 45 0 97 53 97 98 0 30-3 32-33 32-24 0-42-9-65-33" color="#000"/><path id="outputsvg-p8IrniOjK" fill="#038e55" stroke="none" d="M2746 2539c-17-20-26-43-26-65 0-31 2-34 30-34 47 0 90 44 90 92 0 37-1 38-34 38-26 0-41-7-60-31" color="#000"/></g><g id="g23" fill="#18913e" stroke="none" color="#000" transform="matrix(.0206 0 0 .0206 14.001 8.13)"><path id="outputsvg-pv1RNTHVl" fill="#18913e" stroke="none" d="M2350 3115v-485h24c14 0 28 5 31 10 3 6 12 10 18 10 7 0 6-4-3-11-11-8-8-9 14-4 31 7 76-16 76-39 0-8 7-27 15-42 18-34 19-77 4-105-10-19-13-17-59 30-41 43-55 51-84 51h-36v-51c0-27 4-48 9-45 4 3 16-3 26-14s15-20 11-20c-3 0 1-11 10-25s14-32 10-40c-5-13 161-15 1483-15 1436 0 1489 1 1484 18-3 11 9 35 31 61 29 35 36 51 36 87 0 43 0 44-34 44-35 0-88-39-114-85-12-20-12-20-27-1-31 40-10 125 40 164 21 16 41 22 81 22h54v970H4160v-74l-36 35-35 34-183 3-183 4-31-27-32-27v52H2350Z" color="#000" style="fill:#00a825;fill-opacity:1"/><path id="outputsvg-p1FNqtIymE" fill="#18913e" stroke="none" d="M3340 1993c0-5 45-144 100-309 55-164 100-310 100-324 0-20-15-35-73-74-39-27-149-107-243-178-95-70-176-128-181-128-10 0-43-32-43-42 0-3 6-6 13-5 6 0 161-1 343-1l330-2 105-320c57-176 107-320 111-320 3 0 54 144 113 320l107 320 331 1c183 1 338 1 345 0 23-3 12 17-25 45-20 15-33 21-29 13s-2-3-13 11-21 21-21 17-6-3-12 3c-37 31-303 229-365 272-40 27-73 55-73 62s47 154 105 326c58 173 103 315 101 318-3 2-35-18-72-44-38-27-80-56-95-64s-40-25-56-38c-15-13-91-70-168-127-120-90-145-105-178-105-24 0-40 5-43 15-4 8-11 15-18 15-6 0-65 42-131 93-191 146-239 181-230 166 5-8-4-2-18 14-14 15-37 32-49 37-13 5-33 17-45 26-13 9-23 12-23 7" color="#000" style="fill:#00a825;fill-opacity:1"/></g><g id="g24" fill="#566b27" stroke="none" color="#000" transform="matrix(.0206 0 0 .0206 14.001 8.13)"><path id="outputsvg-pGMOOWABU" fill="#566b27" stroke="none" d="m2352 3138 3-463 2 448c3 388 5 447 18 447 8 0 15 7 15 15s-9 15-20 15c-20 0-20-6-18-462" color="#000"/><path id="outputsvg-pjIouEvtN" fill="#566b27" stroke="none" d="M5410 3585c0-8 7-15 15-15 13 0 15-59 18-447l2-448 3 463c2 456 2 462-18 462-11 0-20-7-20-15" color="#000"/><path id="outputsvg-psBVwSsAi" fill="#566b27" stroke="none" d="M3350 3203c0-36 0-36 21-17 11 10 25 27 30 36 8 15 5 18-21 18-28 0-30-3-30-37" color="#000"/><path id="outputsvg-p1HCMccQsH" fill="#566b27" stroke="none" d="M4480 3175c0-32 2-35 30-35 27 0 30 2 20 19-5 11-15 21-22 24-7 2-10 8-5 12 4 5 14 0 21-11 16-21 32-14 23 11-4 9-19 15-37 15-28 0-30-3-30-35" color="#000"/></g><g id="g25" fill="#a9500c" stroke="none" color="#000" transform="matrix(.0206 0 0 .0206 14.001 8.13)"><path id="outputsvg-puYN1b8Jc" fill="#a9500c" stroke="none" d="M3763 6168c-45-13-73-26-73-35 0-18 38-17 116 4 48 13 64 22 64 35 0 22-15 22-107-4" color="#000"/><path id="outputsvg-pUAU2W9Na" fill="#a9500c" stroke="none" d="M3930 6172c0-13 16-22 64-35 78-21 116-22 116-4 0 9-30 22-79 35-95 27-101 27-101 4" color="#000"/><path id="outputsvg-pc7rLp4Eo" fill="#a9500c" stroke="none" d="M4420 6005c0-22 4-25 36-25 44 0 42 18-4 37-31 13-32 12-32-12" color="#000"/><path id="outputsvg-pXrQeZpCS" fill="#a9500c" stroke="none" d="M2828 5710c-47-38-89-74-93-80-9-14 58-13 73 2 7 7 12 20 12 30 0 13 8 18 25 18 18 0 25 5 25 20s7 20 25 20c21 0 25 5 25 30 0 17-1 30-3 30-1 0-41-31-89-70" color="#000"/><path id="outputsvg-pDdKefqWB" fill="#a9500c" stroke="none" d="M4880 5751c0-26 4-31 25-31 18 0 25-5 25-20s7-20 25-20 25-5 25-19c0-27 24-43 62-39l33 3-70 58c-38 32-82 68-97 78l-28 20z" color="#000"/><path id="outputsvg-pGvR7eksU" fill="#a9500c" stroke="none" d="M2619 5513c-57-61-159-214-159-238 0-3 11-5 25-5 18 0 25 5 25 20 0 11 5 20 10 20 6 0 10 7 10 15s5 15 10 15c6 0 10 7 10 15s5 15 10 15c6 0 10 9 10 20s7 20 15 20 15 9 15 20 6 20 14 20c22 0 38 27 34 60l-3 32z" color="#000"/><path id="outputsvg-pGkZqzMHG" fill="#a9500c" stroke="none" d="M5152 5504c2-29 9-41 26-49 12-5 22-18 22-27 0-10 7-18 15-18s15-9 15-20 5-20 10-20c6 0 10-7 10-15s4-15 8-15 14-16 21-35c9-27 18-35 37-35 13 0 24 2 24 5 0 26-134 222-174 254-16 14-17 12-14-25" color="#000"/><path id="outputsvg-pJ71Mqhzg" fill="#a9500c" stroke="none" d="M2645 5390c-16-10-34-23-40-27-5-5-18-12-27-16-11-4-18-17-18-32 0-18-5-25-20-25-16 0-20-7-20-31 0-49 16-69 56-69 36 0 36 0 32 40-2 28 0 40 10 40 7 0 15 7 18 15 4 8 14 15 23 15s27 7 39 16c21 14 22 14 22-10 0-19 5-26 19-26 11 0 22 6 24 13q6 15 6 0c1-7 6-13 11-13 6 0 10 18 10 40s-4 40-10 40c-5 0-10 11-10 25 0 23-3 25-47 24-28 0-60-8-78-19" color="#000"/><path id="outputsvg-p1A60t1eCG" fill="#a9500c" stroke="none" d="M5030 5386c0-15-4-26-10-26-5 0-10-18-10-40 0-39 1-40 35-40 31 0 35 3 35 25 0 21 5 25 29 25 26 0 28 3 27 38l-1 37-52 3c-51 3-53 2-53-22" color="#000"/><path id="outputsvg-p167Ogwa7r" fill="#a9500c" stroke="none" d="M5340 5206c0-32 3-36 25-36 24 0 25 1 12 32-19 46-37 48-37 4" color="#000"/><path id="outputsvg-p1CMzUpNln" fill="#a9500c" stroke="none" d="M2403 5143c-33-103-44-175-50-330-6-139-5-143 14-143s21 8 26 148c4 139 31 312 49 320 5 2 8 19 8 38 0 57-24 40-47-33" color="#000"/><path id="outputsvg-p1A4HAF90e" fill="#a9500c" stroke="none" d="M2592 5144c3-37 5-39 41-42l38-3-3 38c-3 33-6 38-32 41-21 3-26 0-20-10s3-9-10 1c-16 14-17 12-14-25" color="#000"/><path id="outputsvg-pNIbRtPLE" fill="#a9500c" stroke="none" d="M5394 5028c3-24 8-114 12-200 6-145 8-158 25-158s19 9 19 98c-1 90-12 209-26 275-3 15-12 27-21 27-12 0-14-9-9-42" color="#000"/><path id="outputsvg-p13kMSaj5F" fill="#a9500c" stroke="none" d="M2880 4945c0-28 4-35 20-35 14 0 18 5 14 18-5 16-5 16 6 0 18-28 30-21 30 17 0 33-2 35-35 35s-35-2-35-35" color="#000"/><path id="outputsvg-pUKHCj9Of" fill="#a9500c" stroke="none" d="M4930 4875c0-33 2-35 35-35s35 2 35 35-2 35-35 35-35-2-35-35" color="#000"/><path id="outputsvg-pSl8Gm7ak" fill="#a9500c" stroke="none" d="M4890 4760c0-39 1-40 35-40s35 1 35 40-1 40-35 40-35-1-35-40" color="#000"/><path id="outputsvg-p1DhuSb1vT" fill="#a9500c" stroke="none" d="M6530 1939c0-5-4-8-9-4-6 3-14-3-20-12-6-10-11-14-11-10 0 8-120-80-120-89 0-2 16-4 35-4 24 0 35 5 35 15 0 8 9 15 20 15s20 7 20 15 9 15 20 15 20 5 20 10c0 6 7 10 15 10 9 0 15 9 15 25 0 14-4 25-10 25-5 0-10-5-10-11" color="#000"/><path id="outputsvg-p16zzCmp35" fill="#a9500c" stroke="none" d="m5570 1250-35-29 38-1c35 0 37 2 37 30 0 17-1 30-3 30-1 0-18-13-37-30" color="#000"/><path id="outputsvg-pp8G3m6O7" fill="#a9500c" stroke="none" d="M5266 1023c-4-5-12-8-16-8-5 0-16-9-25-20s-13-13-9-5c5 9-1 8-15-5l-23-20 33-3c18-2 35 1 37 7s10 11 18 11 14 10 14 25c0 27-2 29-14 18" color="#000"/></g><g id="g26" fill="#585286" stroke="none" color="#000" transform="matrix(.0206 0 0 .0206 14.001 8.13)"><path id="outputsvg-pBL0Ynbe8" fill="#585286" stroke="none" d="M4840 4698c0-13 3-40 6-60 6-36 8-38 45-38 38 0 39 1 39 35 0 19-4 35-10 35-5 0-10 11-10 25 0 22-4 25-35 25-30 0-35-3-35-22" color="#000"/><path id="outputsvg-pHRlLDDdF" fill="#585286" stroke="none" d="M2350 4420c0-227-2-250-17-259-15-8-11-10 20-11 30 0 37 4 37 20 0 14-5 18-17 14-17-5-17-5-1 6 16 10 18 33 18 245 0 228-1 235-20 235s-20-7-20-250" color="#000"/><path id="outputsvg-p1HFjVsoUE" fill="#585286" stroke="none" d="M2857 4652c-10-10-17-33-17-50 0-30 3-32 33-32 42 0 67 26 67 68 0 30-3 32-33 32-20 0-41-8-50-18" color="#000"/><path id="outputsvg-pnGGimr9N" fill="#585286" stroke="none" d="M5410 4435c0-224 1-235 20-245 20-11 20-8 20 235 0 238-1 245-20 245s-20-7-20-235" color="#000"/><path id="outputsvg-pEPZhrlF5" fill="#585286" stroke="none" d="M3110 4608c0-26 13-45 72-105 61-61 78-73 105-73 31 0 33 2 33 33 0 27-12 44-73 105-60 59-79 72-105 72-29 0-32-3-32-32" color="#000"/><path id="outputsvg-p1CrfZEwMa" fill="#585286" stroke="none" d="M4517 4532c-59-59-107-115-107-124 0-10-9-18-22-20-19-2-24-10-26-41l-3-38 38 3c31 2 39 7 41 26 2 13 10 22 22 22 10 0 66 48 124 108 90 91 106 112 106 140 0 30-2 32-33 32-28 0-47-15-140-108" color="#000"/><path id="outputsvg-p10PTY9jJw" fill="#585286" stroke="none" d="M3330 4375c0-23 5-35 14-35 8 0 16-7 20-15 3-9 19-15 41-15 33 0 35 2 35 33 0 41-29 67-75 67-33 0-35-2-35-35" color="#000"/><path id="outputsvg-pROgJ8sRj" fill="#585286" stroke="none" d="M4210 4205c0-8-5-15-11-15-16 0-139-121-139-137 0-7-7-13-15-13-10 0-15-11-15-35 0-33 2-35 35-35 24 0 35 5 35 15 0 8 6 15 13 15 16 0 137 123 137 139 0 6 7 11 15 11 10 0 15 11 15 35 0 33-2 35-35 35-24 0-35-5-35-15" color="#000"/><path id="outputsvg-po3NpO1na" fill="#585286" stroke="none" d="M3550 4157c0-27 12-44 73-105 60-59 78-72 105-72 30 0 32 3 32 33 0 27-12 44-73 105-60 59-78 72-105 72-30 0-32-3-32-33" color="#000"/><path id="outputsvg-pA0xSxeyM" fill="#585286" stroke="none" d="M2320 4100c0-6 11-8 28-4 25 7 26 6 13-10-13-15-13-19 0-27 23-14 29-11 29 19 0 25-4 28-35 30-19 2-35-2-35-8" color="#000"/><path id="outputsvg-p1Dtm1T9ME" fill="#585286" stroke="none" d="M5410 4079c0-22 4-26 20-22 23 6 25 14 8 32-11 10-8 11 15 6 17-5 27-3 27 4s-14 11-35 9c-31-2-35-5-35-29" color="#000"/><path id="outputsvg-p1BwPgOUU2" fill="#585286" stroke="none" d="M2476 4041c-9-10-16-32-16-49 0-30 2-32 34-32 44 0 66 22 66 65 0 31-2 33-34 33-20 0-41-7-50-17" color="#000"/><path id="outputsvg-p1EiYz8kvm" fill="#585286" stroke="none" d="M5270 3996c0-28 4-35 23-39s18-4-5-6c-16 0-28-5-28-11 0-5-11-10-25-10-22 0-25-4-25-40 0-29 4-40 15-40 8 0 15-7 15-15 0-10 11-15 35-15 32 0 35 2 35 30 0 17 5 30 10 30 6 0 10-6 10-14s8-17 18-19c16-4 16-5 0-6-10 0-18-8-18-16 0-10 11-15 35-15 34 0 35 2 33 33-1 17-7 35-13 39-5 4 2 8 18 8 17 0 27 5 27 15 0 8-6 15-12 15-7 0-13 11-13 25s6 25 13 25c6 0 12 6 12 14 0 9-17 16-45 20-25 4-45 11-45 17 0 5-16 9-35 9-33 0-35-2-35-34" color="#000"/><path id="outputsvg-pljMGJS6a" fill="#585286" stroke="none" d="M2370 3985c0-8 7-15 16-15 13 0 14-3 5-13-14-17-4-27 26-27 20 0 23 5 23 35 0 33-2 35-35 35-24 0-35-5-35-15" color="#000"/><path id="outputsvg-poMCpsDAI" fill="#585286" stroke="none" d="M2470 3936c0-8 8-17 18-19 16-4 16-5 0-6-19-1-26-31-8-31 6 0 10-13 10-30 0-28 3-30 35-30 24 0 35 5 35 15 0 8 7 15 15 15 10 0 15 11 15 35 0 37-25 50-33 18-3-12-7-8-12 15-7 28-11 32-41 32-23 0-34-5-34-14" color="#000"/><path id="outputsvg-pFWbDdoKS" fill="#585286" stroke="none" d="M2402 3845c-1-34 0-35 33-35 37 0 50 25 18 33-17 4-17 5 0 6 9 0 17 8 17 16 0 10-10 15-33 15-32 0-34-2-35-35" color="#000"/><path id="outputsvg-pdgULG5Ik" fill="#585286" stroke="none" d="M3930 3780c0-16-7-20-30-20-28 0-30-3-30-35 0-33 2-35 35-35 28 0 35 4 35 20s7 20 30 20c28 0 30 3 30 35 0 33-2 35-35 35-28 0-35-4-35-20" color="#000"/><path id="outputsvg-plk63PLbz" fill="#585286" stroke="none" d="M2482 3753c3-36 5-38 41-41l38-3-3 38c-3 36-5 38-41 41l-38 3z" color="#000"/><path id="outputsvg-p1AkngDgGX" fill="#585286" stroke="none" d="M5247 3783c-11-10-8-62 3-84 7-12 21-19 40-19 28 0 30-3 30-35 0-34 1-35 39-35 36 0 40 3 44 28 2 16 5 9 6-20 1-41 4-48 21-48 16 0 20 7 20 34 0 19 7 42 16 50 8 9 11 16 5 16s-11 7-11 15 5 15 10 15c6 0 10 12 10 26 0 22-2 25-15 14-9-8-15-9-15-2 0 6 5 14 10 17 20 12 9 25-20 25-23 0-30-4-30-20 0-13-9-22-25-26-18-4-25-13-25-30 0-15-6-24-15-24s-15 9-15 24c0 13-3 38-6 55-6 27-11 31-39 31-17 0-35-3-38-7" color="#000"/><path id="outputsvg-pUOQHYGa7" fill="#585286" stroke="none" d="M2330 3771c0-6 5-13 10-16 6-3 10-11 10-17 0-7-6-6-15 2-13 11-15 8-15-18 0-17 6-33 13-36 9-5 9-7 0-12-10-4-9-9 2-21 8-8 15-30 15-49 0-27 4-34 20-34 17 0 20 7 20 40s3 40 19 40c11 0 22 6 24 13 4 9 8 8 16-3 8-12 11-7 11 22 0 33-3 38-35 48-24 8-35 18-35 31 0 14-7 19-30 19-16 0-30-4-30-9" color="#000"/><path id="outputsvg-piOTjJE5O" fill="#585286" stroke="none" d="M3650 3615c0-33 2-35 35-35s35 2 35 35-2 35-35 35-35-2-35-35" color="#000"/><path id="outputsvg-p1Eu1SuHzN" fill="#585286" stroke="none" d="M4082 3613c3-36 5-38 41-41l38-3-3 38c-3 36-5 38-41 41l-38 3z" color="#000"/></g><g id="g28" fill="#da550f" stroke="none" color="#000" transform="matrix(.0206 0 0 .0206 14.001 8.13)"><path id="outputsvg-p1FkbHil8P" fill="#da550f" stroke="none" d="M3728 6155c-64-19-161-50-215-70-134-50-441-202-535-265-90-60-269-209-276-228-3-10 6-12 34-10 36 3 39 6 42 36 3 29 6 32 38 32 22 0 37 6 40 15 4 8 10 15 15 15 13 0 109 72 109 82 0 4 5 8 11 8 10 0 127 67 139 80 9 9 286 140 316 150 16 4 54 18 84 30s109 40 175 62c161 54 209 54 370 0 176-59 208-71 227-82 10-6 23-10 29-10 12 0 310-140 319-150 12-13 129-80 139-80 6 0 11-4 11-10 0-5 4-10 10-10 5 0 20-11 34-25s36-25 50-25c18 0 25-6 28-22 2-18 10-24 40-26 33-3 37-6 40-35 3-31 5-32 51-35 26-2 47 1 47 7 0 17-161 150-275 226-251 168-768 376-930 374-27 0-103-16-167-34" color="#000"/><path id="outputsvg-p9WDelWl6" fill="#da550f" stroke="none" d="M2611 5500c-78-95-136-183-123-188 7-2 12-19 12-38 0-31 2-34 31-34 21 0 28 4 23 13-5 8-2 8 9-2 9-7 17-9 17-3 0 5 9 12 20 15 12 3 20 14 20 26 0 15-5 19-17 15-17-5-17-5 0 9 24 20 21 27-13 27q-30 0-30 15c0 8 5 15 10 15 6 0 10 9 10 20s7 20 15 20q15 0 15 30c0 25 4 30 25 30 30 0 38 15 33 61l-3 33z" color="#000"/><path id="outputsvg-pq9ccGuip" fill="#da550f" stroke="none" d="M5122 5552c-8-6-12-23-10-43 2-29 7-34 31-37 23-3 27-8 27-33 0-19 5-29 15-29 8 0 15-9 15-20s5-20 10-20c6 0 10-7 10-15s5-15 10-15c6 0 10-7 10-15 0-11 11-15 40-15h41l-15 28c-18 34-93 135-137 185-24 26-38 35-47 29" color="#000"/><path id="outputsvg-pBHNIE12s" fill="#da550f" stroke="none" d="M2612 5114c3-37 5-39 41-42l38-3-3 38c-3 33-6 38-32 41-21 3-26 0-20-10s3-9-10 1c-16 14-17 12-14-25" color="#000"/><path id="outputsvg-prbQX6we7" fill="#da550f" stroke="none" d="M5062 5078c-7-7-12-17-12-22 0-6-17-22-38-35-51-34-62-49-62-88 0-31 2-33 35-33 19 0 35 5 35 10 0 6 7 10 15 10 17 0 65 49 65 67 0 6 9 15 20 18 16 5 20 15 20 46 0 37-1 39-33 39-18 0-38-5-45-12" color="#000"/><path id="outputsvg-pncMaHQoj" fill="#da550f" stroke="none" d="M2690 5016c0-19 5-38 10-41 6-3 10-14 10-25 0-19 19-30 51-30 10 0 19-4 19-10 0-5 16-10 35-10 33 0 35 2 35 35 0 19-4 35-10 35-5 0-10 6-10 14s-8 17-19 21c-10 3-26 14-36 25-11 12-31 20-52 20-31 0-33-2-33-34" color="#000"/><path id="outputsvg-pSccD63v8" fill="#da550f" stroke="none" d="M5380 4916c0-45 1-46 31-46 29 0 30 1 27 43-3 38-6 42-30 45-27 3-28 2-28-42" color="#000"/><path id="outputsvg-pCe8xioQD" fill="#da550f" stroke="none" d="M4820 4910c0-5-7-10-15-10-10 0-15-11-15-35 0-33 2-35 36-35 44 0 64 19 64 61 0 31-1 32-16 13-13-16-15-16-10-1 4 13 0 17-19 17-14 0-25-4-25-10" color="#000"/><path id="outputsvg-pAANHfl3Y" fill="#da550f" stroke="none" d="M4920 4835c0-33 2-35 35-35s35 2 35 35-2 35-35 35-35-2-35-35" color="#000"/><path id="outputsvg-pZDXvk1cK" fill="#da550f" stroke="none" d="M4717 4763c-4-3-7-26-7-50 0-42 1-43 33-43 43 0 57 15 57 62 0 37-1 38-38 38-21 0-42-3-45-7" color="#000"/><path id="outputsvg-p17I69bnYa" fill="#da550f" stroke="none" d="M6032 1606c2-16 11-22 41-24 34-3 37-1 37 22 0 24-3 26-40 24-35-1-41-4-38-22" color="#000"/><path id="outputsvg-pqBy64ZI2" fill="#da550f" stroke="none" d="M5533 1224c-42-33-42-44 2-44 33 0 35 2 35 35 0 19-1 35-2 35-2 0-18-12-35-26" color="#000"/></g><g id="g29" fill="#205bd5" stroke="none" color="#000" transform="matrix(.0206 0 0 .0206 14.001 8.13)"><path id="outputsvg-pJTK271sw" fill="#205bd5" stroke="none" d="M4850 4700c0-34-22-59-52-60-10 0-18-5-18-10 0-6-8-14-19-18-28-11-402-373-412-399-5-13-15-23-24-23-8 0-15-7-15-15 0-9-8-18-17-22-10-3-29-15-43-27-38-32 124 138 320 337 154 156 175 181 175 210v32l-847 3-848 2v-33c0-28 10-43 65-95 35-34 68-62 72-63 4 0 35-35 68-77 34-43 76-85 98-96 21-11 37-27 37-37s4-19 8-21c4-1 46-43 92-93 46-49 66-73 44-52-22 20-45 37-52 37s-12 6-12 14-93 104-207 215c-195 188-210 201-245 201-31 0-38 4-38 19 0 10-7 21-15 25-8 3-15 18-15 34v28l-277-4c-153-1-287-4-298-5-19-2-19-9-16-257 1-140 5-257 7-259s13 4 23 13c25 23 55 17 59-11 2-16-10-36-43-68-62-60-57-80 18-72 35 4 47 3 37-3-8-5-36-10-62-10-65 0-61-18 5-22l52-3-47-15c-53-16-63-30-21-30 26 0 26-1 7-14-19-14-19-15 0-22 18-7 17-8-5-16-35-13-7-27 61-30l55-2-70-6c-63-5-67-7-45-17 14-7 19-12 13-12-7-1-13-8-13-16 0-9-6-12-16-8-14 5-16 1-12-20s1-27-13-27c-23 0-25-18-4-26 8-4 15-13 15-21 0-13-3-13-15-3-13 11-15 8-15-19 0-18 5-31 13-31 9 0 9-2-1-9-11-6-10-11 3-25 11-11 16-27 13-46l-5-30h640c567 0 638-2 627-15-23-27 42-18 72 10 32 29 38 31 38 9 0-8 4-12 10-9 5 3 77 6 160 6s155-3 160-6c6-3 10 1 10 9 0 23 13 20 40-9 27-28 93-38 70-10-11 13 60 15 627 15h640l-5 30c-3 19 2 35 13 46 12 12 13 19 5 24s-7 9 4 13c10 4 16 18 16 38 0 27-2 30-15 19-9-7-19-10-23-6s1 12 11 17c21 12 22 29 2 29-12 0-14 7-9 27 6 23 5 25-15 20-11-3-19-1-16 3 3 5-3 13-12 19-17 10-17 10 0 11 9 0 17 5 17 10 0 6-28 11-62 12l-63 1 64 6c38 4 66 11 69 19 2 7-6 12-20 13-12 0-17 3-10 6 18 7 15 31-5 36-12 3-8 5 9 6 44 2 41 18-5 30-74 19-79 32-9 25 43-5 62-3 62 5 0 6-19 11-47 11-27 0-55 5-63 10-11 7-3 9 25 4 22-3 51-1 64 4 24 8 24 9-28 61-36 37-51 59-49 74 4 28 34 34 59 11 10-9 21-15 23-13 4 3 10 486 7 514-1 6-93 10-253 11-139 1-272 4-295 9l-43 7zm-281-187c-52-54-103-104-114-112s29 36 90 98c60 61 112 111 114 111 3 0-38-44-90-97m-639-733c0-27-3-30-30-30s-30 3-30 30 3 30 30 30 30-3 30-30" color="#000" style="fill:#003ab1;fill-opacity:1"/><path id="outputsvg-polwwuHj8" fill="#205bd5" stroke="none" d="M2370 4183c-34-16-34-16-11-22l24-7-26-17c-31-20-37-50-9-40s82 65 82 85c0 22-13 22-60 1" color="#000"/><path id="outputsvg-pSXnWdw1e" fill="#205bd5" stroke="none" d="M5370 4181c0-21 72-91 95-91 22 0 8 26-31 55-19 14-34 33-34 41 0 7-7 14-15 14s-15-8-15-19" color="#000"/><path id="outputsvg-pwdnYwvux" fill="#205bd5" stroke="none" d="M1160 2017c0-2 47-145 105-318s104-323 103-334c-2-11-31-38-68-64-36-24-142-102-236-173-94-70-175-128-181-128-10 0-53-42-53-53 0-4 154-8 342-9l342-3 107-325c59-179 110-318 113-310s53 154 110 325l103 310 339 3c186 1 341 6 345 10s-7 18-24 32-28 18-23 10c4-8-2-4-13 10s-21 21-21 17-73 48-162 116c-90 67-193 144-230 171-38 26-68 54-68 64 0 9 43 145 95 303 86 259 105 329 90 329-3 0-23-12-44-27-21-16-47-34-57-40-40-27-172-121-190-137-10-9-68-51-127-95-99-72-111-78-141-71-19 4-111 66-219 149-103 78-187 138-187 134s-5 0-11 10c-6 9-14 15-20 12-5-4-9-1-9 5s-8 13-17 17c-10 3-35 19-55 36-21 16-38 27-38 24" color="#000" style="fill:#003ab1;fill-opacity:1"/></g><g id="g30" fill="#ee5711" stroke="none" color="#000" transform="matrix(.0206 0 0 .0206 14.001 8.13)"><path id="outputsvg-pdpMqiaC1" fill="#ee5711" stroke="none" d="M3860 6179c0-6-7-9-15-5-8 3-15 1-15-5 0-7-10-9-25-5-14 4-25 2-25-3s-9-7-20-4c-12 3-20 0-20-6 0-7-4-9-10-6-5 3-10 1-10-5 0-7-7-10-15-6-8 3-15 0-15-5 0-6-9-9-20-6s-20 1-20-5-7-8-15-4c-8 3-15 1-15-5s-7-9-15-5c-8 3-15 1-15-5s-7-9-15-5c-8 3-15 2-15-3 0-12-57-34-69-26-6 3-11 2-11-3 0-13-56-35-69-27-6 3-11 1-11-5s-4-8-10-5c-5 3-10 1-10-5s-4-8-10-5c-5 3-10 2-10-4s-7-8-15-5c-8 4-15 1-15-6 0-6-4-8-10-5-5 3-10 1-10-5s-4-8-10-5c-5 3-10 1-10-5s-4-8-10-5c-5 3-10 1-10-5s-4-8-10-5c-5 3-10 1-10-5s-4-8-10-5c-5 3-10 1-10-5s-4-8-10-5c-5 3-10 1-10-5s-4-8-10-5c-5 3-10 1-10-5s-4-8-10-5c-5 3-10 1-10-5s-4-8-10-5c-5 3-10 1-10-5s-4-8-10-5c-5 3-10 1-10-5s-4-9-8-6c-5 3-16-4-25-15-10-11-22-17-27-14-6 3-10 1-10-5s-4-9-9-6-12-1-15-10c-4-9-9-14-12-11s-14-3-25-14-24-17-29-14-14-4-20-16c-7-11-14-18-17-15s-14-5-24-17-18-18-19-12c0 5-7-1-16-13-8-12-19-20-24-17s-14-4-20-15-14-19-18-17c-12 3-57-36-65-57-4-10-10-16-14-12-8 8-93-73-93-89 0-6-13-21-30-33-16-13-30-29-30-36 0-8-7-16-15-20-8-3-15-12-15-21 0-8-4-15-10-15-5 0-10-7-10-15s-4-15-10-15c-5 0-10-7-10-15s-4-15-9-15c-13 0-69-112-92-184-30-93-48-217-51-354l-3-123 275 1c177 1 279 5 287 12s13 7 13 0c0-5-10-17-23-26l-22-16 30 2c26 3 30 7 33 36 2 20-3 41-11 50-20 24-67 133-67 157 0 8-8 33-17 55-15 33-23 40-45 40-16 0-28 5-28 10 0 14-35 63-85 121-22 25-47 59-55 75s-21 37-29 47c-14 17-14 20 4 33 10 8 25 14 32 14s13 4 13 8c0 5 11 14 24 20 27 12 27 12 71-98 118-290 153-365 179-385 7-5 16-27 20-49 5-26 14-40 27-43 10-3 19-13 19-23 0-9 9-29 21-44 17-22 28-26 59-24 27 1 36 6 33 15-4 11 141 13 802 13 717 0 806-2 795-15s-8-15 18-15c33 0 52 22 52 59 0 14 8 21 28 23 24 3 28 8 36 56 5 28 14 52 20 52 16 0 60 82 105 197 22 54 53 129 70 166 17 38 31 75 31 82s6 18 14 24c12 10 25 6 65-16l50-29-21-34c-12-19-39-58-60-86s-38-54-38-57c0-11-88-97-99-97-15 0-46-64-66-140-10-36-27-77-37-92-23-33-24-93-2-102 31-12 38-5 14 14-28 22-22 37 9 21 14-8 109-11 287-11 233 1 265 3 260 16-3 9-6 58-6 110 0 77-3 94-15 94-8 0-15 7-15 15s6 15 14 15c11 0 13 10 9 43-17 147-104 366-147 368-11 0-15 3-8 6 20 8 14 23-10 24-13 0-17 3-10 6 20 8 14 23-10 23-17 0-19 3-9 9 18 12 5 31-22 31-17 0-19 2-7 10 12 7 12 12-4 29-11 12-27 21-37 21-22 0-34 17-17 23 8 3-3 21-31 50-24 25-50 43-57 40-20-7-39 7-23 18 17 10-35 53-65 54-12 0-20 6-18 14 4 19-17 41-34 34-20-7-65 24-58 41 4 11 0 13-15 9-17-4-20-2-15 11 5 12 2 15-9 10-20-7-145 68-139 84 2 7-2 10-11 6-8-3-59 17-113 44-55 27-124 60-154 72s-64 26-75 31c-31 13-102 38-202 71-51 16-93 34-93 39 0 6-4 8-9 5-13-9-111 14-111 25 0 5-13 9-30 9-16 0-30-5-30-11" color="#000" style="fill:#da8e0a;fill-opacity:1"/><path id="outputsvg-pwYpRfpdN" fill="#ee5711" stroke="none" d="M6600 1989c-19-15-41-29-48-29s-15-7-18-15c-4-8-12-15-20-15s-14-4-14-10c0-5-5-10-11-10s-92-61-192-137c-100-75-190-138-199-141-10-2-18-8-18-14 0-5-10-4-22 3-23 12-240 169-248 180-4 5-143 105-180 129-8 5-37 26-65 45-56 39-69 43-56 18 15-30 201-608 201-625 0-9-38-44-85-78s-85-66-85-71c0-6-4-8-8-5-4 2-69-42-144-100-75-57-141-104-146-104-6 0-12-7-16-15-3-8-9-14-13-13-4 2-19-5-32-14-18-13-21-19-10-23 8-3 164-6 348-7l334-3 103-310c57-171 107-317 110-325s54 131 113 310l107 325 347 3c191 1 347 5 347 8 0 8-54 53-64 54-5 0-86 58-180 128-94 71-200 149-236 173-37 26-66 53-68 64-1 11 45 161 103 334s104 315 102 317c-1 1-18-11-37-27" color="#000" style="fill:#da8e0a;fill-opacity:1"/></g><g id="g31" fill="#2a67e1" stroke="none" color="#000" transform="matrix(.0206 0 0 .0206 14.001 8.13)"><path id="outputsvg-pfI7OXiTB" fill="#2a67e1" stroke="none" d="M3072 4655c2-24 8-31 31-33 23-3 27-8 27-33 0-19 5-29 15-29 8 0 15-5 15-10 0-22 64-80 88-80 18 0 22 3 14 13-6 6-10 14-10 17 2 10-27 50-36 50-5 0 1-12 15-27l24-28-27 24c-16 14-28 31-28 39 0 9-3 12-7 9-9-10-34 14-26 26 3 5 1 7-4 4-11-7-45 37-49 61-2 8-6 17-10 20-4 4-4-2 0-12 7-20 7-20-14-1l-22 20z" color="#000"/><path id="outputsvg-pbpiT9Zpk" fill="#2a67e1" stroke="none" d="M2900 4651c0-6 3-11 8-11 4 0 16-7 26-15 16-12 17-17 6-30-13-16-14-15 65-20 11-1 26-5 33-9 10-6 13 0 10 25-2 26-10 37-32 48-40 19-116 27-116 12" color="#000"/><path id="outputsvg-p14OISEEBd" fill="#2a67e1" stroke="none" d="M4760 4631c-5-11-10-32-10-47 0-21 3-24 13-15 8 6 16 8 20 5 3-3 11 3 18 14s18 18 25 15c11-4 54 29 54 42 0 3-25 5-55 5-43 0-56-4-65-19" color="#000"/><path id="outputsvg-p11O7R3SLF" fill="#2a67e1" stroke="none" d="M3310 4409c0-15 17-41 46-69 25-25 59-57 74-72 28-28 79-40 63-15-4 6-8 15-8 19 0 3-4 10-9 15s-6 3-2-4c14-25-2-13-20 15-17 26-17 27 2 12 10-8 6 0-10 18-29 31-55 44-40 20 4-7 3-8-5-4-6 4-9 11-7 15 3 4-8 21-24 36-17 16-30 25-30 21 0-5-7-3-15 4-13 10-15 9-15-11" color="#000"/><path id="outputsvg-pVDhxBWNj" fill="#2a67e1" stroke="none" d="M4313 4186c-21-21-33-43-33-60 0-19 4-25 13-19 6 4 16 8 22 8 5 0 15 10 21 23s15 23 20 22 17 12 26 29l18 31h-28c-17 0-38-12-59-34" color="#000"/><path id="outputsvg-p1GluSP4Lg" fill="#2a67e1" stroke="none" d="M3430 4185c12-14 12-18 0-25s-11-10 3-16c10-3 21-4 24 0 3 3 13 1 20-6 12-10 14-6 11 23-3 31-6 34-37 37s-33 2-21-13" color="#000"/><path id="outputsvg-p15PcUUVWt" fill="#2a67e1" stroke="none" d="M5370 4191c0-19 45-41 80-41l35 1-45 24c-48 26-70 31-70 16" color="#000"/><path id="outputsvg-pfXdCRsu" fill="#2a67e1" stroke="none" d="M3550 4168c0-29 28-58 55-58 17 0 17 2-3 23-29 31-28 45 1 21l22-19-19 23c-11 12-21 20-24 17s-11 0-19 6c-10 9-13 6-13-13" color="#000"/><path id="outputsvg-pHoHFWtoz" fill="#2a67e1" stroke="none" d="M5290 4075c0-8-4-15-10-15-5 0-10-4-10-10 0-5 11-10 24-10 14 0 28-4 31-10 3-5 31-10 61-10s54 5 54 10c0 6-17 10-39 10-21 0-54 7-72 15-32 13-32 14-8 15 14 0 30-5 36-11s21-9 34-7c18 3 10 8-33 21-68 21-68 21-68 2" color="#000"/><path id="outputsvg-pCqswi0VL" fill="#2a67e1" stroke="none" d="M2350 4030c0-5 23-10 50-10 28 0 50 5 50 10 0 6-22 10-50 10-27 0-50-4-50-10" color="#000"/><path id="outputsvg-pehMWfbbx" fill="#2a67e1" stroke="none" d="M2380 3986c0-18 38-28 62-15 30 16 20 29-22 29-27 0-40-4-40-14" color="#000"/><path id="outputsvg-pB0Cxr4C2" fill="#2a67e1" stroke="none" d="M2392 3919c-44-17-11-29 74-28 56 2 83 6 81 13s-22 10-49 8c-26-2-55 1-65 6-11 6-27 6-41 1" color="#000"/><path id="outputsvg-pTGAKT0PT" fill="#2a67e1" stroke="none" d="M2480 3747c0-10 7-20 15-24 18-6 20-5 29 23 6 19 3 22-19 20-17-1-25-7-25-19" color="#000"/><path id="outputsvg-pfNKTkPH8" fill="#2a67e1" stroke="none" d="M3951 3674c10-13 10-17 0-24-17-10 4-24 24-16 8 3 18 0 22-7 5-7 16-18 26-26 15-12 17-11 17 18 0 20-5 31-14 31-7 0-16 9-19 20-4 15-14 20-37 20-28 0-31-2-19-16" color="#000"/><path id="outputsvg-p1F6Nj5on6" fill="#2a67e1" stroke="none" d="M3747 3632c-21-23-24-80-4-64 7 6 24 9 38 6 13-2 19-2 12 2-9 4-7 15 7 40l20 34h-29c-15 0-35-8-44-18" color="#000"/><path id="outputsvg-pysu1IcEg" fill="#2a67e1" stroke="none" d="M2268 1999c-10-5-18-21-18-34 0-29 18-34 26-7 3 9 10 25 15 35 10 19 3 21-23 6" color="#000"/><path id="outputsvg-p1H9GUffE3" fill="#2a67e1" stroke="none" d="M2095 1879c-22-17-47-34-55-39s-12-12-8-15c8-8 108 62 108 76 0 12 0 12-45-22" color="#000"/><path id="outputsvg-p7QxgPhRF" fill="#2a67e1" stroke="none" d="M1225 1249c-22-17-47-34-55-39s-12-12-8-15c8-8 108 62 108 76 0 12 0 12-45-22" color="#000"/><path id="outputsvg-p18eeq6IkB" fill="#2a67e1" stroke="none" d="M842 970c-12-10-22-21-22-24s154-5 343-4l342 3-322 2c-284 3-360 9-311 25 7 3 8 7 2 10-5 3-19-2-32-12" color="#000"/><path id="outputsvg-p19UCzg2vC" fill="#2a67e1" stroke="none" d="M2605 962c-4-4-156-9-338-12l-332-6 347-2c196-1 349 2 352 7 7 11-19 22-29 13" color="#000"/></g><g id="g33" fill="#807f7f" stroke="none" color="#000" transform="matrix(.0206 0 0 .0206 14.001 8.13)"><path id="outputsvg-p17FWYHQvU" fill="#807f7f" stroke="none" d="M1145 5680c-10-11-13-20-7-20 7 0 12-7 12-15 0-22 17-18 30 6 12 21 7 49-8 49-5 0-17-9-27-20" color="#000"/><path id="outputsvg-p1N8B5vrc" fill="#807f7f" stroke="none" d="M6617 5693c-11-10-8-28 7-48 12-17 15-18 30-3 20 20 20 23 0 42-17 17-27 20-37 9" color="#000"/><path id="outputsvg-plBIaojcx" fill="#807f7f" stroke="none" d="M2250 5579c-17-18-27-35-22-38s11-13 14-21c3-10 14-1 36 29 29 40 33 61 12 61-5 0-23-14-40-31" color="#000"/><path id="outputsvg-pg173X38J" fill="#807f7f" stroke="none" d="M5497 5604c-10-11 34-83 64-105l29-20v29c0 20-11 41-35 65-36 37-46 42-58 31" color="#000"/><path id="outputsvg-pQmb5KUnJ" fill="#807f7f" stroke="none" d="M2668 5341c-18-15-50-34-70-40-21-7-40-16-43-21-6-10 34-80 46-80 5 0 9 13 9 29 0 21 6 32 20 36 11 3 20 11 20 16s9 9 19 9c11 0 21 6 23 12 7 19 38-16 38-42 0-11 7-23 15-26 8-4 15-14 15-25 0-23 33-115 69-194 16-33 31-70 35-82 4-13 12-23 17-23s9-11 9-25-4-25-10-25c-5 0-10-7-10-15s-4-15-9-15c-11 0-3-39 12-57 13-18 27-16 27 2 0 8 9 15 20 15s20-4 20-10c0-5 20-36 45-69 25-32 45-66 45-75 0-10 9-16 25-16 14 0 25-4 25-10 0-5 7-10 15-10s15-9 15-19c0-23 45-61 71-61 14 0 19-7 19-25s5-25 20-25c13 0 20-7 20-19 0-11 6-22 13-24 6-3 2-6-10-6-34-1-28-22 20-69 44-43 62-51 70-29 3 9 7 9 17 0 9-8 7-13-10-18-21-7-20-9 25-55 36-37 52-46 71-42 17 3 24 0 24-12 0-9 8-16 18-16s29-11 42-25c15-15 34-25 52-25 28 0 28 1 14 21-24 35-205 219-215 219-5 0-11 4-13 9-1 5-72 81-157 169s-158 167-163 175c-6 12-1 20 22 34 30 17 42 40 16 30-9-4-18 4-24 23-12 32-55 65-72 55-17-11-57 36-74 87-9 24-25 66-36 91-12 26-21 49-20 52 0 3-11 29-24 57-13 29-35 80-50 113-55 123-55 123-108 76" color="#000"/><path id="outputsvg-pvRkCyRym" fill="#807f7f" stroke="none" d="M5062 5350c-16-26-15-30 7-30 11 0 23-4 26-10 3-5 17-10 31-10 13 0 24-5 24-11 0-7 7-17 16-24 15-10 14-16-11-56-16-24-43-62-62-85-18-23-33-45-33-50s-9-15-20-22c-20-12-29-72-11-72 14 0 133 146 181 223 46 73 45 90-8 100-15 3-45 19-66 36-45 36-57 38-74 11" color="#000"/><path id="outputsvg-pJdD3B85X" fill="#807f7f" stroke="none" d="M5000 5213c-28-60-110-269-110-280 0-23-52-74-70-68-24 7-70-33-73-62-1-17-6-22-19-17-10 3-18 1-18-5s3-11 8-11c4-1 18-10 31-21l24-19-59-63c-110-118-251-262-315-322-58-55-184-186-218-228-12-15-10-17 18-17 21 0 31 5 31 15 0 8 6 15 14 15 7 0 22 11 32 25s29 25 41 25c14 0 23 6 23 15 0 10 10 15 28 15 19 0 40 12 66 39 33 34 36 40 22 53-13 14-12 18 10 38 20 20 24 21 24 7 0-25 20-21 52 10 30 29 37 53 14 53-11 0-12 5-3 25 7 14 18 25 25 25 6 0 12 7 12 15s6 15 13 15c19 0 77 63 77 83 0 11 8 17 23 17 33 1 55 22 62 63 6 30 11 37 31 37 21 0 24-5 24-36 0-35 1-36 28-30 15 4 35 8 45 9 23 2 21 22-4 39l-22 14 27 27c14 14 26 31 26 37 0 13-36 13-60 0-16-8-18-8-14 5 4 8 10 15 15 15s9 6 9 14 6 16 14 19 16 18 19 34c3 23 4 22 6-9 2-51 26-50 39 1 9 37 8 40-13 43-20 3-21 5-9 33l13 30 1-27c0-39 18-35 36 7 18 44 18 45-6 45-20 0-28 24-11 35 5 3 15 22 22 43 6 20 22 61 35 90 27 59 32 112 11 112-8 0-20-12-27-27" color="#000"/><path id="outputsvg-psJfqViIM" fill="#807f7f" stroke="none" d="M2631 5143c43-63 129-163 140-163 5 0 9 11 9 25 0 15-24 55-62 105-52 65-68 80-91 80h-28z" color="#000"/><path id="outputsvg-paPi2YQqs" fill="#807f7f" stroke="none" d="M2890 4730c6-10 18-24 28-30 16-10 15-12-5-26-26-18-30-34-9-34 7 0 27-7 42-15 41-21 54-19 54 10 0 16-6 25-15 25-10 0-15 10-15 33 0 42-15 57-57 57-30 0-33-2-23-20" color="#000"/><path id="outputsvg-p22skMabc" fill="#807f7f" stroke="none" d="M2351 4172c-48-26-51-42-7-42 37 0 51 14 44 45-3 14-7 13-37-3" color="#000"/><path id="outputsvg-p9vnhPj9s" fill="#807f7f" stroke="none" d="M3650 4047c0-36 1-37 34-37s35-2 38-37 6-38 36-41c31-3 32-5 32-50 0-36 6-52 27-74l26-27-44-48c-24-26-55-58-68-70l-24-23h37c20 0 36 5 36 10 0 6 5 10 10 10 6 0 10-8 10-17 0-12 16-2 51 34l52 51 28-33c20-22 36-31 48-28 10 3 22 0 25-6 4-6 24-11 44-11h37l-64 62c-54 53-62 65-52 80 9 15 8 18-6 18-13 0-14 3-5 12 7 7 12 20 12 30s7 18 15 18c26 0 95 75 95 103 0 22 5 26 33 29 30 3 32 6 35 43l3 40-124-123c-91-91-128-121-140-116-9 3-17 10-17 14 0 8-43 53-153 160l-67 64z" color="#000"/><path id="outputsvg-p1H0vgkVmr" fill="#807f7f" stroke="none" d="M2494 4052c-4-12-12-22-20-22-28 0-64-24-64-43 0-17 5-19 33-13 17 4 45 20 62 36 28 28 29 31 12 47-17 17-18 17-23-5" color="#000"/><path id="outputsvg-prGSthGai" fill="#807f7f" stroke="none" d="M5281 4061c-33-21 38-91 93-91 27 0 19 37-10 44-14 4-35 18-47 31-16 18-26 22-36 16" color="#000"/><path id="outputsvg-p15uLBUOSs" fill="#807f7f" stroke="none" d="M2513 3913c-14-5-18-63-5-63 19 0 44 28 41 45-4 20-17 26-36 18" color="#000"/><path id="outputsvg-psJXo9Q9t" fill="#807f7f" stroke="none" d="M5254 3911c-11-11-2-41 15-51 26-13 31-13 31 5 0 11 12 15 45 15 37 0 45 3 45 18 0 16-9 18-66 18-36-1-68-3-70-5" color="#000"/><path id="outputsvg-pMgj8DBTt" fill="#807f7f" stroke="none" d="M2420 3765c0-20 5-25 24-25 13 0 26-6 29-14 8-20 49-8 45 13-2 8-25 23-51 33l-47 18z" color="#000"/><path id="outputsvg-pMNlUAf6D" fill="#807f7f" stroke="none" d="M5294 3756c-18-14-18-16-2-32 20-20 38-11 38 22 0 28-8 30-36 10" color="#000"/><path id="outputsvg-pRqD0um1u" fill="#807f7f" stroke="none" d="M2380 3690c0-6-13-10-30-10-16 0-30-3-30-6 0-17 34-34 70-34 37 0 41 2 38 21-3 22-48 48-48 29" color="#000"/><path id="outputsvg-paWgvhrGb" fill="#807f7f" stroke="none" d="M5394 3690c-22-9-37-34-27-44 12-12 85-6 99 8 20 21 18 26-15 26-16 0-31 4-33 9-1 5-12 5-24 1" color="#000"/><path id="outputsvg-p13L8EfJ5T" fill="#807f7f" stroke="none" d="M3445 3385c-157-155-213-215-198-215 11 0 26 7 33 15 7 9 15 13 18 10s-4-16-16-28l-22-24 37-24c31-20 37-30 35-52-3-32 13-36 28-6 9 17 7 26-14 54-31 41-32 45-6 45 11 0 20 4 20 10 0 5 40 51 90 102 57 60 89 101 90 115 0 13 14 35 30 50 17 14 30 32 30 40 0 7 5 13 10 13 6 0 10-4 10-10 0-18 26-11 48 13 17 18 20 30 15 65-3 23-8 42-12 42-3-1-105-97-226-215" color="#000"/><path id="outputsvg-ppmvUpC6d" fill="#807f7f" stroke="none" d="M4122 3569c2-24 10-37 26-44 12-5 22-14 22-18 0-5 19-29 43-54 23-24 42-53 42-63 1-28 181-210 209-210 19 0 22-4 18-36l-4-36 31 16c17 9 31 18 31 21 0 2-10 13-22 25-12 11-18 23-14 27s12 0 17-10c6-9 20-17 31-17 16 0-38 58-196 213-120 116-222 214-228 216-5 2-8-12-6-30" color="#000"/><path id="outputsvg-p19AMse794" fill="#807f7f" stroke="none" d="M4439 3094c-9-11-10-20-3-32 19-29 32-24 32 13 0 38-8 44-29 19" color="#000"/><path id="outputsvg-pVRUWd7XV" fill="#807f7f" stroke="none" d="M2190 2490c0-16 7-20 37-20 35 0 36 0 18 20-10 11-26 20-37 20s-18-7-18-20" color="#000"/><path id="outputsvg-p1GtbU5bha" fill="#807f7f" stroke="none" d="M2093 2455c-20-22-16-45 7-45 16 0 20 7 20 30 0 33-8 37-27 15" color="#000"/><path id="outputsvg-pLlx16CZ0" fill="#807f7f" stroke="none" d="M2590 2282.862c0-3.57-.5-19.311 5.448-32.397 46.486-70.108 54.036-25.897 54.036 9.793 0 23.794-5.949 29.742-29.742 29.742-16.656 0-29.742-3.569-29.742-7.138" color="#000" style="fill:#b2b2b2;fill-opacity:1;stroke-width:1.18968"/><path id="outputsvg-pN2cFSQ0T" fill="#807f7f" stroke="none" d="M2700 2277c0-17 48-63 56-54 3 3 3 19-1 36-5 24-12 31-31 31-13 0-24-6-24-13" color="#000"/><path id="outputsvg-p11esTLrJt" fill="#807f7f" stroke="none" d="M2817 2270c7-27 63-74 75-62 13 13-1 62-18 62-8 0-14 5-14 10 0 6-11 10-24 10-19 0-23-4-19-20" color="#000"/><path id="outputsvg-pZcs5Z7qi" fill="#807f7f" stroke="none" d="M2983 2265c27-24 77-34 77-17 0 19-39 42-71 42l-34-1z" color="#000"/><path id="outputsvg-pmI1kTAyc" fill="#807f7f" stroke="none" d="M4734.553 2236.119c0-31 46.447-10.362 82.447 21.638l28 31.243-35.862 5.363c-34 0-61.755-10.344-70.875-30.466" color="#000"/><path id="outputsvg-p15SFLODN6" fill="#807f7f" stroke="none" d="M4940 2280c0-5-.796 5.41-9.258 8.02-21.257 6.556-45.542-64.11-24.351-86.458 11.677-12.314 49.646.63 84.006 75.646 4 16-7.397 12.792-26.397 12.792-13 0-24-4-24-10" color="#000"/><path id="outputsvg-pYVwS1Hmy" fill="#807f7f" stroke="none" d="M5032.516 2261.517c-5.516-42.327 16.001-57.638 46.001-22.638C5118.33 2284.069 5106 2290 5076 2290c-18 0-34.587 5.277-41.587-16.723" color="#000"/><path id="outputsvg-p2Q7DacdO" fill="#807f7f" stroke="none" d="M5143.688 2230.789c0-28 35.795-11.963 51.795 9.037 19 27 6.895 49.605-21.105 49.605-18 0-27.655-1.965-27.655-15.965" color="#000"/><path id="path45" fill="#807f7f" stroke="none" d="M5153.361 2266.08c0-24.349-8.861-65.179 32.176-13.914 16.522 23.48 13.914 30.437-10.435 30.437-15.653 0-21.74-4.348-21.74-16.523" color="#000" style="fill:#fff;fill-opacity:1;stroke-width:.869608"/></g><g id="g34" fill="#eb5c3d" stroke="none" color="#000" transform="matrix(.0206 0 0 .0206 14.001 8.13)"><path id="outputsvg-p12eMLlG0r" fill="#eb5c3d" stroke="none" d="M4900 4775c0-19 5-35 10-35 6 0 10 7 10 15s4 15 8 15 8 9 9 20c1 14-4 20-18 20-15 0-19-7-19-35" color="#000"/></g><g id="g35" fill="#b2b2b2" stroke="none" color="#000" transform="matrix(.0206 0 0 .0206 14.001 8.13)"><path id="outputsvg-pDJq5BRNj" fill="#b2b2b2" stroke="none" d="M5725 5751c-9-28 5-44 34-39 21 3 21 3-3 33l-23 29z" color="#000"/><path id="outputsvg-pSNfXiUbA" fill="#b2b2b2" stroke="none" d="M1138 5671c-17-25-24-111-8-111 11 0 46 70 52 105 4 27-27 31-44 6" color="#000"/><path id="outputsvg-p25Lgae5I" fill="#b2b2b2" stroke="none" d="M6617 5684c-12-12 47-144 65-144 4 0 8 16 8 35 0 24-5 35-15 35-17 0-21 26-5 32 14 4-17 48-34 48-7 0-15-3-19-6" color="#000"/><path id="outputsvg-p18Jb87bcE" fill="#b2b2b2" stroke="none" d="M2242 5567c-31-31-42-51-42-72 1-30 1-30 50 24 45 49 64 91 42 91-4 0-27-19-50-43" color="#000"/><path id="outputsvg-pha7Mnfds" fill="#b2b2b2" stroke="none" d="M5500 5592c0-20 59-94 60-74 0 6 8 12 17 12 12 0 6 11-22 40-43 44-55 49-55 22" color="#000"/><path id="outputsvg-p67z09nnL" fill="#b2b2b2" stroke="none" d="M2685 5348c-11-6-22-14-25-18-8-12-68-40-83-40-12 0-13-7-5-38 11-44 176-260 213-279 13-8 29-31 38-55 8-24 20-59 26-78 7-19 14-39 15-45 15-50 30-75 46-75 11 0 21-4 24-9 9-14-4-41-20-41-13 0-44-37-44-54 0-5 9-1 19 8 16 14 24 15 40 6 12-6 26-8 31-5 6 3 10 2 10-4 0-5 6-11 14-13 14-3 248-224 493-466 85-84 140-131 149-128s14-1 14-12c0-19 196-220 205-210 3 3-1 11-10 18-24 20-17 32 9 15 19-12 25-13 34-3 8 10 1 24-26 54-20 23-44 51-52 63-8 11-18 21-22 21-8 0-229 225-273 278-29 35-45 41-45 17 0-18-12-19-28-3-10 10-15 10-22-1-7-12-11-12-24-2-9 8-16 18-16 23 0 6 6 5 15-2 21-17 36-3 29 28-7 28-52 79-191 218-46 46-83 86-83 91 0 15-40 43-61 43-11 0-17 4-14 10 3 5-17 39-45 74-52 68-58 84-38 104 8 8 17 8 31 1 16-9 19-18 13-55-3-24-2-44 2-44s21 10 37 21c25 18 27 20 8 16s-23-1-23 19c0 31-35 66-63 62-12-2-28 4-35 12-12 13-13 12-9-7 3-13 2-23-3-23-4 0-10 15-13 33s-21 68-42 112c-53 117-52 114-79 192-14 40-30 80-35 90s-17 35-26 56c-17 39-27 44-60 25m65-187c0-8-45-31-60-31-21 0-9 39 13 42 25 4 47-1 47-11" color="#000"/><path id="outputsvg-pgmtV99Qz" fill="#b2b2b2" stroke="none" d="M5072 5351c-15-9-60-101-66-135-2-13-14-44-25-69-12-25-21-49-21-53s-9-26-19-48c-26-54-72-174-75-191-1-8-6-18-10-22-5-4-6 6-2 22 4 20 3 25-3 16-5-8-16-11-25-8-22 9-76-39-76-68 0-19-4-22-22-18-22 5-22 5 2-13 14-10 28-19 33-20 4-1 10-2 13-3 3 0-6-15-20-32s-26-39-26-49c0-18-25-35-47-31-7 1-13-3-13-9s-70-82-155-167l-155-157 22-23c21-23 23-23 35-7 7 10 13 12 13 6 0-7 4-12 8-12 5 0 92 81 193 180s192 180 202 180c9 0 26 5 37 12 15 10 23 9 39-6 12-11 21-15 21-10 0 17-31 54-46 54-22 0-16 36 9 53 13 8 29 34 36 58s17 55 23 69c7 17 6 26-1 28-15 5-14 22 2 22 6 0 18 14 26 31 7 17 24 35 37 41 28 13 61 58 42 58-9 0-9 3 0 12 21 21 15 88-10 107-18 15-19 18-5 24 9 3 19 2 22-3 11-18 75-12 81 8 14 44 29 62 56 67 16 4 27 12 26 18-4 11-126 97-138 97-3 0-11-4-18-9m-239-530c3-14-1-17-22-13-24 4-25 3-8-10s17-15 3-27c-19-16-32-8-38 24-9 45 53 70 65 26" color="#000"/><path id="outputsvg-pWKHxqOLJ" fill="#b2b2b2" stroke="none" d="M4324 4268c-4-7-3-8 4-4s12 1 12-9-7-15-17-13c-12 2-18-3-17-14 1-9-4-14-11-12-6 3-47-32-91-77-43-44-132-135-196-201-65-66-118-126-118-133 0-6 9-20 20-30 17-15 23-16 33-6 6 7 119 117 250 244 130 127 237 235 237 240s-6 4-13-2c-10-8-21-7-40 2-15 6-27 15-27 20 0 11-18 8-26-5" color="#000"/><path id="outputsvg-p163UAqyIz" fill="#b2b2b2" stroke="none" d="M2481 4051c-20-17-30-61-13-61 18 0 52 33 52 50 0 28-15 32-39 11" color="#000"/><path id="outputsvg-p18QYH1fIn" fill="#b2b2b2" stroke="none" d="M5286 4063c-22-22 7-63 57-82 25-10 27-9 27 14 0 18-7 26-25 31-14 3-25 12-25 19 0 14-25 27-34 18" color="#000"/><path id="outputsvg-ptLmvXiwR" fill="#b2b2b2" stroke="none" d="M5254 3899c-3-6 3-21 15-32 12-12 21-16 21-9s13 12 30 12c23 0 30 4 30 20 0 17-7 20-44 20-25 0-48-5-52-11" color="#000"/><path id="outputsvg-prZA9mn9x" fill="#b2b2b2" stroke="none" d="M3858 3757c-14-18-19-19-27-8-7 11-11 10-20-7-6-11-11-28-11-37q0-16.5-15-12c-17 7-301-273-287-282 11-7-20-51-36-51-5 0-13-8-16-17-6-15-9-15-16-3s-14 9-34-13c-14-16-26-34-26-41 0-8-15-21-32-29-43-21-108-87-86-87 9 0 23 9 31 20s17 17 20 13c4-4-3-17-15-30l-21-23 24-20c13-10 31-26 40-35 22-21 32-6 14 22-14 21-14 24 5 43 22 22 24 67 2 62-6-1-12 2-12 8 0 15 16 12 30-5 15-18 30-19 30-2 0 7 9 18 21 25 12 8 18 19 15 28-3 8-1 12 4 9s104 87 220 201c186 184 239 242 198 218-7-4-2 5 11 19 13 15 29 24 35 20 27-15 37-26 27-32-6-4 86-103 204-220 118-118 218-210 224-207 7 4 9 1 5-8-3-9 3-20 15-28 12-7 21-16 21-20 0-7 11-21 57-71 15-16 15-19-3-45-11-15-20-32-19-39 0-16 443-443 458-443 7 0-89 101-212 224l-224 224 36 36c21 20 37 39 36 43 0 4 6 10 15 13 12 4 8 13-21 44-20 21-49 43-65 48-15 6-28 15-28 21 0 5-12 26-27 45-23 30-27 33-33 17-5-16-11-13-42 19-20 21-35 43-32 50 2 6-55 72-128 147-104 105-141 137-168 143-19 4-29 10-22 13 6 2 12 12 11 21 0 11-2 12-6 5-5-14-33-18-33-5 0 4-15 14-32 22-18 7-35 15-38 16-3 2-13-7-22-19" color="#000"/><path id="outputsvg-pcIY9GdsI" fill="#b2b2b2" stroke="none" d="M2450 3750c0-16 7-20 30-20 32 0 37 9 18 28s-48 15-48-8" color="#000"/><path id="outputsvg-p1E7nf018M" fill="#b2b2b2" stroke="none" d="M2370 3690c0-5-9-10-20-10s-20-4-20-10c0-15 35-30 69-30 37 0 41 22 9 44-26 18-38 20-38 6" color="#000"/><path id="outputsvg-pKPGTjy7k" fill="#b2b2b2" stroke="none" d="M5392 3684c-32-22-28-44 9-44 34 0 69 15 69 30 0 6-9 10-20 10s-20 5-20 10c0 14-12 12-38-6" color="#000"/><path id="outputsvg-pOAVDrS6m" fill="#b2b2b2" stroke="none" d="M3302 3037c-18-18-32-42-32-52 0-15 9-10 45 25 25 24 45 48 45 52 0 18-28 6-58-25" color="#000"/><path id="outputsvg-pjYeoZUud" fill="#b2b2b2" stroke="none" d="M3025 2760c-110-110-195-200-189-200 17 0 421 399 404 400-8 0-105-90-215-200" color="#000"/><path id="outputsvg-pgOHzud09" fill="#b2b2b2" stroke="none" d="M5040 2260c0-35 23-41 40-10 13 25 5 40-21 40-14 0-19-7-19-30" color="#000"/><path id="outputsvg-p12e1qZBBf" fill="#b2b2b2" stroke="none" d="M2700.896 2265.654c0-3 7.655-16.086 17.587-25.758 22.776-30.087 56.678-54.207 49.294 23.83-2.807 29.664-16.57 25.568-36.57 25.568-14 0-34.105-2.43-34.105-5.43" color="#000"/><path id="outputsvg-plXYVEkgM" fill="#b2b2b2" stroke="none" d="M2809.189 2275.552c0-6 15.172-34.19 29.172-49.19 44.36-38.94 52.971-32.131 63.694-22.435-1.707 62.67-10.295 96.485-63.314 84.798-15.922-3.51-30.311.932-30.311-4.068" color="#000"/><path id="path46" d="M74.765 55.217c.026-.042.08-.125.139-.196.059-.07.123-.13.22-.233.096-.103.225-.25.52-.395.295-.145.759-.29 1.044-.333.285-.043.394.014.438.125.044.112.024.278-.038.436a1.8 1.8 0 0 1-.257.428c-.093.119-.176.205-.44.267a4.4 4.4 0 0 1-1.012.085 1.6 1.6 0 0 1-.557-.11c-.084-.033-.084-.033-.057-.074" style="fill:#b2b2b2;fill-opacity:1;stroke:none;stroke-linecap:square" transform="translate(-679.789 -394.798) scale(48.55685)"/><path id="outputsvg-pPkrV5UPZ" fill="#b2b2b2" stroke="none" d="M4927 2273c-10-10-8-63 2-63 11 0 51 48 51 61 0 10-44 12-53 2" color="#000"/></g><g id="g36" fill="silver" stroke="none" color="#000" transform="matrix(.0206 0 0 .0206 14.001 8.13)"><path id="outputsvg-p8uSNcVrZ" fill="silver" stroke="none" d="M2052 5758c-17-17-15-58 2-58 18 0 30 35 19 55-7 12-12 12-21 3" color="#000"/><path id="outputsvg-pwezOz9Qa" fill="silver" stroke="none" d="M5727 5756c-10-25 3-66 19-66 18 0 18 40 1 64-13 18-14 18-20 2" color="#000"/><path id="outputsvg-pDMW7jYeJ" fill="silver" stroke="none" d="M1142 5670c-15-24-16-80-1-80 11 0 39 60 39 85 0 21-23 19-38-5" color="#000"/><path id="outputsvg-p1Gq0WRzQs" fill="silver" stroke="none" d="M6661 5565c12-19 25-35 30-35s9 16 9 35c0 32-2 35-30 35h-29z" color="#000"/><path id="outputsvg-ptmMMvVqd" fill="silver" stroke="none" d="M5528 5543c11-16 32-39 46-52l26-24v31c0 34-38 72-72 72-19 0-19 0 0-27" color="#000"/><path id="outputsvg-p11kXYZYIV" fill="silver" stroke="none" d="M2648 5309c-10-23-18-29-35-26-36 7-47-16-27-55 36-71 169-235 205-253 19-10 32-30 44-65 9-28 14-54 11-57s-1-11 4-18c5-6 11-22 13-35s12-25 21-26c24-3 34-16 19-21-17-6-16-33 1-33 7 0 19-6 25-14 13-15 8-22-44-65-9-7-14-16-10-19 3-4 10 0 15 7 4 8 15 11 23 8 9-3 17-1 20 6q3 12 21-6c10-9 22-17 28-17 5 0 18-10 28-22 10-13 28-23 41-23 12 0 24-6 27-14 3-10 0-12-13-7-15 6-16 4-5-9 8-9 22-14 31-12 20 5 44-17 35-31-3-5 8-24 25-43s28-29 25-22c-4 6-2 14 3 17 11 7 35-20 27-32-7-12 30-46 42-38 5 3 22-8 37-24 16-17 25-30 22-30-4 0-3-10 4-21 9-17 13-19 20-8s9 11 9-2c0-8 12-26 27-40 15-13 21-16 14-6-22 28-7 30 22 3 28-26 35-46 17-46-6 0 0-11 12-24 18-18 26-21 37-12s13 7 7-10c-4-15 3-29 30-55 19-18 34-29 32-24-2 6 2 10 7 10 6 0 10-7 10-15s9-15 20-15c12 0 20-7 19-17-2-17 243-265 252-256 2 3-2 11-11 18-8 7-15 17-15 22 0 6 7 5 15-2 18-15 20 1 3 18-9 9-9 12 0 12 7 0 12 5 12 10 0 6-12 10-27 10-21 0-43 16-90 67-36 38-58 70-53 73 19 12 0 37-24 33-17-4-46 18-134 104-213 206-402 396-402 404 0 5-4 9-10 9-5 0-10 7-10 15s-4 15-10 15c-5 0-12 11-16 25-3 14-10 25-15 25-11 0-59 49-59 60 0 6-7 10-15 10s-15 4-15 9-7 17-16 25c-8 9-16 25-17 36-1 18-9 24-29 22-3-1-9 5-12 13-4 10 1 15 14 15 11 0 20 7 20 15 0 11-8 15-27 13-34-4-45 29-17 49 16 12 16 13 1 13-9 0-17 5-17 10 0 6 5 10 10 10 16 0 12 27-10 70-13 26-27 40-40 40-11 0-20 5-20 10 0 6-4 10-10 10-5 0-10-9-10-20s5-20 10-20c6 0 10-7 10-15 0-9-6-12-15-9-8 4-15 12-15 19 0 6-9 22-20 35s-20 27-20 31 9 11 20 14 20 13 20 21 7 14 16 14c12 0 15 6 10 23-3 12-6 25-6 29s-7 5-15 2-22 1-30 10c-20 20-39 20-55 1-19-23-43-19-37 5 3 11 1 20-4 20s-9 7-9 15 6 15 13 15c8 0 27 11 42 25 24 20 32 22 45 12s13-10 3 4c-8 10-23 14-43 11-18-3-30 0-30 7 0 22-19 10-32-20" color="#000"/><path id="outputsvg-pqoYSCtyt" fill="silver" stroke="none" d="M5104 5325c-5-11-11-12-26-4-19 10-19 10-3-15 18-27 48-36 39-12-4 11 0 13 15 9 23-6 28 6 9 25-16 16-27 15-34-3" color="#000"/><path id="outputsvg-pF7R5W8XL" fill="silver" stroke="none" d="M5165 5275c-22-6-39-14-37-16s0-13-3-24c-4-11-9-26-11-34-4-11-10-9-27 8-28 26-38 26-64 4-33-29-35-62-7-90 14-14 24-28 22-31-15-30-52-82-59-82-4 0-13 10-20 21-9 17-13 19-20 8-17-27-11-48 12-42 19 5 20 4 9-16-6-13-17-20-25-17-15 5-25-23-25-73 0-28-3-33-20-28-15 4-20 0-20-13 0-10 8-20 18-23 15-4 15-5-2-12-13-6-21-4-24 4s-8 6-18-6c-19-25-17-43 4-44 16 0 16-1 0-7-23-9-10-29 24-37 25-7 40 4 44 32 4 22 26 85 40 111 8 15 14 36 14 48 0 21 12 36 66 78 37 30 132 153 168 220 22 40 25 51 14 61-10 9-22 9-53 0" color="#000"/><path id="outputsvg-pNGudlQuy" fill="silver" stroke="none" d="M4798 4697c-19-17-51-45-71-62-20-16-41-44-47-61-12-35-99-114-125-114-11 0-15-5-12-14 6-15-86-116-105-116-6 0-9-3-6-6s-5-17-19-32c-26-28-14-45 13-18 8 9 22 16 30 16 16 0 107 80 99 88-2 3-13-1-22-9-10-7 6 12 35 43 30 30 61 55 70 54 10 0 16 5 14 15-1 8 9 26 23 39s25 29 25 37c0 7 4 13 9 13 6 0 25 14 43 30 18 17 36 30 41 30 4 0 17 9 29 19 19 19 48 19 48 0 0-5 8-9 18-9s24-6 31-12c10-11 11-10 6 2-3 8-19 23-35 32-17 9-30 23-30 31s-6 20-13 26c-11 8-22 4-49-22" color="#000"/><path id="outputsvg-piesm6gMT" fill="silver" stroke="none" d="M4330 4215c-24-25-49-45-56-45-6 0-17-13-24-29-6-16-22-32-34-35-13-3-35-17-49-32-14-14-31-23-37-19s-10-4-10-18c0-16-20-42-63-82-35-32-67-57-71-56-10 3-36-26-36-40 0-6-11-22-25-35s-25-28-25-34c0-17 26-11 45 10 10 11 26 20 36 20s21 5 25 12c5 8 1 9-12 5-18-7-18-7 0 8 11 8 25 15 31 15s24 14 41 32c23 25 25 30 9 24s-14-1 9 23c15 16 34 27 40 25 14-6 78 55 70 67-3 5 38 52 91 105 52 53 95 103 95 110 0 20-1 19-50-31" color="#000"/><path id="outputsvg-p1DJAB8AhQ" fill="silver" stroke="none" d="M5286 4025c6-14 35-35 48-35 3 0 6 11 6 25 0 21-5 25-30 25-22 0-28-4-24-15" color="#000"/><path id="outputsvg-plnZUHUVh" fill="silver" stroke="none" d="M2420 3995c0-29 2-30 40-10 40 21 38 35-5 35-31 0-35-3-35-25" color="#000"/><path id="outputsvg-pBWwMcNsM" fill="silver" stroke="none" d="M3906 3745c21-19 33-35 26-35s28-42 78-94c60-62 97-93 107-89 8 3 30-10 54-33 42-41 50-60 22-50-10 3 16-26 57-64 41-39 78-70 83-70 4 0 10 7 13 15 4 9-26 45-85 102-58 55-87 89-80 94 17 10 2 28-20 22-10-3-22 0-25 6-4 6-2 11 3 11 14 0 14 27 1 35-6 3-7-1-4-9 15-39-30-10-115 74-50 49-91 87-91 84s-10 4-22 16c-12 11-26 20-32 20-5 0 8-16 30-35" color="#000"/><path id="outputsvg-peu8dGvrH" fill="silver" stroke="none" d="M3785 3677c-84-83-119-111-132-105-4 2-9-7-11-19-4-25-17-30-25-10-3 6-6 2-6-11-1-13-21-44-45-70-75-80-116-127-116-134 0-4 5-10 10-13 15-9 110 78 96 88-12 8 80 101 93 93 3-2 15 2 26 10 12 9 14 14 5 14-21 0 40 60 77 76 33 14 52 34 33 34-18 0 0 20 27 31 14 5 27 18 30 29s10 17 17 13c6-3 8-3 4 2-4 4-3 14 4 22 6 8 7 17 2 21s-45-28-89-71" color="#000"/><path id="outputsvg-p1DWZgQdgo" fill="silver" stroke="none" d="M4364 3333c-10-26-8-32 8-42 11-7 24-25 30-42 5-16 14-29 18-29 14 0 24 21 14 29-5 3-9 12-10 19-1 6-2 19-2 27-1 8-11 15-21 15-14 0-21 8-23 26l-3 27z" color="#000"/><path id="outputsvg-pM2h57M52" fill="silver" stroke="none" d="M3405 3330c-3-11-10-20-15-20-7 0-11-7-29-60-7-22-5-26 10-27 11-1 19 5 19 14s8 25 18 36c9 10 17 32 17 48 0 33-11 38-20 9" color="#000"/><path id="outputsvg-p8ktuGFm0" fill="silver" stroke="none" d="M3298 3179c-24-25-23-36 6-54 47-31 42-43-56-144-153-157-245-257-218-236 14 11 63 58 110 105s116 112 152 145c68 61 81 89 56 117-23 24-39 58-28 58 5 0 10 7 10 15 0 20-11 18-32-6" color="#000"/><path id="outputsvg-ptpDlalga" fill="silver" stroke="none" d="M4458 3183c-11-15-11-16 4-10 15 5 16 2 11-23-4-23-2-30 10-30 20 0 39 24 32 41-3 8-14 20-24 26-16 10-22 9-33-4" color="#000"/><path id="outputsvg-pyKZ0nZxO" fill="silver" stroke="none" d="M4705 2808c125-123 232-225 238-227s-91 98-216 222c-126 125-233 227-238 227s92-100 216-222" color="#000"/><path id="outputsvg-ppPUzKCH3" fill="silver" stroke="none" d="M4757 2273c-4-3-7-12-7-20 0-20 35-16 55 7 18 20 17 20-12 20-16 0-33-3-36-7" color="#000"/><path id="outputsvg-psCNEEVTc" fill="silver" stroke="none" d="M2840 2240c12-16 26-30 31-30s9 14 9 30c0 27-3 30-31 30h-30z" color="#000"/><path id="outputsvg-p11uhh4ttI" fill="silver" stroke="none" d="M4910 2235c0-15 6-25 14-25 7 0 21 11 30 25 16 25 16 25-14 25-25 0-30-4-30-25" color="#000"/></g><g id="g37" fill="#e1e1e1" stroke="none" color="#000" transform="matrix(.0206 0 0 .0206 14.001 8.13)"><path id="outputsvg-pBaxRX1f6" fill="#e1e1e1" stroke="none" d="M702 5748c-15-19-42-76-42-88 0-5 6-10 14-10 22 0 56 49 56 81 0 31-11 37-28 17" color="#000"/><path id="outputsvg-pGWxxo5su" fill="#e1e1e1" stroke="none" d="M1902 5730c-28-38-28-40 8-40 32 0 54 27 44 54-9 24-28 19-52-14" color="#000"/><path id="outputsvg-pk3aYYoId" fill="#e1e1e1" stroke="none" d="M5846 5744c-10-27 12-54 44-54 36 0 36 2 8 40-24 33-43 38-52 14" color="#000"/><path id="outputsvg-pDgUHDH7c" fill="#e1e1e1" stroke="none" d="M7076 5753c-21-21 16-103 46-103 23 0 23 12-2 60-21 41-33 53-44 43" color="#000"/><path id="outputsvg-p18y7Xw3qJ" fill="#e1e1e1" stroke="none" d="M1792 5720c-28-37-27-40 3-40 26 0 50 32 41 56-8 21-20 17-44-16" color="#000"/><path id="outputsvg-pigbUNygm" fill="#e1e1e1" stroke="none" d="M5965 5739c-4-5-1-23 5-40 9-20 19-29 36-29 30 0 30 12 2 50-23 32-33 36-43 19" color="#000"/><path id="outputsvg-p6J8yBigO" fill="#e1e1e1" stroke="none" d="M991 5701c-27-37-26-41 3-41 24 0 36 16 36 51 0 27-15 23-39-10" color="#000"/><path id="outputsvg-pXtMR4Vf7" fill="#e1e1e1" stroke="none" d="M6770 5707c0-28 43-95 76-120 28-21 64-14 64 12 0 10-12 24-27 32-34 17-42 25-72 67-26 38-41 41-41 9" color="#000"/><path id="outputsvg-p38lu1prB" fill="#e1e1e1" stroke="none" d="M1993 5684c-40-40-42-54-5-54s52 17 52 57-6 40-47-3" color="#000"/><path id="outputsvg-p5OK6y0SB" fill="#e1e1e1" stroke="none" d="M5745 5704c-15-16-14-20 22-56 21-21 39-34 41-28 2 5 10 10 18 10 24 0 16 20-22 56-20 19-38 34-40 34-1 0-10-7-19-16" color="#000"/><path id="outputsvg-pZ0oobIb0" fill="#e1e1e1" stroke="none" d="M1138 5668c-10-12-18-26-18-30 0-10 50-11 50 0 0 4 3 17 6 30 8 29-15 29-38 0" color="#000"/><path id="outputsvg-p1rOXF2Xu" fill="#e1e1e1" stroke="none" d="M6620 5676c0-30 13-46 36-46 29 0 30 10 5 38-21 25-41 29-41 8" color="#000"/><path id="outputsvg-p16FP3kDcZ" fill="#e1e1e1" stroke="none" d="M2110 5625c-19-20-45-38-57-41-28-7-38-33-19-52 14-15 56-8 56 9 0 5 7 9 15 9 9 0 15 9 15 25 0 18 5 25 18 25 19 0 46 43 35 54-13 13-30 5-63-29" color="#000"/><path id="outputsvg-pf0k2yazx" fill="#e1e1e1" stroke="none" d="M6970 5640c12-23 45-27 53-6 8 19-1 26-35 26-26 0-28-2-18-20" color="#000"/><path id="outputsvg-p1H7zuIJZC" fill="#e1e1e1" stroke="none" d="M901 5619c-17-16-20-24-10-35 21-26 39-16 39 21 0 19-1 35-3 35s-13-9-26-21" color="#000"/><path id="outputsvg-pNjifXauI" fill="#e1e1e1" stroke="none" d="M5667 5623c-16-16-5-53 24-77 37-31 64-33 79-6 12 23 6 40-15 40-7 0-27 11-43 25-32 27-35 28-45 18" color="#000"/><path id="outputsvg-pLqCXybL4" fill="#e1e1e1" stroke="none" d="M2258 5575c-26-23-38-55-20-55 12 0 48 41 55 63 9 23-3 21-35-8" color="#000"/><path id="outputsvg-pNQix6Tpu" fill="#e1e1e1" stroke="none" d="M5500 5592c0-16 32-52 46-52 20 0 17 13-9 38-24 23-37 28-37 14" color="#000"/><path id="outputsvg-p1679qveZy" fill="#e1e1e1" stroke="none" d="M6716 5582c-4-3-6-20-6-38 0-34 16-44 73-44 23 0 28 4 25 22-3 21-81 72-92 60" color="#000"/><path id="outputsvg-pDm2yu30Z" fill="#e1e1e1" stroke="none" d="M1028 5561c-21-10-34-25-36-39-3-22-1-23 48-19 28 2 52 6 53 8s15 19 32 37l30 33-47-2c-25-2-61-10-80-18" color="#000"/><path id="outputsvg-peR8hO3NZ" fill="#e1e1e1" stroke="none" d="M5595 5512c-12-12-4-40 18-61 15-14 42-24 75-28 47-5 52-4 52 14 0 25-19 43-45 43-11 0-38.897 2.31-58.897 13.31-21 10-38.103 21.69-41.103 18.69" color="#000"/><path id="outputsvg-pZH4gHHzH" fill="#e1e1e1" stroke="none" d="M2139.81 5486.31c-67-22-74.81-21.31-77.81-46.31-4-21-1-22 37-16 73 11 91 22 91 56 0 16-1 29-2 29-2-1-22.052-13.69-47.052-22.69" color="#000"/><path id="outputsvg-p19dj8Vx1P" fill="#e1e1e1" stroke="none" d="M2576 5272c-4-6 0-25 9-41 30-58 177-241 205-256s30-18 70-152c7-24 19-43 27-43 7 0 18-11 23-24 7-19 14-23 31-19 18 5 19 7 6 15-9 5-14 15-11 23 4 9 0 15-10 15-9 0-16 6-16 13 0 8-4 7-10-3-8-12-10-10-10 10 0 30-66 170-80 170-5 0-22 19-37 43-15 23-49 70-76 105-27 34-46 62-43 62s-1 8-9 18c-9 9-26 30-39 46q-22.5 28.5-30 18" color="#000"/><path id="outputsvg-p6Y7WLtHW" fill="#e1e1e1" stroke="none" d="M5200 5273c-8-2-22-14-30-27s-35-50-60-82c-25-33-49-66-55-75-34-54-66-97-89-118-22-20-53-95-46-110 1-2-3-7-8-10-6-3-14-19-17-34-6-23-4-27 13-27 13 0 22 9 26 28 18 78 50 143 76 157 25 13 181 209 210 264 13 25 4 40-20 34" color="#000"/><path id="outputsvg-phFwGfnbR" fill="#e1e1e1" stroke="none" d="M2940 4701c0-11-4-23-10-26-14-9-12-26 3-24 14 3 67-21 85-38 7-7 17-13 22-13s15-2 23-5c8-4 14 0 14 10 0 8-4 15-9 15-4 0-8 7-8 15s-9 15-19 15c-22 0-40 20-19 21 7 0-4 7-24 16-21 8-35 19-32 24s-2 9-10 9c-9 0-16-8-16-19" color="#000"/><path id="outputsvg-p1D8fMgnt2" fill="#e1e1e1" stroke="none" d="M4820 4693c-25-5-93-59-119-96-11-15-4-14 40 9 30 14 65 34 79 44 14 9 31 15 39 12 10-3 12 0 8 12-4 10-7 20-7 22s-3 3-7 3c-5-1-19-4-33-6" color="#000"/><path id="outputsvg-p44ZSBcXd" fill="#e1e1e1" stroke="none" d="M3181 4464c48-47 85-92 83-98-3-7 2-19 11-26 8-7 15-8 15-2 0 5 10 8 23 6 21-5 21-4 2 8-10 7-32 27-48 43-95 99-153 155-163 155-6 0 28-39 77-86" color="#000"/><path id="outputsvg-pP4NNXJDR" fill="#e1e1e1" stroke="none" d="M4550 4425c-115-115-168-178-109-130 44 35 249 240 249 247 0 20-24-1-140-117" color="#000"/><path id="outputsvg-pmhrMshrb" fill="#e1e1e1" stroke="none" d="M4123 4005c-114-113-203-205-197-205s47 35 90 78c44 42 120 116 169 163 122 117 171 169 158 169-6 0-105-92-220-205" color="#000"/><path id="outputsvg-pAJMm7eZp" fill="#e1e1e1" stroke="none" d="M2362 4176c-23-13-51-26-62-29-23-6-28-45-7-53 17-6 86 23 115 49 24 22 30 57 10 57-7-1-32-11-56-24" color="#000"/><path id="outputsvg-p1GSuiXG8y" fill="#e1e1e1" stroke="none" d="M5370 4181c0-23 61-78 95-87 27-7 55 10 55 31 0 12-119 75-141 75-5 0-9-9-9-19" color="#000"/><path id="outputsvg-pSgqNkA1n" fill="#e1e1e1" stroke="none" d="M3584 4069c14-11 26-26 26-33 0-18 51-62 80-71 19-6 11 7-40 59-35 36-71 66-79 66s-3-9 13-21" color="#000"/><path id="outputsvg-p17xa8wKCc" fill="#e1e1e1" stroke="none" d="M2471 4054c-18-8-49-14-67-14-27 0-34-4-34-19 0-16 10-21 46-27 66-10 118 23 97 61-7 11-14 11-42-1" color="#000"/><path id="outputsvg-p19CHmaUto" fill="#e1e1e1" stroke="none" d="M5286 4053c-8-20-8-20 16-43 13-12 35-20 55-20 28 0 33 4 33 23 0 18-10 25-49 38-43 15-50 15-55 2" color="#000"/><path id="outputsvg-pVYa7ELnS" fill="#e1e1e1" stroke="none" d="M2376 3913c-16-16-3-40 27-51 73-26 144-9 135 33-2 12-20 17-79 20-42 2-79 1-83-2" color="#000"/><path id="outputsvg-pdRWie8Db" fill="#e1e1e1" stroke="none" d="M5340 3910c-14-4-37-5-52-2-23 4-28 1-28-15 0-31 21-43 72-43 55 0 98 23 98 51 0 15-7 19-32 18-18-1-44-4-58-9" color="#000"/><path id="outputsvg-paMsR4eCj" fill="#e1e1e1" stroke="none" d="M2342 3818c-22-22-14-48 14-48 17 0 28-6 31-19 5-22 31-31 86-31 52 0 49 26-5 49-24 10-54 28-67 40-27 24-42 26-59 9" color="#000"/><path id="outputsvg-pnNyq3Axs" fill="#e1e1e1" stroke="none" d="M5395 3805c-16-13-42-27-57-30-51-12-65-65-16-65 35 0 108 31 108 46 0 8 5 14 10 14 6 0 10 14 10 30 0 36-15 38-55 5" color="#000"/><path id="outputsvg-p1HUflYWo9" fill="#e1e1e1" stroke="none" d="M2266 3754c-12-12-13-20-6-35 18-32 40-23 40 16 0 38-10 44-34 19" color="#000"/><path id="outputsvg-pcusILGyW" fill="#e1e1e1" stroke="none" d="M5500 3763c-8-3-31-20-50-37s-46-38-60-48c-19-12-22-19-14-28 18-19 80-2 94 26 8 15 22 24 36 24 32 0 49 33 28 54-8 9-16 16-17 15-1 0-9-3-17-6" color="#000"/><path id="outputsvg-pHXbUpz8B" fill="#e1e1e1" stroke="none" d="M3842 3725c-12-14-26-25-32-25-5 0-10-4-10-10 0-5-49-57-110-116-60-59-108-110-105-112 3-3 16 5 29 17 15 14 30 20 37 16 8-5 10-4 5 4s33 52 108 124c64 62 116 115 116 120 0 14-17 7-38-18" color="#000"/><path id="outputsvg-pVEJT0o8h" fill="#e1e1e1" stroke="none" d="M2326 3723c-3-8-6-25-6-38 0-20 8-26 41-35 42-12 73-7 67 9-2 5-24 25-50 44-37 29-48 33-52 20" color="#000"/><path id="outputsvg-p7JPAWwZs" fill="#e1e1e1" stroke="none" d="M4007 3643c-8-8 32-53 47-53 5 0 26-15 45-32 20-18 28-24 18-12-9 11-17 25-17 31 0 5-12 16-26 23-14 8-30 22-35 32-10 19-21 23-32 11" color="#000"/><path id="outputsvg-pBDdLhJzx" fill="#e1e1e1" stroke="none" d="m3250 2973-95-96 103 93c56 51 102 95 102 97 0 14-28-10-110-94" color="#000"/><path id="outputsvg-pO0nvCxYT" fill="#e1e1e1" stroke="none" d="M4460 3047c14-13 77-73 140-132l115-109-130 132c-71 73-134 132-140 132-5 0 2-10 15-23" color="#000"/><path id="outputsvg-pzaZrKNk4" fill="#e1e1e1" stroke="none" d="M2073 2634c-16-7-17-50-3-59 19-12 69 6 75 26 4 11 5 22 3 25-8 7-63 13-75 8" color="#000"/><path id="outputsvg-p2cf6TJzo" fill="#e1e1e1" stroke="none" d="M5668 2633c-19-5-23-20-9-41 13-21 75-11 79 12 6 30-23 42-70 29" color="#000"/><path id="outputsvg-pYK9MgWdf" fill="#e1e1e1" stroke="none" d="M1950 2625c0-2 5-16 12-30 10-22 16-25 42-19 63 13 55 54-10 54-24 0-44-2-44-5" color="#000"/><path id="outputsvg-p190N19mUx" fill="#e1e1e1" stroke="none" d="M5760 2605c0-22 4-25 35-25 24 0 37 6 45 19 15 30 14 31-35 31-41 0-45-2-45-25" color="#000"/><path id="outputsvg-p81xuLoba" fill="#e1e1e1" stroke="none" d="M2816 2278c40-68 74-87 74-44 0 44-10 56-47 56-25 0-32-3-27-12" color="#000"/></g><g id="g38" fill="#fff" stroke="none" color="#000" transform="matrix(.0206 0 0 .0206 14.001 8.13)"><path id="outputsvg-pq7avBGiA" fill="#fff" stroke="none" d="M566 5725c-27-45-27-65-1-65 22 0 56 51 53 79-5 40-24 35-52-14" color="#000"/><path id="outputsvg-p10Y2hIanv" fill="#fff" stroke="none" d="M2044.95 5738.976c-12-17-28.95-37.976-33.95-52.976-6-15-16-24-24-20-7 2-21-4-32-15-14-17-15-23-5-36 18-21 25-19 69 20 44 40 61 78 51 115l-8.146 2.004z" color="#000"/><path id="outputsvg-pqaLVyPid" fill="#fff" stroke="none" d="M5730 5728c0-36 6-47 45-85 50-47 57-50 75-28 10 13 9 19-5 35-11 13-25 18-37 14-24-7-45 5-27 17 10 6 6 17-15 48-16 23-30 41-32 41s-4-19-4-42" color="#000"/><path id="outputsvg-poNzEOY6P" fill="#fff" stroke="none" d="M7187 5764c-14-15-6-54 17-81 20-23 26-25 40-14 14 12 14 17-9 55-25 42-36 51-48 40" color="#000"/><path id="outputsvg-p2Ve2bHDC" fill="#fff" stroke="none" d="M1805 5741c-3-7 0-8 9-5 11 4 16 0 16-11 0-10-7-15-18-13-24 4-52-19-52-43 0-31 38-23 60 14 11 17 19 38 18 46-4 18-24 25-33 12" color="#000"/><path id="outputsvg-p10VqtEeFM" fill="#fff" stroke="none" d="M804 5698c-34-53-35-72-6-76 18-3 26 5 42 43 11 26 20 53 20 61 0 28-30 13-56-28" color="#000"/><path id="outputsvg-p8e5RBwZK" fill="#fff" stroke="none" d="M1950 5731c0-9-9-12-25-9-19 4-32-2-50-24-30-36-31-45-4-53 13-4 28 0 41 12 24 22 52 73 44 81-3 3-6 0-6-7" color="#000"/><path id="outputsvg-p4yUify6A" fill="#fff" stroke="none" d="M5840 5733c0-15 43-75 62-87 13-8 21-7 32 4 14 13 12 19-10 47-15 20-30 30-39 26-9-3-22 0-30 7s-15 8-15 3" color="#000"/><path id="outputsvg-p19bSSfLk9" fill="#fff" stroke="none" d="M6940 5723c1-38 35-96 57-98 34-2 34 17 2 68-29 47-59 62-59 30" color="#000"/><path id="outputsvg-p2Vwdondf" fill="#fff" stroke="none" d="M7100 5733c0-7-7-13-15-13-18 0-19-11-2-33 10-15 15-16 29-5 15 12 15 16 3 38-8 14-14 19-15 13" color="#000"/><path id="outputsvg-ps5MTh20Z" fill="#fff" stroke="none" d="M6000 5712c0-6-7-12-16-14-14-3-14-6 3-27 13-16 26-22 36-18 23 9 21 30-3 52-11 10-20 13-20 7" color="#000"/><path id="outputsvg-p1EikxOAwu" fill="#fff" stroke="none" d="M982 5690c-7-11-29-32-50-48-22-15-37-33-34-41 3-10 0-11-9-5-12 7-12 5 0-9 21-26 44-20 83 21 45 47 77 105 47 86-6-3-14-2-18 4-4 7-11 4-19-8" color="#000"/><path id="outputsvg-p5UxSQDxh" fill="#fff" stroke="none" d="M6800 5702c0-6-7-12-15-12-14 0-14-3 0-30 9-16 20-30 25-30 6 0 10-7 10-16 0-8 4-13 9-9 6 3 15-4 21-15 12-22 42-28 34-6-3 7 2 16 12 20 13 5 9 12-24 35-22 16-47 40-56 53-9 12-16 17-16 10" color="#000"/><path id="outputsvg-pXRz9SgWx" fill="#fff" stroke="none" d="M1117 5641c-9-16-25.708-42.682-41.708-55.682-15-13-35.292-28.318-38.292-36.318-3-9-6-10-6-1-1 18-18.05 7.758-21-4-1.947-7.76-5-12-11-8-7 4-9-2-7-16 5-38 29.586-45.318 70.586-23.318 20 11 34.268 22.927 32.268 28.927S1105 5542 1120 5551c22.002 30.998 59 97 38 110-20 13-22 12-41-20" color="#000"/><path id="outputsvg-p193HpEOix" fill="#fff" stroke="none" d="M6638 5663c-13-3-15-10-7-35 4-17 15-38 24-48 8-9 15-22 15-28 0-16 78-72 100-72 9 0 21 5 28 12 14 14 16 52 2 43-15-10-63 6-51 18 6 6 0 18-20 34-16 14-37 38-46 54-10 16-20 28-23 28-3-1-12-3-22-6" color="#000"/><path id="outputsvg-pmQw5EhT" fill="#fff" stroke="none" d="M2117 5632c-15-15-27-33-27-40 0-6-7-9-15-6-10 4-15 0-16-12 0-11-3-14-6-6-2 6-9 12-14 12-4 0-5-7-2-17 4-11 3-14-5-9-7 4-12 3-12-1 0-15 23-33 41-33 23 0 76 45 95 81 13 26 13 29-1 29-8 0-15 5-15 11s9 9 20 6 18-1 14 4c-10 16-30 10-57-19" color="#000"/><path id="outputsvg-pTNpkXdxS" fill="#fff" stroke="none" d="M5625 5650c-6.854-10.513 35.706-60.93 72.706-92.93 37-30 58.294-44.07 72.294-17.07 12 22 6 40-13 40-7 0-6-4 3-10 20-12 6-23-20-15-17 5-19 9-9 21 11 13 8 14-17 8-24-5-27-4-17 7 11 10 8 18-14 41-28 29-47 35-58 18" color="#000"/><path id="outputsvg-p175G6K6se" fill="#fff" stroke="none" d="M2223 5547c-34-29-62-58-62-64-1-7-5-13-11-13-5 0-10 6-10 13s-8 3-16-8c-11-14-18-16-21-7-7 17-23 15-23-4 0-8-5-12-11-8-7 4-9-2-7-17 7-55 99-22 168 61 23 27 38 50 34 50s0 6 10 13c11 8 17 19 15 25s-32-13-66-41" color="#000"/><path id="outputsvg-pZ3SSiu72" fill="#fff" stroke="none" d="M5522 5573c-8-3 10-30 49-74 46-52 70-71 101-80 48-13 68-7 68 21 0 12-4 19-9 16-15-10-113 16-102 27 5 5-6.517 15.69-29.517 35.69-54 47-63.483 59.31-77.483 54.31" color="#000"/><path id="outputsvg-pnwvdj3tI" fill="#fff" stroke="none" d="M2582 5240c5-15 124-181 157-220l31-35-17 35c-9 19-35 58-58 85-22 28-54 71-71 97-26 42-51 65-42 38" color="#000"/><path id="outputsvg-pch8HwF0K" fill="#fff" stroke="none" d="M5141 5180c-24-39-47-70-52-70s-9-4-9-10c0-5-11-20-25-34-25-25-34-56-16-56 15 0 102 111 95 121-3 5 2 9 11 9 11 0 15 5 11 15-3 9 0 15 9 15 14 0 19 12 16 33 0 4 4 7 10 7 5 0 7 5 4 10-3 6-1 10 5 10s8 5 5 10c-11 18-20 10-64-60" color="#000"/><path id="outputsvg-pVUyAerWr" fill="#fff" stroke="none" d="M2381 4175c-1-17-3-17-11-5-8 13-10 12-10-3 0-10-4-15-10-12-5 3-10 1-10-5 0-7-7-10-15-6-8 3-15 0-15-7 0-9-3-8-9 1-6 10-10 8-14-9-4-13-2-28 3-33 17-17 76 4 110 39 31 32 32 35 13 35-12 0-24 6-26 13-3 6-6 3-6-8" color="#000"/><path id="outputsvg-p11gD5QQRR" fill="#fff" stroke="none" d="M5409 4130c40-41 76-51 99-28 9 9-4 18-55 40-37 15-71 28-76 28-4 0 10-18 32-40" color="#000"/><path id="outputsvg-p1Fi5sqnRj" fill="#fff" stroke="none" d="M2462 4052c-7-2-12-10-12-18 0-9-5-12-11-8-6 3-27 9-46 11-42 6-56-10-40-44 13-30 62-31 114-2 21 12 40 23 41 24 8 7-35 41-46 37" color="#000"/><path id="outputsvg-p7z2N3gOp" fill="#fff" stroke="none" d="M5320 4049c0-6-9-9-20-6-38 10-20-21 30-52 46-28 94-28 114 0 23 33 10 49-40 49-24 0-44-4-44-10 0-5-7-10-15-10-18 0-20 17-3 22 7 3 6 7-5 11-10 4-17 2-17-4" color="#000"/><path id="outputsvg-piuEf88Y4" fill="#fff" stroke="none" d="M2420 3909c0-7-10-9-25-7-20 4-25 1-25-14 0-24 32-36 99-34 64 1 73 14 29 40-22 14-33 16-36 8-2-7-11-12-19-12-9 0-13 6-9 15 3 8 1 15-4 15-6 0-10-5-10-11" color="#000"/><path id="outputsvg-p37b0JdQA" fill="#fff" stroke="none" d="M5354 3906c-3-8-13-12-22-9-10 2-30-1-46-7-48-18-17-36 59-34 70 1 85 10 84 49 0 11-3 14-6 8-6-15-43-17-43-3 0 15-20 12-26-4" color="#000"/><path id="outputsvg-pQLvdyXs7" fill="#fff" stroke="none" d="M2340 3816c-6-8-10-25-8-37 4-28 115-74 154-65 33 9 29 41-6 42-48 1-55 4-65 27-7 15-17 21-32 19-24-3-32 13-10 21 7 4 6 6-4 6-9 1-22-6-29-13" color="#000"/><path id="outputsvg-p1aVVNFQN" fill="#fff" stroke="none" d="M5420 3814c0-8-4-12-10-9-5 3-10-1-10-9 0-10-6-13-15-10-8 4-17-1-21-9-3-9-12-13-20-10s-14 0-14-6-7-8-15-5c-10 4-15 0-15-14 0-25 42-37 73-20 12 7 27 13 32 14 41 8 65 26 65 47 0 25-17 47-37 47-7 0-13-7-13-16" color="#000"/><path id="outputsvg-p9bRVQtCY" fill="#fff" stroke="none" d="M2275 3762c-45-32 33-112 109-111h41l-36 15c-27 11-36 20-32 33 3 12-7 27-27 44-34 29-39 31-55 19" color="#000"/><path id="outputsvg-phmtGGgWm" fill="#fff" stroke="none" d="M5493 3759c-12-4-33-24-46-44-16-24-27-32-30-23-4 8-6 7-6-5-1-10-5-16-10-13s-11-1-15-9c-11-29 66-19 112 15 44 32 53 50 25 50-15 0-15 1 1 13 15 11 16 15 5 19-8 3-24 2-36-3" color="#000"/><path id="outputsvg-p1CwoDqQ4U" fill="#fff" stroke="none" d="M2069 2613c-11-30 0-43 38-43 23 0 48 33 39 53-3 9-5 9-5 0-1-7-8-13-17-13-10 0-14 6-10 15q6 15-15 15c-12 0-23-10-30-27" color="#000"/><path id="outputsvg-ph2nfORMz" fill="#fff" stroke="none" d="M5673 2624c-5-13-7-13-14-2-13 20-12-8 1-33 13-24 65-26 74-3 9 22 8 24-10 24-10 0-14 6-10 15q6 15-15 15c-11 0-22-7-26-16" color="#000"/><path id="outputsvg-pHHtPIiDm" fill="#fff" stroke="none" d="M5840 2622c0-7-16-12-40-12-32 0-40-4-40-19 0-23 25-45 44-38 17 7 50 66 42 75-3 3-6 0-6-6" color="#000"/><path id="outputsvg-pYief5Tk2" fill="#fff" stroke="none" d="M1966 2601c-3-5 3-20 13-32 16-19 23-22 37-14 9 6 21 21 25 33 8 20 5 22-31 22-21 0-41-4-44-9" color="#000"/><path id="outputsvg-pMPrk4Zt0" fill="#fff" stroke="none" d="M5554 2484c-21-20-23-28-14-39 7-8 25-15 41-15 26 0 29 3 29 34 0 45-23 53-56 20" color="#000"/><path id="outputsvg-pj9Nju4iJ" fill="#fff" stroke="none" d="M2197 2493c-4-3-7-19-7-35 0-24 4-28 29-28 41 0 59 25 36 50-18 20-46 26-58 13" color="#000"/><path id="outputsvg-pympXj2Bk" fill="#fff" stroke="none" d="M2090 2446c-18-34-7-59 22-50 42 12 49 24 30 50-22 30-35 30-52 0" color="#000"/><path id="outputsvg-pu381rGX1" fill="#fff" stroke="none" d="M5658 2445c-10-13-18-26-18-28 0-9 55-24 68-20 16 6 15 41-2 59-20 19-28 17-48-11" color="#000"/><path id="outputsvg-pCoU1B6aN" fill="#fff" stroke="none" d="M1828 2294c-32-17-46-57-28-79 17-21 89-20 97 1 3 9 0 19-6 23-7 5-11 21-9 37 4 34-15 40-54 18" color="#000"/><path id="outputsvg-pqCth7QeW" fill="#fff" stroke="none" d="M5917 2304c-4-4-4-18 0-32 3-15 1-27-7-32-25-16-2-40 38-40 43 0 62 14 62 46 0 35-72 79-93 58" color="#000"/><path id="outputsvg-pPJ10kaLg" fill="#fff" stroke="none" d="M2706 2278c13-23 37-48 46-48 4 0 8 14 8 30 0 27-3 30-31 30-21 0-28-4-23-12" color="#000"/><path id="outputsvg-p91btvVwA" fill="#fff" stroke="none" d="M2820 2281c0-5 12-24 26-41 31-37 49-28 39 19-5 26-11 31-36 31-16 0-29-4-29-9" color="#000"/><path id="outputsvg-ptD3dh60Q" fill="#fff" stroke="none" d="M2990 2265c25-27 60-34 60-12s-22 37-54 37h-29z" color="#000"/><path id="outputsvg-p18T0uCjZt" fill="#fff" stroke="none" d="M4762 2278c-16-16-15-38 2-38 8 0 28 11 43 25l28 24-30 1c-17 0-36-5-43-12" color="#000"/><path id="outputsvg-poPAzkhq" fill="#fff" stroke="none" d="M4916 2274c-9-24-7-64 3-64 9 0 71 66 71 75 0 3-15 5-34 5-22 0-36-6-40-16" color="#000"/><path id="outputsvg-ptPLGl7VN" fill="#fff" stroke="none" d="M5047 2283c-10-9-9-53 1-53 9 0 33 25 46 48 5 8 0 12-17 12-13 0-27-3-30-7" color="#000"/></g><path id="path47" d="M973.62 261.771a196.92 196.92 0 0 0-1.725 2.608c-.46.716-.75 1.203-.473 1.544.278.34 1.122.533 1.682.557.56.024.835-.12 1.056-.36.222-.238.391-.571.48-1.097.09-.526.1-1.245.008-1.829-.092-.584-.285-1.032-.478-1.481" style="fill:#fff;fill-opacity:1;stroke:none;stroke-width:3.70538;stroke-linecap:square" transform="translate(-194.673 -16.662) scale(.26988)"/></g></svg>