<?xml version="1.0" encoding="UTF-8" standalone="no"?>
<!-- Created with Inkscape (http://www.inkscape.org/) -->

<svg
   width="59.14109mm"
   height="50.270828mm"
   viewBox="0 0 59.14109 50.270828"
   version="1.1"
   id="svg1"
   sodipodi:docname="PartyLogo_PSD+.svg"
   inkscape:version="1.4.2 (f4327f4, 2025-05-13)"
   xmlns:inkscape="http://www.inkscape.org/namespaces/inkscape"
   xmlns:sodipodi="http://sodipodi.sourceforge.net/DTD/sodipodi-0.dtd"
   xmlns="http://www.w3.org/2000/svg"
   xmlns:svg="http://www.w3.org/2000/svg">
  <sodipodi:namedview
     id="namedview1"
     pagecolor="#505050"
     bordercolor="#ffffff"
     borderopacity="1"
     inkscape:showpageshadow="0"
     inkscape:pageopacity="0"
     inkscape:pagecheckerboard="1"
     inkscape:deskcolor="#505050"
     inkscape:document-units="mm"
     inkscape:zoom="1.5233586"
     inkscape:cx="172.31662"
     inkscape:cy="21.990883"
     inkscape:window-width="1920"
     inkscape:window-height="1057"
     inkscape:window-x="-8"
     inkscape:window-y="-8"
     inkscape:window-maximized="1"
     inkscape:current-layer="g161" />
  <defs
     id="defs1">
    <filter
       style="color-interpolation-filters:sRGB"
       inkscape:label="Blur"
       id="filter144"
       x="-0.06210337"
       y="-0.048748651"
       width="1.1242067"
       height="1.0974973">
      <feGaussianBlur
         stdDeviation="0.3 0.3"
         result="blur"
         id="feGaussianBlur144" />
    </filter>
    <filter
       style="color-interpolation-filters:sRGB"
       inkscape:label="Blur"
       id="filter143"
       x="-0.062222431"
       y="-0.048748618"
       width="1.1244449"
       height="1.0974972">
      <feGaussianBlur
         stdDeviation="0.3 0.3"
         result="blur"
         id="feGaussianBlur143" />
    </filter>
  </defs>
  <g
     inkscape:label="Layer 1"
     inkscape:groupmode="layer"
     id="layer1"
     transform="translate(-75.670832,-118.26875)">
    <rect
       style="fill:#ffffff;fill-rule:evenodd;stroke-width:1.32292;stroke-linecap:square;stroke-linejoin:round"
       id="rect2"
       width="59.141087"
       height="50.270828"
       x="75.67083"
       y="118.26875" />
    <rect
       style="fill:#ffffff;fill-rule:evenodd;stroke-width:1.05324;stroke-linecap:square;stroke-linejoin:round"
       id="rect1"
       width="12.649767"
       height="15.982348"
       x="92.072952"
       y="134.91971" />
    <g
       id="g161"
       inkscape:label="PSD+ Logo"
       inkscape:highlight-color="#ec2121"
       transform="translate(-3.1411677,-409.63289)">
      <path
         id="path139"
         style="font-size:21.0049px;line-height:19.6921px;font-family:'DIN 2014';-inkscape-font-specification:'DIN 2014, ';baseline-shift:baseline;display:inline;overflow:visible;vector-effect:none;fill:#000000;fill-rule:evenodd;stroke-linecap:square;stroke-linejoin:round;filter:url(#filter144);enable-background:accumulate;stop-color:#000000;stop-opacity:1"
         d="m 91.258268,545.29748 -4.876705,5.1e-4 a 0.57671389,0.51785887 0 0 0 -0.574642,0.51832 v 13.73456 a 0.57671389,0.51785887 0 0 0 0.574642,0.51625 h 1.906861 a 0.57671389,0.51785887 0 0 0 0.577225,-0.51625 v -4.71754 h 2.392619 c 1.859812,0 3.391584,-0.37946 4.501534,-1.24024 a 0.57671389,0.51785887 0 0 0 0.0041,-0.004 c 1.075624,-0.85355 1.636593,-2.06757 1.636593,-3.51451 0,-1.44694 -0.563157,-2.66328 -1.663464,-3.51658 -1.102892,-0.85528 -2.614179,-1.26039 -4.478797,-1.26039 z m -2.392619,2.59002 h 2.392619 c 1.206115,0 1.984184,0.23176 2.403471,0.57929 0.453135,0.3756 0.677995,0.85665 0.677995,1.60817 0,0.75152 -0.22486,1.23464 -0.677995,1.61024 -0.413423,0.34267 -1.190728,0.56069 -2.403471,0.56069 h -2.392619 z"
         inkscape:label="p_shadow"
         transform="translate(6.3867186e-6)" />
      <path
         id="path143"
         style="font-size:21.0049px;line-height:19.6921px;font-family:'DIN 2014';-inkscape-font-specification:'DIN 2014, ';baseline-shift:baseline;display:inline;overflow:visible;vector-effect:none;fill:#000000;fill-rule:evenodd;stroke-linecap:square;stroke-linejoin:round;filter:url(#filter143);enable-background:accumulate;stop-color:#000000;stop-opacity:1"
         d="m 112.31073,545.51969 -4.8767,5.1e-4 a 0.57671389,0.51785887 0 0 0 -0.57723,0.51832 v 13.73249 a 0.57671389,0.51785887 0 0 0 0.57723,0.51832 h 4.8767 c 0.88776,0 1.71187,-0.10601 2.47737,-0.37001 0.77612,-0.24777 1.44214,-0.66065 1.98696,-1.21594 0.56347,-0.55385 0.94685,-1.26261 1.22835,-2.08411 0.28922,-0.84404 0.42478,-1.84664 0.42478,-2.99827 v -1.43247 c 0,-1.15164 -0.13637,-2.13645 -0.42478,-2.97811 -0.2823,-0.82383 -0.66902,-1.532 -1.22629,-2.10065 a 0.57671389,0.51785887 0 0 0 -0.006,-0.009 c -0.54353,-0.53245 -1.20137,-0.94005 -1.96835,-1.20664 a 0.57671389,0.51785887 0 0 0 -0.0165,-0.006 c -0.7501,-0.23901 -1.57227,-0.36845 -2.4753,-0.36845 z m 0,1.55339 c 0.63546,0 1.23679,0.0852 1.7663,0.27543 -0.52951,-0.19019 -1.13084,-0.27543 -1.7663,-0.27543 z m -3.32124,0.10697 a 0.57671389,0.51785887 0 0 0 -0.0568,0.045 0.57671389,0.51785887 0 0 0 -0.092,0.10697 0.57671389,0.51785887 0 0 1 0.092,-0.10697 0.57671389,0.51785887 0 0 1 0.0568,-0.045 z m 5.85132,0.56224 c 0.11698,0.0811 0.22816,0.16949 0.33331,0.26407 -0.10507,-0.0945 -0.21644,-0.18307 -0.33331,-0.26407 z m -4.92322,0.36535 h 2.39314 c 0.5172,0 0.98075,0.0732 1.3379,0.20154 0.33871,0.12165 0.65882,0.3439 0.91106,0.6351 0.23952,0.27653 0.43805,0.68473 0.58084,1.21595 0.14256,0.54983 0.22893,1.22664 0.22893,2.0283 v 1.43247 c 0,0.82379 -0.0875,1.50238 -0.22893,2.0283 a 0.57671389,0.51785887 0 0 0 0,0.004 c -0.143,0.55037 -0.34131,0.95595 -0.58084,1.23249 -0.24589,0.28387 -0.55696,0.48725 -0.91106,0.61443 -0.35717,0.1283 -0.82071,0.20154 -1.3379,0.20154 h -2.39314 z m 6.55361,0.43512 c 0.16403,0.28525 0.30691,0.60794 0.4315,0.97151 0.24359,0.71088 0.3731,1.5966 0.3731,2.67426 0,-1.07766 -0.12951,-1.96338 -0.3731,-2.67426 -0.1245,-0.36332 -0.26761,-0.6864 -0.4315,-0.97151 z m 0.22996,8.2889 c -0.14376,0.32319 -0.30677,0.60522 -0.49041,0.84646 0.18364,-0.24124 0.34665,-0.52327 0.49041,-0.84646 z m -0.78135,1.1777 a 0.57671389,0.51785887 0 0 0 -0.008,0.007 c -0.21474,0.21912 -0.44394,0.40382 -0.6935,0.55759 0.24956,-0.15377 0.47824,-0.33899 0.69298,-0.55811 a 0.57671389,0.51785887 0 0 1 0.008,-0.007 z m -1.09192,0.77257 c -0.13605,0.0618 -0.27783,0.11633 -0.42685,0.16381 a 0.57671389,0.51785887 0 0 0 -0.015,0.006 0.57671389,0.51785887 0 0 1 0.0145,-0.006 c 0.14902,-0.0475 0.29132,-0.10152 0.42737,-0.16329 z"
         inkscape:label="d_shadow"
         transform="translate(6.3867186e-6)" />
      <path
         id="path121"
         style="fill:#d61c37;fill-opacity:1;fill-rule:evenodd;stroke:none;stroke-width:0.612162;stroke-linecap:square;stroke-linejoin:round;stroke-dasharray:none;stroke-opacity:1"
         d="m 103.94742,527.90164 a 25.135424,25.135424 0 0 0 -25.13542,25.13542 25.135424,25.135424 0 0 0 25.13542,25.13541 25.135424,25.135424 0 0 0 23.21873,-15.50913 8.4614673,10.543791 0 0 1 -5.00899,-9.62628 8.4614673,10.543791 0 0 1 5.00951,-9.62577 25.135424,25.135424 0 0 0 -23.21925,-15.50965 z m -2.35387,17.23512 c 1.28905,0 2.39809,0.20949 3.29541,0.61237 a 0.57671389,0.51785886 0 0 1 0.0103,0.006 c 0.88786,0.42077 1.63125,1.04629 2.23035,1.86397 a 0.57671389,0.51785886 0 0 1 -0.14624,0.70694 l -1.48415,0.95498 a 0.57671389,0.51785886 0 0 1 -0.77928,-0.0889 c -0.22368,-0.24102 -0.41324,-0.4491 -0.60772,-0.62373 -0.16523,-0.14838 -0.39596,-0.28908 -0.65784,-0.44597 -0.22749,-0.1244 -0.50216,-0.22479 -0.80357,-0.29249 -0.29431,-0.0661 -0.67072,-0.10335 -1.12344,-0.10335 -0.80016,0 -1.40068,0.16176 -1.803509,0.43305 a 0.57671389,0.51785886 0 0 1 -0.01033,0.006 c -0.403264,0.26072 -0.579293,0.59017 -0.579293,1.19166 0,0.36867 0.05854,0.60898 0.166915,0.77928 0.134783,0.21181 0.317858,0.39167 0.566891,0.55139 0.249036,0.15973 0.566306,0.29736 0.960666,0.40359 0.43321,0.1167 0.88938,0.22729 1.42834,0.30179 a 0.57671389,0.51785886 0 0 1 0.0165,0.004 c 0.75973,0.12404 1.4527,0.2891 2.05879,0.47749 a 0.57671389,0.51785886 0 0 1 0.0165,0.006 c 0.61424,0.21213 1.17791,0.47314 1.65933,0.81442 a 0.57671389,0.51785886 0 0 1 0.0248,0.0186 c 0.45747,0.36513 0.82003,0.80499 1.07383,1.30638 a 0.57671389,0.51785886 0 0 1 0.004,0.0103 c 0.25943,0.5358 0.37932,1.14673 0.37932,1.83761 0,0.51783 -0.0997,1.0352 -0.29663,1.54358 -0.21013,0.54247 -0.57289,1.02517 -1.02474,1.43092 -0.46696,0.4193 -1.06866,0.75152 -1.78904,1.01027 -0.76141,0.27348 -1.63239,0.37414 -2.60914,0.37414 -2.609648,0 -4.664873,-0.81733 -5.92781,-2.47479 a 0.57671389,0.51785886 0 0 1 0.148311,-0.71778 l 1.572514,-0.97565 a 0.57671389,0.51785886 0 0 1 0.781347,0.10748 c 0.227347,0.25983 0.450079,0.47727 0.665593,0.65319 0.216809,0.17699 0.439024,0.32382 0.690397,0.43667 a 0.57671389,0.51785886 0 0 1 0.02894,0.0129 c 0.246162,0.12631 0.519478,0.21215 0.865588,0.28525 a 0.57671389,0.51785886 0 0 1 0.008,0.002 c 0.26691,0.0599 0.67374,0.0832 1.16686,0.0832 0.57947,0 1.03236,-0.0573 1.37873,-0.15554 0.36391,-0.10319 0.61938,-0.2325 0.78341,-0.36639 0.17422,-0.14222 0.29064,-0.30183 0.37104,-0.49971 0.0757,-0.22401 0.12764,-0.44504 0.12764,-0.67024 0,-0.24667 -0.052,-0.46481 -0.12971,-0.71262 -0.0732,-0.17733 -0.20104,-0.34214 -0.41445,-0.5178 -0.18151,-0.14941 -0.49773,-0.30894 -0.92552,-0.45527 -0.40147,-0.13734 -0.97517,-0.25446 -1.6738,-0.37207 l 0.0207,0.002 c -1.535723,-0.20894 -2.795589,-0.65333 -3.74086,-1.36736 v -5.2e-4 h -5.17e-4 v -5.1e-4 c -4e-4,-2.5e-4 -0.0012,-7.8e-4 -0.0016,-0.001 -1.004437,-0.74236 -1.492416,-1.86153 -1.492416,-3.16311 0,-0.53524 0.100577,-1.06956 0.299207,-1.58233 a 0.57671389,0.51785886 0 0 1 0.0021,-0.008 c 0.212813,-0.52551 0.577873,-0.98749 1.032495,-1.37304 0.462376,-0.39213 1.04416,-0.70676 1.731161,-0.92707 0.702566,-0.22531 1.52043,-0.3297 2.45515,-0.3297 v -5.2e-4 z m 0,1.03767 c -0.39397,0 -0.74878,0.0254 -1.07693,0.0656 0.32803,-0.0402 0.68264,-0.0651 1.07642,-0.0651 z m -5.1e-4,10e-4 -5.2e-4,5.2e-4 c 0.39269,0 0.75979,0.022 1.10071,0.0636 -0.34083,-0.0417 -0.7076,-0.0641 -1.10019,-0.0641 z m -1.29708,0.093 c -0.28289,0.0437 -0.541739,0.10095 -0.769979,0.17415 l -5.17e-4,5.1e-4 c 0.228385,-0.0732 0.487406,-0.13089 0.770496,-0.17466 z m 3.50056,0.1974 c 0.20275,0.0614 0.39155,0.13197 0.56586,0.20981 0.54548,0.25889 0.97006,0.70447 1.39164,1.16944 l 5.2e-4,-5.2e-4 c -0.42158,-0.46497 -0.84617,-0.91055 -1.39165,-1.16944 -0.17444,-0.0779 -0.36344,-0.14783 -0.56637,-0.20929 z m -5.222936,1.25729 c -0.06109,0.068 -0.117294,0.13934 -0.168982,0.21342 0.05181,-0.0742 0.108249,-0.14523 0.169499,-0.21342 z m -0.361735,0.54725 c -0.154782,0.33017 -0.232544,0.6999 -0.232544,1.08882 0,0.4673 0.07307,0.90438 0.31936,1.2914 0.123683,0.19436 0.274325,0.37347 0.448552,0.53537 -0.174078,-0.16192 -0.324403,-0.34109 -0.448035,-0.53537 -0.24629,-0.38702 -0.31936,-0.8241 -0.31936,-1.2914 0,-0.38873 0.07743,-0.75861 0.232027,-1.08882 z m 3.834911,4.14187 c 0.008,10e-4 0.012,0.003 0.0196,0.004 h 5.2e-4 l 0.008,10e-4 c -0.009,-0.002 -0.0179,-0.004 -0.0279,-0.005 z m 3.622,1.46606 c 0.15012,0.17314 0.27683,0.36183 0.38189,0.56844 0.18301,0.37925 0.28628,0.84009 0.28628,1.42162 0,0.39776 -0.0769,0.79529 -0.23461,1.20251 -0.0542,0.13981 -0.12429,0.27695 -0.20929,0.41031 0.0851,-0.13331 0.15561,-0.27039 0.20981,-0.41031 0.15771,-0.40722 0.23461,-0.80475 0.23461,-1.20251 0,-0.58153 -0.10328,-1.04237 -0.28629,-1.42162 -0.10509,-0.20669 -0.23213,-0.39531 -0.3824,-0.56844 z m -7.860504,3.2892 c 0.0709,0.0703 0.141219,0.14496 0.211873,0.21704 -0.07054,-0.0721 -0.140486,-0.1468 -0.211356,-0.21704 z"
         inkscape:label="Circle Bkgd" />
      <path
         id="path153"
         style="font-size:21.0049px;line-height:19.6921px;font-family:'DIN 2014';-inkscape-font-specification:'DIN 2014, ';baseline-shift:baseline;display:inline;overflow:visible;vector-effect:none;fill:#ffffff;fill-rule:evenodd;stroke-linecap:square;stroke-linejoin:round;enable-background:accumulate;stop-color:#000000;stop-opacity:1"
         d="m 91.258268,545.29748 -4.876705,5.1e-4 a 0.57671389,0.51785887 0 0 0 -0.574642,0.51832 v 13.73456 a 0.57671389,0.51785887 0 0 0 0.574642,0.51625 h 1.906861 a 0.57671389,0.51785887 0 0 0 0.577225,-0.51625 v -4.71754 h 2.392619 c 1.859812,0 3.391584,-0.37946 4.501534,-1.24024 a 0.57671389,0.51785887 0 0 0 0.0041,-0.004 c 1.075624,-0.85355 1.636593,-2.06757 1.636593,-3.51451 0,-1.44694 -0.563157,-2.66328 -1.663464,-3.51658 -1.102892,-0.85528 -2.614179,-1.26039 -4.478797,-1.26039 z m -2.392619,2.59002 h 2.392619 c 1.206115,0 1.984184,0.23176 2.403471,0.57929 0.453135,0.3756 0.677995,0.85665 0.677995,1.60817 0,0.75152 -0.22486,1.23464 -0.677995,1.61024 -0.413423,0.34267 -1.190728,0.56069 -2.403471,0.56069 h -2.392619 z"
         inkscape:label="P" />
      <path
         id="path149"
         style="font-size:21.0049px;line-height:19.6921px;font-family:'DIN 2014';-inkscape-font-specification:'DIN 2014, ';baseline-shift:baseline;display:inline;overflow:visible;vector-effect:none;fill:#ffffff;fill-rule:evenodd;stroke-linecap:square;stroke-linejoin:round;enable-background:accumulate;stop-color:#000000;stop-opacity:1"
         d="m 112.31073,545.51969 -4.8767,5.1e-4 a 0.57671389,0.51785887 0 0 0 -0.57723,0.51832 v 13.73249 a 0.57671389,0.51785887 0 0 0 0.57723,0.51832 h 4.8767 c 0.88776,0 1.71187,-0.10601 2.47737,-0.37001 0.77612,-0.24777 1.44214,-0.66065 1.98696,-1.21594 0.56347,-0.55385 0.94685,-1.26261 1.22835,-2.08411 0.28922,-0.84404 0.42478,-1.84664 0.42478,-2.99827 v -1.43247 c 0,-1.15164 -0.13637,-2.13645 -0.42478,-2.97811 -0.2823,-0.82383 -0.66902,-1.532 -1.22629,-2.10065 a 0.57671389,0.51785887 0 0 0 -0.006,-0.009 c -0.54353,-0.53245 -1.20137,-0.94005 -1.96835,-1.20664 a 0.57671389,0.51785887 0 0 0 -0.0165,-0.006 c -0.7501,-0.23901 -1.57227,-0.36845 -2.4753,-0.36845 z m 0,1.55339 c 0.63546,0 1.23679,0.0852 1.7663,0.27543 -0.52951,-0.19019 -1.13084,-0.27543 -1.7663,-0.27543 z m -3.32124,0.10697 a 0.57671389,0.51785887 0 0 0 -0.0568,0.045 0.57671389,0.51785887 0 0 0 -0.092,0.10697 0.57671389,0.51785887 0 0 1 0.092,-0.10697 0.57671389,0.51785887 0 0 1 0.0568,-0.045 z m 5.85132,0.56224 c 0.11698,0.0811 0.22816,0.16949 0.33331,0.26407 -0.10507,-0.0945 -0.21644,-0.18307 -0.33331,-0.26407 z m -4.92322,0.36535 h 2.39314 c 0.5172,0 0.98075,0.0732 1.3379,0.20154 0.33871,0.12165 0.65882,0.3439 0.91106,0.6351 0.23952,0.27653 0.43805,0.68473 0.58084,1.21595 0.14256,0.54983 0.22893,1.22664 0.22893,2.0283 v 1.43247 c 0,0.82379 -0.0875,1.50238 -0.22893,2.0283 a 0.57671389,0.51785887 0 0 0 0,0.004 c -0.143,0.55037 -0.34131,0.95595 -0.58084,1.23249 -0.24589,0.28387 -0.55696,0.48725 -0.91106,0.61443 -0.35717,0.1283 -0.82071,0.20154 -1.3379,0.20154 h -2.39314 z m 6.55361,0.43512 c 0.16403,0.28525 0.30691,0.60794 0.4315,0.97151 0.24359,0.71088 0.3731,1.5966 0.3731,2.67426 0,-1.07766 -0.12951,-1.96338 -0.3731,-2.67426 -0.1245,-0.36332 -0.26761,-0.6864 -0.4315,-0.97151 z m 0.22996,8.2889 c -0.14376,0.32319 -0.30677,0.60522 -0.49041,0.84646 0.18364,-0.24124 0.34665,-0.52327 0.49041,-0.84646 z m -0.78135,1.1777 a 0.57671389,0.51785887 0 0 0 -0.008,0.007 c -0.21474,0.21912 -0.44394,0.40382 -0.6935,0.55759 0.24956,-0.15377 0.47824,-0.33899 0.69298,-0.55811 a 0.57671389,0.51785887 0 0 1 0.008,-0.007 z m -1.09192,0.77257 c -0.13605,0.0618 -0.27783,0.11633 -0.42685,0.16381 a 0.57671389,0.51785887 0 0 0 -0.015,0.006 0.57671389,0.51785887 0 0 1 0.0145,-0.006 c 0.14902,-0.0475 0.29132,-0.10152 0.42737,-0.16329 z"
         inkscape:label="D" />
      <path
         id="path161"
         style="font-size:32.5757px;line-height:30.5398px;font-family:'DIN 2014';-inkscape-font-specification:'DIN 2014, ';baseline-shift:baseline;display:inline;overflow:visible;vector-effect:none;fill:#d61c37;fill-rule:evenodd;stroke-linecap:square;stroke-linejoin:round;enable-background:accumulate;stop-color:#000000;stop-opacity:1"
         d="m 130.19336,546.46691 a 0.23477348,0.23477348 0 0 0 -0.23461,0.2341 v 4.94543 h -4.91185 a 0.23477348,0.23477348 0 0 0 -0.23461,0.23461 v 2.3456 a 0.23477348,0.23477348 0 0 0 0.23461,0.23409 h 4.91185 v 4.91236 a 0.23477348,0.23477348 0 0 0 0.23461,0.2341 h 2.34559 a 0.23477348,0.23477348 0 0 0 0.23461,-0.2341 v -4.91236 h 4.94544 a 0.23477348,0.23477348 0 0 0 0.23409,-0.23409 v -2.3456 a 0.23477348,0.23477348 0 0 0 -0.23409,-0.23461 h -4.94544 v -4.94543 a 0.23477348,0.23477348 0 0 0 -0.23461,-0.2341 z"
         inkscape:label="+" />
      <path
         id="path157"
         style="font-size:2.75737px;line-height:2.58504px;font-family:'DIN 2014';-inkscape-font-specification:'DIN 2014, ';baseline-shift:baseline;display:inline;overflow:visible;vector-effect:none;fill:#ffffff;fill-rule:evenodd;stroke-linecap:square;stroke-linejoin:round;enable-background:accumulate;stop-color:#000000;stop-opacity:1"
         d="m 104.95666,561.88029 a 0.05584393,0.04687924 0 0 0 -0.0512,0.0284 l -0.20878,0.39895 a 0.05584393,0.04687924 0 0 0 0.0512,0.0667 h 0.22376 a 0.05584393,0.04687924 0 0 0 0.0491,-0.0253 l 0.27491,-0.39894 a 0.05584393,0.04687924 0 0 0 -0.0491,-0.0698 z m -10.276895,0.0661 v 0.002 c -0.125037,0 -0.233877,0.0137 -0.326078,0.0413 -0.09069,0.0272 -0.165521,0.0649 -0.225826,0.11265 -0.05954,0.0472 -0.106849,0.10495 -0.134359,0.16847 -0.02614,0.063 -0.04083,0.12899 -0.04083,0.19482 0,0.16148 0.06515,0.29614 0.196371,0.38654 0.123741,0.087 0.29055,0.14382 0.494543,0.17002 0.09524,0.0149 0.172897,0.0304 0.22996,0.0486 0.05957,0.0191 0.104358,0.039 0.132292,0.0605 0.03143,0.0242 0.05277,0.0489 0.06408,0.0754 0.0107,0.032 0.01705,0.0612 0.01705,0.0946 0,0.0317 -0.006,0.0629 -0.01705,0.093 -0.01212,0.0278 -0.03119,0.0497 -0.05736,0.0698 -0.02534,0.0193 -0.06353,0.0364 -0.115238,0.0501 -0.04999,0.0132 -0.114039,0.0217 -0.194304,0.0217 -0.06746,0 -0.123781,-0.004 -0.163814,-0.0124 -0.04815,-0.01 -0.0876,-0.0205 -0.123507,-0.0377 a 0.05584393,0.04687924 0 0 0 -0.0026,-0.002 c -0.03643,-0.0153 -0.06721,-0.0335 -0.09767,-0.0569 -0.03037,-0.0232 -0.06254,-0.0527 -0.09405,-0.0863 a 0.05584393,0.04687924 0 0 0 -0.07441,-0.009 l -0.215491,0.1235 a 0.05584393,0.04687924 0 0 0 -0.01292,0.0641 c 0.167173,0.20511 0.435088,0.30593 0.784448,0.30593 0.130835,0 0.248163,-0.0131 0.347783,-0.0465 0.09565,-0.0322 0.173878,-0.0726 0.234611,-0.12351 0.05931,-0.0498 0.106592,-0.10941 0.133842,-0.17518 0.02598,-0.0627 0.03876,-0.12611 0.03876,-0.18965 0,-0.0857 -0.01535,-0.16014 -0.04909,-0.22531 -0.03321,-0.0614 -0.08075,-0.11505 -0.14056,-0.15968 a 0.05584393,0.04687924 0 0 0 -0.0026,-0.002 c -0.06305,-0.0419 -0.137763,-0.0753 -0.219625,-0.1018 a 0.05584393,0.04687924 0 0 0 -0.0021,0 c -0.0811,-0.0235 -0.172839,-0.0439 -0.274919,-0.0594 a 0.05584393,0.04687924 0 0 0 -0.0021,0 c -0.07459,-0.01 -0.139168,-0.0243 -0.198438,-0.0393 -0.0554,-0.0139 -0.100222,-0.032 -0.136425,-0.0537 -0.0362,-0.0217 -0.06324,-0.0477 -0.0832,-0.077 -0.01739,-0.0256 -0.02532,-0.0589 -0.02532,-0.10748 0,-0.0805 0.02669,-0.12976 0.08733,-0.1664 a 0.05584393,0.04687924 0 0 0 0.0021,-0.002 c 0.05972,-0.0376 0.145856,-0.0574 0.257866,-0.0574 0.06253,0 0.115003,0.004 0.15813,0.0124 0.04263,0.009 0.08158,0.0224 0.114721,0.0393 0.03618,0.0202 0.06927,0.0386 0.09405,0.0594 0.02562,0.0215 0.04938,0.0464 0.077,0.0744 a 0.05584393,0.04687924 0 0 1 0,-5.2e-4 0.05584393,0.04687924 0 0 1 -0.0067,-0.0222 l 0.01292,0.0284 c -0.002,-0.002 -0.0043,-0.004 -0.0062,-0.006 a 0.05584393,0.04687924 0 0 0 0.08268,0.0145 l 0.200504,-0.12196 a 0.05584393,0.04687924 0 0 0 0.01499,-0.0641 c -0.07959,-0.10154 -0.176994,-0.17758 -0.294039,-0.22944 a 0.05584393,0.04687924 0 0 0 -0.0026,-0.002 c -0.117949,-0.0495 -0.264369,-0.0744 -0.436666,-0.0744 z m -6.729822,0.0212 -0.660942,5.1e-4 a 0.05584393,0.04687924 0 0 0 -0.05529,0.0481 v 1.74305 a 0.05584393,0.04687924 0 0 0 0.05529,0.0465 h 0.257866 a 0.05584393,0.04687924 0 0 0 0.05581,-0.0465 v -0.61754 h 0.347266 c 0.249129,0 0.451403,-0.0485 0.596863,-0.15399 0.141266,-0.1048 0.215491,-0.25146 0.215491,-0.43098 0,-0.17953 -0.07303,-0.32827 -0.217558,-0.43305 -0.14477,-0.10495 -0.345196,-0.15606 -0.594796,-0.15606 z m 4.622974,5.1e-4 a 0.05584393,0.04687924 0 0 0 -0.04806,0.0481 v 0.22738 a 0.05584393,0.04687924 0 0 0 0.05529,0.0465 h 0.270785 a 0.05584393,0.04687924 0 0 0 0.05529,-0.0465 v -0.22738 a 0.05584393,0.04687924 0 0 0 -0.05529,-0.0481 h -0.270785 a 0.05584393,0.04687924 0 0 0 -0.0072,0 z m 6.021854,0 a 0.05584393,0.04687924 0 0 0 -0.04806,0.0465 v 0.22893 a 0.05584393,0.04687924 0 0 0 0.05529,0.0465 h 0.270785 a 0.05584393,0.04687924 0 0 0 0.05529,-0.0465 v -0.22893 a 0.05584393,0.04687924 0 0 0 -0.05529,-0.0465 h -0.270785 a 0.05584393,0.04687924 0 0 0 -0.0072,0 z m 2.169889,0 a 0.05584393,0.04687924 0 0 0 -0.0501,0.0465 v 1.35444 c 0,0.0681 0.007,0.13052 0.0279,0.18604 0.017,0.0562 0.0473,0.10299 0.0935,0.13952 h 5.1e-4 5.2e-4 5.2e-4 5.2e-4 5.1e-4 v 5.2e-4 5.2e-4 l -5.1e-4,5.1e-4 v 5.2e-4 h 5.1e-4 c 0.0441,0.0393 0.10344,0.0674 0.17674,0.0842 0.0701,0.0168 0.15392,0.0248 0.25373,0.0248 a 0.05584393,0.04687924 0 0 0 0.0553,-0.0465 v -0.1881 a 0.05584393,0.04687924 0 0 0 -0.0553,-0.0465 c -0.0593,0 -0.101,-0.006 -0.11938,-0.014 a 0.05584393,0.04687924 0 0 0 -0.004,-0.002 c -0.0272,-0.01 -0.0405,-0.0195 -0.0532,-0.0357 -0.0112,-0.0141 -0.0192,-0.034 -0.0217,-0.0589 -0.003,-0.0275 -0.002,-0.0597 -0.002,-0.0951 v -1.30276 a 0.05584393,0.04687924 0 0 0 -0.0553,-0.0481 h -0.24081 a 0.05584393,0.04687924 0 0 0 -0.008,0 z m 1.84434,0 a 0.05584393,0.04687924 0 0 0 -0.0481,0.0465 v 1.7446 a 0.05584393,0.04687924 0 0 0 0.0553,0.0465 h 0.66301 c 0.11851,0 0.22743,-0.0141 0.32815,-0.0465 0.10214,-0.0304 0.1881,-0.0799 0.25993,-0.14831 0.0738,-0.0676 0.12457,-0.15503 0.16226,-0.25787 0.0384,-0.10466 0.0574,-0.23086 0.0574,-0.37569 v -0.18086 c 0,-0.14482 -0.0191,-0.26762 -0.0574,-0.37207 -0.0377,-0.10283 -0.0893,-0.1919 -0.16226,-0.26149 -0.0716,-0.0656 -0.15685,-0.11548 -0.25787,-0.14831 a 0.05584393,0.04687924 0 0 0 -0.002,0 c -0.0994,-0.0296 -0.20789,-0.0465 -0.32815,-0.0465 h -0.66301 a 0.05584393,0.04687924 0 0 0 -0.007,0 z m 2.38383,0.007 h 0.15606 v 5.2e-4 h -5.1e-4 -0.15555 l -0.15916,0.30334 h -5.2e-4 l 0.15968,-0.30334 z m -10.313065,0.0656 v 5.2e-4 c 0.157901,0 0.287478,0.0251 0.386023,0.0661 0.06271,0.0277 0.115735,0.069 0.164848,0.11679 0.01637,0.0159 0.03236,0.0324 0.04806,0.0496 l -5.17e-4,5.2e-4 c -0.01567,-0.0172 -0.0312,-0.0342 -0.04754,-0.0501 -0.04904,-0.0477 -0.102255,-0.0886 -0.164848,-0.11627 -0.09855,-0.0411 -0.228113,-0.0661 -0.386023,-0.0661 v -5.1e-4 c -0.115722,0 -0.211514,0.0133 -0.287838,0.0362 -0.07786,0.0233 -0.139551,0.0549 -0.187585,0.093 -0.01209,0.01 -0.02348,0.0196 -0.03411,0.03 0.01071,-0.0105 0.02191,-0.0208 0.03411,-0.0305 0.04803,-0.0381 0.109729,-0.0697 0.187585,-0.093 0.07632,-0.0229 0.172116,-0.0362 0.287838,-0.0362 z m -7.334953,0.0217 h 0.605131 c 0.05798,0 0.11231,0.003 0.162781,0.009 0.151412,0.0168 0.269619,0.0582 0.359668,0.12351 0.01515,0.011 0.02918,0.0227 0.04237,0.0346 -0.01311,-0.0118 -0.02733,-0.0232 -0.04237,-0.0341 -0.09005,-0.0653 -0.208256,-0.10723 -0.359668,-0.12402 -0.05047,-0.006 -0.104801,-0.008 -0.162781,-0.008 h -0.605131 z m 5.290633,0 h 0.160197 v 5.2e-4 h -0.160197 z m 6.022372,0 h 0.15968 v 5.2e-4 h -0.15968 z m 2.169893,0 h 0.12764 v 1.25626 c 0,0.0205 4.9e-4,0.0404 0.002,0.0599 -0.001,-0.0194 -0.002,-0.039 -0.002,-0.0594 v -1.25625 h -0.12712 z m 1.84382,0 h 0.60771 c 0.10847,0 0.20267,0.0132 0.2899,0.0393 0.0428,0.0139 0.0814,0.0312 0.11679,0.0517 0.0354,0.0204 0.0678,0.044 0.0982,0.0718 9e-5,9e-5 -9e-5,4.3e-4 0,5.2e-4 -0.0304,-0.0278 -0.0627,-0.0519 -0.0982,-0.0724 -0.0354,-0.0204 -0.074,-0.0372 -0.11679,-0.0512 -0.0872,-0.026 -0.18143,-0.0393 -0.2899,-0.0393 h -0.60771 z m -10.769373,0.10697 -0.240813,5.2e-4 a 0.05584393,0.04687924 0 0 0 -0.05529,0.0465 v 0.23254 h -0.136426 a 0.05584393,0.04687924 0 0 0 -0.05581,0.0465 v 0.0734 c -0.04009,-0.0335 -0.07808,-0.0712 -0.125573,-0.093 a 0.05584393,0.04687924 0 0 0 -0.0021,0 c -0.07796,-0.0312 -0.172722,-0.0481 -0.281637,-0.0481 -0.100478,0 -0.180613,0.0165 -0.244946,0.0465 -0.01918,0.009 -0.02985,0.0265 -0.04703,0.0377 v -0.0165 a 0.05584393,0.04687924 0 0 0 -0.05529,-0.0465 H 90.41643 a 0.05584393,0.04687924 0 0 0 -0.05529,0.0465 v 1.26349 a 0.05584393,0.04687924 0 0 0 0.05529,0.0465 h 0.240812 a 0.05584393,0.04687924 0 0 0 0.05529,-0.0465 v -0.79065 c 0,-0.0878 0.02493,-0.14709 0.07493,-0.19327 0.05024,-0.0443 0.11162,-0.0667 0.191719,-0.0667 0.09009,0 0.150699,0.0242 0.200505,0.0791 a 0.05584393,0.04687924 0 0 1 -0.0047,-0.0145 l 0.01085,0.0217 c -0.0021,-0.002 -0.0041,-0.005 -0.0062,-0.007 a 0.05584393,0.04687924 0 0 0 0.08268,0.0196 l 0.179318,-0.10749 a 0.05584393,0.04687924 0 0 0 0.0279,0.0248 h 0.136426 v 0.6444 c 0,0.0681 0.0062,0.13045 0.02325,0.18449 0.01397,0.0553 0.0422,0.10448 0.08527,0.14108 0.04215,0.0383 0.09723,0.0689 0.166398,0.0863 0.06701,0.0169 0.144726,0.0248 0.238745,0.0248 h 0.127641 a 0.05584393,0.04687924 0 0 0 0.05788,-0.0465 v -0.19327 a 0.05584393,0.04687924 0 0 0 -0.05788,-0.0465 h -0.119372 c -0.04878,0 -0.08219,-0.003 -0.100253,-0.009 -0.02165,-0.007 -0.03484,-0.0168 -0.04237,-0.0269 -0.0094,-0.0126 -0.01584,-0.032 -0.02119,-0.0589 -0.0048,-0.0241 -0.0067,-0.0599 -0.0067,-0.10542 v -0.59427 h 0.291972 a 0.05584393,0.04687924 0 0 0 0.05581,-0.0486 v -0.18035 a 0.05584393,0.04687924 0 0 0 -0.05581,-0.0465 H 91.95745 v -0.23254 a 0.05584393,0.04687924 0 0 0 -0.05529,-0.047 z m 22.118033,0.002 5.1e-4,5.2e-4 -0.24081,5.2e-4 a 0.05584393,0.04687924 0 0 0 -0.0553,0.0465 v 0.23047 h -0.13643 a 0.05584393,0.04687924 0 0 0 -0.0558,0.0465 v 0.18294 a 0.05584393,0.04687924 0 0 0 0.0558,0.0465 h 0.13849 v 0.64388 c 0,0.0684 0.005,0.131 0.0212,0.18449 0.0136,0.0561 0.0419,0.10451 0.0853,0.14159 h 5.1e-4 5.2e-4 5.2e-4 v -5.1e-4 h 5.1e-4 v 5.1e-4 5.2e-4 5.2e-4 5.1e-4 c 0.0419,0.0375 0.0961,0.067 0.16434,0.0842 0.067,0.0169 0.14472,0.0248 0.23874,0.0248 h 0.13023 a 0.05584393,0.04687924 0 0 0 0.0553,-0.0465 v -0.1912 a 0.05584393,0.04687924 0 0 0 -0.0553,-0.0486 h -0.11938 c -0.0488,0 -0.0821,-0.002 -0.10025,-0.009 -0.0216,-0.007 -0.0353,-0.0167 -0.0429,-0.0269 -0.01,-0.0126 -0.0179,-0.0325 -0.0233,-0.0594 -0.005,-0.0236 -0.005,-0.0599 -0.005,-0.10542 v -0.59428 h 0.2899 a 0.05584393,0.04687924 0 0 0 0.0558,-0.0465 v -0.18241 a 0.05584393,0.04687924 0 0 0 -0.0558,-0.0465 h -0.2899 v -0.231 a 0.05584393,0.04687924 0 0 0 -0.0574,-0.0465 z m -26.417513,0.0884 h 0.347266 c 0.166845,0 0.28009,0.0302 0.343132,0.0791 0.06633,0.0514 0.09819,0.11888 0.09819,0.21807 0,0.0992 -0.03186,0.1672 -0.09819,0.21859 -0.06246,0.0484 -0.175635,0.0749 -0.343132,0.0749 h -0.347266 z m 15.328783,0 h 0.34778 c 0.0725,0 0.13784,0.009 0.18965,0.0269 0.0501,0.0169 0.0958,0.0465 0.13229,0.0858 0.0353,0.038 0.0633,0.0921 0.0832,0.16123 0.0199,0.0716 0.0315,0.1599 0.0315,0.26303 v 0.18087 c 0,0.10574 -0.0118,0.1944 -0.0315,0.26303 -0.0199,0.0716 -0.0479,0.1247 -0.0832,0.16278 -0.0359,0.0387 -0.0808,0.0669 -0.13229,0.0842 -0.0518,0.0174 -0.11712,0.0269 -0.18965,0.0269 h -0.34778 z m -11.214822,0.006 h 0.130225 v 5.2e-4 z m 6.092652,0.16175 v 5.2e-4 5.1e-4 c -0.215605,0 -0.39251,0.0544 -0.518315,0.16278 -0.126179,0.10871 -0.187586,0.2634 -0.187586,0.45114 v 0.1664 c 0,0.18488 0.05962,0.33781 0.185519,0.44907 0.125726,0.11311 0.302713,0.16846 0.520382,0.16846 0.125983,0 0.241258,-0.0167 0.341064,-0.0558 0.09989,-0.0369 0.177401,-0.0981 0.22996,-0.18087 l -0.02945,-0.007 a 0.05584393,0.04687924 0 0 0 0.03617,-0.016 0.05584393,0.04687924 0 0 0 -0.06666,-0.0202 l 0.04289,-0.0176 -0.187586,-0.11058 a 0.05584393,0.04687924 0 0 0 -0.08061,0.016 c -0.02844,0.0434 -0.06428,0.0716 -0.111104,0.0873 a 0.05584393,0.04687924 0 0 0 -0.0021,0 c -0.05185,0.0196 -0.109838,0.0289 -0.172599,0.0289 -0.06604,0 -0.120682,-0.009 -0.162264,-0.0253 a 0.05584393,0.04687924 0 0 0 0,-0.002 c -0.04667,-0.0174 -0.08087,-0.0387 -0.108521,-0.0682 -0.02846,-0.0304 -0.04873,-0.0651 -0.06201,-0.10749 -0.01322,-0.0399 -0.01912,-0.0868 -0.01912,-0.13953 v -0.16708 c 0,-0.11142 0.02837,-0.19248 0.0894,-0.25012 0.06171,-0.0583 0.14193,-0.0879 0.262517,-0.0879 0.06112,0 0.11744,0.012 0.172599,0.0305 0.04857,0.0197 0.08509,0.0433 0.115238,0.077 a 0.05584393,0.04687924 0 0 0 0.07648,0.0103 l 0.189653,-0.11058 a 0.05584393,0.04687924 0 0 0 0.01292,-0.0661 c -0.06007,-0.07 -0.141245,-0.12304 -0.238745,-0.16123 a 0.05584393,0.04687924 0 0 0 -0.0021,0 c -0.09724,-0.0354 -0.204826,-0.0558 -0.326078,-0.0558 z m 8.65012,0 v 5.2e-4 5.1e-4 c -0.10327,0 -0.19039,0.0173 -0.25993,0.0465 -0.0247,0.0104 -0.0366,0.0294 -0.0574,0.0429 v -0.0212 a 0.05584393,0.04687924 0 0 0 -0.0553,-0.0465 h -0.24133 a 0.05584393,0.04687924 0 0 0 -0.0553,0.0465 v 1.26348 a 0.05584393,0.04687924 0 0 0 0.0553,0.0465 h 0.24133 a 0.05584393,0.04687924 0 0 0 0.0553,-0.047 v -0.7891 c 0,-0.0387 0.005,-0.0722 0.0191,-0.10232 v -0.002 c 0.0158,-0.0306 0.037,-0.0575 0.062,-0.0806 0.0266,-0.0245 0.054,-0.0432 0.0873,-0.0553 0.0372,-0.0134 0.0739,-0.0217 0.11265,-0.0217 0.0344,0 0.0716,0.006 0.10697,0.016 0.0273,0.007 0.0517,0.0205 0.0765,0.0413 0.0202,0.0192 0.0359,0.044 0.0512,0.077 0.0132,0.0354 0.0233,0.0795 0.0233,0.13074 v 0.78548 a 0.05584393,0.04687924 0 0 0 0.0558,0.0465 h 0.24081 a 0.05584393,0.04687924 0 0 0 0.0553,-0.0465 v -0.7891 c 0,-0.0413 0.005,-0.0737 0.0191,-0.10387 v -0.002 c 0.0158,-0.0306 0.0371,-0.0592 0.062,-0.0822 0.0266,-0.0246 0.0541,-0.0418 0.0873,-0.0537 0.035,-0.0126 0.0719,-0.0196 0.11317,-0.0196 0.0337,0 0.0697,0.007 0.10439,0.016 0.0273,0.007 0.0537,0.0205 0.0786,0.0413 0.0202,0.0192 0.0359,0.044 0.0512,0.077 0.0132,0.0354 0.0217,0.0789 0.0217,0.13022 v 0.786 a 0.05584393,0.04687924 0 0 0 0.0574,0.0465 h 0.24081 a 0.05584393,0.04687924 0 0 0 0.0553,-0.0465 v -0.78961 c 0,-0.1719 -0.0513,-0.30823 -0.15348,-0.40256 -0.10132,-0.0907 -0.24537,-0.13953 -0.41961,-0.13953 -0.1017,0 -0.19621,0.0198 -0.28164,0.0558 -0.0736,0.0309 -0.13164,0.0831 -0.18345,0.13953 -0.10054,-0.11169 -0.23476,-0.19534 -0.42633,-0.19534 z m -10.16579,5.2e-4 v 5.1e-4 c -0.209917,0 -0.385337,0.0557 -0.505396,0.16485 -0.119788,0.10895 -0.176732,0.26177 -0.176733,0.44907 v 0.1664 c 0,0.18488 0.05756,0.33635 0.176733,0.44751 0.119656,0.1144 0.292648,0.17002 0.505396,0.17002 0.112748,0 0.212442,-0.0128 0.30024,-0.0465 0.08624,-0.0306 0.159173,-0.0752 0.215491,-0.13074 0.05577,-0.0551 0.09726,-0.11977 0.123506,-0.19689 0.02435,-0.0716 0.03969,-0.15032 0.04082,-0.23461 3.7e-5,-0.004 0.0017,-0.006 0.0021,-0.009 v -5.2e-4 -0.1664 c 1e-6,-0.18971 -0.05694,-0.34167 -0.176734,-0.45062 a 0.05584393,0.04687924 0 0 0 -0.0026,-0.002 c -0.12008,-0.1064 -0.292903,-0.16123 -0.502811,-0.16123 z m 8.60413,0 -0.001,5.1e-4 c -0.20967,10e-5 -0.37879,0.0562 -0.48989,0.1664 -0.11028,0.10942 -0.16226,0.2611 -0.16226,0.44752 v 0.1664 c 0,0.18488 0.0593,0.33961 0.18551,0.45113 0.12548,0.11089 0.30066,0.1664 0.51625,0.1664 0.13669,0 0.24907,-0.016 0.34313,-0.0522 0.0972,-0.035 0.17163,-0.098 0.22996,-0.18242 l -0.032,-0.007 a 0.05584393,0.04687924 0 0 0 0.0408,-0.0181 0.05584393,0.04687924 0 0 0 -0.0656,-0.0186 l 0.0419,-0.0186 -0.18759,-0.1111 a 0.05584393,0.04687924 0 0 0 -0.0785,0.0145 c -0.0288,0.0417 -0.0632,0.0689 -0.10697,0.0873 a 0.05584393,0.04687924 0 0 0 -0.002,0.002 c -0.0397,0.0185 -0.11091,0.0284 -0.20258,0.0284 -0.0594,0 -0.10573,-0.008 -0.14469,-0.0248 -0.0415,-0.0175 -0.0764,-0.0403 -0.10025,-0.0682 -0.0266,-0.0312 -0.0487,-0.0667 -0.062,-0.10904 a 0.05584393,0.04687924 0 0 0 0,-0.002 c -0.0139,-0.035 -0.0181,-0.0783 -0.0191,-0.12506 h 0.89348 a 0.05584393,0.04687924 0 0 0 0.0553,-0.0486 v -0.13022 c 0,-0.18928 -0.0537,-0.34064 -0.1602,-0.44959 a 0.05584393,0.04687924 0 0 0 -0.002,-0.002 c -0.11116,-0.10746 -0.28023,-0.16268 -0.48989,-0.16278 z m 5.4286,0 v 5.1e-4 c -0.2156,0 -0.39199,0.0566 -0.51779,0.16485 -0.12618,0.10872 -0.18759,0.26133 -0.18759,0.44907 v 0.1664 c 0,0.18487 0.0575,0.33781 0.18345,0.44907 0.1258,0.11394 0.3035,0.16846 0.52193,0.16846 0.126,0 0.2392,-0.0146 0.339,-0.0537 0.10129,-0.0368 0.17741,-0.0994 0.23048,-0.18294 l -0.0388,-0.005 a 0.05584393,0.04687924 0 0 0 0.045,-0.0232 0.05584393,0.04687924 0 0 0 -0.0661,-0.0109 l 0.0429,-0.0212 -0.18552,-0.1111 a 0.05584393,0.04687924 0 0 0 -0.0811,0.016 c -0.0284,0.0434 -0.0638,0.072 -0.11059,0.0879 a 0.05584393,0.04687924 0 0 0 -0.002,0 c -0.0517,0.0196 -0.11035,0.0284 -0.17312,0.0284 -0.066,0 -0.12015,-0.008 -0.16174,-0.0248 a 0.05584393,0.04687924 0 0 0 -0.002,0 c -0.0466,-0.0174 -0.0813,-0.0402 -0.10904,-0.0698 -0.0285,-0.0304 -0.0483,-0.0651 -0.0615,-0.10749 -0.0132,-0.0399 -0.0191,-0.0868 -0.0191,-0.13952 v -0.1664 c 0,-0.11143 0.0308,-0.19145 0.092,-0.24908 0.0618,-0.0583 0.1409,-0.0894 0.26148,-0.0894 0.0611,0 0.11849,0.012 0.17364,0.0305 0.0478,0.0196 0.0827,0.0453 0.11265,0.0785 a 0.05584393,0.04687924 0 0 0 0.077,0.009 l 0.18965,-0.1111 a 0.05584393,0.04687924 0 0 0 0.0124,-0.0661 c -0.06,-0.07 -0.13869,-0.12251 -0.23617,-0.16071 a 0.05584393,0.04687924 0 0 0 -0.003,0 c -0.0972,-0.0354 -0.20482,-0.0558 -0.32608,-0.0558 z m -20.873656,5.1e-4 c -0.149883,0 -0.269937,0.0184 -0.364319,0.0553 -0.09331,0.0391 -0.171564,0.0993 -0.227893,0.17725 a 0.05584393,0.04687924 0 0 0 0.01447,0.063 l 0.181384,0.10542 a 0.05584393,0.04687924 0 0 0 0.08113,-0.016 c 0.01419,-0.0218 0.0331,-0.039 0.05323,-0.0537 0.02073,-0.0128 0.04024,-0.0224 0.06408,-0.0305 a 0.05584393,0.04687924 0 0 0 0.0021,0 c 0.0195,-0.007 0.04203,-0.0123 0.07441,-0.0145 0.03584,-0.003 0.07375,-0.005 0.119373,-0.005 0.108499,0 0.18184,0.0151 0.221692,0.0357 0.03393,0.019 0.05581,0.0575 0.05581,0.13798 v 0.0982 h -0.302824 c -0.08812,0 -0.167129,0.009 -0.238745,0.0196 a 0.05584393,0.04687924 0 0 0 -0.0021,0 c -0.0747,0.0136 -0.140681,0.036 -0.19637,0.0682 -0.05808,0.0345 -0.105266,0.0784 -0.136426,0.13074 -0.03266,0.0548 -0.04496,0.11917 -0.04496,0.18965 a 0.05584393,0.04687924 0 0 0 0,0.002 c 0,0.13336 0.05072,0.2443 0.153479,0.32195 0.104309,0.0789 0.255566,0.11317 0.441317,0.11317 0.09886,0 0.182357,-0.006 0.251664,-0.0305 0.02987,-0.009 0.04842,-0.0397 0.07441,-0.0574 v 0.0212 a 0.05584393,0.04687924 0 0 0 0.05581,0.0465 h 0.240812 a 0.05584393,0.04687924 0 0 0 0.05529,-0.0465 v -0.87643 c 0,-0.15992 -0.05283,-0.28299 -0.166398,-0.3545 -0.110154,-0.0694 -0.263746,-0.10025 -0.460437,-0.10025 z m 10.355957,0 c -0.149885,0 -0.269937,0.0184 -0.364319,0.0553 -0.09331,0.0391 -0.172082,0.0993 -0.22841,0.17725 a 0.05584393,0.04687924 0 0 0 0.01499,0.063 l 0.181384,0.10542 a 0.05584393,0.04687924 0 0 0 0.08113,-0.016 c 0.01419,-0.0218 0.0331,-0.039 0.05323,-0.0537 0.02073,-0.0128 0.03973,-0.0224 0.06356,-0.0305 0.0195,-0.007 0.04461,-0.0123 0.077,-0.0145 0.03584,-0.003 0.07168,-0.005 0.117306,-0.005 0.108499,0 0.183903,0.0151 0.223768,0.0357 0.0333,0.0192 0.0553,0.0585 0.0553,0.13798 v 0.0982 h -0.30283 c -0.08812,0 -0.167129,0.009 -0.238745,0.0196 a 0.05584393,0.04687924 0 0 0 -0.0021,0 c -0.0747,0.0136 -0.140163,0.036 -0.195853,0.0682 a 0.05584393,0.04687924 0 0 0 -0.0021,0 c -0.05808,0.0345 -0.103191,0.0784 -0.134359,0.13074 -0.03266,0.0548 -0.04496,0.11917 -0.04496,0.18965 a 0.05584393,0.04687924 0 0 0 0,0.002 c 0,0.13336 0.0507,0.2443 0.153479,0.32195 0.104309,0.0789 0.255565,0.11317 0.441317,0.11317 0.09886,0 0.182352,-0.006 0.251671,-0.0305 0.0299,-0.009 0.0484,-0.0397 0.0744,-0.0574 v 0.0212 a 0.05584393,0.04687924 0 0 0 0.0553,0.0465 h 0.24082 a 0.05584393,0.04687924 0 0 0 0.0558,-0.0465 v -0.87643 c 0,-0.15992 -0.0528,-0.28299 -0.1664,-0.3545 -0.11016,-0.0694 -0.26375,-0.10025 -0.460441,-0.10025 z m 8.999969,0 c -0.20992,0 -0.38275,0.0557 -0.50281,0.16485 -0.1198,0.10895 -0.17725,0.26177 -0.17725,0.44907 v 0.1664 c 0,0.18421 0.0589,0.33646 0.17725,0.44751 v 5.2e-4 5.2e-4 5.2e-4 c 0.11958,0.11321 0.29114,0.16846 0.50281,0.16846 0.11275,0 0.21502,-0.0128 0.30282,-0.0465 0.0863,-0.0306 0.15711,-0.0752 0.21343,-0.13074 0.0558,-0.0551 0.0993,-0.1198 0.12557,-0.19689 0.0253,-0.0743 0.0403,-0.15529 0.0403,-0.24339 v -0.1664 c 0,-0.18971 -0.0569,-0.34219 -0.17674,-0.45114 -0.1201,-0.10639 -0.29548,-0.16278 -0.50539,-0.16278 z m 2.86959,0 c -0.10052,0 -0.1832,0.0165 -0.24753,0.0465 -0.0193,0.009 -0.0297,0.0265 -0.047,0.0377 v -0.016 a 0.05584393,0.04687924 0 0 0 -0.0553,-0.0465 h -0.24081 a 0.05584393,0.04687924 0 0 0 -0.0553,0.0465 v 1.26297 a 0.05584393,0.04687924 0 0 0 0.0553,0.0465 h 0.24081 a 0.05584393,0.04687924 0 0 0 0.0553,-0.0465 v -0.79065 c 0,-0.0878 0.027,-0.14709 0.077,-0.19327 0.0499,-0.0434 0.11031,-0.0661 0.18966,-0.0661 0.0939,0 0.15571,0.0274 0.2067,0.0873 a 0.05584393,0.04687924 0 0 0 0.0279,0.016 0.05584393,0.04687924 0 0 0 0.0512,-0.005 l 0.20463,-0.12196 a 0.05584393,0.04687924 0 0 0 0.0129,-0.0661 c -0.0532,-0.0614 -0.12121,-0.10758 -0.1943,-0.14108 a 0.05584393,0.04687924 0 0 0 -0.002,-0.002 c -0.0779,-0.0312 -0.17015,-0.0481 -0.27905,-0.0481 z m 1.08004,0 c -0.14961,5e-5 -0.26955,0.0184 -0.3638,0.0553 a 0.05584393,0.04687924 0 0 0 -0.002,0.002 c -0.0933,0.0391 -0.17,0.0973 -0.22634,0.17519 a 0.05584393,0.04687924 0 0 0 0.015,0.0625 l 0.18139,0.10697 a 0.05584393,0.04687924 0 0 0 0.0811,-0.016 c 0.0143,-0.0219 0.0331,-0.0405 0.0532,-0.0553 0.0207,-0.0128 0.0377,-0.0224 0.0615,-0.0305 a 0.05584393,0.04687924 0 0 0 0.002,0 c 0.0194,-0.007 0.0446,-0.0123 0.077,-0.0145 0.0358,-0.003 0.0717,-0.005 0.1173,-0.005 0.10751,0 0.18155,0.0154 0.22169,0.0357 0.034,0.019 0.0574,0.0575 0.0574,0.13798 v 0.0982 h -0.30282 c -0.0881,0 -0.16713,0.009 -0.23875,0.0196 a 0.05584393,0.04687924 0 0 0 -0.002,0 c -0.0747,0.0136 -0.14016,0.036 -0.19586,0.0682 a 0.05584393,0.04687924 0 0 0 -0.003,0 c -0.0582,0.0345 -0.1032,0.0784 -0.13436,0.13074 -0.0326,0.0548 -0.0444,0.12072 -0.0444,0.1912 0,0.13337 0.0507,0.24431 0.15348,0.32195 0.10434,0.0789 0.25556,0.11317 0.44132,0.11317 0.098,0 0.1801,-0.006 0.24908,-0.0305 0.0301,-0.009 0.0508,-0.0395 0.077,-0.0574 v 0.0212 a 0.05584393,0.04687924 0 0 0 0.0553,0.0465 h 0.24081 a 0.05584393,0.04687924 0 0 0 0.0558,-0.0465 v -0.87643 c 0,-0.15991 -0.0528,-0.28144 -0.1664,-0.35295 -0.11001,-0.0693 -0.26348,-0.10175 -0.45992,-0.10181 z m 2.43086,0 c -0.20992,0 -0.37922,0.0561 -0.49041,0.1664 -0.11029,0.10942 -0.15968,0.2611 -0.15968,0.44752 v 0.1664 c 0,0.18487 0.0567,0.3396 0.18293,0.45113 0.12547,0.11089 0.30065,0.1664 0.51625,0.1664 0.13669,0 0.24907,-0.016 0.34313,-0.0522 0.0973,-0.035 0.17369,-0.098 0.23203,-0.18242 l -0.047,0.002 a 0.05584393,0.04687924 0 0 0 0.045,-0.0522 0.05584393,0.04687924 0 0 0 -0.0315,0 l 0.0165,-0.0124 -0.18501,-0.1111 a 0.05584393,0.04687924 0 0 0 -0.0811,0.015 c -0.0287,0.0417 -0.0626,0.0693 -0.10645,0.0879 a 0.05584393,0.04687924 0 0 0 -0.003,0.002 c -0.0396,0.0185 -0.10832,0.0284 -0.19999,0.0284 -0.0595,0 -0.10835,-0.008 -0.14728,-0.0248 -0.0415,-0.0175 -0.0765,-0.0403 -0.10025,-0.0682 -0.0266,-0.0312 -0.0488,-0.0666 -0.062,-0.10904 a 0.05584393,0.04687924 0 0 0 0,-0.002 c -0.0139,-0.0351 -0.018,-0.0788 -0.0191,-0.12557 h 0.89348 a 0.05584393,0.04687924 0 0 0 0.0553,-0.0481 v -0.13074 c 0,-0.18928 -0.0533,-0.34013 -0.15968,-0.44907 a 0.05584393,0.04687924 0 0 0 0,-0.002 c -0.11126,-0.10755 -0.28258,-0.16277 -0.49248,-0.16278 z m -22.601207,0.0217 a 0.05584393,0.04687924 0 0 0 -0.04806,0.0465 v 1.26297 a 0.05584393,0.04687924 0 0 0 0.05529,0.0465 h 0.240812 a 0.05584393,0.04687924 0 0 0 0.05529,-0.0465 v -1.26297 a 0.05584393,0.04687924 0 0 0 -0.05529,-0.0465 h -0.240812 a 0.05584393,0.04687924 0 0 0 -0.0072,0 z m 6.021854,0 a 0.05584393,0.04687924 0 0 0 -0.04806,0.0465 v 1.26297 a 0.05584393,0.04687924 0 0 0 0.05529,0.0465 h 0.240812 a 0.05584393,0.04687924 0 0 0 0.05581,-0.0465 v -1.26297 a 0.05584393,0.04687924 0 0 0 -0.05581,-0.0465 h -0.240812 a 0.05584393,0.04687924 0 0 0 -0.0072,0 z m -6.897253,0.063 a 0.05584393,0.04687924 0 0 1 -0.0031,0.006 0.05584393,0.04687924 0 0 0 0.0031,-0.006 z m 22.120616,0.002 a 0.05584393,0.04687924 0 0 1 -0.008,0.0109 0.05584393,0.04687924 0 0 0 0.008,-0.0109 z m -7.37371,0.008 v 5.2e-4 c -0.0894,0 -0.16,0.0148 -0.21084,0.0362 -0.0255,0.0107 -0.0474,0.0227 -0.0662,0.0367 0.0189,-0.0142 0.0404,-0.0264 0.0662,-0.0372 0.0508,-0.0213 0.12149,-0.0362 0.21084,-0.0362 z m -6.651276,5.2e-4 5.17e-4,5.2e-4 c -0.139028,0 -0.243658,0.0155 -0.31781,0.0444 -0.0073,0.003 -0.01438,0.006 -0.02119,0.01 0.0067,-0.004 0.0135,-0.007 0.02067,-0.0103 0.07415,-0.029 0.178782,-0.0444 0.31781,-0.0444 z m 12.950116,0 5.1e-4,5.2e-4 c -0.10426,0 -0.18909,0.01 -0.25631,0.0269 0.0671,-0.0171 0.15177,-0.0274 0.2558,-0.0274 z m -23.305556,5.2e-4 c -0.139026,0 -0.243142,0.0155 -0.317294,0.0444 -0.0073,0.003 -0.01437,0.006 -0.02119,0.01 -0.02046,0.0108 -0.03868,0.0239 -0.05581,0.0382 0.01714,-0.0144 0.03533,-0.0274 0.05581,-0.0382 0.0068,-0.004 0.01387,-0.007 0.02119,-0.0103 0.07415,-0.029 0.178268,-0.0439 0.317294,-0.0439 z m 1.551843,0 c 0.04787,0 0.0911,0.003 0.129708,0.009 -0.03861,-0.006 -0.08184,-0.009 -0.129708,-0.009 z m 0,0 c -0.06458,0 -0.115616,0.007 -0.155546,0.0196 0.03993,-0.0123 0.09097,-0.0196 0.155546,-0.0196 z m 13.892693,0 c 0.0699,0 0.13206,0.007 0.18707,0.0191 -0.055,-0.0126 -0.11714,-0.0191 -0.18707,-0.0191 z m 1.56218,0 c 0.14256,0 0.24672,0.0327 0.32298,0.0987 -0.0762,-0.0658 -0.18059,-0.0982 -0.32298,-0.0982 z m 2.34869,0 c -0.07,3e-5 -0.13348,0.006 -0.19017,0.0191 -0.0379,0.008 -0.0727,0.0196 -0.1049,0.0336 0.0321,-0.0139 0.0672,-0.0252 0.1049,-0.0336 0.0568,-0.0127 0.11992,-0.0191 0.19017,-0.0191 z m 2.87011,0 c -0.0646,0 -0.11547,0.007 -0.15555,0.0196 0.0401,-0.0123 0.091,-0.0196 0.15555,-0.0196 z m -4.32738,5.1e-4 c 0.14995,0 0.25779,0.0388 0.33693,0.10904 9e-5,9e-5 -1e-4,4.3e-4 0,5.2e-4 -0.0791,-0.0702 -0.18698,-0.10904 -0.33693,-0.10904 -0.0849,0 -0.16148,0.0141 -0.23255,0.0439 -0.0517,0.0217 -0.097,0.0531 -0.13591,0.0925 0.0389,-0.0395 0.0841,-0.0713 0.13591,-0.093 0.0711,-0.0299 0.14766,-0.0439 0.23255,-0.0439 z m -15.490015,0.003 a 0.05584393,0.04687924 0 0 0 0.04134,0.016 h 0.289904 v 5.2e-4 h -0.289904 a 0.05584393,0.04687924 0 0 1 -0.04134,-0.0165 z m -2.280997,0.002 c 0.117232,0.0103 0.20532,0.0359 0.267167,0.0749 -0.06185,-0.0389 -0.149935,-0.0646 -0.267167,-0.0749 z m 2.1208,0 a 0.05584393,0.04687924 0 0 1 -0.03927,0.0145 h -0.136425 v -5.1e-4 h 0.136425 a 0.05584393,0.04687924 0 0 0 0.03927,-0.014 z m 22.119582,0.002 a 0.05584393,0.04687924 0 0 1 -0.0119,0.007 0.05584393,0.04687924 0 0 0 0.0119,-0.007 z m -13.868922,5.1e-4 c 0.07111,0.007 0.131942,0.0202 0.181382,0.0388 -0.0494,-0.0185 -0.11035,-0.0315 -0.181382,-0.0388 z m 12.949592,0 c 0.0707,0.007 0.13129,0.0202 0.18036,0.0388 -0.0491,-0.0185 -0.10973,-0.0315 -0.18036,-0.0388 z m -8.13387,10e-4 c -0.0399,0.006 -0.0761,0.0142 -0.10955,0.0253 0.0333,-0.0111 0.0698,-0.0197 0.10955,-0.0253 z m 10.29188,0 c -0.0354,0.005 -0.0679,0.0129 -0.0982,0.0222 0.0304,-0.009 0.0626,-0.0172 0.0982,-0.0222 z m 0.26045,0 c 0.0602,0.008 0.1132,0.023 0.15917,0.0434 0.0306,0.0136 0.058,0.0299 0.0827,0.0486 -0.0247,-0.0187 -0.052,-0.035 -0.0827,-0.0486 -0.046,-0.0204 -0.099,-0.035 -0.15917,-0.0434 z m -3.51451,0.002 c 0.0377,0.006 0.0713,0.0156 0.10128,0.0274 -0.0299,-0.0118 -0.0636,-0.021 -0.10128,-0.0274 z m 2.18849,0.003 a 0.05584393,0.04687924 0 0 0 0.0119,0.005 0.05584393,0.04687924 0 0 1 -0.0119,-0.005 z m -0.19171,0.004 a 0.05584393,0.04687924 0 0 1 -0.0217,0.003 0.05584393,0.04687924 0 0 0 0.0217,-0.003 z m -16.188681,0.002 c -0.03901,0.008 -0.07519,0.0196 -0.10852,0.0336 0.03333,-0.014 0.06951,-0.0251 0.10852,-0.0336 z m 8.287871,5.2e-4 h 0.13022 v 5.1e-4 h -0.13022 z m 6.60114,0.008 c -0.0222,0.006 -0.0426,0.0124 -0.061,0.0196 -0.007,0.003 -0.0144,0.006 -0.0212,0.01 0.007,-0.004 0.0134,-0.007 0.0207,-0.0103 0.0185,-0.007 0.0391,-0.0134 0.0615,-0.0191 z m -16.503899,0.0258 c -0.03222,0.014 -0.06158,0.0308 -0.08837,0.0501 0.02679,-0.0194 0.05614,-0.0361 0.08837,-0.0501 z m 3.471106,0.002 c -0.02027,0.0108 -0.03836,0.0239 -0.05529,0.0382 0.01695,-0.0143 0.03499,-0.0275 0.05529,-0.0382 z m 12.930473,0.0134 c -0.0253,0.0159 -0.0472,0.0353 -0.0682,0.0558 -0.0105,0.0103 -0.0209,0.0211 -0.031,0.032 l -5.1e-4,-5.1e-4 c 0.0102,-0.011 0.0209,-0.0211 0.0315,-0.0315 0.021,-0.0206 0.0429,-0.0399 0.0682,-0.0558 z m -6.2177,0.005 c -0.009,0.007 -0.0178,0.0147 -0.0258,0.0227 0.008,-0.008 0.0165,-0.0157 0.0258,-0.0227 z m -0.95344,0.002 c 0.0275,0.0161 0.0521,0.0349 0.0739,0.0558 -0.0219,-0.0209 -0.0464,-0.0397 -0.0739,-0.0558 z m -7.77213,10e-4 c -0.03068,0.0167 -0.0585,0.0362 -0.08423,0.0584 0.02573,-0.0222 0.05355,-0.0417 0.08423,-0.0584 z m 1.956986,0.0171 c -0.02261,0.0191 -0.04275,0.0411 -0.06305,0.063 l -5.17e-4,-5.1e-4 c 0.02039,-0.022 0.04084,-0.0434 0.06356,-0.0625 z m 13.205914,0.007 c -0.0249,0.002 -0.0487,0.005 -0.0713,0.0103 0.0226,-0.006 0.0464,-0.008 0.0713,-0.0103 z m -6.57428,0.0269 a 0.05584393,0.04687924 0 0 0 0.0713,0.009 0.05584393,0.04687924 0 0 1 -0.0713,-0.009 z m 0.0837,0 a 0.05584393,0.04687924 0 0 1 -0.0119,0.009 0.05584393,0.04687924 0 0 0 0.0119,-0.009 z m -15.007871,0.002 c 0.01641,0.008 0.03237,0.0177 0.04754,0.0279 -0.01515,-0.0102 -0.03116,-0.0195 -0.04754,-0.0279 z m 17.265091,0.006 c 1e-4,-9e-5 4.2e-4,9e-5 5.2e-4,0 -0.0606,0.0551 -0.10296,0.12449 -0.12609,0.21084 -0.0139,0.0518 -0.0207,0.10986 -0.0207,0.17415 v 0.1664 c 0,0.13843 0.0349,0.24849 0.10129,0.33383 -0.0665,-0.0854 -0.10181,-0.19524 -0.10181,-0.33383 v -0.1664 c 0,-0.0643 0.007,-0.12234 0.0212,-0.17415 0.0231,-0.0863 0.065,-0.15577 0.12557,-0.21084 z m 2.97605,5.2e-4 a 0.05584393,0.04687924 0 0 1 -0.0134,0.006 0.05584393,0.04687924 0 0 1 -0.0305,0.002 0.05584393,0.04687924 0 0 1 -0.0145,-0.004 0.05584393,0.04687924 0 0 0 0.0145,0.004 0.05584393,0.04687924 0 0 0 0.0305,-0.002 0.05584393,0.04687924 0 0 0 0.0134,-0.006 z m -20.686592,0.006 a 0.05584393,0.04687924 0 0 1 -0.02274,0.003 0.05584393,0.04687924 0 0 0 0.02274,-0.003 z m 23.160862,0.003 a 0.05584393,0.04687924 0 0 1 0.002,0.0124 0.05584393,0.04687924 0 0 0 -0.002,-0.0124 z m -19.53266,0.0103 c 0.01928,0.0176 0.04108,0.0336 0.06511,0.0481 0.04806,0.0289 0.103474,0.0514 0.168465,0.0677 0.06053,0.0152 0.129956,0.0308 0.21084,0.0413 0.09655,0.0147 0.184543,0.0349 0.259932,0.0568 0.07336,0.0239 0.136965,0.0528 0.187586,0.0863 0.01195,0.009 0.02294,0.0188 0.03359,0.0284 -0.01056,-0.01 -0.02174,-0.0189 -0.03359,-0.0279 -0.05062,-0.0335 -0.114231,-0.0624 -0.187586,-0.0863 -0.07539,-0.0219 -0.163384,-0.0422 -0.259932,-0.0568 -0.08088,-0.0105 -0.150309,-0.0256 -0.21084,-0.0408 -0.06499,-0.0163 -0.120409,-0.0394 -0.168465,-0.0682 -0.02415,-0.0145 -0.04577,-0.0309 -0.06511,-0.0486 z m 5.82342,0.016 c 0.007,0.006 0.0133,0.0128 0.0191,0.0201 -0.006,-0.007 -0.0123,-0.0138 -0.0191,-0.0201 z m -3.83336,0.0103 v 5.2e-4 c 0.110679,0 0.187532,0.0294 0.242879,0.0842 0.05621,0.058 0.08527,0.14014 0.08527,0.25425 v 0.1664 c 0,0.0507 -0.0077,0.0963 -0.02119,0.13746 -0.01647,0.0438 -0.03748,0.0799 -0.06408,0.1111 -0.02817,0.0296 -0.06047,0.0515 -0.100252,0.0682 -0.03896,0.0164 -0.08651,0.0248 -0.142627,0.0248 -0.06604,0 -0.114519,-0.008 -0.153479,-0.0248 -0.04154,-0.0175 -0.07645,-0.0403 -0.100252,-0.0682 -0.02659,-0.0312 -0.04505,-0.0666 -0.05529,-0.10749 a 0.05584393,0.04687924 0 0 0 -0.0026,-0.002 c -0.01322,-0.0399 -0.01912,-0.0868 -0.01912,-0.13953 v -0.1664 c 0,-0.11142 0.03115,-0.19274 0.08733,-0.25063 0.05595,-0.0577 0.129393,-0.0879 0.243396,-0.0879 z m 8.60361,0.002 c 0.10259,0 0.16667,0.0223 0.21291,0.0713 0.0377,0.04 0.0514,0.10519 0.0641,0.17208 h -0.55655 c 0.0126,-0.0669 0.0264,-0.13212 0.0641,-0.17208 a 0.05584393,0.04687924 0 0 0 0.002,0 c 0.0423,-0.0473 0.10752,-0.0713 0.21342,-0.0713 z m 3.91139,0 c 0.10985,0 0.18813,0.0301 0.24339,0.0842 0.0555,0.0579 0.0873,0.13881 0.0873,0.25218 v 0.1664 c 0,0.0508 -0.008,0.0972 -0.0217,0.13798 -0.0162,0.0432 -0.0374,0.078 -0.0636,0.10903 -0.0287,0.0306 -0.0595,0.0526 -0.10025,0.0698 -0.039,0.0164 -0.0891,0.0248 -0.14521,0.0248 -0.066,0 -0.11245,-0.008 -0.15141,-0.0248 -0.0415,-0.0175 -0.0759,-0.0398 -0.0997,-0.0677 -0.0266,-0.0312 -0.0476,-0.0661 -0.0579,-0.10697 a 0.05584393,0.04687924 0 0 0 0,-0.002 c -0.0132,-0.0399 -0.0191,-0.0868 -0.0191,-0.13952 v -0.1664 c 0,-0.11142 0.0311,-0.19274 0.0873,-0.25063 0.0559,-0.0577 0.12681,-0.0858 0.24081,-0.0858 z m 6.38049,0 c 0.10257,0 0.16667,0.0223 0.2129,0.0713 0.0377,0.04 0.0514,0.10519 0.0641,0.17208 h -0.55655 c 0.0128,-0.0671 0.0285,-0.13219 0.0661,-0.17208 0.0422,-0.0473 0.10757,-0.0713 0.21343,-0.0713 z m -8.24808,0.002 a 0.05584393,0.04687924 0 0 1 -0.0827,0.002 0.05584393,0.04687924 0 0 0 0.0827,-0.002 z m 6.15466,0.009 c 0.0111,0.0142 0.0202,0.0304 0.0274,0.0475 -0.007,-0.0174 -0.0162,-0.0332 -0.0274,-0.0475 z m -1.1746,0.009 0.0181,0.0103 -0.0181,-0.01 -0.009,0.002 z m -2.78174,0.004 c 0.0191,0.0197 0.0357,0.0411 0.0496,0.0641 0.0139,0.023 0.0251,0.0477 0.0341,0.0739 -0.009,-0.0262 -0.0202,-0.0509 -0.0341,-0.0739 -0.0139,-0.023 -0.0305,-0.0444 -0.0496,-0.0641 z m 2.80034,0.007 c 7.4e-4,2.1e-4 10e-4,2.3e-4 0.002,5.1e-4 -2.7e-4,-1e-4 -7.5e-4,10e-5 -0.001,0 -3.4e-4,-1.1e-4 -6.9e-4,-4.1e-4 -10e-4,-5.1e-4 z m 0.004,0.003 0.003,10e-4 0.002,0.002 z m 1.17977,0.0258 c 0.0105,0.0251 0.0163,0.053 0.0191,0.0832 -0.003,-0.0301 -0.009,-0.0582 -0.0191,-0.0832 z m -8.57519,0.015 c -0.0185,0.0298 -0.0329,0.0624 -0.0434,0.0982 -0.0105,0.0357 -0.0168,0.0746 -0.0191,0.11627 0.002,-0.0417 0.009,-0.0805 0.0191,-0.11627 0.0105,-0.0358 0.0248,-0.0683 0.0434,-0.0982 z m 10.98796,0.002 c 0.0181,0.0294 0.032,0.0615 0.0424,0.0966 0.0104,0.0351 0.0171,0.0733 0.0196,0.11421 -0.003,-0.0409 -0.009,-0.0791 -0.0196,-0.11421 -0.0104,-0.0351 -0.0243,-0.0672 -0.0424,-0.0966 z m -15.35307,0.008 c 0.005,0.019 0.009,0.039 0.0103,0.0605 8.4e-4,0.0107 0.002,0.0218 0.002,0.0331 v 0.14469 a 0.05584393,0.04687924 0 0 1 -0.007,0.0238 0.05584393,0.04687924 0 0 1 -0.0408,0.0238 0.05584393,0.04687924 0 0 0 0.0408,-0.0238 0.05584393,0.04687924 0 0 0 0.007,-0.0238 v -0.14469 c 0,-0.0112 -2e-4,-0.0224 -0.001,-0.0331 -0.002,-0.0214 -0.005,-0.0415 -0.0103,-0.0605 z m -11.783772,0.0264 c -0.01,0.01 -0.02015,0.0191 -0.03152,0.0279 -0.03526,0.0273 -0.07719,0.0481 -0.125573,0.0636 -0.04839,0.0155 -0.103275,0.0254 -0.163815,0.031 -0.04036,0.004 -0.08327,0.006 -0.128674,0.006 H 87.54671 a 0.05584393,0.04687924 0 0 1 -0.0155,-0.002 0.05584393,0.04687924 0 0 1 -0.01447,-0.006 0.05584393,0.04687924 0 0 1 -0.01189,-0.009 0.05584393,0.04687924 0 0 0 0.01189,0.009 0.05584393,0.04687924 0 0 0 0.01447,0.006 0.05584393,0.04687924 0 0 0 0.0155,0.002 h 0.403076 c 0.0454,0 0.08831,-10e-4 0.128674,-0.005 0.06054,-0.006 0.115428,-0.0155 0.163815,-0.031 0.04839,-0.0155 0.09031,-0.0368 0.125573,-0.0641 0.01127,-0.009 0.02163,-0.0178 0.03152,-0.0274 z m 24.743712,0.0367 c 8.1e-4,0.0102 0.002,0.0203 0.002,0.031 v 0.14676 a 0.05584393,0.04687924 0 0 1 -0.005,0.0176 0.05584393,0.04687924 0 0 0 0.004,-0.0176 v -0.14676 c 0,-0.0105 -2.5e-4,-0.021 -0.001,-0.031 z m -7.09466,0.006 c -0.007,0.0185 -0.0113,0.0372 -0.0139,0.0558 0.003,-0.0187 0.007,-0.0372 0.0139,-0.0558 z m 3.84163,0.0109 c -0.0194,0.0523 -0.0284,0.1106 -0.0284,0.17363 0,-0.063 0.009,-0.12134 0.0284,-0.17363 z m -8.39949,0.0227 a 0.05584393,0.04687924 0 0 0 -0.0553,0.0465 v 0.18087 a 0.05584393,0.04687924 0 0 0 0.0553,0.0481 h 0.78031 a 0.05584393,0.04687924 0 0 0 0.0553,-0.0481 v -0.18087 a 0.05584393,0.04687924 0 0 0 -0.0553,-0.0465 z m 0.0553,0.093 h 0.66715 v 5.2e-4 h -0.66715 z m -11.707293,0.0429 a 0.05584393,0.04687924 0 0 1 -0.0016,0.0119 0.05584393,0.04687924 0 0 0 0.0016,-0.0119 z m 25.744683,0.002 a 0.05584393,0.04687924 0 0 1 -0.0186,0.0109 0.05584393,0.04687924 0 0 0 0.0186,-0.0109 z m -11.08201,5.2e-4 a 0.05584393,0.04687924 0 0 0 0.0191,0.0109 0.05584393,0.04687924 0 0 1 -0.0191,-0.0109 z m 8.63875,0.0186 a 0.05584393,0.04687924 0 0 1 -0.008,0.0103 0.05584393,0.04687924 0 0 1 -0.0155,0.0119 0.05584393,0.04687924 0 0 0 0.0155,-0.0119 0.05584393,0.04687924 0 0 0 0.008,-0.0103 z m -23.316926,0.0129 a 0.05584393,0.04687924 0 0 1 -0.01137,0.008 0.05584393,0.04687924 0 0 0 0.01137,-0.008 z m -0.01189,0.008 a 0.05584393,0.04687924 0 0 1 -0.02067,0.006 0.05584393,0.04687924 0 0 0 0.02067,-0.006 z m 23.291606,0.006 a 0.05584393,0.04687924 0 0 1 -0.0139,0.002 0.05584393,0.04687924 0 0 0 0.0139,-0.002 z m -23.677629,5.1e-4 c -0.08041,0 -0.15074,0.007 -0.217558,0.0165 -0.04708,0.009 -0.08831,0.0216 -0.12299,0.0372 0.03468,-0.0157 0.07592,-0.0285 0.12299,-0.0372 0.06682,-0.01 0.137146,-0.0165 0.217558,-0.0165 z m 10.355957,0 c -0.08019,3e-5 -0.152439,0.007 -0.219108,0.0165 0.06668,-0.01 0.138892,-0.0165 0.219108,-0.0165 z m -0.219625,0.0165 c -0.04631,0.009 -0.0868,0.0216 -0.120922,0.0372 0.03416,-0.0155 0.07459,-0.0286 0.120922,-0.0372 z m 12.949087,5.2e-4 c -0.0308,0.006 -0.0593,0.0136 -0.0847,0.0227 0.0256,-0.009 0.0537,-0.017 0.0847,-0.0227 z m -8.69249,0.0398 c -0.006,0.0472 -0.0142,0.0904 -0.0253,0.12919 0.0112,-0.0389 0.0196,-0.0818 0.0253,-0.12919 z m -4.410076,0.0134 c -0.02196,0.013 -0.04132,0.0275 -0.05788,0.0429 -0.01666,0.0155 -0.03035,0.0323 -0.04186,0.0517 -0.02152,0.0361 -0.03411,0.088 -0.03411,0.14883 a 0.05584393,0.04687924 0 0 1 0,0.002 c 0,0.0428 0.0055,0.081 0.01654,0.11473 0.0073,0.0223 0.01689,0.0426 0.02894,0.0615 -0.01211,-0.0189 -0.0216,-0.0392 -0.02894,-0.0615 -0.01119,-0.0339 -0.01705,-0.0716 -0.01705,-0.11473 a 0.05584393,0.04687924 0 0 0 0,-0.002 c 0,-0.0608 0.01258,-0.11273 0.03411,-0.14883 0.01144,-0.0192 0.02584,-0.0362 0.04237,-0.0517 0.01672,-0.0156 0.03564,-0.0297 0.05788,-0.0429 z m 15.374256,0.014 a 0.05584393,0.04687924 0 0 0 -0.002,0.007 0.05584393,0.04687924 0 0 1 0.002,-0.007 z m -2.45618,0.007 c -0.0287,0.0217 -0.051,0.0471 -0.0682,0.076 -0.0107,0.0179 -0.0195,0.0399 -0.0253,0.0646 0.006,-0.0249 0.0141,-0.0466 0.0248,-0.0646 0.0173,-0.029 0.0399,-0.0542 0.0687,-0.076 z m 0.81339,0.0155 a 0.05584393,0.04687924 0 0 1 0.004,0.0114 0.05584393,0.04687924 0 0 0 -0.004,-0.0114 z m -23.714319,0.0656 h 0.302307 v 0.0269 c 0,0.0662 -0.01054,0.11944 -0.02532,0.15245 a 0.05584393,0.04687924 0 0 0 -0.0021,0 c -0.01519,0.0362 -0.03628,0.0617 -0.05788,0.0749 -0.0302,0.019 -0.05876,0.0303 -0.09353,0.0341 a 0.05584393,0.04687924 0 0 0 -0.0041,0 c -0.04373,0.006 -0.09122,0.009 -0.143144,0.009 -0.08286,0 -0.143282,-0.0136 -0.185518,-0.0372 -0.03752,-0.021 -0.05736,-0.052 -0.05736,-0.11265 0,-0.0543 0.01544,-0.0845 0.04909,-0.10749 0.03103,-0.0212 0.10369,-0.0393 0.217558,-0.0393 z m 10.35544,0 h 0.302829 v 0.0269 c 0,0.0662 -0.0105,0.11944 -0.0253,0.15245 a 0.05584393,0.04687924 0 0 0 -0.002,0 c -0.0152,0.0362 -0.0363,0.0617 -0.05788,0.0749 -0.0302,0.019 -0.06083,0.0303 -0.0956,0.0341 a 0.05584393,0.04687924 0 0 0 -0.0026,0 c -0.04373,0.006 -0.09071,0.009 -0.142627,0.009 -0.08286,0 -0.143282,-0.0136 -0.185518,-0.0372 -0.03752,-0.021 -0.05736,-0.052 -0.05736,-0.11265 0,-0.0543 0.01544,-0.0845 0.04909,-0.10749 0.03103,-0.0212 0.103173,-0.0393 0.217041,-0.0393 z m 12.950119,0 h 5.2e-4 0.3023 v 0.0269 c 0,0.0662 -0.0127,0.11949 -0.0274,0.15245 a 0.05584393,0.04687924 0 0 0 0,0.002 c -0.0152,0.0361 -0.0363,0.0601 -0.0579,0.0734 a 0.05584393,0.04687924 0 0 0 -0.002,0 c -0.0302,0.0191 -0.0588,0.0303 -0.0935,0.0341 a 0.05584393,0.04687924 0 0 0 -0.003,0 c -0.0437,0.006 -0.0907,0.0108 -0.14263,0.0108 -0.0828,0 -0.1433,-0.0141 -0.18552,-0.0377 -0.0374,-0.021 -0.0574,-0.052 -0.0574,-0.11265 0,-0.0543 0.0155,-0.0861 0.0491,-0.10904 0.031,-0.0212 0.10318,-0.0398 0.21704,-0.0398 z m -23.793384,0.0222 c -0.0084,0.0218 -0.01402,0.047 -0.01705,0.0749 0.003,-0.028 0.0086,-0.0531 0.01705,-0.0749 z m 15.423354,0.006 c 0.003,0.0372 0.01,0.0722 0.0186,0.10491 -0.009,-0.0326 -0.0152,-0.0679 -0.0186,-0.10491 z m -9.162755,0.0574 c -0.0036,0.0314 -0.01202,0.0602 -0.0217,0.0868 0.0097,-0.0266 0.01803,-0.0554 0.0217,-0.0868 z m 17.027905,0.0134 c -0.002,0.0139 -0.002,0.0287 -0.002,0.0439 0,0.0136 4.4e-4,0.0267 0.002,0.0393 -0.001,-0.0127 -0.002,-0.0255 -0.002,-0.0393 0,-0.0152 10e-4,-0.03 0.003,-0.0439 z m -2.34094,0.0258 c 0.008,0.0265 0.0196,0.0512 0.0331,0.0744 -0.0135,-0.0233 -0.0246,-0.048 -0.0331,-0.0744 z m -8.92711,0.0217 c 6.7e-4,0.009 0.002,0.0172 0.003,0.0258 0.003,0.0357 0.0133,0.0725 0.0382,0.10387 0.003,0.004 0.006,0.007 0.009,0.0109 -0.003,-0.003 -0.006,-0.007 -0.009,-0.0103 -0.0249,-0.0314 -0.0348,-0.0681 -0.0382,-0.10387 -7.8e-4,-0.009 -0.001,-0.0176 -0.002,-0.0264 z m -6.787699,0.0367 c 0.02278,0.0219 0.04491,0.0453 0.06821,0.0631 0.03464,0.0265 0.07552,0.0515 0.12144,0.0713 h 5.16e-4 5.17e-4 5.17e-4 5.17e-4 5.17e-4 v 5.2e-4 h 5.16e-4 v 5.1e-4 h -5.16e-4 v -5.1e-4 h -5.17e-4 -5.17e-4 -5.17e-4 -5.17e-4 -5.16e-4 c -0.04591,-0.0198 -0.0868,-0.0448 -0.12144,-0.0713 -0.0233,-0.0179 -0.04544,-0.0411 -0.06821,-0.063 l -0.101802,0.0574 -5.17e-4,-5.2e-4 z m 18.055749,0.006 c 0.003,0.0244 0.008,0.0472 0.0145,0.0682 0.011,0.0335 0.0274,0.0628 0.0491,0.0889 -0.0218,-0.0261 -0.038,-0.0554 -0.0491,-0.0889 -0.007,-0.021 -0.0118,-0.0438 -0.0145,-0.0682 z m -8.5354,0.0243 c -9e-5,10e-5 10e-5,4.2e-4 0,5.2e-4 -0.0121,0.0131 -0.0254,0.025 -0.0393,0.0362 0.0139,-0.0112 0.0272,-0.0236 0.0393,-0.0367 z m 8.67183,0.002 c 0.005,0.0172 0.0118,0.0335 0.0207,0.0486 -0.009,-0.0151 -0.0158,-0.0313 -0.0207,-0.0486 z m -17.247534,0.046 c -0.0087,0.009 -0.01791,0.0172 -0.02791,0.0248 -0.04087,0.0312 -0.09289,0.0531 -0.155546,0.0698 -0.06438,0.0168 -0.139629,0.0248 -0.227893,0.0248 -0.07098,0 -0.133895,-0.002 -0.190169,-0.014 -0.05259,-0.0103 -0.101722,-0.0244 -0.148828,-0.0465 v -5.2e-4 c 0.04711,0.0221 0.09624,0.0362 0.148828,0.0465 0.05627,0.0116 0.11919,0.014 0.190169,0.014 0.08826,0 0.163515,-0.008 0.227893,-0.0248 0.06266,-0.0167 0.114677,-0.0385 0.155546,-0.0698 0.0099,-0.008 0.01927,-0.0158 0.02791,-0.0243 z m 2.336292,0.003 c 0.02891,0.0309 0.06341,0.0568 0.104903,0.0775 -0.04149,-0.0208 -0.07599,-0.0466 -0.104903,-0.0775 z m -7.697721,0.0284 c -0.0045,0.005 -0.009,0.009 -0.01395,0.0134 -0.0097,0.008 -0.01986,0.0164 -0.03101,0.0233 -0.01051,0.007 -0.02168,0.0125 -0.03307,0.0181 0.01139,-0.006 0.02257,-0.012 0.03307,-0.0186 0.01115,-0.007 0.02134,-0.0143 0.03101,-0.0227 0.0048,-0.004 0.0095,-0.009 0.01395,-0.0134 z m 10.355963,0 c -0.005,0.005 -0.009,0.009 -0.014,0.0134 -0.01,0.008 -0.0199,0.0164 -0.031,0.0233 -0.0105,0.007 -0.0212,0.0125 -0.0326,0.0181 0.0112,-0.006 0.0222,-0.0121 0.0326,-0.0186 0.0112,-0.007 0.0213,-0.0143 0.031,-0.0227 0.005,-0.004 0.01,-0.009 0.014,-0.0134 z m -11.001402,0.01 c 0.01326,0.0134 0.02888,0.0253 0.04651,0.0351 0.06611,0.037 0.149305,0.0537 0.247013,0.0537 0.02748,0 0.05488,-3.3e-4 0.08165,-0.002 0.02676,-0.002 0.05289,-0.005 0.07855,-0.009 0.01388,-10e-4 0.02723,-0.004 0.04031,-0.007 -0.01308,0.003 -0.02643,0.006 -0.04031,0.007 -0.02566,0.004 -0.05178,0.007 -0.07855,0.008 -0.02676,0.002 -0.05417,0.003 -0.08165,0.003 -0.09771,0 -0.180905,-0.0167 -0.247013,-0.0538 -0.01778,-0.01 -0.03317,-0.0221 -0.04651,-0.0356 z m 23.308142,0.003 c 0.006,0.006 0.0132,0.0126 0.0207,0.0181 0.007,0.005 0.0154,0.0103 0.0238,0.015 0.0165,0.009 0.0341,0.0175 0.0527,0.0243 0.0559,0.0203 0.12104,0.0295 0.1943,0.0295 0.0279,0 0.0551,-3.3e-4 0.0816,-0.002 0.0266,-0.002 0.0526,-0.005 0.0786,-0.009 0.0139,-0.002 0.0272,-0.004 0.0403,-0.007 -0.0131,0.003 -0.0264,0.006 -0.0403,0.007 -0.026,0.004 -0.0519,0.007 -0.0786,0.008 -0.0266,0.002 -0.0538,0.003 -0.0816,0.003 -0.0733,0 -0.13842,-0.01 -0.1943,-0.03 -0.0186,-0.007 -0.0362,-0.0145 -0.0527,-0.0238 -0.008,-0.005 -0.0163,-0.01 -0.0238,-0.0155 -0.008,-0.006 -0.0142,-0.0117 -0.0207,-0.0181 z m -20.505212,0.002 c 0.02103,0.0194 0.04758,0.0343 0.07648,0.0439 0.04213,0.0138 0.08702,0.0155 0.14056,0.0155 h 0.06408 v 10e-4 h -0.06408 c -0.05354,0 -0.09843,-0.002 -0.14056,-0.016 -0.02903,-0.01 -0.05541,-0.0249 -0.07648,-0.0444 z m 11.648902,0 c -0.0165,0.008 -0.0334,0.0144 -0.0506,0.0202 -0.0172,0.006 -0.035,0.0107 -0.0532,0.015 -0.0546,0.0128 -0.11377,0.0191 -0.17673,0.0191 h -0.40514 a 0.05584393,0.04687924 0 0 1 -0.0155,-0.002 0.05584393,0.04687924 0 0 1 -0.0145,-0.006 0.05584393,0.04687924 0 0 1 -0.0119,-0.009 0.05584393,0.04687924 0 0 0 0.0119,0.009 0.05584393,0.04687924 0 0 0 0.0145,0.006 0.05584393,0.04687924 0 0 0 0.0155,0.002 h 0.40514 c 0.063,0 0.1221,-0.006 0.17673,-0.0186 0.0182,-0.004 0.0361,-0.01 0.0532,-0.0155 0.0172,-0.006 0.0342,-0.0121 0.0506,-0.0196 z m 9.48521,0 c -0.005,0.004 -0.009,0.009 -0.0145,0.0124 -0.005,0.004 -0.0105,0.007 -0.016,0.0109 -0.0105,0.007 -0.0212,0.0125 -0.0326,0.0181 0.0114,-0.006 0.0221,-0.012 0.0326,-0.0186 0.005,-0.003 0.0109,-0.007 0.016,-0.0103 0.005,-0.004 0.01,-0.008 0.0145,-0.0124 z m -18.681549,0.0124 h 5.17e-4 v 5.2e-4 h -5.17e-4 z m 19.504239,0 c 0.003,0.006 0.006,0.012 0.009,0.0176 -0.003,-0.006 -0.006,-0.0114 -0.009,-0.0176 z m -15.774751,5.2e-4 c -0.0095,0.008 -0.01939,0.016 -0.03049,0.0227 0.01099,-0.007 0.02102,-0.0145 0.03049,-0.0227 z m 1.395264,0.004 c 0.007,0.005 0.01435,0.01 0.02222,0.014 0.01653,0.009 0.03409,0.0175 0.05271,0.0243 0.05587,0.0203 0.121021,0.0295 0.194303,0.0295 0.02748,0 0.05488,-3.3e-4 0.08165,-0.002 0.02676,-0.002 0.05289,-0.005 0.07855,-0.009 0.01388,-0.001 0.02723,-0.004 0.04031,-0.007 -0.01308,0.003 -0.02643,0.006 -0.04031,0.007 -0.02566,0.004 -0.05178,0.007 -0.07855,0.008 -0.02676,0.002 -0.05417,0.003 -0.08165,0.003 -0.07328,0 -0.138435,-0.01 -0.194303,-0.03 -0.01862,-0.007 -0.03618,-0.0145 -0.05271,-0.0238 -0.0079,-0.004 -0.0152,-0.009 -0.02222,-0.0145 z m 8.883187,0.005 c 0.006,0.006 0.0113,0.0127 0.0176,0.0186 -1e-4,-9e-5 -4.3e-4,9e-5 -5.2e-4,0 -0.006,-0.006 -0.0112,-0.0125 -0.017,-0.0186 z m -7.30292,0.003 c 0.01,0.005 0.0198,0.009 0.0305,0.0129 h 5.2e-4 5.1e-4 5.2e-4 5.2e-4 c 0.008,0.003 0.0156,0.006 0.0243,0.008 -0.009,-0.002 -0.017,-0.004 -0.0248,-0.008 h -5.2e-4 -5.1e-4 -5.2e-4 -5.2e-4 c -0.0105,-0.004 -0.0204,-0.009 -0.03,-0.0134 z m 12.81369,0.014 c 0.004,0.006 0.008,0.0125 0.0129,0.0181 0.003,0.003 0.006,0.007 0.009,0.01 -0.003,-0.003 -0.006,-0.006 -0.009,-0.01 -0.005,-0.006 -0.009,-0.0118 -0.0129,-0.0181 z m -12.72842,0.0114 c 0.019,0.002 0.0389,0.002 0.0584,0.004 v 0.0966 h -5.1e-4 v -0.0961 c -0.0193,-10e-4 -0.039,-0.002 -0.0579,-0.004 z m 11.97808,10e-4 a 0.05584393,0.04687924 0 0 1 0.005,0.005 0.05584393,0.04687924 0 0 0 -0.005,-0.005 z m 1.00924,10e-4 c 0.0321,0.006 0.0664,0.008 0.10542,0.008 -0.0388,-6e-5 -0.0734,-10e-4 -0.10542,-0.008 z m -3.5972,5.2e-4 c -0.0333,0.0124 -0.0681,0.0217 -0.10387,0.0279 0.0358,-0.006 0.0705,-0.0154 0.10387,-0.0279 z m -14.056508,0.002 c -0.043,0.0181 -0.09116,0.0277 -0.14211,0.0315 0.05094,-0.004 0.0991,-0.0138 0.14211,-0.0315 z m 3.697458,5.1e-4 a 0.05584393,0.04687924 0 0 1 0.004,0.005 0.05584393,0.04687924 0 0 0 -0.004,-0.005 z m 12.95579,0.007 a 0.05584393,0.04687924 0 0 1 0.005,0.0186 v 0.077 h -5.1e-4 v -0.077 a 0.05584393,0.04687924 0 0 0 -0.004,-0.0186 z m -12.94701,0.0103 a 0.05584393,0.04687924 0 0 1 0.002,0.007 v 0.077 h -5.2e-4 v -0.077 a 0.05584393,0.04687924 0 0 0 -0.001,-0.007 z"
         inkscape:label="Parti Social-Democrate" />
    </g>
  </g>
</svg>
