<svg xmlns="http://www.w3.org/2000/svg" version="1.2" viewBox="8.7 9.76 1081.06 1079.99" width="500" height="500">
	<title>Sezik_logo_2_1</title>
	<style>
		.s0 { fill: #010101 } 
		.s1 { fill: #fffffe } 
	</style>
	<g id="Layer 1">
		<g id="Background">
			<path id="Path 1" fill-rule="evenodd" class="s0" d="m501.9 12.2c-16.5 1.5-33.1 3.2-37 3.8-3.8 0.7-9.2 1.7-12 2.2-2.7 0.5-9.9 1.9-16 3.1-6 1.2-12.6 2.3-14.5 2.5-1.9 0.2-4.2 1.1-5 1.9-0.9 1-3.2 1.5-6.2 1.5-2.7 0-4.8 0.4-4.8 1 0 0.5-1.3 1-3 1-1.6 0-3.8 0.4-4.7 0.8-1 0.5-2.9 1.4-4.3 2-1.4 0.6-4.1 1.4-6 1.7-1.9 0.4-4.2 1.1-5 1.5-0.8 0.4-2.6 1.2-4 1.7-1.4 0.6-5 1.6-8 2.3-3 0.7-6.2 1.6-7 2-0.8 0.5-4.2 1.8-7.5 3.1-3.3 1.2-6.4 2.6-6.9 3.1-0.6 0.4-1.6 0.8-2.3 0.8-0.7 0-3.9 1.1-7 2.6-3.2 1.4-8.5 3.8-11.8 5.4-3.3 1.6-6.6 2.9-7.2 2.9-0.7 0.1-3.7 1.3-6.5 2.8-2.9 1.5-5.4 3.1-5.5 3.5-0.2 0.4-0.7 0.8-1.3 0.8-0.5 0-4.5 1.7-8.7 3.8-4.3 2.2-9.6 4.9-11.8 6.1-2.2 1.2-4.6 2.7-5.4 3.4-0.8 0.6-3.5 2.2-6 3.4-2.5 1.3-5.9 3.1-7.6 4.2-1.6 1.1-4.3 2.8-6 3.7-1.6 0.9-7.2 4.5-12.2 8-5.1 3.5-9.5 6.4-9.8 6.4-0.3 0-7.1 5-15.2 11.1-8.2 6.1-15.2 11.7-15.8 12.4-0.5 0.8-1.4 1.4-2 1.5-0.5 0-3.5 2.3-6.5 5.1-3 2.8-7 6.4-8.7 8-1.8 1.6-3.9 2.9-4.5 2.8-0.7 0-1 0.2-0.5 0.5 0.4 0.3-3 3.9-7.5 8-4.6 4-12.8 12.1-18.3 17.8-5.5 5.7-12.1 12.9-14.7 15.9-2.5 2.9-7.1 8.1-10.2 11.4-3 3.3-5.6 6.3-5.6 6.7 0 0.4-0.7 1.6-1.5 2.5-0.9 1-4.4 5.2-7.8 9.4-3.4 4.3-8.7 11.2-11.8 15.5-3.1 4.3-8.2 11.6-11.3 16.1-3.1 4.6-5.6 8.5-5.6 8.8 0 0.2-1.2 2.1-2.7 4-1.6 2-2.3 3.5-1.8 3.5 0.6-0.1 0.3 0.7-0.6 1.7-0.9 1-4.2 6-7.3 11.3-3.1 5.2-5.6 9.9-5.6 10.5 0.1 0.5-0.6 1.6-1.5 2.5-0.9 0.8-1.6 1.9-1.6 2.5 0.1 0.5-0.8 2.1-1.9 3.5-1.1 1.3-2 3-2 3.7 0 0.7-1.3 3.4-2.8 6-1.6 2.6-3.2 5.9-3.7 7.3-0.4 1.3-3 7-5.6 12.5-2.7 5.5-4.9 10.8-4.9 11.7 0 1-0.4 2-1 2.3-0.5 0.2-1.7 2.8-2.6 5.7-0.9 2.9-2 5.7-2.5 6.3-0.4 0.5-1.9 4.3-3.4 8.5-1.4 4.1-3.3 9.7-4.1 12.5-0.8 2.7-1.8 6.1-2.1 7.5-0.3 1.3-0.9 2.9-1.3 3.5-0.5 0.5-1.8 4.6-3.1 9-1.2 4.4-2.6 9.8-3.1 12-0.6 2.2-1.4 4.8-1.9 5.7-0.5 1-1.8 6.6-2.9 12.5-1.1 5.9-2.5 11.7-3.1 12.8-0.6 1.1-1.2 3.5-1.4 5.5-0.1 1.9-0.8 6.2-1.4 9.5-0.6 3.3-1.4 8.2-1.7 11-0.3 2.7-0.9 5.9-1.4 7-0.5 1.1-1.1 4.7-1.5 8-0.3 3.3-0.8 9.3-1 13.5-0.3 4.1-0.9 11.7-1.5 17-0.6 5.2-0.9 13.4-0.8 18.3 0.2 4.9 0 9-0.4 9.3-0.5 0.2-0.6 5.9-0.4 12.6 0.3 6.8 2.1 30.7 4.1 53.3 2 22.5 4 42.3 4.6 44 0.5 1.6 0.9 4.3 1 6 0 1.6 0.6 3.9 1.5 5 0.8 1.1 1.4 4.1 1.4 6.7 0 2.6 0.5 5 1 5.3 0.6 0.2 1 2.4 1 4.7 0 2.4 0.6 5.2 1.4 6.3 0.7 1.1 1.7 4.2 2.1 7 0.4 2.7 1 5.4 1.5 6 0.4 0.5 1.1 3.2 1.5 6 0.4 2.7 1.1 5.6 1.6 6.5 0.4 0.8 1.6 4.3 2.6 7.7 1 3.4 2.1 6.3 2.6 6.3 0.4 0 0.7 0.8 0.7 1.7 0.1 1 1.4 5.4 2.9 9.8 1.6 4.4 3.8 10.4 4.8 13.5 1.1 3 2.5 6.4 3.1 7.5 0.6 1.1 2 4 3 6.5 1.1 2.4 2.6 6.3 3.2 8.5 0.7 2.2 2.1 5.2 3.1 6.7 1.1 1.5 1.9 3.2 1.9 3.8 0 0.5 1.3 3.3 2.9 6.2 1.6 2.9 3.2 6.4 3.7 7.8 0.4 1.3 1.1 2.9 1.6 3.5 0.5 0.5 2.3 3.4 3.9 6.5 1.6 3 3.9 7.5 5.1 10 1.2 2.4 3 5.4 4 6.5 1 1.1 1.8 2.4 1.8 3 0 0.5 1 2.5 2.3 4.5 1.3 1.9 3.4 5.5 4.8 8 1.3 2.4 2.7 4.7 3.1 5 0.4 0.2 2.5 3.2 4.5 6.6 2.1 3.4 5.8 9.1 8.2 12.5 2.5 3.5 4.7 6.6 5.1 6.9 0.3 0.2 1.6 2.2 2.8 4.2 1.2 2.1 2.5 3.8 3 3.7 0.4 0 1.2 1 1.9 2.3 0.6 1.2 2 3.3 3 4.6 1 1.3 3.3 4.2 5.1 6.5 1.8 2.3 4.1 5.1 5 6.2 0.8 1.1 4.6 5.3 8.2 9.5 3.7 4.1 7.7 8.7 9.1 10.3 1.3 1.6 9.2 9.7 17.4 18 8.3 8.4 17.9 17.7 21.5 20.7 3.6 3 8.1 7 10.1 9 2 1.9 6.2 5.5 9.5 7.9 3.2 2.5 8.4 6.6 11.4 9.1 3 2.6 8.2 6.5 11.5 8.9 3.3 2.3 9.4 6.6 13.5 9.6 4.1 3 8.4 5.8 9.5 6.3 1.1 0.5 4.4 2.6 7.3 4.6 2.8 1.9 5.5 3.6 6 3.6 0.4 0 2.1 1.1 3.7 2.4 1.7 1.2 5.3 3.5 8 4.9 2.8 1.5 7.3 4 10 5.6 2.8 1.7 7 4 9.5 5.1 2.5 1.2 5.2 2.5 6 3.1 0.8 0.5 4 2.1 7 3.5 3 1.4 6.6 3.1 8 3.7 1.4 0.6 2.7 1.5 3 1.9 0.3 0.4 1.4 0.9 2.5 1.2 1.1 0.3 7 2.6 13 5.1 6.1 2.6 12.6 5.4 14.5 6.2 1.9 0.9 7.1 2.9 11.5 4.4 4.4 1.6 10.7 3.8 14 4.9 3.3 1.1 8.5 2.7 11.5 3.6 3 0.9 8 2.5 11 3.4 3 1 7.8 2.3 10.5 3 2.8 0.7 5.9 1.3 7 1.5 1.1 0.1 4.1 1 6.8 1.8 2.6 0.9 5.2 1.4 5.7 1.2 0.6-0.3 1.6-0.1 2.3 0.4 0.6 0.5 4.1 1.4 7.7 1.9 3.6 0.5 7.1 1.2 7.8 1.5 0.6 0.4 3.8 0.9 7 1.2 3.1 0.4 6.3 1 7 1.5 0.6 0.6 1.5 0.8 2 0.6 0.4-0.2 5.9 0.4 12.2 1.4 6.3 0.9 15.1 1.8 19.5 1.9 4.4 0.1 8.5 0.6 9 1.1 0.6 0.5 2.8 0.9 5 0.9 2.2 0 15 0.2 28.5 0.5 21.4 0.4 28.8 0.1 59-2.5 19-1.6 35.9-3.4 37.5-4 1.7-0.5 5.1-1 7.8-0.9 2.6 0 4.9-0.5 5.2-1 0.3-0.6 2-1 3.8-1 1.7-0.1 4.8-0.5 6.7-1 1.9-0.5 7.3-1.6 12-2.5 4.7-0.9 9.9-2.1 11.5-2.6 1.7-0.5 5.7-1.8 9-2.9 3.3-1.1 7.4-2 9-2 1.7 0 3.9-0.6 5-1.4 1.1-0.7 3.6-1.6 5.5-2 1.9-0.3 4.9-1.3 6.5-2.1 1.7-0.8 4.1-1.5 5.5-1.5 1.4 0 4-0.9 5.8-2 1.7-1.1 4.1-2 5.2-2 1.1 0 3.7-0.9 5.8-2 2-1.1 4.3-2 5-2 0.6 0 3.3-1 6-2.1 2.6-1.1 5.6-2.4 6.7-2.9 1.1-0.4 4-1.7 6.5-2.8 2.5-1.1 6.5-2.9 9-4 2.5-1.1 6.1-2.5 8-3.3 1.9-0.7 4.2-1.8 5-2.5 0.8-0.7 3.4-2 5.8-2.8 2.3-0.9 4.2-2.1 4.2-2.6 0-0.6 0.6-1 1.3-1.1 0.6 0 3-0.9 5.2-1.9 2.2-1.1 6.7-3.6 10-5.5 3.3-1.9 7.6-4.2 9.5-5 1.9-0.9 5.2-3 7.3-4.6 2-1.6 4-2.9 4.5-2.9 0.4 0 3.2-1.6 6.2-3.5 3-1.9 6-3.8 6.5-4.3 0.6-0.5 2.1-1.5 3.5-2.2 1.4-0.7 2.7-1.6 3-2 0.3-0.4 3-2.3 6-4.2 3-2 6.6-4.5 8-5.7 1.4-1.2 2.8-2.2 3.3-2.2 0.4 0.1 1.5-0.7 2.5-1.7 1-0.9 4.5-3.7 7.7-6.2 3.3-2.4 6.2-4.7 6.5-5 0.3-0.4 1.5-1.3 2.6-2.1 1.2-0.8 4.1-3.2 6.5-5.4 2.3-2.2 5-4.5 6-5 0.9-0.6 5.8-4.9 10.9-9.5 5.1-4.7 16-15.3 24.2-23.5 8.2-8.3 14.8-15.3 14.8-15.5 0-0.3 1.4-2.1 3.2-4.1 1.8-2 5.2-5.8 7.5-8.5 2.3-2.7 6.8-8.1 10-12 3.2-3.9 7.6-9.7 9.8-12.9 2.2-3.2 5.4-7.4 7.1-9.4 1.7-2 7.1-9.7 12-17.1 4.8-7.5 8.9-13.8 8.9-14.1 0-0.4 0.8-1.7 1.8-3 1-1.4 2.4-3.6 3.2-4.9 0.8-1.4 2-3.7 2.7-5 0.6-1.4 1.8-3.2 2.4-4 0.7-0.9 3.7-6.3 6.7-12 2.9-5.8 5.8-11.4 6.4-12.5 0.6-1.1 2.7-5.4 4.6-9.5 1.9-4.2 4.6-10 6-13 1.4-3.1 3.8-8.2 5.2-11.5 1.4-3.3 2.5-6.6 2.5-7.3 0-0.7 0.7-2.2 1.5-3.5 0.8-1.2 3.2-7.4 5.3-13.7 2.2-6.4 4.4-12.7 5-14 0.5-1.4 1.7-5.2 2.7-8.5 1-3.3 2.6-8.7 3.6-12 1-3.3 2.4-8.5 3.3-11.5 0.8-3.1 1.8-7.3 2.1-9.5 0.4-2.2 1-4.9 1.5-6 0.5-1.1 1.3-5 2-8.5 0.6-3.6 1.5-8.1 2-10 0.5-2 1.4-6.2 2.1-9.5 0.7-3.3 1.4-7.4 1.5-9 0.1-1.7 0.7-6.4 1.3-10.5 0.6-4.2 1.3-9.6 1.5-12 0.3-2.5 1-8.8 1.6-14 0.6-5.3 1.2-18.1 1.4-28.5 0.1-10.5 0.6-19.6 0.9-20.3 0.4-0.7-1.1-22-3.3-47.5-2.3-26.5-4.5-47.1-5.2-48.2-0.7-1.1-1.5-4.3-1.9-7-0.4-2.8-1.2-7.1-1.7-9.5-0.6-2.5-1.6-8-2.3-12.3-0.8-4.3-1.7-7.7-2.1-7.7-0.5 0-1-2.7-1.3-6-0.3-3.3-0.9-6-1.5-6-0.5 0-1-1.2-1-2.5 0-1.4-0.9-4.6-2-7-1.1-2.5-2-5.5-2-6.8 0-1.2-0.7-3.6-1.5-5.2-0.9-1.7-1.8-4.6-2.2-6.5-0.3-2-0.9-4-1.3-4.5-0.5-0.6-1.4-3.3-2.1-6-0.7-2.8-1.8-5.6-2.6-6.3-0.7-0.7-1.3-2.1-1.3-3.2 0-1.1-0.8-3.5-1.8-5.3-1-1.8-2.4-5.3-3.1-7.7-0.7-2.5-2.2-5.8-3.2-7.3-1-1.5-1.9-3.5-1.9-4.5 0.1-0.9-0.8-3-2-4.5-1.1-1.5-2-3.2-2-3.7 0-0.6-1.6-4.5-3.5-8.8-2-4.2-3.9-8.4-4.4-9.2-0.5-0.9-3.5-6.5-6.6-12.5-3.1-6.1-6.2-11.3-6.8-11.7-0.7-0.3-1.6-1.9-2-3.5-0.5-1.5-2.2-4.7-3.8-7.1-1.6-2.3-2.9-4.7-2.9-5.2 0-0.6-0.4-1-1-1-0.5 0-1-0.6-1-1.3 0-0.7-2.6-5-5.8-9.6-3.1-4.7-6.4-9.6-7.3-11-0.8-1.5-3.7-5.6-6.2-9.1-2.6-3.6-5.5-7.5-6.5-8.7-0.9-1.2-3.9-5.2-6.7-8.8-2.7-3.7-8.1-10.4-11.9-14.9-3.8-4.5-10.3-11.9-14.5-16.5-4.2-4.6-13-13.8-19.6-20.4-6.6-6.6-16-15.4-21-19.6-4.9-4.2-10.1-8.7-11.5-9.9-1.4-1.3-6.1-5.3-10.5-8.9-4.4-3.6-9-7.4-10.2-8.4-1.3-1.1-2.6-1.9-3-1.9-0.5 0-1.9-1.1-3.3-2.5-1.4-1.4-2.9-2.6-3.5-2.5-0.5 0-1.7-0.7-2.5-1.6-0.8-0.9-4.6-3.7-8.4-6.3-3.9-2.5-7.5-4.9-8-5.1-0.6-0.3-5.6-3.5-11.1-7.1-5.5-3.7-12.2-7.9-15-9.4-2.7-1.5-5.4-3.1-6-3.5-0.5-0.5-5.9-3.4-12-6.6-6-3.2-12.3-6.5-14-7.3-1.6-0.9-3.8-1.7-4.7-1.8-1-0.2-3-1.2-4.5-2.4-1.6-1.1-3.5-2.1-4.3-2.3-0.8-0.1-4.4-1.7-8-3.4-3.6-1.7-7.2-3.2-8-3.2-0.8 0-1.9-0.4-2.5-1-0.5-0.5-3.5-2-6.5-3.1-3-1.2-9.1-3.5-13.5-5.1-4.4-1.7-9.8-3.4-12-4-2.2-0.5-4.2-1.3-4.5-1.7-0.3-0.4-3.2-1.5-6.5-2.5-3.3-1-7.6-2.1-9.5-2.6-1.9-0.4-5.3-1.4-7.5-2.3-2.2-0.8-6.2-2-9-2.6-2.7-0.7-6.6-1.5-8.5-1.8-1.9-0.3-3.9-0.9-4.5-1.3-0.5-0.5-5.3-1.6-10.5-2.6-5.2-0.9-11.3-2.2-13.5-2.8-2.2-0.6-5.1-1-6.5-0.8-1.4 0.1-2.9-0.3-3.5-0.9-0.5-0.5-3.8-1-7.2-1-3.5 0-6.3-0.3-6.3-0.7 0-0.4-4.6-1.1-10.2-1.6-5.7-0.4-10.7-1.2-11.3-1.6-0.5-0.4-6.6-1.1-13.5-1.4-6.9-0.4-23.5-0.8-37-1-19.8-0.2-30.2 0.3-54.5 2.4z"/>
			<path id="Path 2" fill-rule="evenodd" class="s1" d="m532.4 55.8c-0.8 0.2-8 0.8-16 1.3-8 0.5-20.8 1.6-28.5 2.5-7.7 0.8-19.2 2.4-25.5 3.6-6.3 1.1-13.7 2.5-16.5 3.1-2.7 0.5-6.8 1.3-9 1.5-2.2 0.3-4.4 0.9-5 1.4-0.5 0.4-3.2 1.1-6 1.5-2.7 0.4-5.9 1.4-7 2.1-1.1 0.8-2.8 1.4-3.7 1.4-1 0-4.8 0.9-8.5 2-6.8 2-6.8 2-7.5 6.2-0.4 2.4-1.7 16.4-2.8 31.3-1.1 14.8-2.4 40.2-3 56.5-0.5 16.2-1 41.8-1 57 0 15.1 0.5 40.7 1 57 0.6 16.2 1.9 40.5 3 54 1.1 13.4 1.6 24.7 1.2 25.1-0.4 0.3-4.4 0.9-8.9 1.2-8 0.6-8.3 0.6-8.8-1.6-0.3-1.2-1.8-11.7-3.5-23.2-1.6-11.6-4.3-34.8-5.9-51.5-1.7-16.8-4-43.4-5.2-59-1.4-20.6-2.2-43.7-2.7-82.8-0.7-53.6-0.7-54.2-2.7-53.6-1.1 0.4-3.5 1.3-5.2 2-1.8 0.8-3.5 1.8-3.8 2.4-0.3 0.5-2 1.2-3.7 1.6-1.8 0.3-4.9 1.5-6.8 2.5-1.9 1-5.6 2.7-8.2 3.9-2.7 1.1-5 2.4-5.3 3-0.3 0.5-1.7 1.2-3.2 1.4-1.6 0.3-3.5 1.3-4.4 2.3-0.9 1-3.5 2.4-5.8 3.3-2.3 0.8-4.1 1.7-4.1 2 0 0.2-3 2-6.7 3.9-3.7 1.9-7 3.8-7.3 4.1-0.3 0.4-2.3 1.6-4.5 2.7-2.2 1.1-4.7 2.8-5.5 3.7-0.8 0.9-2.1 1.6-2.7 1.6-0.7 0-1.3 0.4-1.3 1 0 0.5-1.2 1.4-2.7 1.8-1.6 0.5-3.9 1.9-5.3 3.1-1.4 1.2-6.3 4.8-11 7.9-4.7 3.1-9.6 6.7-11 8-1.4 1.3-4.7 3.8-7.4 5.5-2.7 1.7-5.1 3.6-5.5 4.2-0.3 0.6-2.6 2.6-5 4.5-2.4 1.9-6.4 5.3-9 7.6l-4.6 4.2c4.4 12.1 8.6 23.5 12.2 33.2 3.5 9.6 9.4 24.9 13 34 3.6 9 8.8 21.9 11.5 28.5 2.8 6.6 7.7 17.8 10.8 25 3.2 7.1 9.2 20.4 13.3 29.5 4.1 9 10.2 22 13.6 28.7l6.1 12.3c-6.6 0.7-12.3 1.2-17 1.5l-8.5 0.6c-2.9-5.1-8-14.5-13.2-24.1-5.3-9.7-11.1-20.5-13.1-24-1.9-3.6-9.5-18.6-16.8-33.3-7.4-14.7-13.4-27-13.4-27.2 0-0.3-3.4-7.5-7.5-16-4.1-8.6-7.5-15.8-7.5-16 0-0.3-1.1-2.9-2.4-5.8-1.3-2.9-3.6-8.2-5.1-11.7-1.5-3.6-3-6.9-3.3-7.3-0.4-0.4-2.1 0.7-3.9 2.5-1.7 1.8-5.3 5.8-8 8.9-2.6 3-7.1 8.2-9.8 11.5-2.8 3.2-6.6 7.9-8.5 10.4-1.9 2.4-4.3 5-5.2 5.7-1 0.7-1.8 1.7-1.8 2.3 0 0.5-1 2.3-2.2 3.9-1.3 1.6-3.2 4.2-4.3 5.8-1.1 1.5-1.9 3.1-1.7 3.5 0.1 0.4-0.1 0.7-0.5 0.7-0.5 0-2.7 2.7-5 6-2.4 3.3-4.3 6.5-4.3 7.1 0 0.5-0.3 0.9-0.7 0.9-0.5 0-1.5 1.2-2.3 2.8-0.9 1.5-3.6 5.9-6 9.8-2.5 3.9-5.1 8-5.7 9-0.7 1.1-1.9 3.1-2.5 4.5-0.7 1.3-1.5 2.7-1.8 3-0.4 0.2-4.5 8.2-9.3 17.7-4.8 9.5-8.7 17.9-8.7 18.8 0 0.8 9 10.6 19.9 21.7 11 11.2 19.8 20.4 19.8 20.5-0.1 0.1-9.9 1.1-21.7 2.2l-21.5 2c-7.7-7.7-10.6-9.9-11.2-9.9-0.7 0-1.3 0.8-1.3 1.7 0 1-0.9 3.2-2 5-1.1 1.8-2 4.1-2 5 0 1-0.6 3.5-1.5 5.5-0.8 2.1-1.7 5.2-2.1 7-0.3 1.8-0.9 3.7-1.3 4.3-0.4 0.5-1.4 3.8-2.2 7.3-0.8 3.5-1.7 6.6-2.1 6.8-0.5 0.2-0.8 1.5-0.8 2.9v2.5c7.4-5.2 11.5-7.5 14-8.5 3.4-1.3 22.4-3.3 77.5-8.1 40.2-3.6 73.9-6.3 75-6.2 1.8 0.2 2.1 1.5 3.2 12.8 0.6 6.8 0.9 12.8 0.5 13.2-0.4 0.3-23.5 2.6-51.3 5-27.9 2.3-50.9 4.5-51.2 4.8-0.3 0.2 1.9 29.3 5 64.5 3 35.2 5.8 64.3 6.2 64.8 0.3 0.4 16.8-0.6 36.6-2.4 22.3-1.9 37.9-2.9 41-2.4 2.8 0.3 7.5 1.9 10.5 3.5 3 1.5 6.7 4.1 8.1 5.6 1.4 1.6 3.5 4.2 4.6 5.9 1.2 1.6 2.8 5.1 3.7 7.7 1.1 3.2 3.3 24 6.7 62.5 3.2 36.1 4.9 60.9 4.7 66.3-0.4 6.7-1 9.6-3.1 13.7-1.5 2.9-4.6 7.1-6.9 9.4-2.4 2.2-7 5.4-10.3 6.9-5.7 2.8-7.7 3-42.5 6.1-20.1 1.7-50.4 4.3-67.5 5.8-18 1.5-31 3-30.9 3.6 0 0.5 0.4 2.3 0.8 4 0.5 1.6 1.6 3.9 2.6 5 1 1.1 2.3 3.5 2.9 5.5 0.7 1.9 2.1 4.6 3.2 6 1.1 1.3 2 3 1.9 3.7 0 0.7 0.8 2.1 1.8 3.2 0.9 1 3.4 5.3 5.5 9.5 2 4.1 4.3 7.3 4.7 7.7 0.4 0.6 0.2 0.3 0.7 1.1 0.4 0.4 2.3 3.9 4.8 7.8 2.5 3.8 4.6 7.2 4.9 7.7 0.3 0.4 0.6 0.7 0.9 1.1 0.3 0.4 2.4 3 4.6 6.4 2.1 3.5 4.6 6.9 5.5 7.8 0.9 0.8 1.7 1.9 1.7 2.5 0 0.5 1.9 3.2 4.3 6 2.3 2.7 5.1 6.3 6.2 8 1 1.6 3.1 4.1 4.5 5.5 1.4 1.3 2.9 3.2 3.5 4.1 0.5 1 3.4 4.5 6.4 8 3 3.4 9.3 10.3 14 15.2l8.5 8.9c42.6-21.1 59.7-29.7 65.5-32.8 5.8-3.1 15.2-8.2 21-11.4 5.8-3.2 12.3-6.8 14.5-8 2.2-1.3 6.5-3.7 9.5-5.3 3-1.7 6.7-3.9 8.3-4.9 1.5-1 2.9-1.8 3.2-1.8 0.3 0 7.6-4.4 16.3-9.7 8.6-5.3 17.7-10.8 20.2-12.3 2.5-1.5 12.2-7.6 21.5-13.5 9.4-5.9 24-15.5 32.5-21.3 8.5-5.8 16.9-11.5 18.5-12.8 2.6-1.9 5.2-2.4 17.5-3.3 8-0.7 14.7-1 15-0.7 0.3 0.3-1 1.7-2.9 3.3-1.9 1.5-9.1 7.4-16 13.1-6.9 5.7-17.7 14.2-23.9 19-6.2 4.8-17.3 13.1-24.5 18.4-7.3 5.4-19.7 14.5-27.7 20.2-8 5.7-24.9 17.2-37.6 25.7-12.8 8.5-26 17.2-29.5 19.3-3.5 2.2-11.3 7.1-17.4 10.9-6 3.8-13.5 8.4-16.5 10.2-3 1.8-12.2 7.1-20.5 11.9-8.2 4.7-15.6 8.9-16.4 9.3-0.8 0.4-1.6 1.2-1.8 1.8-0.2 0.5 3.5 4.2 8.2 8.2 4.7 4 8.8 7.3 9.3 7.3 0.4 0 1.6 1 2.8 2.3 1.1 1.2 3.4 3.2 5.2 4.4 1.8 1.3 3.5 2.3 4 2.3 0.4 0 2.1 1.3 3.9 2.8 1.7 1.4 4.4 3.6 5.8 4.7 1.5 1.1 3.9 2.7 5.4 3.7 1.4 1 3.3 2 4.1 2.4 0.8 0.4 2.4 1.4 3.5 2.4 1.1 0.9 7.2 4.9 13.5 8.8 6.3 3.9 12 7.1 12.5 7.2 0.6 0 1.7 0.6 2.5 1.4 0.8 0.7 6.9 4.1 13.5 7.4 6.6 3.4 17.3 8.6 23.8 11.6 6.4 3.1 12.3 5.6 13 5.6 0.6-0.1 1.8 0.5 2.4 1.2 1 1 1.6 1 2.9-0.2 0.9-0.9 8.3-9.4 16.3-19.1 8-9.6 16.3-19.5 18.3-22 2-2.4 6.8-8.5 10.7-13.4 3.9-5 14.4-18.7 23.3-30.5 8.8-11.9 17.8-23.8 19.8-26.5 2-2.8 6.4-8.9 9.7-13.5 3.3-4.7 12.5-18.2 20.5-30 7.9-11.9 18.4-27.8 23.3-35.5 4.8-7.7 13.4-21.7 19-31 5.5-9.4 12.1-20.5 14.5-24.8 2.9-5 5.2-8 6.5-8.2 1.1-0.2 5-0.7 8.8-1 4.2-0.3 6.7-0.2 6.7 0.5 0 0.5-6 13-13.4 27.7-7.4 14.7-17.6 34.4-22.6 43.8-5.1 9.3-12.6 22.8-16.7 30-4.1 7.1-11.6 19.7-16.5 28-4.9 8.2-10.3 17.2-12 20-1.8 2.7-6.3 9.9-10.1 16-3.9 6-10.2 15.9-14.2 22-3.9 6-12.9 19.3-20 29.5-7 10.1-17.4 24.7-22.9 32.3-5.6 7.6-10.9 15-11.8 16.5-1 1.5-1.4 2.9-1 3.3 0.4 0.3 3.9 1.6 7.7 2.9 3.9 1.2 7.9 2.4 9 2.6 1.1 0.1 4.7 1 8 1.9 3.3 0.9 7.6 2.1 9.5 2.7 1.9 0.6 4.6 1.2 6 1.4 1.4 0.2 3.2 0.7 4 0.9 0.8 0.3 3.8 0.8 6.5 1.1 2.8 0.3 6.1 1 7.5 1.6 1.4 0.6 4.1 1.2 6 1.4 1.9 0.2 6.7 0.9 10.5 1.4 3.9 0.6 9 1.3 11.5 1.6 2.5 0.3 6.1 0.6 8 0.8 1.9 0.1 4.1 0.5 4.8 0.9 0.6 0.4 3.6 0.6 6.5 0.5 2.8-0.1 5.9 0.2 6.7 0.7 0.8 0.4 11.9 0.9 24.5 1l23 0.2c4.1-14.1 6.4-22.1 7.8-26.7 1.4-4.7 4.2-14.6 6.2-22 2-7.5 4.3-15.8 5.1-18.5 0.8-2.8 3.4-13.4 5.9-23.5 2.4-10.2 5.5-23.3 6.9-29 1.3-5.8 4.1-18.2 6-27.5 2-9.4 4.7-22.9 6-30 1.4-7.2 4.3-24.1 6.5-37.5 2.2-13.5 4.7-29.5 5.5-35.5 0.9-6.1 2.2-16.2 3.1-22.5 0.8-6.4 1.8-14.8 2.2-18.8l0.8-7.2c6.2-0.7 9.9-1.2 12.3-1.5l4.2-0.5c0 8.9-0.9 25-2 41.5-1.1 16.5-2.6 36.7-3.5 45-0.8 8.2-1.7 16.5-2 18.5-0.3 1.9-1.2 9.5-1.9 17-0.8 7.4-2.6 21.6-4 31.5-1.4 9.9-3 20.7-3.5 24-0.5 3.3-2.4 14.3-4.1 24.5-1.7 10.1-5.4 29.9-8.1 44-2.8 14-6.3 30.9-8 37.5-1.6 6.6-2.9 12.8-2.9 13.7 0 1.4 0.6 1.7 2.8 1.3 1.5-0.2 6.8-0.7 11.7-1 5-0.4 10.6-1.3 12.5-2 1.9-0.7 8.2-2.1 14-3 5.8-1 12.4-2.1 14.8-2.6 2.3-0.5 6.1-1.4 8.5-1.9 2.3-0.5 5.6-1.2 7.2-1.6 1.7-0.4 3.5-1 4-1.5 0.6-0.4 3.4-1 6.3-1.3 2.8-0.4 5.4-1.1 5.7-1.6 0.3-0.6 1.4-1 2.5-1 1.1 0 2.8-0.4 3.8-0.9 0.9-0.5 5.1-1.9 9.2-3.1 4.1-1.2 8.9-2.8 10.5-3.5 1.7-0.7 4.6-1.6 6.5-2 1.9-0.5 4.4-1.4 5.5-2.1 1.1-0.8 4.5-2.1 7.5-3 3-0.9 6-2 6.5-2.4 0.6-0.5 3-1.4 5.4-2.2 2.4-0.7 4.6-1.9 4.8-2.6 0.1-0.7 1.1-1.2 2.1-1.2 0.9 0 3-0.6 4.5-1.3 2.9-1.2 2.9-1.3 2.2-7.7-0.3-3.6-1.9-16-3.5-27.5-1.7-11.6-4.2-28.5-5.6-37.5-1.4-9.1-4.1-25.1-6-35.5-1.9-10.5-4.2-22.4-5-26.5-0.8-4.2-3.5-16.8-5.9-28-2.4-11.3-6.2-28-8.5-37-2.2-9.1-6.8-26.9-10.1-39.5-3.3-12.7-5.9-23.1-5.7-23.2 0.2-0.1 4.7-0.3 10.2-0.5l9.8-0.3c3.7 10 8.1 23.1 12.2 35.5 4.1 12.3 8.6 26.5 10.1 31.5 1.5 4.9 3 10.1 3.5 11.5 0.4 1.3 1.5 4.9 2.4 8 0.8 3 3.4 12 5.6 20 2.3 7.9 6.5 23.9 9.5 35.5 2.9 11.5 7.8 32.2 10.8 46 3 13.7 6.8 31.4 8.4 39.3 1.5 7.9 3.1 14.9 3.5 15.5 0.5 0.8 1.2 0.6 2.5-0.6 1-0.9 2.6-1.7 3.6-1.7 0.9 0 1.7-0.5 1.7-1 0-0.6 0.5-1 1-1 0.6 0 3.4-1.6 6.3-3.5 2.8-2 5.5-3.5 6-3.5 0.4 0 1.5-0.7 2.5-1.6 0.9-0.8 4.6-3.4 8.2-5.7 3.6-2.3 7-4.6 7.7-5.2 0.7-0.6 2.8-2.2 4.8-3.5 2-1.4 5.5-4 7.8-5.8 2.3-1.7 6-4.4 8.2-5.9 2.2-1.6 4.9-3.7 6.1-4.8 1.1-1.1 3.8-3.4 5.9-5 2.1-1.7 4.3-3.5 4.9-4.1 0.6-0.6 4.5-3.9 8.6-7.5 4.1-3.5 13.4-12.2 20.5-19.4 7.2-7.2 15.4-15.9 18.3-19.3l5.2-6.2c-7.2-12.8-9.9-17.7-10.7-19-0.7-1.4-4.5-7.5-8.3-13.5-3.8-6.1-11.3-17.9-16.7-26.4-5.4-8.4-16.7-25.5-25.2-38-8.5-12.4-19.1-27.6-23.5-33.6-4.5-6.1-8.9-12.3-9.9-13.8l-1.7-2.7c5.8-0.7 11.1-1.2 15.5-1.5 4.4-0.4 9.8-0.9 12-1.2l4-0.5c20.2 25.3 30.6 38.5 36.1 45.7 5.6 7.1 13.9 18.1 18.6 24.5 4.6 6.3 12.9 17.8 18.4 25.5 5.4 7.7 11.3 15.9 12.9 18.3 1.7 2.3 3.2 4.2 3.5 4.2 0.3 0 1.9-1.4 3.5-3 1.7-1.7 2.6-3.1 2-3-0.5 0 0.2-1.2 1.6-2.8 1.4-1.5 3.7-4.5 4.9-6.7 1.3-2.2 3.6-5.6 5.1-7.5 1.5-2 3.6-5.1 4.6-7 1-2 2.8-5 4.1-6.8 1.2-1.8 2.2-3.5 2.2-3.7 0-0.3 1.5-2.9 3.3-5.8 1.7-2.9 3.5-5.3 4-5.5 0.4-0.1 0.7-0.9 0.7-1.7 0-0.9 0.8-2.8 1.8-4.3 1-1.5 3.6-6.3 5.7-10.7 2.1-4.4 4.8-10.3 6.1-13 1.2-2.8 3.6-8 5.3-11.5 1.7-3.6 4.2-9.7 5.7-13.5 1.4-3.9 3.2-8.4 4-10 0.7-1.7 2.2-5.7 3.4-9 1.1-3.3 3.1-9.2 4.5-13 1.3-3.9 3.1-9.7 4.1-13 0.9-3.3 1.8-6.8 1.8-7.8 0.1-1.5-0.6-1.7-5.4-1.2-3 0.3-20.6 1.9-39 3.5-18.4 1.6-33.5 2.8-33.6 2.7 0-0.1-17.7-20.9-39.4-46.2-21.6-25.3-39.5-46.3-39.7-46.5-0.1-0.3-0.6-0.2-1 0.3-0.5 0.4 1.1 22.7 3.5 49.5 2.4 26.8 4 48.9 3.7 49.2-0.4 0.2-17.2 1.9-37.3 3.6-20.2 1.8-37 2.9-37.3 2.5-0.4-0.3-3-27.9-5.9-61.1-2.8-33.3-6.5-74.9-8-92.5-1.5-17.6-5.9-67-9.6-109.7-3.8-42.7-6.7-77.9-6.4-78.2 0.3-0.2 17.2-1.8 37.5-3.6 20.4-1.7 37.2-2.9 37.5-2.5 0.3 0.4 2.6 24.8 5.2 54.3 2.6 29.5 5.9 67.4 7.3 84.2 1.5 16.7 2.9 30.7 3.1 31 0.2 0.2 0.6 0.2 0.8 0 0.3-0.3 15.4-24.2 33.7-53 18.2-28.9 42.4-67.2 53.7-85 11.2-17.9 22-34.9 23.8-37.8 1.9-2.9 3.7-5.4 4.2-5.7 0.4-0.2 4.9-0.8 10-1.2 5.1-0.5 9.2-1.2 9.2-1.6 0-0.4-1.6-4-3.5-8-1.9-4-3.5-7.8-3.5-8.5 0-0.7-0.6-1.6-1.4-2-0.7-0.4-2.1-2.3-2.9-4.2-0.9-2-2.8-5.3-4.1-7.5-1.4-2.2-3-5-3.6-6.3-0.5-1.2-1-2.7-1-3.2 0-0.6-0.6-1.4-1.4-1.8-0.7-0.4-2.5-3-3.9-5.7-1.4-2.8-3.3-5.7-4.2-6.5-0.9-0.9-1.6-1.9-1.5-2.3 0-0.4-0.6-1.4-1.2-2.1-1.1-1.2-3.9-0.9-18.8 2.4-9.6 2.2-28.1 6.6-41 9.8-12.9 3.3-31.6 8.3-41.5 11.1-9.9 2.8-24.1 6.9-31.5 9.2-7.4 2.2-23.6 7.3-36 11.4l-22.5 7.3c-55 4.8-71.9 6.1-73 6.1-1.1 0 3.6-2.8 10.5-6.1 6.9-3.3 20.8-9.6 31-14 10.2-4.4 20.5-8.9 23-10.1 2.5-1.1 13.1-5.4 23.5-9.5 10.5-4.1 23.7-9.2 29.5-11.4 5.8-2.2 17.5-6.5 26-9.5 8.5-3 26.8-9.2 40.5-13.8 13.8-4.6 31.5-10.2 39.5-12.5 8-2.3 14.9-4.5 15.3-4.9 0.5-0.3-1.1-2.9-3.5-5.7-2.3-2.9-6.1-7.3-8.3-9.9-2.2-2.6-6.2-7.3-9-10.4-2.7-3.1-10.6-11.2-17.5-18.1-6.9-6.9-15.4-15-19-18.1-3.6-3.1-7.7-6.9-9.2-8.3-1.6-1.4-3-2.6-3.3-2.6-0.3 0-1.3-1-2.4-2.3-1-1.2-3.8-3.6-6.2-5.2-2.4-1.7-5.4-4-6.6-5.3-1.3-1.2-2.5-2.2-2.8-2.2-0.3 0-2-1.2-3.7-2.5-1.8-1.4-3.7-2.9-4.3-3.4-0.5-0.4-3-2.2-5.5-4-2.5-1.7-6.4-4.5-8.7-6.1-2.4-1.7-4.6-3-5-3-0.5 0-1.9-1-3.3-2.3-1.4-1.2-3.5-2.8-4.5-3.5-1.1-0.7-2.9-1.7-4-2.4-1.7-0.9-3.7 0.2-15.5 9-7.4 5.6-16.2 12.2-19.5 14.7-3.3 2.6-11.2 8.8-17.5 13.8-6.3 5-13.1 10.4-15.1 12.1-2 1.7-4.4 3.7-5.5 4.6-1 0.8-5.9 4.8-10.9 8.9-4.9 4.1-15.5 13.1-23.5 20-8 6.8-19 16.5-24.5 21.5-5.4 5-13.5 12.4-18 16.5-4.4 4.1-23.1 22.6-41.6 41-18.4 18.5-37.4 37.8-42.1 43.1-4.7 5.2-9.4 10.5-10.5 11.7-1.5 1.9-3.3 2.3-12.3 3.1-5.8 0.5-10.6 0.8-10.7 0.6-0.2-0.3 1.2-2.3 2.9-4.7 1.8-2.3 8.7-11 15.3-19.2 6.6-8.3 12.7-15.9 13.6-17 0.9-1.1 5.7-6.8 10.5-12.5 4.8-5.8 13.5-15.9 19.3-22.5 5.8-6.6 15.1-17 20.6-23 5.5-6.1 13.1-14.4 17-18.5 3.8-4.1 18.3-18.7 32-32.5 13.8-13.8 31.3-31 39-38.2 7.7-7.1 18.7-17.2 24.5-22.4 5.8-5.2 16-14.3 22.8-20.2l12.2-10.7c-5-3.1-6.7-4-7-4-0.3 0-5.8-2.5-12.3-5.5-6.4-3.1-12.3-5.5-12.9-5.5-0.7 0-2.4-0.8-3.8-1.7-1.4-1-5-2.5-8-3.4-3-1-8.6-3-12.5-4.4-3.8-1.5-8.6-3.2-10.5-3.7-1.9-0.6-4.8-1.6-6.5-2.3-1.6-0.7-5.9-2-9.5-3-3.6-0.9-8.7-2.3-11.5-3-2.7-0.8-7.7-2.2-11-3.1-3.3-0.9-7.1-1.9-8.5-2.1-1.4-0.2-4.1-0.8-6-1.4-1.9-0.5-4.8-0.9-6.5-0.9-1.6 0-4.2-0.7-5.7-1.5-1.6-0.9-3.8-1.3-5-0.9-1.3 0.3-3.2 0.1-4.3-0.4-1.1-0.6-4.9-1.4-8.5-1.7-3.6-0.4-8.5-0.9-11-1.1l-4.5-0.4c-6.5 11.2-12.9 23-18.5 33.5-5.6 10.4-16.6 32.1-24.6 48.2-7.9 16.1-14.4 29.5-14.4 29.8 0 0.2-1.6 3.7-3.6 7.7-1.9 4-7.3 15.8-11.9 26.3-4.6 10.4-10.4 24.1-13 30.5-2.6 6.3-7.4 18.2-10.7 26.5-3.3 8.2-8.9 22.8-12.5 32.5-3.5 9.6-9.8 27.4-13.9 39.5-4.1 12.1-7.8 22.2-8.2 22.6-0.4 0.3-4.2 0.9-8.4 1.2-4.3 0.4-7.8 0.4-7.8 0.2 0-0.3 1.6-6.7 3.5-14.3 2-7.5 5.8-22.1 8.6-32.2 2.8-10.2 6.1-21.9 7.4-26 1.3-4.2 4.2-13.6 6.5-21 2.3-7.5 7.1-22.3 10.7-33 3.6-10.8 10.8-30.8 15.9-44.5 5.1-13.8 11.3-30.2 13.9-36.5 2.5-6.4 5-12.4 5.5-13.5 0.5-1.1 4.1-9.7 8.1-19 3.9-9.4 9.1-21.3 11.4-26.5 2.4-5.3 6-13.1 8-17.5 2.1-4.4 4.6-10.1 5.6-12.5 1.1-2.5 1.7-4.8 1.3-5-0.3-0.3-7.8-0.6-16.7-0.6-8.9-0.1-16.9 0-17.7 0.2zm418.4 374.6c-27.4 43.5-50.6 80.1-51.4 81.4-1.3 2-1.3 2.4 0.1 4.1 0.9 1 30.1 35.1 64.9 75.8 34.8 40.7 63.6 74.4 64.1 75 0.4 0.5 1.5-2.6 2.5-7 1-4.4 1.9-8.7 1.9-9.5 0.1-0.9 0.4-2 0.8-2.5 0.3-0.6 1.1-4.1 1.7-7.8 0.5-3.7 1.4-9.5 2-13 0.5-3.4 1-7.8 1.1-9.7 0.2-2 0.6-4 1-4.5 0.4-0.6 0.9-4.6 1.2-9 0.3-4.4 0.8-11 1.2-14.5 0.4-3.6 0.7-10.6 0.7-15.5 0-5 0.5-9.5 0.9-10 0.5-0.6 0.6-5.5 0.1-11.5-0.5-5.8-0.9-12.3-0.9-14.5 0-2.2-0.3-11.5-0.7-20.5-0.4-9.1-1.1-17-1.5-17.5-0.5-0.6-1.2-5.5-1.5-11-0.4-5.5-1.1-11.6-1.6-13.5-0.5-2-1.4-8.3-2-14-0.5-5.8-1.4-11-1.9-11.5-0.4-0.6-1.1-2.6-1.5-4.5-0.4-2-1-5.3-1.3-7.5-0.3-2.2-0.9-4.5-1.3-5-0.4-0.6-1.1-3.5-1.5-6.5-0.4-3.1-1.2-5.9-1.9-6.3-0.6-0.4-1.4-2.6-1.8-5-0.4-2.3-1-5.6-1.3-7.2-0.4-1.7-1.5-4.8-2.4-7-1-2.2-2.1-5.4-2.5-7-0.4-1.7-2.3-7.5-4.2-13-1.9-5.5-4.9-12.8-6.5-16.3-1.6-3.4-3.1-7.2-3.4-8.5-0.2-1.2-1.1-2.8-1.8-3.4-1.1-1-10.5 13.3-51.3 77.9zm-888.8 36.3c-0.4 2.2-1 6.4-1.3 9.5-0.2 3-0.9 6-1.4 6.7-0.5 0.7-0.7 1.6-0.5 2 0.3 0.4 0.1 2.6-0.4 4.8-0.4 2.2-1.1 9.1-1.5 15.5-0.4 6.3-0.7 13.4-0.6 15.7 0.1 2.4-0.3 4.5-0.9 4.8-0.6 0.3-0.8 5.5-0.4 14.2 0.1 4.5 0.4 10.3 0.4 11.2-0.1 1 0 2.6 0 2.9 0 0.4 0.1 2.5 0 4.7-0.1 2.4-0.5 8 0.1 14 0.5 5.5 1.1 12.7 1.3 16 0.2 3.3 0.9 12 1.6 19.5 0.6 7.4 1.5 14.4 2 15.5 0.5 1.1 1.1 3.5 1.5 5.5 0.3 1.9 1.1 6.8 1.6 11 0.5 4.1 1.2 9.8 1.7 12.7 0.4 2.8 1.3 5.7 2 6.5 0.7 0.7 1.2 2.7 1.2 4.5 0 1.8 0.5 3.5 1 3.8 0.6 0.2 1.3 3 1.8 6.1 0.4 3.1 1 5.8 1.5 6 0.4 0.2 1 2.7 1.3 5.6 0.4 2.9 1 5.7 1.4 6.3 0.4 0.5 1.1 2.5 1.5 4.5 0.4 1.9 1.3 4.1 2 5 0.7 0.8 1.8 3.5 2.3 6 0.6 2.4 1.8 6.7 2.7 9.5 0.9 2.7 2.3 6.3 3.1 8 0.8 1.6 1.7 4.4 2.2 6.2 0.4 1.8 1.2 3.5 1.7 3.7 0.6 0.2 22.9-1.5 49.7-3.8 26.7-2.3 48.9-4.4 49.2-4.6 0.4-0.3-1.8-29.3-4.9-64.5-3-35.2-5.5-64.4-5.5-64.8 0-0.4-3.3-0.5-7.2-0.2-4 0.3-20.3 1.6-36.3 3.1-15.9 1.4-31.2 2.4-34 2.2-2.7-0.3-7.2-1.5-10-2.8-2.7-1.4-7.1-4.5-9.6-7-2.5-2.5-5.5-6.6-6.6-9-1.1-2.5-2.3-6.3-2.7-8.5-0.3-2.2-1.5-14.4-2.6-27-1.1-12.7-3.2-36.1-4.5-52-1.4-16-2.6-29.9-2.8-31-0.1-1.2-0.6-0.3-1.1 2z"/>
			<path id="Path 3" fill-rule="evenodd" class="s0" d="m688.4 365.4c-18.4 1.7-33.7 3.2-34 3.5-0.3 0.2 1.4 22.3 3.8 49.1 2.4 26.8 7.2 81.7 10.7 122.2 3.6 40.4 8.3 95.1 10.6 121.5 2.3 26.4 4.4 48.3 4.8 48.6 0.3 0.4 17.1-0.7 37.3-2.5 20.1-1.7 36.9-3.4 37.3-3.6 0.3-0.3-1.5-24.2-4-53-2.5-28.9-9-104.3-14.5-167.5-5.5-63.3-10.2-116.5-10.5-118.3-0.5-3-0.7-3.2-4.2-3.1-2.1 0-18.9 1.5-37.3 3.1zm-85.5 7.5c-14.8 1.4-61.2 5.5-103 9.1l-76 6.7c0.3 12.4 0.7 18.3 1 21.2l0.5 5.3c7.4-0.1 33.8-2.3 63.5-4.9 29.7-2.7 54.3-4.6 54.6-4.2 0.4 0.3-2.1 10.5-5.6 22.6-3.5 12.1-11.7 41.3-18.3 65-6.6 23.6-17.7 63.2-24.7 88-6.9 24.7-18.4 65.4-25.5 90.5-7 25-13.6 48.3-14.6 51.7-1.1 3.4-1.7 6.5-1.4 6.7 0.3 0.3 18.7-1 41-3 22.3-1.9 55.4-4.8 73.5-6.4 18.2-1.6 46.7-4.1 63.5-5.6 16.8-1.4 30.8-2.9 31.1-3.3 0.3-0.3 0.1-6.3-0.5-13.3-0.6-7-1.3-12.9-1.6-13.2-0.3-0.3-15.3 0.7-33.5 2.3-18.1 1.6-44.3 4-58.2 5.3-13.8 1.2-25.4 2-25.8 1.8-0.3-0.3 4.8-20.1 11.5-44 6.7-24 14.2-50.7 16.7-59.5 2.4-8.8 10.3-36.7 17.5-62 7.1-25.3 14.7-52.3 16.8-60 2.1-7.7 7.9-28.7 13-46.5 5.1-17.9 10.6-36.9 12.3-42.3 1.7-5.4 2.6-9.9 2.1-10.2-0.5-0.3-1.3-0.5-1.9-0.4-0.5 0-13.1 1.2-28 2.6zm-261 22.9c-39 3.5-71.2 6.6-71.5 6.9-0.3 0.3 0.5 12.4 1.8 26.8 1.3 14.4 3.8 43.8 5.8 65.4 1.9 21.6 5 56.9 6.9 78.5 1.8 21.6 6 68.7 9.1 104.8 3.1 36 5.9 65.7 6.1 66 0.3 0.2 27.8-1.9 61.1-4.9 33.4-2.9 66-5.8 72.5-6.5l11.7-1.1c0-6.2-0.5-12.3-1-17.5-0.6-5.3-1.2-9.6-1.3-9.7-0.1-0.1-15.7 1.1-34.7 2.7-19 1.7-34.6 2.9-34.8 2.7-0.1-0.1-0.9-7.7-1.7-16.7-0.8-9.1-3.1-34.3-5-56-1.9-21.8-3.8-43.4-4.2-48.2l-0.8-8.7c5.4-0.9 21-2.3 38-3.7 17.1-1.5 31.1-2.7 31.3-2.8 0.2-0.1 0-5.5-0.3-12.1-0.4-6.6-0.9-12.6-1.3-13.4-0.6-1.1-5.2-0.9-26.2 0.9-14 1.1-29.3 2.5-34 2.9-4.7 0.4-8.8 0.5-9.2 0.2-0.4-0.4-3-26.5-5.8-58.1-2.8-31.7-5.4-60.8-5.8-64.8l-0.7-7.3c4.7 0 20.3-1.2 37.7-2.7 17.4-1.5 31.9-3 32.1-3.2 0.3-0.3 0-6.4-0.6-13.5-0.9-10.2-1.5-13-2.7-13.2-0.8-0.1-33.4 2.7-72.5 6.3z"/>
		</g>
	</g>
</svg>
