<?xml version="1.0" encoding="UTF-8" standalone="no"?>
<!-- Created with Inkscape (http://www.inkscape.org/) -->

<svg
   version="1.1"
   id="svg1"
   width="306"
   height="306"
   viewBox="0 0 306 306"
   sodipodi:docname="editWorkInProgressIndicator.svg"
   inkscape:version="1.4.2 (f4327f4, 2025-05-13)"
   xmlns:inkscape="http://www.inkscape.org/namespaces/inkscape"
   xmlns:sodipodi="http://sodipodi.sourceforge.net/DTD/sodipodi-0.dtd"
   xmlns:xlink="http://www.w3.org/1999/xlink"
   xmlns="http://www.w3.org/2000/svg"
   xmlns:svg="http://www.w3.org/2000/svg">
  <defs
     id="defs1">
    <linearGradient
       id="linearGradient65"
       inkscape:collect="always">
      <stop
         style="stop-color:#ffffff;stop-opacity:0.91139197;"
         offset="0"
         id="stop65" />
      <stop
         style="stop-color:#ffffff;stop-opacity:0.29559749;"
         offset="1"
         id="stop66" />
    </linearGradient>
    <linearGradient
       id="linearGradient51"
       inkscape:collect="always">
      <stop
         style="stop-color:#ffffff;stop-opacity:0.7672956;"
         offset="0.28019324"
         id="stop52" />
      <stop
         style="stop-color:#ffffff;stop-opacity:0;"
         offset="1"
         id="stop53" />
    </linearGradient>
    <inkscape:path-effect
       effect="skeletal"
       id="path-effect43"
       is_visible="true"
       lpeversion="1"
       pattern="M 0,18.867925 C 0,8.4528302 8.4528302,0 18.867925,0 c 10.415094,0 18.867924,8.4528302 18.867924,18.867925 0,10.415094 -8.45283,18.867924 -18.867924,18.867924 C 8.4528302,37.735849 0,29.283019 0,18.867925 Z"
       copytype="single_stretched"
       prop_scale="1"
       scale_y_rel="false"
       spacing="0"
       normal_offset="0"
       tang_offset="0"
       prop_units="false"
       vertical_pattern="false"
       hide_knot="false"
       fuse_tolerance="0" />
    <linearGradient
       id="linearGradient30"
       inkscape:collect="always">
      <stop
         style="stop-color:#ffb135;stop-opacity:1;"
         offset="0"
         id="stop30" />
      <stop
         style="stop-color:#bd7500;stop-opacity:0;"
         offset="1"
         id="stop31" />
    </linearGradient>
    <linearGradient
       id="swatch21"
       inkscape:swatch="solid">
      <stop
         style="stop-color:#26ee30;stop-opacity:1;"
         offset="0"
         id="stop21" />
    </linearGradient>
    <linearGradient
       id="linearGradient11"
       inkscape:swatch="gradient">
      <stop
         style="stop-color:#000000;stop-opacity:1;"
         offset="0"
         id="stop12" />
      <stop
         style="stop-color:#000000;stop-opacity:0;"
         offset="1"
         id="stop13" />
    </linearGradient>
    <radialGradient
       inkscape:collect="always"
       xlink:href="#linearGradient30"
       id="radialGradient31"
       cx="150"
       cy="150"
       fx="150"
       fy="150"
       r="150"
       gradientUnits="userSpaceOnUse"
       gradientTransform="matrix(2.6882433,-0.00344082,0.00359239,2.8066648,-253.77535,-270.48359)" />
    <linearGradient
       inkscape:collect="always"
       xlink:href="#linearGradient51"
       id="linearGradient53"
       x1="149.99998"
       y1="-90.595688"
       x2="149.99998"
       y2="209.40428"
       gradientUnits="userSpaceOnUse" />
    <linearGradient
       inkscape:collect="always"
       xlink:href="#linearGradient65"
       id="linearGradient66"
       x1="-112.75478"
       y1="346.07953"
       x2="412.75491"
       y2="346.07953"
       gradientUnits="userSpaceOnUse"
       gradientTransform="matrix(0.40091246,0,0,2.7188039,-428.09028,-785.22459)" />
    <filter
       inkscape:collect="always"
       style="color-interpolation-filters:sRGB"
       id="filter74"
       x="-0.28280007"
       y="-0.14756473"
       width="1.5656001"
       height="1.2951295">
      <feGaussianBlur
         inkscape:collect="always"
         stdDeviation="24.825536"
         id="feGaussianBlur74" />
    </filter>
  </defs>
  <sodipodi:namedview
     id="namedview1"
     pagecolor="#505050"
     bordercolor="#ffffff"
     borderopacity="1"
     inkscape:showpageshadow="0"
     inkscape:pageopacity="0"
     inkscape:pagecheckerboard="1"
     inkscape:deskcolor="#505050"
     inkscape:zoom="0.65231325"
     inkscape:cx="-242.98142"
     inkscape:cy="88.147834"
     inkscape:window-width="1920"
     inkscape:window-height="1057"
     inkscape:window-x="-8"
     inkscape:window-y="-8"
     inkscape:window-maximized="1"
     inkscape:current-layer="g1" />
  <g
     inkscape:groupmode="layer"
     inkscape:label="Image"
     id="g1"
     transform="translate(3,3.2709997)">
    <path
       style="display:none;fill:#6ce272;fill-opacity:1;stroke:none;stroke-width:80;stroke-dasharray:none;paint-order:markers fill stroke"
       d="M 87.261904,0 C 0,150 83.467908,300 83.467908,300 H 0 V 0 Z"
       id="path41" />
    <rect
       style="display:inline;fill:#2b2b2b;fill-opacity:1;stroke:none;stroke-width:80;stroke-dasharray:none;paint-order:markers fill stroke"
       id="rect21"
       width="300"
       height="300"
       x="0"
       y="0"
       ry="66.123047" />
    <rect
       style="display:inline;fill:url(#radialGradient31);fill-opacity:1;stroke:none;stroke-width:80;stroke-dasharray:none;paint-order:markers fill stroke"
       id="rect27"
       width="300"
       height="300"
       x="0"
       y="0"
       ry="66.123047" />
    <g
       id="g75"
       style="display:inline"
       transform="matrix(1.052661,0,0,1.052661,-16.760928,-11.97154)">
      <path
         id="path1"
         style="display:inline;fill:#000000"
         d="m 227.22159,29.898964 c -2.93641,-0.204968 -5.41605,2.06967 -8.20295,7.327364 l -0.57495,1.087706 -1.99361,-0.526667 c -6.00112,-1.58498 -10.37193,1.131512 -15.30214,9.510348 -1.17384,1.994948 -4.38734,7.288999 -7.13953,11.76534 -2.75221,4.476337 -6.46169,10.511526 -8.2433,13.413108 -1.78161,2.901579 -4.95657,8.057159 -7.05743,11.454622 -2.10083,3.397458 -4.48582,7.261694 -5.29976,8.58818 -0.81394,1.326495 -3.73283,6.074313 -6.48585,10.550575 -7.05231,11.46668 -8.33052,13.54436 -10.0067,16.27732 -0.8136,1.32653 -3.94866,6.4132 -6.96764,11.30269 -3.019,4.88948 -8.4492,13.70434 -12.06648,19.59004 -3.61726,5.88573 -8.20939,13.34627 -10.20568,16.57823 -4.83463,7.82719 -9.78519,15.87314 -11.59259,18.8395 -0.80859,1.32707 -3.94113,6.41356 -6.95983,11.30308 -19.076726,30.89959 -17.450526,28.03349 -19.081636,33.62428 -0.7757,2.65877 -2.534869,8.62104 -3.909312,13.2499 -9.31292,31.36419 -9.393518,31.76238 -6.726723,33.24686 0.72083,0.40126 1.949676,0.32198 2.978273,-0.19235 1.059569,-0.52983 9.392242,-8.20455 32.322398,-29.76628 l 4.78293,-4.49767 8.04842,-13.07677 c 4.42665,-7.19261 9.34122,-15.18107 10.92178,-17.75073 1.58054,-2.56969 6.04973,-9.82547 9.93057,-16.1247 3.88087,-6.29922 8.51605,-13.8266 10.29928,-16.728 1.78325,-2.90141 5.62359,-9.14154 8.53595,-13.86576 2.91237,-4.72422 5.96065,-9.67486 6.77257,-11.00157 1.698,-2.77464 7.31212,-11.89589 11.77976,-19.13906 1.68696,-2.73499 6.40684,-10.39828 10.48849,-17.02941 31.06083,-50.461857 27.35845,-45.040343 29.34197,-42.973839 l 0.95316,0.994487 -1.30532,2.07763 c -1.87805,2.987808 -25.65925,41.570072 -34.16353,55.426882 -2.97697,4.85065 -4.55998,7.41988 -9.0035,14.60687 -5.5523,8.98039 -5.55358,9.69704 -0.0164,10.31103 4.7332,0.52511 6.04058,-0.48412 10.87262,-8.38197 3.9804,-6.50583 8.60587,-14.03071 13.47263,-21.92272 1.94213,-3.1494 5.78343,-9.38957 8.53792,-13.86566 2.75446,-4.47609 9.01906,-14.648138 13.92161,-22.606087 10.15542,-16.484531 9.98412,-16.163434 10.06422,-18.818636 0.10687,-3.541689 -2.69458,-8.637821 -5.97845,-10.874839 -1.49328,-1.017255 -1.52188,-1.151807 -0.58662,-2.798655 1.96692,-3.46353 1.23045,-9.478186 -1.55611,-12.715397 l -1.2619,-1.465681 1.96477,-3.290156 c 3.19679,-5.352334 2.43324,-9.265194 -2.18486,-11.180612 -0.73574,-0.305167 -1.43887,-0.485554 -2.1165,-0.532853 z m -0.27166,3.416446 c 0.21515,0.0071 0.43877,0.04205 0.67354,0.100401 3.16514,0.786624 3.48078,2.784999 1.05369,6.651222 -0.96375,1.535228 -1.86452,2.77621 -2.0237,2.790467 -0.001,-3.4e-5 -0.005,-1.04e-4 -0.006,-2.9e-4 -0.13763,-0.02526 -1.36665,-0.728884 -2.73142,-1.565072 l -2.48134,-1.521193 0.64119,-1.160642 c 2.23659,-4.042139 3.36788,-5.345056 4.87389,-5.294882 z m -13.57747,7.299333 c 2.32095,0.0021 5.06966,1.159124 8.74263,3.396922 10.56133,6.434612 10.69113,8.438763 1.50841,23.298647 -3.21954,5.210011 -5.99222,9.49262 -6.162,9.516716 -0.16975,0.02415 -5.12257,-2.935298 -11.00554,-6.577202 -5.88298,-3.641903 -10.82382,-6.686285 -10.98042,-6.765626 -0.28167,-0.14274 6.5788,-11.781418 10.01741,-16.994466 2.61994,-3.971936 4.89545,-5.877718 7.87951,-5.874991 z m 16.40576,23.15088 c 0.0107,-9e-6 0.0219,6.94e-4 0.0332,0.0017 1.06555,0.08333 4.56078,3.913468 5.35497,6.011175 1.12824,2.980045 0.74249,4.319554 -2.96067,10.254755 -1.75684,2.815782 -4.81856,7.764856 -6.80367,10.998054 -1.98512,3.233199 -6.66401,10.827593 -10.39675,16.877583 -3.73274,6.05001 -10.62603,17.24087 -15.31827,24.86687 -14.05045,22.83514 -13.05883,21.37948 -15.06085,22.1224 -0.59098,0.21929 -1.50479,0.35103 -2.03096,0.2928 l -0.95681,-0.10644 1.12169,-1.8874 c 0.61705,-1.03841 2.84188,-4.66713 4.94485,-8.06435 2.10296,-3.39723 4.48614,-7.2634 5.29595,-8.59033 0.80985,-1.32695 4.6071,-7.49806 8.43839,-13.71423 3.83123,-6.21619 9.17541,-14.89712 11.87541,-19.29069 2.69996,-4.393586 5.78962,-9.411237 6.86615,-11.151359 1.07644,-1.740106 2.53832,-4.114058 3.24779,-5.275038 0.70947,-1.160982 2.30798,-3.737994 3.55207,-5.725156 3.39215,-5.418277 3.29944,-7.514913 -0.42611,-9.717301 -0.65034,-0.38445 -1.1703,-0.802572 -1.15596,-0.928426 0.0246,-0.220864 3.93567,-6.657417 4.19832,-6.90901 0.0457,-0.04384 0.10627,-0.06531 0.18126,-0.06519 z m -36.38298,2.66264 c 0.29649,-0.26693 22.3327,13.134476 22.28629,13.553507 -0.0132,0.122632 -3.39924,5.700093 -7.52328,12.395282 -4.12402,6.695208 -8.07523,13.124288 -8.78198,14.285578 -0.70671,1.16129 -2.91644,4.7556 -4.90971,7.9879 -6.41632,10.40471 -10.27184,16.66209 -11.97679,19.44007 -0.91587,1.49229 -7.80863,12.68126 -15.31819,24.86489 -7.50956,12.18368 -15.10722,24.52787 -16.88269,27.43013 -1.77549,2.90225 -7.86411,12.80357 -13.53148,22.00383 -5.66736,9.20022 -11.1378,18.08398 -12.15624,19.74196 -1.01849,1.65803 -2.96653,4.81064 -4.32839,7.00612 -1.6973,2.7363 -2.63356,3.96681 -2.97962,3.90984 -0.45754,-0.0754 -11.84365,-7.03451 -19.072856,-11.65715 l -2.90259,-1.85528 3.44288,-5.57617 c 1.893196,-3.06629 6.488986,-10.52494 10.213376,-16.57587 3.72443,-6.05092 9.90659,-16.08824 13.73825,-22.30436 3.83164,-6.21613 8.46796,-13.74363 10.30316,-16.72781 10.60128,-17.23843 13.71429,-22.29549 17.06988,-27.72968 2.04693,-3.31489 4.34364,-7.0452 5.10479,-8.28901 0.76115,-1.24379 4.51809,-7.34803 8.34869,-13.56426 3.83062,-6.21624 7.67317,-12.4543 8.53781,-13.86373 0.86465,-1.40942 4.65992,-7.582468 8.43459,-13.716375 3.77467,-6.133893 8.15229,-13.25566 9.7278,-15.825905 1.5755,-2.570247 2.9962,-4.789358 3.1563,-4.933507 z M 94.045334,228.86191 c 0.0615,-0.0492 4.16777,2.40665 9.123876,5.45775 4.95611,3.05109 9.72335,5.98308 10.59407,6.5154 1.96223,1.1997 2.38328,0.46992 -3.38855,5.89572 -2.71763,2.55467 -5.99395,5.63989 -7.27973,6.85754 -1.28579,1.21766 -4.023996,3.79264 -6.084346,5.7209 -2.06034,1.92827 -3.96885,3.46955 -4.24204,3.42585 -1.48774,-0.23817 -7.563599,-4.46033 -7.33884,-5.09998 0.125963,-0.35863 2.092183,-6.9598 4.36791,-14.6681 2.27572,-7.70832 4.1862,-14.05582 4.24765,-14.10508 z m -9.504332,32.98774 0.002,10e-5 0.002,8e-5 0.002,1.1e-4 0.002,10e-5 c 0.558515,0.0619 5.596929,3.24944 5.646149,3.56763 5e-5,0.001 -1.8e-4,0.005 -2.9e-4,0.006 -0.0165,0.15221 -1.82649,1.92361 -4.021287,3.93563 -5.548929,5.08696 -5.462998,5.02268 -5.122142,3.85481 0.150182,-0.51459 0.932092,-3.28973 1.737981,-6.16652 0.793291,-2.83183 1.573429,-5.14359 1.751795,-5.19779 z" />
      <g
         id="g59"
         style="display:inline">
        <path
           style="fill:#f1ff00;fill-opacity:1;stroke:none;stroke-width:1.626;stroke-linejoin:miter;stroke-dasharray:none;stroke-opacity:1;paint-order:normal"
           d="m 112.42809,236.13885 c -5.88014,-3.53485 -16.11489,-9.94921 -16.591139,-10.39807 -0.30596,-0.28836 2.565453,-5.10942 17.045189,-28.61863 9.57722,-15.54952 31.18381,-50.64198 48.01465,-77.98325 34.13326,-55.448611 32.36849,-52.608473 32.68926,-52.608473 0.53041,0 21.99421,13.09525 21.99421,13.418859 0,0.294481 -3.15501,5.437804 -54.19041,88.341524 -22.84696,37.11341 -42.03022,68.18014 -42.62947,69.03718 -0.59925,0.85704 -1.24086,1.55825 -1.42581,1.55825 -0.18495,0 -2.39287,-1.23633 -4.90648,-2.74739 z"
           id="path53" />
        <path
           style="display:inline;fill:#f1ff00;fill-opacity:1;stroke:none;stroke-width:2.29951;stroke-linejoin:miter;stroke-dasharray:none;stroke-opacity:1;paint-order:normal"
           d="m 206.4912,70.216549 c -5.94681,-3.628244 -10.8189,-6.740174 -10.82686,-6.9154 -0.0372,-0.818555 9.42011,-16.389962 11.64364,-19.171212 2.54171,-3.17923 5.88452,-4.071684 9.74984,-2.60298 4.65906,1.770303 11.29058,6.512887 12.57207,8.991017 0.96577,1.867605 0.46432,4.719016 -1.55058,8.817118 -1.59138,3.236714 -9.3041,15.937209 -10.33189,17.01348 -0.34386,0.360087 -2.87944,-1.021212 -11.25622,-6.132023 z"
           id="path55" />
        <path
           style="display:inline;fill:#f1ff00;fill-opacity:1;stroke:none;stroke-width:2.29951;stroke-linejoin:miter;stroke-dasharray:none;stroke-opacity:1;paint-order:normal"
           d="m 91.17781,261.92713 c -2.020249,-1.01855 -5.125939,-3.33027 -5.386588,-4.00951 -0.155591,-0.40547 6.738323,-24.59274 8.118141,-28.48247 0.21729,-0.61254 -0.297042,-0.89743 12.144497,6.72699 8.09547,4.96107 9.03997,5.6431 8.62316,6.22683 -0.43165,0.60449 -10.53813,10.21153 -17.67571,16.80221 -3.925317,3.62455 -3.99555,3.65755 -5.8235,2.73595 z"
           id="path56" />
        <path
           style="display:inline;fill:#f1ff00;fill-opacity:1;stroke:none;stroke-width:0.20325;stroke-linejoin:miter;stroke-dasharray:none;stroke-opacity:1;paint-order:normal"
           d="m 80.944224,273.73426 c 0,-0.0703 0.06992,-0.37139 0.155376,-0.66903 0.08546,-0.29763 0.558595,-1.97407 1.051417,-3.7254 1.133343,-4.02754 1.479083,-5.17989 1.951398,-6.50399 0.233234,-0.65386 0.384067,-0.96544 0.467358,-0.96544 0.398834,0 4.922345,2.81545 5.517477,3.4341 l 0.115349,0.1199 -0.132286,0.16176 c -0.351073,0.42927 -1.956496,1.97882 -3.977095,3.83868 -3.899323,3.58912 -4.87674,4.4373 -5.113437,4.4373 -0.01956,0 -0.03556,-0.0575 -0.03556,-0.12788 z"
           id="path57" />
        <path
           style="display:inline;fill:#f1ff00;fill-opacity:1;stroke:none;stroke-width:0.574877;stroke-linejoin:miter;stroke-dasharray:none;stroke-opacity:1;paint-order:normal"
           d="m 181.92467,155.10717 c -0.11856,-0.0261 -0.21557,-0.0645 -0.21557,-0.0854 0,-0.0878 3.06946,-5.12292 7.82473,-12.83553 2.79421,-4.53195 11.40977,-18.52302 19.14569,-31.09127 7.73592,-12.568257 15.18951,-24.662236 16.56354,-26.875513 3.60311,-5.803864 4.25553,-7.201399 4.15918,-8.909331 -0.0802,-1.420984 -0.68639,-2.222853 -2.70385,-3.576428 -0.68222,-0.457726 -1.25435,-0.877872 -1.27139,-0.933658 -0.0315,-0.103023 2.12782,-3.762233 3.47366,-5.886582 0.69179,-1.09196 0.75385,-1.161228 0.98995,-1.104824 0.96927,0.231559 3.64763,3.046882 4.76651,5.010262 0.39116,0.686394 0.80439,1.773558 0.94939,2.497697 0.1116,0.557377 0.0639,1.688833 -0.0974,2.311483 -0.41074,1.585098 -0.97142,2.597868 -5.41068,9.773521 -2.86157,4.625444 -14.60406,23.682053 -31.76507,51.550773 -10.37099,16.84203 -11.32519,18.32701 -12.36383,19.24125 -0.61225,0.53893 -1.72944,0.8959 -2.91901,0.93271 -0.50063,0.0155 -1.00724,0.007 -1.12581,-0.0192 z"
           id="path58" />
        <path
           style="fill:#f1ff00;fill-opacity:1;stroke:none;stroke-width:0.574877;stroke-linejoin:miter;stroke-dasharray:none;stroke-opacity:1;paint-order:normal"
           d="m 225.63527,42.289759 c -0.93916,-0.536918 -3.97425,-2.374184 -4.09609,-2.479537 -0.14202,-0.122801 1.9681,-3.734431 2.85614,-4.88851 0.71156,-0.92472 1.41206,-1.433341 2.1542,-1.564112 0.70822,-0.124796 2.28549,0.377793 2.95044,0.940143 0.80938,0.684496 0.95717,1.844501 0.41952,3.292848 -0.36477,0.982612 -0.76869,1.720246 -1.80534,3.296871 -0.86246,1.311686 -1.32513,1.892982 -1.50671,1.892982 -0.0626,0 -0.5001,-0.220808 -0.97216,-0.490685 z"
           id="path59" />
      </g>
    </g>
    <path
       id="rect41"
       style="display:inline;fill:url(#linearGradient53);stroke-width:80;paint-order:markers fill stroke"
       d="M 66.123047,0 C 29.490879,0 0,29.490879 0,66.123047 V 87.601562 A 222.05127,118.80795 0 0 0 150,118.80859 222.05127,118.80795 0 0 0 300,87.601562 V 66.123047 C 300,29.490879 270.50912,0 233.87695,0 Z" />
    <rect
       style="display:inline;fill:none;fill-opacity:1;stroke:#242424;stroke-width:6;stroke-linejoin:miter;stroke-dasharray:none;stroke-opacity:1;paint-order:normal"
       id="rect53"
       width="300"
       height="300"
       x="0"
       y="-0.2709997"
       ry="66.123047" />
    <ellipse
       style="display:none;mix-blend-mode:normal;fill:url(#linearGradient66);fill-opacity:0.911392;stroke:none;stroke-width:6.75181;stroke-linejoin:miter;stroke-dasharray:none;stroke-opacity:0;paint-order:normal;filter:url(#filter74)"
       id="path60"
       cx="-367.9534"
       cy="155.69798"
       rx="105.34171"
       ry="201.88187"
       transform="matrix(0,-0.18788994,0.79887191,0,31.31525,222.61639)" />
  </g>
</svg>
