<?xml version="1.0" encoding="UTF-8" standalone="no"?>
<svg
   version="1.1"
   width="18"
   height="13.632887"
   viewBox="0 0 18 13.632887"
   xml:space="preserve"
   id="svg2"
   sodipodi:docname="folder-1485.svg"
   inkscape:version="1.4.2 (f4327f4, 2025-05-13)"
   xmlns:inkscape="http://www.inkscape.org/namespaces/inkscape"
   xmlns:sodipodi="http://sodipodi.sourceforge.net/DTD/sodipodi-0.dtd"
   xmlns="http://www.w3.org/2000/svg"
   xmlns:svg="http://www.w3.org/2000/svg"><defs
   id="defs2" /><sodipodi:namedview
   id="namedview2"
   pagecolor="#505050"
   bordercolor="#ffffff"
   borderopacity="1"
   inkscape:showpageshadow="0"
   inkscape:pageopacity="0"
   inkscape:pagecheckerboard="1"
   inkscape:deskcolor="#505050"
   inkscape:zoom="18.893009"
   inkscape:cx="13.682309"
   inkscape:cy="6.4838797"
   inkscape:window-width="1920"
   inkscape:window-height="1057"
   inkscape:window-x="-8"
   inkscape:window-y="-8"
   inkscape:window-maximized="1"
   inkscape:current-layer="svg2" />
<g
   style="opacity:1;fill:none;fill-rule:nonzero;stroke:none;stroke-width:0;stroke-linecap:butt;stroke-linejoin:miter;stroke-miterlimit:10;stroke-dasharray:none"
   transform="matrix(0.20000103,0,0,0.20000103,0,-2.1836112)"
   id="g2">
	<path
   d="M 73.538,35.162 20.99,37.114 c -1.739,0 -2.753,0.651 -3.232,2.323 L 6.85,76.754 C 6.399,78.34 4.237,79.082 2.733,79.082 v 0 C 1.23,79.082 0,77.852 0,76.349 V 65.891 23.046 20.999 14.726 c 0,-2.103 1.705,-3.808 3.808,-3.808 h 27.056 c 1.01,0 1.978,0.401 2.692,1.115 l 7.85,7.85 c 0.714,0.714 1.683,1.115 2.692,1.115 H 69.73 c 2.103,0 3.808,1.705 3.808,3.808 v 1.301 c 0,-10e-4 0,9.055 0,9.055 z"
   style="opacity:1;fill:#e0ad31;fill-rule:nonzero;stroke:none;stroke-width:1;stroke-linecap:butt;stroke-linejoin:miter;stroke-miterlimit:10;stroke-dasharray:none"
   stroke-linecap="round"
   id="path1" />
	<path
   d="m 2.733,79.082 v 0 c 1.503,0 2.282,-1.147 2.733,-2.733 L 16.462,37.987 c 0.479,-1.672 2.008,-2.824 3.748,-2.824 h 67.379 c 1.609,0 2.765,1.546 2.311,3.09 L 79.004,75.279 c -0.492,1.751 -1.571,3.818 -3.803,3.803 0,0 -72.468,0 -72.468,0 z"
   style="opacity:1;fill:#ffc843;fill-rule:nonzero;stroke:none;stroke-width:1;stroke-linecap:butt;stroke-linejoin:miter;stroke-miterlimit:10;stroke-dasharray:none"
   stroke-linecap="round"
   id="path2" />
</g>
</svg>
