<?xml version="1.0" encoding="UTF-8" standalone="no"?>
<!-- Created with Inkscape (http://www.inkscape.org/) -->

<svg
   version="1.1"
   id="svg1"
   width="50"
   height="50"
   viewBox="0 0 306 306"
   sodipodi:docname="toolMirzahezeRedirectIndicator.svg"
   inkscape:version="1.4.2 (f4327f4, 2025-05-13)"
   xml:space="preserve"
   xmlns:inkscape="http://www.inkscape.org/namespaces/inkscape"
   xmlns:sodipodi="http://sodipodi.sourceforge.net/DTD/sodipodi-0.dtd"
   xmlns:xlink="http://www.w3.org/1999/xlink"
   xmlns="http://www.w3.org/2000/svg"
   xmlns:svg="http://www.w3.org/2000/svg"><defs
     id="defs1"><linearGradient
       id="linearGradient65"
       inkscape:collect="always"><stop
         style="stop-color:#ffffff;stop-opacity:0.91139197;"
         offset="0"
         id="stop65" /><stop
         style="stop-color:#ffffff;stop-opacity:0.29559749;"
         offset="1"
         id="stop66" /></linearGradient><linearGradient
       id="linearGradient51"
       inkscape:collect="always"><stop
         style="stop-color:#ffffff;stop-opacity:0.55974841;"
         offset="0.28019324"
         id="stop52" /><stop
         style="stop-color:#ffffff;stop-opacity:0;"
         offset="1"
         id="stop53" /></linearGradient><inkscape:path-effect
       effect="skeletal"
       id="path-effect43"
       is_visible="true"
       lpeversion="1"
       pattern="M 0,18.867925 C 0,8.4528302 8.4528302,0 18.867925,0 c 10.415094,0 18.867924,8.4528302 18.867924,18.867925 0,10.415094 -8.45283,18.867924 -18.867924,18.867924 C 8.4528302,37.735849 0,29.283019 0,18.867925 Z"
       copytype="single_stretched"
       prop_scale="1"
       scale_y_rel="false"
       spacing="0"
       normal_offset="0"
       tang_offset="0"
       prop_units="false"
       vertical_pattern="false"
       hide_knot="false"
       fuse_tolerance="0" /><linearGradient
       id="linearGradient30"
       inkscape:collect="always"><stop
         style="stop-color:#ffffff;stop-opacity:0.3081761;"
         offset="0"
         id="stop30" /><stop
         style="stop-color:#d1d1d1;stop-opacity:0.87421381;"
         offset="1"
         id="stop31" /></linearGradient><linearGradient
       id="swatch21"
       inkscape:swatch="solid"><stop
         style="stop-color:#26ee30;stop-opacity:1;"
         offset="0"
         id="stop21" /></linearGradient><linearGradient
       id="linearGradient11"
       inkscape:swatch="gradient"><stop
         style="stop-color:#000000;stop-opacity:1;"
         offset="0"
         id="stop12" /><stop
         style="stop-color:#000000;stop-opacity:0;"
         offset="1"
         id="stop13" /></linearGradient><radialGradient
       inkscape:collect="always"
       xlink:href="#linearGradient30"
       id="radialGradient31"
       cx="150"
       cy="150"
       fx="150"
       fy="150"
       r="150"
       gradientUnits="userSpaceOnUse"
       gradientTransform="matrix(2.6882433,-0.00344082,0.00359239,2.8066648,-253.77535,-270.48359)" /><linearGradient
       inkscape:collect="always"
       xlink:href="#linearGradient51"
       id="linearGradient53"
       x1="149.99998"
       y1="-90.595688"
       x2="149.99998"
       y2="209.40428"
       gradientUnits="userSpaceOnUse" /><linearGradient
       inkscape:collect="always"
       xlink:href="#linearGradient65"
       id="linearGradient66"
       x1="-112.75478"
       y1="346.07953"
       x2="412.75491"
       y2="346.07953"
       gradientUnits="userSpaceOnUse"
       gradientTransform="matrix(0.40091246,0,0,2.7188039,-428.09028,-785.22459)" /><filter
       inkscape:collect="always"
       style="color-interpolation-filters:sRGB"
       id="filter74"
       x="-0.28280007"
       y="-0.14756473"
       width="1.5656001"
       height="1.2951295"><feGaussianBlur
         inkscape:collect="always"
         stdDeviation="24.825536"
         id="feGaussianBlur74" /></filter></defs><sodipodi:namedview
     id="namedview1"
     pagecolor="#505050"
     bordercolor="#ffffff"
     borderopacity="1"
     inkscape:showpageshadow="0"
     inkscape:pageopacity="0"
     inkscape:pagecheckerboard="1"
     inkscape:deskcolor="#505050"
     inkscape:zoom="10.437012"
     inkscape:cx="17.58166"
     inkscape:cy="36.840046"
     inkscape:window-width="1920"
     inkscape:window-height="1057"
     inkscape:window-x="-8"
     inkscape:window-y="-8"
     inkscape:window-maximized="1"
     inkscape:current-layer="g1" /><g
     inkscape:groupmode="layer"
     inkscape:label="Image"
     id="g1"
     transform="translate(3,3.2709997)"><path
       style="display:none;fill:#6ce272;fill-opacity:1;stroke:none;stroke-width:80;stroke-dasharray:none;paint-order:markers fill stroke"
       d="M 87.261904,0 C 0,150 83.467908,300 83.467908,300 H 0 V 0 Z"
       id="path41" /><rect
       style="display:inline;fill:#efefef;fill-opacity:0.17721519;stroke:none;stroke-width:80;stroke-dasharray:none;paint-order:markers fill stroke"
       id="rect21"
       width="300"
       height="300"
       x="0"
       y="0"
       ry="66.123047" /><rect
       style="display:inline;fill:url(#radialGradient31);fill-opacity:1;stroke:none;stroke-width:80;stroke-dasharray:none;paint-order:markers fill stroke"
       id="rect27"
       width="300"
       height="300"
       x="0"
       y="0"
       ry="66.123047" /><g
       id="g2"
       transform="matrix(1.3199689,0,0,1.3199689,27.100179,78.327827)"><path
         fill="#8e7650"
         d="m 56.721681,48.541548 21.189606,0.06232 10.968739,18.946003 -10.84409,18.696711 H 56.659356 L 45.752943,67.487547 Z"
         id="path1" /><g
         fill="#ffc200"
         id="g7"><path
           d="M 56.7219,0.01584202 77.911507,0.07816637 88.880246,19.02417 78.036156,37.720879 H 56.659576 L 45.753162,18.961846 Z"
           id="path2" /><path
           d="M 56.7219,97.294954 77.911507,97.357279 88.880246,116.30329 78.036156,135 H 56.659576 L 45.753162,116.24097 Z"
           id="path3" /><path
           d="m 98.666142,72.694267 21.189608,0.06232 10.96874,18.946004 -10.84409,18.696719 H 98.603817 L 87.697403,91.640271 Z"
           id="path4" /><path
           d="m 98.666356,24.329153 21.189604,0.06232 10.96874,18.946001 -10.84409,18.696715 H 98.604032 L 87.697618,43.275159 Z"
           id="path5" /><path
           d="m 14.946578,24.329157 21.1464,0.06232 10.94636,18.945997 -10.821965,18.696715 H 14.884381 L 4.0002036,43.275159 Z"
           id="path6" /><path
           d="M 14.968739,72.694267 36.158346,72.756587 47.12708,91.702591 36.282994,110.39931 H 14.906415 L 4,91.640276 Z"
           id="path7" /></g></g><g
       id="g3"
       transform="matrix(4.277108,0,0,4.277108,85.477514,11.139894)"><path
         d="m 38.288,10.297 1.414,1.415 -14.99,14.99 -1.414,-1.414 z"
         id="path1-0"
         style="fill:#000000;fill-opacity:0.837251;stroke:none;stroke-width:0.286175;stroke-dasharray:none;stroke-opacity:1" /><path
         d="M 40,20 H 38 V 12 H 30 V 10 H 40 Z"
         id="path2-9"
         style="fill:#000000;fill-opacity:0.837251;stroke:none;stroke-width:0.286175;stroke-dasharray:none;stroke-opacity:1" /><path
         d="M 35,38 H 15 c -1.7,0 -3,-1.3 -3,-3 V 15 c 0,-1.7 1.3,-3 3,-3 h 11 v 2 H 15 c -0.6,0 -1,0.4 -1,1 v 20 c 0,0.6 0.4,1 1,1 h 20 c 0.6,0 1,-0.4 1,-1 V 24 h 2 v 11 c 0,1.7 -1.3,3 -3,3 z"
         id="path3-4"
         style="fill:#000000;fill-opacity:0.837251;stroke:none;stroke-width:0.286175;stroke-dasharray:none;stroke-opacity:1" /></g><path
       id="rect41"
       style="display:inline;fill:url(#linearGradient53);stroke-width:80;paint-order:markers fill stroke"
       d="M 66.123047,0 C 29.490879,0 0,29.490879 0,66.123047 V 87.601562 A 222.05127,118.80795 0 0 0 150,118.80859 222.05127,118.80795 0 0 0 300,87.601562 V 66.123047 C 300,29.490879 270.50912,0 233.87695,0 Z" /><rect
       style="display:inline;fill:none;fill-opacity:1;stroke:#242424;stroke-width:6;stroke-linejoin:miter;stroke-dasharray:none;stroke-opacity:1;paint-order:normal"
       id="rect53"
       width="300"
       height="300"
       x="0"
       y="-0.2709997"
       ry="66.123047" /><ellipse
       style="display:none;mix-blend-mode:normal;fill:url(#linearGradient66);fill-opacity:0.911392;stroke:none;stroke-width:6.75181;stroke-linejoin:miter;stroke-dasharray:none;stroke-opacity:0;paint-order:normal;filter:url(#filter74)"
       id="path60"
       cx="-367.9534"
       cy="155.69798"
       rx="105.34171"
       ry="201.88187"
       transform="matrix(0,-0.18788994,0.79887191,0,31.31525,222.61639)" /></g></svg>
